<svg xmlns="http://www.w3.org/2000/svg" width="107" height="113" fill="none" xmlns:v="https://vecta.io/nano"><g clip-path="url(#A)"><path d="M81.25 27.167c.646 0 1.284.146 1.866.427a4.29 4.29 0 0 1 1.495 1.196l.318.463 12.875 21.458a4.29 4.29 0 0 1-.137 4.626l-.343.442-36.608 40.912c-.68.694-1.491 1.244-2.386 1.62a7.3 7.3 0 0 1-2.828.569c-1.717 0-3.369-.601-4.764-1.79l-.579-.541-36.479-40.771a4.29 4.29 0 0 1-.738-4.579l.258-.494 12.931-21.553.275-.386a4.22 4.22 0 0 1 .665-.661l.382-.275.378-.215.214-.099.258-.107.468-.137.481-.086.502-.021h51.5zM43.114 44.089a4.29 4.29 0 0 0-5.884 1.472l-2.575 4.292-.258.498a4.29 4.29 0 0 0 .76 4.592l8.583 9.442.386.378a4.29 4.29 0 0 0 5.678-.086l.373-.386a4.29 4.29 0 0 0-.086-5.678l-6.442-7.081.936-1.558.236-.442a4.29 4.29 0 0 0-1.708-5.442z" fill="#fff"/></g><g clip-path="url(#B)"><path d="M24.334 79c.125 0 .249.028.362.083s.212.134.29.232l.062.09 2.5 4.167c.082.137.123.294.118.453s-.055.314-.145.445l-.067.086-7.108 7.944c-.132.135-.29.242-.463.315s-.361.111-.549.11a1.41 1.41 0 0 1-.925-.347l-.113-.105-7.083-7.917c-.107-.119-.177-.266-.202-.424s-.005-.319.059-.466l.05-.096 2.511-4.185.053-.075c.038-.047.082-.091.129-.128l.074-.053.073-.042.042-.019.05-.021.091-.027.093-.017.098-.004h10zm-7.405 3.286c-.189-.113-.416-.147-.63-.093s-.398.19-.512.379l-.5.833-.05.097c-.064.147-.084.309-.058.468a.83.83 0 0 0 .205.424l1.667 1.833.075.073c.154.132.351.203.554.2s.398-.08.548-.217l.073-.075c.132-.154.203-.351.2-.554s-.08-.398-.217-.548l-1.251-1.375.182-.303.046-.086c.084-.186.096-.397.035-.591s-.192-.36-.367-.465z" fill="#fff"/></g><path d="M79.001 0c.188 0 .374.043.543.125a1.25 1.25 0 0 1 .435.35l.093.136 3.75 6.284a1.26 1.26 0 0 1-.04 1.355l-.1.129-10.663 11.98c-.198.203-.434.364-.695.474s-.541.167-.824.166a2.11 2.11 0 0 1-1.388-.524l-.169-.158L59.319 8.379a1.26 1.26 0 0 1-.303-.639c-.038-.238-.008-.481.088-.702l.075-.145L62.946.582l.08-.113a1.23 1.23 0 0 1 .194-.194l.111-.08.11-.063.063-.029.075-.031.136-.04.14-.025.146-.006h15zM67.893 4.955c-.284-.171-.624-.222-.946-.141a1.25 1.25 0 0 0-.768.572l-.75 1.257-.075.146c-.096.222-.126.467-.087.705a1.26 1.26 0 0 0 .308.64l2.5 2.765.113.111c.231.199.527.306.832.302s.597-.121.822-.327l.109-.113a1.26 1.26 0 0 0-.025-1.663l-1.876-2.074.273-.456.069-.129c.126-.281.144-.598.053-.892s-.287-.543-.55-.702z" fill="#fff"/><defs><clipPath id="A"><path fill="#fff" transform="translate(4 10)" d="M0 0h103v103H0z"/></clipPath><clipPath id="B"><path fill="#fff" transform="translate(0 62)" d="M0 0h37v37H0z"/></clipPath></defs></svg>