<svg xmlns="http://www.w3.org/2000/svg" width="14" height="14" fill="none" xmlns:v="https://vecta.io/nano"><path d="M13.234 3.355v6.512c0 1.856-1.506 3.366-3.364 3.366H6.423V9.138h1.663c.079 0 .147-.062.154-.147l.164-1.89c.007-.092-.068-.171-.164-.171H6.423V5.595a.57.57 0 0 1 .568-.568h1.283c.086 0 .154-.068.154-.164v-1.89c0-.086-.068-.154-.154-.154H6.115c-1.266 0-2.293 1.027-2.293 2.294V6.93h-1.15c-.086 0-.154.068-.154.164v1.88c0 .092.068.164.154.164h1.15v4.095h-.459C1.509 13.234 0 11.727 0 9.868V3.355C0 1.507 1.506 0 3.364 0h6.509c1.855 0 3.361 1.507 3.361 3.355z" fill="#39fcbf"/></svg>