<svg xmlns="http://www.w3.org/2000/svg" width="234" height="49" fill="none" xmlns:v="https://vecta.io/nano"><path d="M92.89 30.455c-2.432 0-4.444-.201-6.062-.594-1.609-.393-2.816-1.033-3.621-1.902S82 25.947 82 24.521c0-1.417.402-2.569 1.207-3.447s2.012-1.518 3.621-1.92 3.63-.604 6.062-.604c2.414 0 4.416.201 6.017.604s2.789 1.042 3.584 1.92 1.189 2.03 1.189 3.447-.403 2.569-1.189 3.438c-.795.869-1.993 1.509-3.584 1.902-1.6.393-3.603.594-6.017.594zm0-3.319c1.134 0 2.076-.091 2.844-.284s1.344-.485 1.737-.869a1.98 1.98 0 0 0 .594-1.454c0-.576-.192-1.07-.585-1.463s-.969-.695-1.728-.896-1.719-.302-2.862-.302c-1.134 0-2.085.101-2.871.302s-1.381.494-1.783.878c-.402.393-.604.878-.604 1.481a1.95 1.95 0 0 0 .594 1.454c.393.393.988.677 1.774.869.777.183 1.747.284 2.889.284zm21.716.916l-2.615-.046 5.769-9.116h6.072l-7.992 11.228h-5.175l-7.626-11.228h6.044l5.523 9.162zm24.077-1.977h5.404c-.137.887-.576 1.655-1.317 2.313s-1.82 1.161-3.228 1.527c-1.408.357-3.209.54-5.394.54-2.305 0-4.298-.183-5.971-.549s-2.963-.987-3.859-1.856-1.353-2.048-1.353-3.529c0-1.463.439-2.633 1.317-3.52.877-.878 2.148-1.509 3.812-1.893s3.685-.576 6.044-.576c2.323 0 4.225.21 5.706.622s2.569 1.079 3.274 2.003 1.042 2.176 1.005 3.749h-15.581c.074.393.293.768.65 1.097.356.338.914.604 1.673.814s1.765.311 3.036.311c1.316 0 2.395-.091 3.237-.274.868-.183 1.38-.439 1.545-.777zm-4.764-4.215c-1.618 0-2.853.174-3.703.53-.851.347-1.344.704-1.5 1.052h10.077c-.11-.393-.54-.759-1.281-1.088-.749-.329-1.947-.494-3.593-.494zm11.171-2.972h5.495v11.229h-5.495V18.888zm11.411 4.234c-.997 0-1.902.091-2.725.274s-1.527.402-2.112.649c-.576.256-1.015.503-1.307.741l-.046-1.097c.046-.32.164-.695.366-1.134a8.01 8.01 0 0 1 .804-1.353 7.21 7.21 0 0 1 1.235-1.308c.484-.402 1.051-.732 1.682-.988s1.335-.375 2.094-.375v4.59h.009zm24.836-.805l-12.389 5.34-.211-.988h12.738v3.438h-17.776v-3.438l12.298-5.34.211.988h-12.509v-3.438h17.638v3.438zm9.984 8.11c-1.645 0-3.118-.229-4.398-.695s-2.295-1.143-3.035-2.03-1.107-1.957-1.107-3.21c0-1.317.366-2.414 1.107-3.301s1.755-1.545 3.035-1.993 2.753-.668 4.398-.668c1.829 0 3.42.247 4.755.741s2.368 1.189 3.091 2.085a4.84 4.84 0 0 1 1.088 3.127c0 .887-.21 1.692-.622 2.414s-1.006 1.353-1.783 1.875c-.777.53-1.719.933-2.816 1.216-1.107.302-2.341.439-3.713.439zm2.058-3.475c1.161 0 2.222-.073 3.191-.22s1.746-.393 2.341-.741c.585-.348.878-.85.878-1.49 0-.658-.293-1.161-.878-1.509s-1.372-.594-2.341-.732-2.03-.21-3.191-.21c-1.555 0-2.762.201-3.621.603s-1.28 1.015-1.28 1.847a1.8 1.8 0 0 0 .576 1.353c.384.365.942.64 1.673.823s1.619.274 2.652.274zm6.419-8.065h5.495v11.229h-5.175l-.238-2.039-.082-2.313v-6.876zm6.913-4.579h5.495v15.809h-5.495V14.308zm19.43 4.581l-9.07 6.3.119-2.981 9.738 7.9h-6.959l-7.653-6.392 6.556-4.837h7.269v.009zM233.237 13v3.438h-5.815V13h5.815zm-5.66 5.889h5.496v11.229h-5.496V18.889z" fill="#0f1546"/><g fill="#75f7bb"><path d="M60.714 15.728s4.554 0 4.554 7.855c.055 3.621-.686 7.854-4.682 7.854m-56.03-.157s-4.554 0-4.554-7.854c-.055-3.621.686-7.854 4.682-7.854"/><path d="M52.495 3.859c-.027-.009-.064-.027-.091-.037l-.521-.201C45.921 1.28 39.429 0 32.626 0a52.57 52.57 0 0 0-19.247 3.621 19.95 19.95 0 0 0-.521.201c-.027.018-.064.027-.091.037a12.86 12.86 0 0 0-.805.357c-4.901 2.359-7.864 7.47-7.864 12.911v14.346c0 5.441 2.972 10.57 7.882 12.92.256.128.521.238.786.347.027.018.064.027.091.037a8.75 8.75 0 0 0 .521.201 52.55 52.55 0 0 0 19.247 3.63 52.6 52.6 0 0 0 19.257-3.63 19.74 19.74 0 0 0 .521-.201c.027-.009.064-.027.091-.037.265-.11.53-.229.786-.347 4.91-2.35 7.882-7.48 7.882-12.92V17.126c0-5.431-2.963-10.552-7.864-12.911-.265-.119-.53-.247-.805-.357zm1.042 27.952c-.265 3.191-2.853 5.742-6.053 5.943l-2.78.174c-5.532.357-18.626.357-24.167 0l-2.771-.174c-3.191-.201-5.797-2.752-6.053-5.943-.357-4.453-.357-10.57 0-15.023.256-3.182 2.853-5.742 6.053-5.943l2.771-.174c2.77-.174 7.425-.265 12.079-.265 4.663 0 9.317.091 12.079.265l2.78.174c3.191.21 5.788 2.761 6.053 5.943a104.28 104.28 0 0 1 .009 15.023zM43.463 16.634H21.985v5.23h9.317l-9.482 5.541v4.581h21.46v-5.258h-9.336l9.519-5.514v-4.581z"/></g></svg>