<svg xmlns="http://www.w3.org/2000/svg" width="212" height="55" fill="none" xmlns:v="https://vecta.io/nano"><rect x=".5" y=".5" width="211" height="53.963" rx="26.982" fill="url(#A)" stroke="#afffda"/><path d="M69.368 20.737h2.268v12.744h-2.268V20.737zm9.186 0h1.962l5.49 12.744h-2.592l-1.188-2.916H76.7l-1.152 2.916H73.01l5.544-12.744zm2.88 7.884l-1.962-5.184-1.998 5.184h3.96zm17.56-5.148a2.03 2.03 0 0 0-.972-.756c-.396-.168-.816-.252-1.26-.252a3.33 3.33 0 0 0-.774.09 2.2 2.2 0 0 0-.666.288c-.192.132-.348.306-.468.522-.12.204-.18.45-.18.738 0 .432.15.762.45.99s.672.426 1.116.594l1.458.486c.528.156 1.014.372 1.458.648s.816.642 1.116 1.098.45 1.062.45 1.818c0 .684-.126 1.284-.378 1.8-.252.504-.594.924-1.026 1.26-.42.336-.912.588-1.476.756a6.21 6.21 0 0 1-1.782.252c-.792 0-1.554-.132-2.286-.396s-1.362-.708-1.89-1.332l1.71-1.656a2.95 2.95 0 0 0 1.08.99 3.18 3.18 0 0 0 1.44.342 3 3 0 0 0 .792-.108 2.45 2.45 0 0 0 .72-.324c.216-.144.39-.324.522-.54.132-.228.198-.486.198-.774 0-.468-.15-.828-.45-1.08s-.672-.462-1.116-.63c-.444-.18-.93-.348-1.458-.504a6.37 6.37 0 0 1-1.458-.63 3.68 3.68 0 0 1-1.116-1.08c-.3-.456-.45-1.062-.45-1.818 0-.66.132-1.23.396-1.71a3.75 3.75 0 0 1 1.062-1.188c.444-.324.948-.564 1.512-.72a6.45 6.45 0 0 1 1.728-.234c.672 0 1.32.102 1.944.306.636.204 1.206.54 1.71 1.008l-1.656 1.746zm3.46 5.688c0-.684.12-1.302.36-1.854.252-.564.588-1.044 1.008-1.44s.918-.702 1.494-.918 1.188-.324 1.836-.324 1.26.108 1.836.324 1.074.522 1.494.918.75.876.99 1.44c.252.552.378 1.17.378 1.854s-.126 1.308-.378 1.872a4.27 4.27 0 0 1-.99 1.422c-.42.396-.918.702-1.494.918s-1.188.324-1.836.324-1.26-.108-1.836-.324-1.074-.522-1.494-.918-.756-.87-1.008-1.422c-.24-.564-.36-1.188-.36-1.872zm2.16 0a2.95 2.95 0 0 0 .162.972c.12.312.288.588.504.828a2.62 2.62 0 0 0 .81.576c.312.144.666.216 1.062.216s.75-.072 1.062-.216a2.41 2.41 0 0 0 .792-.576c.228-.24.396-.516.504-.828.12-.312.18-.636.18-.972s-.06-.66-.18-.972c-.108-.312-.276-.588-.504-.828a2.41 2.41 0 0 0-.792-.576c-.312-.144-.666-.216-1.062-.216s-.75.072-1.062.216a2.62 2.62 0 0 0-.81.576c-.216.24-.384.516-.504.828a2.95 2.95 0 0 0-.162.972zm9.294-9.288h2.16v13.608h-2.16V19.873zm12.524 13.608h-2.052v-1.386h-.036c-.204.432-.516.81-.936 1.134-.42.312-.99.468-1.71.468-.576 0-1.068-.09-1.476-.27-.396-.192-.72-.444-.972-.756a3.03 3.03 0 0 1-.54-1.098c-.108-.408-.162-.834-.162-1.278v-5.454h2.16v4.374l.036.81c.024.288.084.564.18.828.108.252.264.468.468.648.216.168.516.252.9.252.36 0 .66-.06.9-.18.252-.12.456-.282.612-.486a1.86 1.86 0 0 0 .36-.702c.072-.264.108-.54.108-.828v-4.716h2.16v8.64zm1.444-6.804v-1.836h1.782v-2.502h2.16v2.502h2.376v1.836h-2.376v3.78c0 .432.078.774.234 1.026.168.252.492.378.972.378a4.06 4.06 0 0 0 .63-.054c.228-.048.408-.12.54-.216v1.818c-.228.108-.51.18-.846.216a5.97 5.97 0 0 1-.864.072c-.576 0-1.05-.066-1.422-.198-.36-.12-.648-.306-.864-.558-.204-.264-.348-.588-.432-.972-.072-.384-.108-.828-.108-1.332v-3.96h-1.782zm8.058-1.836h2.16v8.64h-2.16v-8.64zm-.306-2.934a1.23 1.23 0 0 1 .378-.9c.264-.264.594-.396.99-.396s.726.126.99.378a1.16 1.16 0 0 1 .414.918c0 .372-.138.684-.414.936-.264.24-.594.36-.99.36s-.726-.126-.99-.378a1.29 1.29 0 0 1-.378-.918zm4.514 7.254c0-.684.12-1.302.36-1.854.252-.564.588-1.044 1.008-1.44s.918-.702 1.494-.918 1.188-.324 1.836-.324 1.26.108 1.836.324 1.074.522 1.494.918.75.876.99 1.44c.252.552.378 1.17.378 1.854s-.126 1.308-.378 1.872a4.27 4.27 0 0 1-.99 1.422c-.42.396-.918.702-1.494.918s-1.188.324-1.836.324-1.26-.108-1.836-.324-1.074-.522-1.494-.918-.756-.87-1.008-1.422c-.24-.564-.36-1.188-.36-1.872zm2.16 0a2.95 2.95 0 0 0 .162.972c.12.312.288.588.504.828a2.62 2.62 0 0 0 .81.576c.312.144.666.216 1.062.216s.75-.072 1.062-.216a2.41 2.41 0 0 0 .792-.576c.228-.24.396-.516.504-.828.12-.312.18-.636.18-.972s-.06-.66-.18-.972c-.108-.312-.276-.588-.504-.828a2.41 2.41 0 0 0-.792-.576c-.312-.144-.666-.216-1.062-.216s-.75.072-1.062.216a2.62 2.62 0 0 0-.81.576c-.216.24-.384.516-.504.828a2.95 2.95 0 0 0-.162.972zm9.258-4.32h2.052v1.386h.036c.204-.432.516-.804.936-1.116.42-.324.99-.486 1.71-.486.576 0 1.062.096 1.458.288.408.192.738.444.99.756a2.86 2.86 0 0 1 .54 1.08c.108.408.162.834.162 1.278v5.454h-2.16v-4.374l-.036-.792c-.024-.3-.09-.576-.198-.828-.096-.264-.252-.48-.468-.648-.216-.18-.51-.27-.882-.27-.36 0-.666.06-.918.18a1.86 1.86 0 0 0-.612.486c-.156.204-.27.438-.342.702s-.108.54-.108.828v4.716h-2.16v-8.64z" fill="#2ad9a3"/><g stroke="#1ecb95"><path d="M32.051 29.731l-2.295-2.35-5.001 5.434c-.511.565.099 1.448.8 1.149l6.212-2.721c.136-.059.256-.152.349-.271a.94.94 0 0 0 .184-.408.96.96 0 0 0-.023-.449c-.043-.145-.121-.278-.226-.385h.001zm-3.899-5.091l2.295 2.741 5.001-6.34c.511-.659-.099-1.69-.8-1.341l-6.212 3.176a.94.94 0 0 0-.349.316 1.19 1.19 0 0 0-.184.476 1.29 1.29 0 0 0 .024.524 1.14 1.14 0 0 0 .226.449v-.001z" stroke-linejoin="round"/><circle cx="30.1" cy="27.482" r="15.204"/></g><defs><linearGradient id="A" x1="122.358" y1="43.185" x2="123.667" y2="-41.876" gradientUnits="userSpaceOnUse"><stop stop-color="#fff"/><stop stop-color="#36f9bd" stop-opacity="0"/><stop offset=".932" stop-color="#36f9bd" stop-opacity=".33"/></linearGradient></defs></svg>