<svg xmlns="http://www.w3.org/2000/svg" width="13" height="14" fill="#39fcbf" xmlns:v="https://vecta.io/nano"><path d="M9.694.552H3.457A3.23 3.23 0 0 0 .234 3.774v6.237a3.23 3.23 0 0 0 3.222 3.223h6.237a3.23 3.23 0 0 0 3.223-3.222V3.774c0-1.78-1.447-3.223-3.223-3.223zM6.64 10.739c-2.122 0-3.846-1.728-3.846-3.846S4.522 3.047 6.64 3.047s3.846 1.728 3.846 3.846-1.724 3.846-3.846 3.846zm4.071-7.038c-.507 0-.914-.411-.914-.914a.92.92 0 0 1 .914-.918c.507 0 .914.411.914.918a.91.91 0 0 1-.914.914zm-4.136.711c-1.369 0-2.481 1.112-2.481 2.481s1.112 2.481 2.481 2.481 2.481-1.112 2.481-2.481-1.112-2.481-2.481-2.481z"/></svg>