<svg xmlns="http://www.w3.org/2000/svg" xmlns:xlink="http://www.w3.org/1999/xlink" width="375" height="779" fill="none" xmlns:v="https://vecta.io/nano"><g stroke="#1bfcb6" stroke-width="3"><path d="M160.429 604.27h10.042m-10.042 10.042h44.187m-44.187 8.034h44.187m-44.187 8.034h44.187m-56.237 40.17v-78.365a8 8 0 0 1 8-8h44.924a8 8 0 0 1 5.657 2.343l9.373 9.373a8 8 0 0 1 2.343 5.657v68.992m-.001-36.153h28.189c5.118 0 8.919 4.74 7.809 9.736l-5.87 26.417m-102.435-36.153H118.18c-5.118 0-8.92 4.74-7.809 9.736l5.87 26.417M130.304 777v-26.145a8 8 0 0 1 8-8h90.45a8 8 0 0 1 8 8V777M92.141 732.813h184.781m-40.17-23.097h0a5.02 5.02 0 0 1-5.021 5.021h-96.407c-2.774 0-5.022-2.248-5.022-5.021h0c0-2.774 2.248-5.022 5.022-5.022h96.407c2.773 0 5.021 2.248 5.021 5.022z"/><path d="M92.141 769v-90.45a8 8 0 0 1 8-8h168.781a8 8 0 0 1 8 8V769a8 8 0 0 1-8 8H100.141a8 8 0 0 1-8-8z"/><circle cx="232.737" cy="686.617" r="6.534"/></g><g stroke="#75f7bb" stroke-linejoin="round"><path d="M46.978 296.523h280.917" stroke-width="3" stroke-linecap="round"/><path d="M78.19 109.245c0-4.139 1.644-8.108 4.571-11.035s6.896-4.571 11.035-4.571h187.278a15.61 15.61 0 0 1 15.607 15.606v124.852a15.61 15.61 0 0 1-15.607 15.607H93.796a15.61 15.61 0 0 1-15.607-15.607V109.245z" stroke-width="3"/></g><path d="M170.963 107.358h-70.776c-7.18 0-13 5.82-13 13v104.545c0 7.18 5.82 13 13 13h70.776c7.18 0 13-5.82 13-13V120.358c0-7.18-5.82-13-13-13z" fill="#fff"/><g stroke="#000"><path d="M94.602 154.099h82.156m-82.156 13.59h82.156"/><path d="M94.602 182.514h82.156" stroke-dasharray="9 9"/><path d="M94.602 198.575h82.156"/></g><rect x="94.19" y="119.094" width="75.362" height="3.706" rx="1.853" fill="url(#A)"/><rect x="94.19" y="128.155" width="47.77" height="3.706" rx="1.853" fill="url(#B)"/><rect x="94.19" y="145.451" width="34.592" height="3.706" rx="1.853" fill="url(#C)"/><rect x="94.19" y="159.041" width="34.592" height="3.706" rx="1.853" fill="url(#D)"/><rect x="94.19" y="189.927" width="34.592" height="3.706" rx="1.853" fill="url(#E)"/><rect x="94.19" y="172.631" width="34.592" height="3.706" rx="1.853" fill="url(#F)"/><rect x="94.19" y="203.517" width="34.592" height="3.706" rx="1.853" fill="url(#G)"/><rect x="124.251" y="218.342" width="23.062" height="2.471" rx="1.235" fill="url(#H)"/><rect x="129.602" y="223.284" width="12.766" height="2.471" rx="1.235" fill="url(#I)"/><rect x="158.021" y="145.451" width="18.943" height="3.706" rx="1.853" fill="url(#J)"/><rect x="158.021" y="159.041" width="18.943" height="3.706" rx="1.853" fill="url(#K)"/><rect x="158.021" y="189.927" width="18.943" height="3.706" rx="1.853" fill="url(#L)"/><rect x="158.021" y="172.631" width="18.943" height="3.706" rx="1.853" fill="url(#M)"/><rect x="158.021" y="203.517" width="18.943" height="3.706" rx="1.853" fill="url(#N)"/><path d="M272.953 107.358h-70.777c-7.179 0-13 5.82-13 13v104.545c0 7.18 5.821 13 13 13h70.777c7.179 0 13-5.82 13-13V120.358c0-7.18-5.821-13-13-13z" fill="#fff"/><g stroke="#000"><path d="M196.591 154.099h82.157m-82.157 13.59h82.157"/><path d="M196.591 182.514h82.157" stroke-dasharray="9 9"/><path d="M196.591 198.575h82.157"/></g><rect x="196.179" y="119.094" width="75.362" height="3.706" rx="1.853" fill="url(#O)"/><rect x="196.179" y="128.155" width="47.77" height="3.706" rx="1.853" fill="url(#P)"/><rect x="196.179" y="145.451" width="34.592" height="3.706" rx="1.853" fill="url(#Q)"/><rect x="196.179" y="159.041" width="34.592" height="3.706" rx="1.853" fill="url(#R)"/><rect x="196.179" y="189.927" width="34.592" height="3.706" rx="1.853" fill="url(#S)"/><rect x="196.179" y="172.63" width="34.592" height="3.706" rx="1.853" fill="url(#T)"/><rect x="196.179" y="203.517" width="34.592" height="3.706" rx="1.853" fill="url(#U)"/><rect x="226.24" y="218.342" width="23.062" height="2.471" rx="1.235" fill="url(#V)"/><rect x="231.591" y="223.284" width="12.766" height="2.471" rx="1.235" fill="url(#W)"/><rect x="260.01" y="145.451" width="18.943" height="3.706" rx="1.853" fill="url(#X)"/><rect x="260.01" y="159.041" width="18.943" height="3.706" rx="1.853" fill="url(#Y)"/><rect x="260.01" y="189.927" width="18.943" height="3.706" rx="1.853" fill="url(#Z)"/><rect x="260.01" y="172.63" width="18.943" height="3.706" rx="1.853" fill="url(#a)"/><rect x="260.01" y="203.517" width="18.943" height="3.706" rx="1.853" fill="url(#b)"/><g stroke-width="3"><path d="M184.429 400.218v-84.064m0 255.239v-84.064" stroke="#75f7bb" stroke-linecap="round" stroke-dasharray="14 14"/><g stroke="#1bfcb6" fill="#0f1546"><rect x="157.603" y="414.511" width="48.549" height="47.879" rx="6.5"/><rect x="167.645" y="424.553" width="48.549" height="47.879" rx="6.5"/></g><g stroke="#75f7bb" stroke-linecap="round"><path d="M182.211 447.823h20.084"/><path d="M192.253 457.866v-20.084"/></g></g><defs><linearGradient id="A" x1="95.631" y1="120.742" x2="158.639" y2="120.742" xlink:href="#c"><stop stop-color="#0f1546"/><stop offset="1" stop-color="#fff" stop-opacity="0"/></linearGradient><linearGradient id="B" x1="95.104" y1="129.802" x2="135.043" y2="129.802" xlink:href="#c"><stop stop-color="#0f1546"/><stop offset="1" stop-color="#fff" stop-opacity="0"/></linearGradient><linearGradient id="C" x1="94.852" y1="147.098" x2="123.773" y2="147.098" xlink:href="#c"><stop stop-color="#0f1546"/><stop offset="1" stop-color="#fff" stop-opacity="0"/></linearGradient><linearGradient id="D" x1="94.852" y1="160.688" x2="123.773" y2="160.688" xlink:href="#c"><stop stop-color="#0f1546"/><stop offset="1" stop-color="#fff" stop-opacity="0"/></linearGradient><linearGradient id="E" x1="94.852" y1="191.574" x2="123.773" y2="191.574" xlink:href="#c"><stop stop-color="#0f1546"/><stop offset="1" stop-color="#fff" stop-opacity="0"/></linearGradient><linearGradient id="F" x1="94.852" y1="174.278" x2="123.773" y2="174.278" xlink:href="#c"><stop stop-color="#0f1546"/><stop offset="1" stop-color="#fff" stop-opacity="0"/></linearGradient><linearGradient id="G" x1="94.852" y1="205.164" x2="123.773" y2="205.164" xlink:href="#c"><stop stop-color="#0f1546"/><stop offset="1" stop-color="#fff" stop-opacity="0"/></linearGradient><linearGradient id="H" x1="124.692" y1="219.44" x2="143.973" y2="219.44" xlink:href="#c"><stop stop-color="#0f1546"/><stop offset="1" stop-color="#fff" stop-opacity="0"/></linearGradient><linearGradient id="I" x1="129.846" y1="224.382" x2="140.52" y2="224.382" xlink:href="#c"><stop stop-color="#0f1546"/><stop offset="1" stop-color="#fff" stop-opacity="0"/></linearGradient><linearGradient id="J" x1="158.383" y1="147.098" x2="174.221" y2="147.098" xlink:href="#c"><stop stop-color="#0f1546"/><stop offset="1" stop-color="#fff" stop-opacity="0"/></linearGradient><linearGradient id="K" x1="158.383" y1="160.688" x2="174.221" y2="160.688" xlink:href="#c"><stop stop-color="#0f1546"/><stop offset="1" stop-color="#fff" stop-opacity="0"/></linearGradient><linearGradient id="L" x1="158.383" y1="191.574" x2="174.221" y2="191.574" xlink:href="#c"><stop stop-color="#0f1546"/><stop offset="1" stop-color="#fff" stop-opacity="0"/></linearGradient><linearGradient id="M" x1="158.383" y1="174.278" x2="174.221" y2="174.278" xlink:href="#c"><stop stop-color="#0f1546"/><stop offset="1" stop-color="#fff" stop-opacity="0"/></linearGradient><linearGradient id="N" x1="158.383" y1="205.164" x2="174.221" y2="205.164" xlink:href="#c"><stop stop-color="#0f1546"/><stop offset="1" stop-color="#fff" stop-opacity="0"/></linearGradient><linearGradient id="O" x1="197.621" y1="120.742" x2="260.628" y2="120.742" xlink:href="#c"><stop stop-color="#0f1546"/><stop offset="1" stop-color="#fff" stop-opacity="0"/></linearGradient><linearGradient id="P" x1="197.093" y1="129.802" x2="237.032" y2="129.802" xlink:href="#c"><stop stop-color="#0f1546"/><stop offset="1" stop-color="#fff" stop-opacity="0"/></linearGradient><linearGradient id="Q" x1="196.841" y1="147.098" x2="225.762" y2="147.098" xlink:href="#c"><stop stop-color="#0f1546"/><stop offset="1" stop-color="#fff" stop-opacity="0"/></linearGradient><linearGradient id="R" x1="196.841" y1="160.688" x2="225.762" y2="160.688" xlink:href="#c"><stop stop-color="#0f1546"/><stop offset="1" stop-color="#fff" stop-opacity="0"/></linearGradient><linearGradient id="S" x1="196.841" y1="191.574" x2="225.762" y2="191.574" xlink:href="#c"><stop stop-color="#0f1546"/><stop offset="1" stop-color="#fff" stop-opacity="0"/></linearGradient><linearGradient id="T" x1="196.841" y1="174.278" x2="225.762" y2="174.278" xlink:href="#c"><stop stop-color="#0f1546"/><stop offset="1" stop-color="#fff" stop-opacity="0"/></linearGradient><linearGradient id="U" x1="196.841" y1="205.164" x2="225.762" y2="205.164" xlink:href="#c"><stop stop-color="#0f1546"/><stop offset="1" stop-color="#fff" stop-opacity="0"/></linearGradient><linearGradient id="V" x1="226.681" y1="219.44" x2="245.962" y2="219.44" xlink:href="#c"><stop stop-color="#0f1546"/><stop offset="1" stop-color="#fff" stop-opacity="0"/></linearGradient><linearGradient id="W" x1="231.835" y1="224.382" x2="242.509" y2="224.382" xlink:href="#c"><stop stop-color="#0f1546"/><stop offset="1" stop-color="#fff" stop-opacity="0"/></linearGradient><linearGradient id="X" x1="260.373" y1="147.098" x2="276.211" y2="147.098" xlink:href="#c"><stop stop-color="#0f1546"/><stop offset="1" stop-color="#fff" stop-opacity="0"/></linearGradient><linearGradient id="Y" x1="260.373" y1="160.688" x2="276.211" y2="160.688" xlink:href="#c"><stop stop-color="#0f1546"/><stop offset="1" stop-color="#fff" stop-opacity="0"/></linearGradient><linearGradient id="Z" x1="260.373" y1="191.574" x2="276.211" y2="191.574" xlink:href="#c"><stop stop-color="#0f1546"/><stop offset="1" stop-color="#fff" stop-opacity="0"/></linearGradient><linearGradient id="a" x1="260.373" y1="174.278" x2="276.211" y2="174.278" xlink:href="#c"><stop stop-color="#0f1546"/><stop offset="1" stop-color="#fff" stop-opacity="0"/></linearGradient><linearGradient id="b" x1="260.373" y1="205.164" x2="276.211" y2="205.164" xlink:href="#c"><stop stop-color="#0f1546"/><stop offset="1" stop-color="#fff" stop-opacity="0"/></linearGradient><linearGradient id="c" gradientUnits="userSpaceOnUse"/></defs></svg>