<svg xmlns="http://www.w3.org/2000/svg" xmlns:xlink="http://www.w3.org/1999/xlink" width="610" height="463" fill="none" xmlns:v="https://vecta.io/nano"><style><![CDATA[.B{fill:#75f7bb}.C{color-interpolation-filters:sRGB}]]></style><path d="M530.481 288.079v.557c0 42.987-23.459 83.504-62.275 102.05a130.09 130.09 0 0 1-6.225 2.772c-.254.109-.508.23-.763.302a127.19 127.19 0 0 1-4.093 1.574C410.013 413.819 358.687 424 304.975 424c-53.664 0-104.99-10.181-152.114-28.666-1.38-.508-2.7-1.017-4.093-1.574-.255-.072-.485-.193-.739-.302a116.59 116.59 0 0 1-6.237-2.772c-38.804-18.534-62.275-59.063-62.275-102.05v-1.937c-9.047-1.864-32.494-11.525-32.494-61.593-.436-27.383 4.978-59.208 33.123-61.884 3.924-38.302 26.45-73.045 61.512-89.895 2.083-1.017 4.214-1.949 6.37-2.821.254-.073.484-.194.739-.327l4.093-1.574C199.985 50.12 251.311 40 304.975 40c53.712 0 105.038 10.132 152.15 28.605a128.61 128.61 0 0 1 4.093 1.574c.255.121.509.254.763.327 2.156.872 4.276 1.804 6.371 2.821 35.461 17.057 58.096 52.429 61.62 91.251 8.648 1.61 33.003 10.665 33.003 61.702.448 27.189-4.869 58.748-32.494 61.799z" fill="#0f1546"/><g class="B"><use xlink:href="#E"/><use xlink:href="#F"/><use xlink:href="#G"/></g><g style="mix-blend-mode:hard-light" filter="url(#A)" class="B"><use xlink:href="#E"/><use xlink:href="#F"/><use xlink:href="#G"/></g><g style="mix-blend-mode:hard-light" filter="url(#A)" class="B"><use xlink:href="#E"/><use xlink:href="#F"/><use xlink:href="#G"/></g><use xlink:href="#H" stroke="url(#C)" stroke-width="16"/><g filter="url(#B)"><use xlink:href="#H" stroke="url(#D)" stroke-width="16"/></g><defs><filter id="A" x="196" y="101" width="222.494" height="263.187" filterUnits="userSpaceOnUse" class="C"><feFlood flood-opacity="0"/><feBlend in="SourceGraphic"/><feGaussianBlur stdDeviation="20"/></filter><filter id="B" x=".059" y=".461" width="609.942" height="466.288" filterUnits="userSpaceOnUse" class="C"><feFlood flood-opacity="0"/><feBlend in="SourceGraphic" result="B"/><feColorMatrix in="SourceAlpha" values="0 0 0 0 0 0 0 0 0 0 0 0 0 0 0 0 0 0 127 0" result="C"/><feOffset dy="4"/><feGaussianBlur stdDeviation="9"/><feComposite in2="C" operator="arithmetic" k2="-1" k3="1"/><feColorMatrix values="0 0 0 0 0.858333 0 0 0 0 0.864 0 0 0 0 1 0 0 0 0.25 0"/><feBlend in2="B"/></filter><radialGradient id="C" cx="0" cy="0" r="1" gradientUnits="userSpaceOnUse" gradientTransform="translate(16 232) scale(647 869.017)"><stop stop-color="#0020ff"/><stop offset=".786" stop-color="#3d4477"/><stop offset="1" stop-color="#4857d1" stop-opacity=".75"/></radialGradient><radialGradient id="D" cx="0" cy="0" r="1" gradientUnits="userSpaceOnUse" gradientTransform="matrix(951,0,0,1277.33,-288,232)"><stop stop-color="#101747"/><stop offset=".786" stop-color="#3d4477"/><stop offset="1" stop-color="#2037f0" stop-opacity=".75"/></radialGradient><path id="E" d="M313.305 324.069c-26.935 0-48.739-6.242-68.663-18.897-5.216-3.335-8.807-7.61-8.636-14.28.342-11.715 11.287-18.726 21.89-13.681 8.38 3.933 16.246 8.722 25.139 11.543 23.515 7.354 45.832 4.874 66.953-7.866 2.48-1.539 5.045-2.993 7.781-4.019 6.67-2.651 14.023-.342 17.871 5.387 4.019 5.985 3.592 14.109-1.368 19.325-7.268 7.524-16.674 11.458-26.08 15.305-12.057 4.874-24.797 7.953-34.887 7.183z"/><path id="F" d="M271.321 182.041v23.6c-.171 9.063-5.9 14.878-14.536 15.391-10.945.599-18.555-4.104-18.897-13.681-.684-17.529-.599-35.144 0-52.587.342-8.893 8.038-14.024 17.786-13.596 8.978.427 14.878 5.9 15.647 14.622 0 .427.086.94.086 1.368l-.086 24.883z"/><path id="G" d="M378.29 179.133c0 10.261.342 17.871-.085 25.567-.77 14.023-13.938 21.12-26.422 14.451-5.045-2.736-7.268-7.097-7.268-12.741l.085-49.936c.086-8.466 5.473-14.451 13.254-15.306 10.09-1.112 17.615 3.335 19.667 12.313 1.966 9.32.256 18.812.769 25.652z"/><path id="H" d="M126.693 43.0018L126.415 43.1475L126.216 43.2279C123.673 44.2568 121.118 45.373 118.592 46.6056C78.505 65.8903 52.3144 104.596 45.9877 147.621C30.3428 151.304 20.7081 162.462 15.2317 175.785C9.22247 190.404 7.84092 208.265 8.08597 223.944C8.09592 253.177 14.951 271.81 24.1898 283.583C30.8688 292.094 38.4261 296.552 44.532 298.876C45.8792 348.438 73.4557 394.974 118.77 416.632C121.176 417.791 123.62 418.872 126.085 419.888C126.094 419.892 126.105 419.897 126.12 419.903C126.164 419.923 126.293 419.982 126.423 420.039C126.614 420.123 126.925 420.255 127.319 420.39C128.825 420.991 130.273 421.548 131.783 422.105C185.456 443.158 243.907 454.749 305.002 454.749C366.147 454.749 424.595 443.159 478.251 422.109C479.777 421.551 481.23 420.992 482.729 420.39C483.057 420.278 483.325 420.17 483.505 420.095C483.646 420.036 483.771 419.981 483.849 419.947L483.914 419.919C483.943 419.906 483.962 419.898 483.978 419.891C486.412 418.877 488.857 417.797 491.278 416.637C535.935 395.291 563.353 349.825 565.449 301.093C580.453 297.069 589.7 286.013 594.982 272.965C600.873 258.414 602.224 240.702 601.972 225.131C601.962 195.33 594.84 176.546 585.338 164.82C578.351 156.196 570.489 151.898 564.358 149.765C558.598 105.894 532.213 66.2128 491.473 46.6022C488.951 45.378 486.415 44.263 483.856 43.2279L483.508 43.0875C483.487 43.0771 483.464 43.0662 483.44 43.0549L483.221 42.9503L482.995 42.8591C481.4 42.2157 479.866 41.6238 478.251 41.0328C424.59 19.9947 366.142 8.46094 305.002 8.46094C243.913 8.46094 185.462 19.9823 131.784 41.037C130.192 41.6244 128.668 42.2118 127.072 42.8501L126.693 43.0018Z"/></defs></svg>