<svg width="14" height="14" viewBox="0 0 14 14" fill="none" xmlns="http://www.w3.org/2000/svg">
<path d="M13.2335 3.35545V9.86777C13.2335 11.7235 11.7277 13.2335 9.86951 13.2335H6.42339V9.13847H8.08656C8.16527 9.13847 8.23371 9.07684 8.24056 8.99124L8.40482 7.10123C8.41167 7.00878 8.33638 6.93003 8.24056 6.93003H6.42339V5.5947C6.42339 5.28312 6.68005 5.02633 6.99147 5.02633H8.27478C8.36033 5.02633 8.42878 4.95785 8.42878 4.86198V2.97197C8.42878 2.88637 8.36033 2.81789 8.27478 2.81789H6.1154C4.8492 2.81789 3.82255 3.84507 3.82255 5.11193V6.93003H2.67271C2.58715 6.93003 2.51871 6.99851 2.51871 7.09438V8.97412C2.51871 9.06657 2.58715 9.13847 2.67271 9.13847H3.82255V13.2335H3.36398C1.50917 13.2335 0 11.727 0 9.86777V3.35545C0 1.50653 1.50575 0 3.36398 0H9.87293C11.7277 0 13.2335 1.50653 13.2335 3.35545Z" fill="#39FCBF"/>
</svg>
