<svg xmlns="http://www.w3.org/2000/svg" width="320" height="486" fill="none" xmlns:v="https://vecta.io/nano"><style><![CDATA[.B{stroke:#1bfcb6}.C{fill:#1bfcb6}.D{stroke:#c9cbdd}.E{stroke-width:3}]]></style><path d="M15 105h294" class="D"/><path d="M11.446 261.942l146.155-29.474 147.372-43.148" class="B E"/><g class="D"><path d="M10 277h297"/><path d="M10.534 172v127.924M157.601 172v127.924"/></g><circle cx="10.229" cy="262.246" r="9.527" class="B"/><circle cx="10.229" cy="262.246" r="2.735" class="C"/><circle cx="157.296" cy="233.075" r="9.527" class="B"/><circle cx="157.296" cy="233.075" r="2.735" class="C"/><circle cx="157.296" cy="433.027" r="9.527" class="B"/><circle cx="157.296" cy="433.027" r="2.735" class="C"/><circle cx="302.027" cy="340.027" r="9.527" class="B"/><circle cx="302.027" cy="340.027" r="2.735" class="C"/><path d="M11.446 444.942L158 432.5l145-93" class="B E"/><g fill="#000"><path d="M67.233 292.637c-.16-.232-.376-.4-.648-.504a2.13 2.13 0 0 0-.84-.168 2.22 2.22 0 0 0-.516.06c-.16.04-.308.104-.444.192a1.01 1.01 0 0 0-.312.348c-.08.136-.12.3-.12.492 0 .288.1.508.3.66a2.95 2.95 0 0 0 .744.396l.972.324a3.95 3.95 0 0 1 .972.432c.296.184.544.428.744.732s.3.708.3 1.212c0 .456-.084.856-.252 1.2a2.42 2.42 0 0 1-.684.84c-.28.224-.608.392-.984.504a4.14 4.14 0 0 1-1.188.168c-.528 0-1.036-.088-1.524-.264s-.908-.472-1.26-.888l1.14-1.104a1.97 1.97 0 0 0 .72.66 2.12 2.12 0 0 0 .96.228 2 2 0 0 0 .528-.072c.176-.048.336-.12.48-.216a1.15 1.15 0 0 0 .348-.36 1.01 1.01 0 0 0 .132-.516c0-.312-.1-.552-.3-.72s-.448-.308-.744-.42c-.296-.12-.62-.232-.972-.336s-.676-.244-.972-.42c-.296-.184-.544-.424-.744-.72-.2-.304-.3-.708-.3-1.212 0-.44.088-.82.264-1.14a2.5 2.5 0 0 1 .708-.792 3.09 3.09 0 0 1 1.008-.48 4.3 4.3 0 0 1 1.152-.156c.448 0 .88.068 1.296.204a3.01 3.01 0 0 1 1.14.672l-1.104 1.164zm1.923 2.136v-1.224h1.188v-1.668h1.44v1.668h1.584v1.224h-1.584v2.52c0 .288.052.516.156.684.112.168.328.252.648.252.128 0 .268-.012.42-.036a.94.94 0 0 0 .36-.144v1.212c-.152.072-.34.12-.564.144a3.98 3.98 0 0 1-.576.048c-.384 0-.7-.044-.948-.132-.24-.08-.432-.204-.576-.372-.136-.176-.232-.392-.288-.648-.048-.256-.072-.552-.072-.888v-2.64h-1.188zm6.488 2.16c.048.432.216.768.504 1.008s.636.36 1.044.36c.36 0 .66-.072.9-.216a2.57 2.57 0 0 0 .648-.564l1.032.78c-.336.416-.712.712-1.128.888s-.852.264-1.308.264c-.432 0-.84-.072-1.224-.216s-.716-.348-.996-.612a3 3 0 0 1-.672-.948c-.16-.376-.24-.792-.24-1.248s.08-.868.24-1.236c.168-.376.392-.696.672-.96s.612-.468.996-.612.792-.216 1.224-.216c.4 0 .764.072 1.092.216a2.23 2.23 0 0 1 .852.6c.24.264.424.592.552.984.136.384.204.828.204 1.332v.396h-4.392zm2.952-1.08c-.008-.424-.14-.756-.396-.996-.256-.248-.612-.372-1.068-.372-.432 0-.776.124-1.032.372-.248.248-.4.58-.456.996h2.952zm2.787-2.304h1.368v.864h.024c.208-.352.488-.608.84-.768s.732-.24 1.14-.24a2.84 2.84 0 0 1 1.188.24 2.59 2.59 0 0 1 .9.636c.248.272.436.592.564.96a3.59 3.59 0 0 1 .192 1.188 3.4 3.4 0 0 1-.204 1.188 2.9 2.9 0 0 1-.576.96c-.24.272-.532.488-.876.648a2.76 2.76 0 0 1-1.128.228 2.78 2.78 0 0 1-.72-.084 2.48 2.48 0 0 1-.552-.216c-.16-.088-.296-.18-.408-.276a2.3 2.3 0 0 1-.276-.3h-.036v3.468h-1.44v-8.496zm4.776 2.88a1.79 1.79 0 0 0-.12-.648 1.51 1.51 0 0 0-.336-.552c-.144-.16-.32-.288-.528-.384a1.67 1.67 0 0 0-.708-.144 1.67 1.67 0 0 0-.708.144c-.208.096-.388.224-.54.384-.144.16-.256.344-.336.552-.072.208-.108.424-.108.648s.036.44.108.648c.08.208.192.392.336.552.152.16.332.288.54.384a1.67 1.67 0 0 0 .708.144 1.67 1.67 0 0 0 .708-.144c.208-.096.384-.224.528-.384a1.51 1.51 0 0 0 .336-.552 1.79 1.79 0 0 0 .12-.648zm5.997-1.368c0-.672.052-1.244.156-1.716.112-.48.256-.88.432-1.2.176-.328.372-.588.588-.78.224-.2.448-.348.672-.444.232-.104.452-.172.66-.204.216-.032.404-.048.564-.048a3.68 3.68 0 0 1 .552.048c.216.032.436.1.66.204.232.096.456.244.672.444.224.192.424.452.6.78.176.32.316.72.42 1.2.112.472.168 1.044.168 1.716s-.056 1.248-.168 1.728c-.104.472-.244.872-.42 1.2-.176.32-.376.58-.6.78-.216.192-.44.34-.672.444a2.67 2.67 0 0 1-.66.192 3.68 3.68 0 0 1-.552.048c-.16 0-.348-.016-.564-.048a2.88 2.88 0 0 1-.66-.192c-.224-.104-.448-.252-.672-.444-.216-.2-.412-.46-.588-.78-.176-.328-.32-.728-.432-1.2-.104-.48-.156-1.056-.156-1.728zm1.44 0a10.37 10.37 0 0 0 .048.924 4.41 4.41 0 0 0 .228.984 2.11 2.11 0 0 0 .492.792c.216.216.504.324.864.324s.648-.108.864-.324a2.11 2.11 0 0 0 .492-.792c.112-.312.184-.64.216-.984l.06-.924c0-.264-.02-.568-.06-.912a4.01 4.01 0 0 0-.216-.996 2.11 2.11 0 0 0-.492-.792c-.216-.216-.504-.324-.864-.324s-.648.108-.864.324a2.11 2.11 0 0 0-.492.792c-.112.312-.188.644-.228.996l-.048.912zm7.845-.828h.372c.208 0 .408-.012.6-.036a1.51 1.51 0 0 0 .528-.156c.16-.08.288-.196.384-.348s.144-.356.144-.612c0-.328-.112-.596-.336-.804s-.516-.312-.876-.312a1.3 1.3 0 0 0-.78.252 1.37 1.37 0 0 0-.492.684l-1.524-.408c.096-.312.232-.584.408-.816a2.2 2.2 0 0 1 .624-.564c.24-.152.504-.264.792-.336s.588-.108.9-.108a3.7 3.7 0 0 1 1.044.144 2.58 2.58 0 0 1 .864.432c.248.184.444.42.588.708.152.28.228.608.228.984a2.06 2.06 0 0 1-.384 1.224c-.256.352-.612.584-1.068.696v.024c.544.08.956.312 1.236.696s.42.84.42 1.368c0 .408-.08.768-.24 1.08-.152.312-.36.576-.624.792-.264.208-.572.368-.924.48a3.71 3.71 0 0 1-1.08.156c-.352 0-.684-.04-.996-.12a2.77 2.77 0 0 1-.852-.348c-.248-.16-.464-.364-.648-.612-.184-.256-.324-.56-.42-.912l1.536-.408c.088.352.244.624.468.816s.528.288.912.288c.192 0 .372-.032.54-.096.176-.064.328-.152.456-.264.136-.12.24-.26.312-.42.08-.168.12-.352.12-.552 0-.272-.06-.492-.18-.66a1.06 1.06 0 0 0-.444-.396c-.176-.096-.376-.16-.6-.192s-.444-.048-.66-.048h-.348v-1.296zm112.292-1.596c-.16-.232-.376-.4-.648-.504a2.13 2.13 0 0 0-.84-.168 2.22 2.22 0 0 0-.516.06c-.16.04-.308.104-.444.192a1.01 1.01 0 0 0-.312.348c-.08.136-.12.3-.12.492 0 .288.1.508.3.66a2.95 2.95 0 0 0 .744.396l.972.324a3.95 3.95 0 0 1 .972.432c.296.184.544.428.744.732s.3.708.3 1.212c0 .456-.084.856-.252 1.2a2.42 2.42 0 0 1-.684.84c-.28.224-.608.392-.984.504a4.14 4.14 0 0 1-1.188.168c-.528 0-1.036-.088-1.524-.264s-.908-.472-1.26-.888l1.14-1.104a1.97 1.97 0 0 0 .72.66 2.12 2.12 0 0 0 .96.228 2 2 0 0 0 .528-.072c.176-.048.336-.12.48-.216a1.15 1.15 0 0 0 .348-.36 1.01 1.01 0 0 0 .132-.516c0-.312-.1-.552-.3-.72s-.448-.308-.744-.42c-.296-.12-.62-.232-.972-.336s-.676-.244-.972-.42c-.296-.184-.544-.424-.744-.72-.2-.304-.3-.708-.3-1.212 0-.44.088-.82.264-1.14a2.5 2.5 0 0 1 .708-.792 3.09 3.09 0 0 1 1.008-.48 4.3 4.3 0 0 1 1.152-.156c.448 0 .88.068 1.296.204a3.01 3.01 0 0 1 1.14.672l-1.104 1.164zm1.923 2.136v-1.224h1.188v-1.668h1.44v1.668h1.584v1.224h-1.584v2.52c0 .288.052.516.156.684.112.168.328.252.648.252.128 0 .268-.012.42-.036a.94.94 0 0 0 .36-.144v1.212c-.152.072-.34.12-.564.144a3.98 3.98 0 0 1-.576.048c-.384 0-.7-.044-.948-.132-.24-.08-.432-.204-.576-.372-.136-.176-.232-.392-.288-.648-.048-.256-.072-.552-.072-.888v-2.64h-1.188zm6.488 2.16c.048.432.216.768.504 1.008s.636.36 1.044.36c.36 0 .66-.072.9-.216a2.57 2.57 0 0 0 .648-.564l1.032.78c-.336.416-.712.712-1.128.888s-.852.264-1.308.264c-.432 0-.84-.072-1.224-.216s-.716-.348-.996-.612a3 3 0 0 1-.672-.948c-.16-.376-.24-.792-.24-1.248s.08-.868.24-1.236c.168-.376.392-.696.672-.96s.612-.468.996-.612.792-.216 1.224-.216c.4 0 .764.072 1.092.216a2.23 2.23 0 0 1 .852.6c.24.264.424.592.552.984.136.384.204.828.204 1.332v.396h-4.392zm2.952-1.08c-.008-.424-.14-.756-.396-.996-.256-.248-.612-.372-1.068-.372-.432 0-.776.124-1.032.372-.248.248-.4.58-.456.996h2.952zm2.786-2.304h1.368v.864h.024c.208-.352.488-.608.84-.768s.732-.24 1.14-.24a2.84 2.84 0 0 1 1.188.24 2.59 2.59 0 0 1 .9.636c.248.272.436.592.564.96a3.59 3.59 0 0 1 .192 1.188 3.4 3.4 0 0 1-.204 1.188 2.9 2.9 0 0 1-.576.96c-.24.272-.532.488-.876.648a2.76 2.76 0 0 1-1.128.228 2.78 2.78 0 0 1-.72-.084 2.48 2.48 0 0 1-.552-.216c-.16-.088-.296-.18-.408-.276a2.3 2.3 0 0 1-.276-.3h-.036v3.468h-1.44v-8.496zm4.776 2.88a1.79 1.79 0 0 0-.12-.648 1.51 1.51 0 0 0-.336-.552c-.144-.16-.32-.288-.528-.384a1.67 1.67 0 0 0-.708-.144 1.67 1.67 0 0 0-.708.144c-.208.096-.388.224-.54.384-.144.16-.256.344-.336.552-.072.208-.108.424-.108.648s.036.44.108.648c.08.208.192.392.336.552.152.16.332.288.54.384a1.67 1.67 0 0 0 .708.144 1.67 1.67 0 0 0 .708-.144c.208-.096.384-.224.528-.384a1.51 1.51 0 0 0 .336-.552 1.79 1.79 0 0 0 .12-.648zm5.998-1.368c0-.672.052-1.244.156-1.716.112-.48.256-.88.432-1.2.176-.328.372-.588.588-.78.224-.2.448-.348.672-.444.232-.104.452-.172.66-.204.216-.032.404-.048.564-.048a3.68 3.68 0 0 1 .552.048c.216.032.436.1.66.204.232.096.456.244.672.444.224.192.424.452.6.78.176.32.316.72.42 1.2.112.472.168 1.044.168 1.716s-.056 1.248-.168 1.728c-.104.472-.244.872-.42 1.2-.176.32-.376.58-.6.78-.216.192-.44.34-.672.444a2.67 2.67 0 0 1-.66.192 3.68 3.68 0 0 1-.552.048c-.16 0-.348-.016-.564-.048a2.88 2.88 0 0 1-.66-.192c-.224-.104-.448-.252-.672-.444-.216-.2-.412-.46-.588-.78-.176-.328-.32-.728-.432-1.2-.104-.48-.156-1.056-.156-1.728zm1.44 0a10.37 10.37 0 0 0 .048.924 4.41 4.41 0 0 0 .228.984 2.11 2.11 0 0 0 .492.792c.216.216.504.324.864.324s.648-.108.864-.324a2.11 2.11 0 0 0 .492-.792c.112-.312.184-.64.216-.984l.06-.924c0-.264-.02-.568-.06-.912a4.01 4.01 0 0 0-.216-.996 2.11 2.11 0 0 0-.492-.792c-.216-.216-.504-.324-.864-.324s-.648.108-.864.324a2.11 2.11 0 0 0-.492.792c-.112.312-.188.644-.228.996l-.048.912zm9.201 2.52h-3.612v-1.428l3.42-5.34h1.632v5.472h1.236v1.296h-1.236v1.728h-1.44v-1.728zm0-4.728h-.024l-2.124 3.432h2.148v-3.432z"/><path d="M35.136 221.993h-3.038v-1.596h7.84v1.596H36.9v8.316h-1.764v-8.316zm7.535 2.534h.028c.131-.28.359-.532.686-.756.336-.233.765-.35 1.288-.35.448 0 .826.075 1.134.224.317.149.574.345.77.588a2.23 2.23 0 0 1 .42.84 3.87 3.87 0 0 1 .126.994v4.242h-1.68v-3.402l-.028-.616a2.04 2.04 0 0 0-.154-.644c-.075-.205-.196-.373-.364-.504-.168-.14-.397-.21-.686-.21-.28 0-.518.047-.714.14a1.44 1.44 0 0 0-.476.378 1.57 1.57 0 0 0-.266.546c-.056.205-.084.42-.084.644v3.668h-1.68v-10.584h1.68v4.802zm7.703 3.01c.056.504.252.896.588 1.176s.742.42 1.218.42c.42 0 .77-.084 1.05-.252a3 3 0 0 0 .756-.658l1.204.91c-.392.485-.831.831-1.316 1.036s-.994.308-1.526.308c-.504 0-.98-.084-1.428-.252s-.835-.406-1.162-.714-.588-.677-.784-1.106c-.187-.439-.28-.924-.28-1.456a3.58 3.58 0 0 1 .28-1.442c.196-.439.457-.812.784-1.12s.714-.546 1.162-.714.924-.252 1.428-.252c.467 0 .891.084 1.274.252.392.159.723.392.994.7.28.308.495.691.644 1.148.159.448.238.966.238 1.554v.462h-5.124zm3.444-1.26c-.009-.495-.163-.882-.462-1.162-.299-.289-.714-.434-1.246-.434-.504 0-.905.145-1.204.434-.289.289-.467.677-.532 1.162h3.444zm7.422-6.552h1.68v10.584h-1.68v-10.584zm4.953 7.812c.056.504.252.896.588 1.176s.742.42 1.218.42c.42 0 .77-.084 1.05-.252a3 3 0 0 0 .756-.658l1.204.91c-.392.485-.831.831-1.316 1.036s-.994.308-1.526.308c-.504 0-.98-.084-1.428-.252s-.835-.406-1.162-.714a3.5 3.5 0 0 1-.784-1.106c-.187-.439-.28-.924-.28-1.456s.093-1.013.28-1.442c.196-.439.457-.812.784-1.12s.714-.546 1.162-.714.924-.252 1.428-.252c.467 0 .891.084 1.274.252.392.159.723.392.994.7.28.308.495.691.644 1.148.159.448.238.966.238 1.554v.462h-5.124zm3.444-1.26c-.009-.495-.163-.882-.462-1.162-.299-.289-.714-.434-1.246-.434-.504 0-.905.145-1.204.434-.289.289-.467.677-.532 1.162h3.444zm7.451 3.108h-.042c-.243.383-.551.663-.924.84-.373.168-.784.252-1.232.252-.308 0-.611-.042-.91-.126-.289-.084-.551-.21-.784-.378-.224-.168-.406-.378-.546-.63s-.21-.546-.21-.882c0-.364.065-.672.196-.924.131-.261.303-.476.518-.644a2.68 2.68 0 0 1 .77-.42c.289-.103.588-.177.896-.224a6.54 6.54 0 0 1 .952-.098l.896-.028h.42v-.182c0-.42-.145-.733-.434-.938-.289-.215-.658-.322-1.106-.322-.355 0-.686.065-.994.196a2.41 2.41 0 0 0-.798.504l-.882-.882a3.26 3.26 0 0 1 1.302-.826c.504-.168 1.022-.252 1.554-.252.476 0 .877.056 1.204.168.327.103.597.238.812.406s.378.364.49.588c.121.215.205.434.252.658.056.224.089.443.098.658l.014.546v3.864h-1.512v-.924zm-.098-2.086h-.35l-.784.028c-.289.019-.565.065-.826.14-.252.065-.467.168-.644.308-.177.131-.266.317-.266.56 0 .159.033.294.098.406a1.09 1.09 0 0 0 .28.266c.112.075.238.131.378.168.14.028.28.042.42.042.579 0 1.003-.135 1.274-.406.28-.28.42-.658.42-1.134v-.378zm3.418-3.71h1.68v1.064h.028c.187-.392.453-.695.798-.91s.742-.322 1.19-.322c.103 0 .201.009.294.028l.308.07v1.624a3.47 3.47 0 0 0-.42-.084c-.131-.028-.261-.042-.392-.042-.392 0-.709.075-.952.224-.233.14-.415.303-.546.49-.121.187-.205.373-.252.56a2.36 2.36 0 0 0-.056.42v3.598h-1.68v-6.72zm5.688 0h1.596v1.078h.028c.159-.336.401-.625.728-.868.327-.252.77-.378 1.33-.378.448 0 .826.075 1.134.224.317.149.574.345.77.588a2.23 2.23 0 0 1 .42.84 3.87 3.87 0 0 1 .126.994v4.242h-1.68v-3.402l-.028-.616a2.04 2.04 0 0 0-.154-.644c-.075-.205-.196-.373-.364-.504-.168-.14-.397-.21-.686-.21-.28 0-.518.047-.714.14a1.44 1.44 0 0 0-.476.378 1.57 1.57 0 0 0-.266.546c-.056.205-.084.42-.084.644v3.668h-1.68v-6.72zm8.067 0h1.68v6.72h-1.68v-6.72zm-.238-2.282c0-.271.098-.504.294-.7.205-.205.462-.308.77-.308a1.07 1.07 0 0 1 .77.294c.215.187.322.425.322.714s-.107.532-.322.728a1.1 1.1 0 0 1-.77.28 1.07 1.07 0 0 1-.77-.294 1 1 0 0 1-.294-.714zm3.847 2.282h1.596v1.078h.028c.159-.336.401-.625.728-.868.327-.252.77-.378 1.33-.378.448 0 .826.075 1.134.224a2.13 2.13 0 0 1 .77.588 2.23 2.23 0 0 1 .42.84 3.87 3.87 0 0 1 .126.994v4.242h-1.68v-3.402l-.028-.616a2.02 2.02 0 0 0-.154-.644 1.1 1.1 0 0 0-.364-.504c-.168-.14-.396-.21-.686-.21-.28 0-.518.047-.714.14-.186.093-.345.219-.476.378a1.57 1.57 0 0 0-.266.546c-.056.205-.084.42-.084.644v3.668h-1.68v-6.72zm14.955 0v6.118c0 .607-.074 1.153-.224 1.638-.149.495-.382.91-.7 1.246-.308.345-.7.611-1.176.798s-1.04.28-1.694.28c-.625 0-1.218-.079-1.778-.238s-1.078-.448-1.554-.868l1.008-1.372c.336.308.686.546 1.05.714s.784.252 1.26.252c.402 0 .738-.056 1.008-.168.28-.112.5-.266.658-.462a1.65 1.65 0 0 0 .35-.714 3.41 3.41 0 0 0 .112-.91v-.49h-.028c-.242.327-.564.574-.966.742-.401.159-.812.238-1.232.238-.504 0-.961-.089-1.372-.266-.41-.187-.765-.434-1.064-.742-.289-.308-.513-.672-.672-1.092s-.238-.868-.238-1.344c0-.495.075-.957.224-1.386s.369-.803.658-1.12.635-.565 1.036-.742c.411-.187.878-.28 1.4-.28a3.17 3.17 0 0 1 1.33.28c.411.187.738.485.98.896h.028v-1.008h1.596zm-3.584 1.344c-.298 0-.569.051-.812.154a1.8 1.8 0 0 0-.63.406c-.168.168-.303.378-.406.63-.093.243-.14.513-.14.812a2.02 2.02 0 0 0 .14.756c.103.233.243.439.42.616s.388.317.63.42.504.154.784.154c.308 0 .584-.051.826-.154.252-.103.462-.238.63-.406.178-.177.313-.387.406-.63s.14-.504.14-.784c0-.588-.177-1.064-.532-1.428s-.84-.546-1.456-.546zm-76.189 13.656h1.596v1.008h.028a2.16 2.16 0 0 1 .98-.896 3.17 3.17 0 0 1 1.33-.28c.513 0 .975.093 1.386.28.411.177.761.425 1.05.742s.509.691.658 1.12.224.891.224 1.386-.079.957-.238 1.386-.383.803-.672 1.12c-.28.317-.621.569-1.022.756-.401.177-.84.266-1.316.266a3.26 3.26 0 0 1-.84-.098c-.243-.065-.457-.149-.644-.252s-.345-.21-.476-.322c-.131-.121-.238-.238-.322-.35h-.042v4.046h-1.68v-9.912zm5.572 3.36a2.09 2.09 0 0 0-.14-.756 1.76 1.76 0 0 0-.392-.644 1.87 1.87 0 0 0-.616-.448 1.95 1.95 0 0 0-.826-.168 1.95 1.95 0 0 0-.826.168 2.03 2.03 0 0 0-.63.448c-.168.187-.299.401-.392.644a2.3 2.3 0 0 0-.126.756 2.3 2.3 0 0 0 .126.756c.093.243.224.457.392.644a2.03 2.03 0 0 0 .63.448 1.95 1.95 0 0 0 .826.168 1.95 1.95 0 0 0 .826-.168 1.87 1.87 0 0 0 .616-.448 1.76 1.76 0 0 0 .392-.644 2.09 2.09 0 0 0 .14-.756zm3.246-3.36h1.68v1.064h.028c.187-.392.453-.695.798-.91s.742-.322 1.19-.322c.103 0 .201.009.294.028l.308.07v1.624a3.47 3.47 0 0 0-.42-.084c-.131-.028-.261-.042-.392-.042-.392 0-.709.075-.952.224-.233.14-.415.303-.546.49-.121.187-.205.373-.252.56a2.36 2.36 0 0 0-.056.42v3.598h-1.68v-6.72zm4.859 3.36c0-.532.093-1.013.28-1.442.196-.439.457-.812.784-1.12s.714-.546 1.162-.714.924-.252 1.428-.252.98.084 1.428.252.835.406 1.162.714.583.681.77 1.12c.196.429.294.91.294 1.442a3.53 3.53 0 0 1-.294 1.456c-.187.429-.443.798-.77 1.106s-.714.546-1.162.714-.924.252-1.428.252-.98-.084-1.428-.252-.835-.406-1.162-.714a3.5 3.5 0 0 1-.784-1.106c-.187-.439-.28-.924-.28-1.456zm1.68 0a2.3 2.3 0 0 0 .126.756c.093.243.224.457.392.644a2.03 2.03 0 0 0 .63.448 1.95 1.95 0 0 0 .826.168 1.95 1.95 0 0 0 .826-.168 1.87 1.87 0 0 0 .616-.448 1.76 1.76 0 0 0 .392-.644 2.09 2.09 0 0 0 .14-.756 2.09 2.09 0 0 0-.14-.756 1.76 1.76 0 0 0-.392-.644 1.87 1.87 0 0 0-.616-.448 1.95 1.95 0 0 0-.826-.168 1.95 1.95 0 0 0-.826.168 2.03 2.03 0 0 0-.63.448c-.168.187-.299.401-.392.644a2.3 2.3 0 0 0-.126.756zm11.793-1.344a2.68 2.68 0 0 0-.616-.49c-.215-.121-.434-.182-.658-.182a1.95 1.95 0 0 0-.826.168 2.03 2.03 0 0 0-.63.448c-.168.187-.299.401-.392.644a2.3 2.3 0 0 0-.126.756 2.3 2.3 0 0 0 .126.756c.093.243.224.457.392.644a2.03 2.03 0 0 0 .63.448 1.95 1.95 0 0 0 .826.168 1.72 1.72 0 0 0 .728-.154c.224-.112.415-.271.574-.476l1.12 1.204c-.168.168-.364.313-.588.434a3.79 3.79 0 0 1-.658.294c-.224.075-.439.126-.644.154-.205.037-.383.056-.532.056-.504 0-.98-.084-1.428-.252s-.835-.406-1.162-.714a3.5 3.5 0 0 1-.784-1.106c-.187-.439-.28-.924-.28-1.456s.093-1.013.28-1.442c.196-.439.457-.812.784-1.12s.714-.546 1.162-.714.924-.252 1.428-.252c.429 0 .859.084 1.288.252a2.87 2.87 0 0 1 1.148.77l-1.162 1.162zm3.506 1.932c.056.504.252.896.588 1.176s.742.42 1.218.42c.42 0 .77-.084 1.05-.252a3 3 0 0 0 .756-.658l1.204.91c-.392.485-.831.831-1.316 1.036s-.994.308-1.526.308c-.504 0-.98-.084-1.428-.252s-.835-.406-1.162-.714a3.5 3.5 0 0 1-.784-1.106c-.187-.439-.28-.924-.28-1.456s.093-1.013.28-1.442c.196-.439.457-.812.784-1.12s.714-.546 1.162-.714.924-.252 1.428-.252c.467 0 .891.084 1.274.252.392.159.723.392.994.7.28.308.495.691.644 1.148.159.448.238.966.238 1.554v.462h-5.124zm3.444-1.26c-.009-.495-.163-.882-.462-1.162-.299-.289-.714-.434-1.246-.434-.504 0-.905.145-1.204.434-.289.289-.467.677-.532 1.162h3.444zm6.835-.826c-.327-.457-.765-.686-1.316-.686-.224 0-.443.056-.658.168a.57.57 0 0 0-.322.546.47.47 0 0 0 .266.448c.177.093.401.173.672.238l.868.21c.317.065.611.173.882.322a1.85 1.85 0 0 1 .672.588c.177.252.266.597.266 1.036 0 .401-.089.742-.266 1.022a1.97 1.97 0 0 1-.672.658c-.271.168-.579.289-.924.364a4.87 4.87 0 0 1-1.036.112c-.523 0-1.003-.075-1.442-.224s-.831-.42-1.176-.812l1.12-1.05c.215.243.443.443.686.602.252.149.555.224.91.224.121 0 .247-.014.378-.042a1.24 1.24 0 0 0 .364-.14c.112-.065.201-.145.266-.238a.58.58 0 0 0 .112-.35c0-.233-.089-.406-.266-.518s-.401-.201-.672-.266a9.49 9.49 0 0 0-.882-.196 3.77 3.77 0 0 1-.868-.294 1.9 1.9 0 0 1-.672-.574c-.177-.243-.266-.579-.266-1.008 0-.373.075-.695.224-.966.159-.28.364-.509.616-.686s.541-.308.868-.392.658-.126.994-.126c.448 0 .891.079 1.33.238a2.13 2.13 0 0 1 1.064.784l-1.12 1.008zm6.221 0c-.327-.457-.765-.686-1.316-.686-.224 0-.443.056-.658.168a.57.57 0 0 0-.322.546.47.47 0 0 0 .266.448c.177.093.401.173.672.238l.868.21c.317.065.611.173.882.322a1.85 1.85 0 0 1 .672.588c.177.252.266.597.266 1.036 0 .401-.089.742-.266 1.022a1.97 1.97 0 0 1-.672.658c-.271.168-.579.289-.924.364a4.87 4.87 0 0 1-1.036.112c-.523 0-1.003-.075-1.442-.224s-.831-.42-1.176-.812l1.12-1.05c.215.243.443.443.686.602.252.149.555.224.91.224.121 0 .247-.014.378-.042a1.24 1.24 0 0 0 .364-.14c.112-.065.201-.145.266-.238a.58.58 0 0 0 .112-.35c0-.233-.089-.406-.266-.518s-.401-.201-.672-.266a9.49 9.49 0 0 0-.882-.196 3.77 3.77 0 0 1-.868-.294 1.9 1.9 0 0 1-.672-.574c-.177-.243-.266-.579-.266-1.008 0-.373.075-.695.224-.966.159-.28.364-.509.616-.686s.541-.308.868-.392.658-.126.994-.126c.448 0 .891.079 1.33.238a2.13 2.13 0 0 1 1.064.784l-1.12 1.008z"/><path d="M215.574 225.395c0-.793.131-1.512.392-2.156.261-.653.621-1.209 1.078-1.666.467-.457 1.017-.807 1.652-1.05.644-.252 1.349-.378 2.114-.378.775-.009 1.484.107 2.128.35.644.233 1.199.579 1.666 1.036s.831 1.008 1.092 1.652.392 1.363.392 2.156c0 .775-.131 1.479-.392 2.114s-.625 1.181-1.092 1.638-1.022.817-1.666 1.078c-.644.252-1.353.383-2.128.392-.765 0-1.47-.121-2.114-.364-.635-.252-1.185-.602-1.652-1.05-.457-.457-.817-1.003-1.078-1.638s-.392-1.339-.392-2.114zm1.848-.112c0 .532.079 1.022.238 1.47.168.448.401.835.7 1.162s.653.583 1.064.77c.42.187.887.28 1.4.28s.98-.093 1.4-.28a3.21 3.21 0 0 0 1.078-.77c.299-.327.527-.714.686-1.162.168-.448.252-.938.252-1.47 0-.495-.084-.957-.252-1.386-.159-.429-.387-.803-.686-1.12a3.04 3.04 0 0 0-1.078-.756c-.42-.187-.887-.28-1.4-.28s-.98.093-1.4.28a3.07 3.07 0 0 0-1.064.756c-.299.317-.532.691-.7 1.12-.159.429-.238.891-.238 1.386zm10.192-1.694h1.596v1.008h.028a2.16 2.16 0 0 1 .98-.896 3.17 3.17 0 0 1 1.33-.28 3.31 3.31 0 0 1 1.386.28c.411.177.761.425 1.05.742s.509.691.658 1.12.224.891.224 1.386-.079.957-.238 1.386-.383.803-.672 1.12c-.28.317-.621.569-1.022.756-.401.177-.84.266-1.316.266-.317 0-.597-.033-.84-.098s-.457-.149-.644-.252-.345-.21-.476-.322a2.64 2.64 0 0 1-.322-.35h-.042v4.046h-1.68v-9.912zm5.572 3.36a2.1 2.1 0 0 0-.14-.756c-.084-.243-.215-.457-.392-.644-.168-.187-.373-.336-.616-.448a1.95 1.95 0 0 0-.826-.168 1.95 1.95 0 0 0-.826.168c-.243.112-.453.261-.63.448a2.05 2.05 0 0 0-.392.644 2.3 2.3 0 0 0-.126.756 2.3 2.3 0 0 0 .126.756 2.05 2.05 0 0 0 .392.644c.177.187.387.336.63.448a1.95 1.95 0 0 0 .826.168 1.95 1.95 0 0 0 .826-.168c.243-.112.448-.261.616-.448.177-.187.308-.401.392-.644a2.1 2.1 0 0 0 .14-.756zm2.462-1.932v-1.428h1.386v-1.946h1.68v1.946h1.848v1.428h-1.848v2.94c0 .336.061.602.182.798.131.196.383.294.756.294a3.15 3.15 0 0 0 .49-.042c.178-.037.318-.093.42-.168v1.414c-.177.084-.396.14-.658.168a4.69 4.69 0 0 1-.672.056c-.448 0-.816-.051-1.106-.154-.28-.093-.504-.238-.672-.434-.158-.205-.27-.457-.336-.756-.056-.299-.084-.644-.084-1.036v-3.08h-1.386zm6.268-1.428h1.68v6.72h-1.68v-6.72zm-.238-2.282c0-.271.098-.504.294-.7.205-.205.462-.308.77-.308s.564.098.77.294c.214.187.322.425.322.714a.95.95 0 0 1-.322.728 1.1 1.1 0 0 1-.77.28 1.07 1.07 0 0 1-.77-.294 1 1 0 0 1-.294-.714zm3.776 2.282h1.596v1.05h.028c.15-.317.388-.597.714-.84.336-.252.784-.378 1.344-.378 1.055 0 1.755.415 2.1 1.246.243-.429.546-.742.91-.938.364-.205.798-.308 1.302-.308.448 0 .826.075 1.134.224a1.92 1.92 0 0 1 .742.616c.196.261.336.569.42.924a4.73 4.73 0 0 1 .126 1.12v4.004h-1.68v-3.808a2.95 2.95 0 0 0-.056-.588 1.34 1.34 0 0 0-.196-.504c-.093-.149-.219-.266-.378-.35s-.364-.126-.616-.126c-.261 0-.485.051-.672.154a1.29 1.29 0 0 0-.448.392 1.71 1.71 0 0 0-.252.56 2.87 2.87 0 0 0-.07.63v3.64h-1.68v-4.004c0-.42-.088-.751-.266-.994-.177-.252-.471-.378-.882-.378-.28 0-.518.047-.714.14a1.45 1.45 0 0 0-.476.378 1.58 1.58 0 0 0-.266.546c-.056.205-.084.42-.084.644v3.668h-1.68v-6.72zm12.28 0h1.68v6.72h-1.68v-6.72zm-.238-2.282c0-.271.098-.504.294-.7.205-.205.462-.308.77-.308a1.07 1.07 0 0 1 .77.294c.215.187.322.425.322.714s-.107.532-.322.728c-.205.187-.462.28-.77.28a1.07 1.07 0 0 1-.77-.294 1 1 0 0 1-.294-.714zm3.371 7.448l3.598-3.794v-.028h-3.43v-1.344h5.46v1.526l-3.64 3.85h3.808v1.344h-5.796v-1.554zm8.574-1.218c.056.504.252.896.588 1.176s.742.42 1.218.42c.42 0 .77-.084 1.05-.252a3.01 3.01 0 0 0 .756-.658l1.204.91c-.392.485-.831.831-1.316 1.036s-.994.308-1.526.308c-.504 0-.98-.084-1.428-.252a3.42 3.42 0 0 1-1.162-.714c-.327-.308-.588-.677-.784-1.106-.187-.439-.28-.924-.28-1.456s.093-1.013.28-1.442c.196-.439.457-.812.784-1.12a3.42 3.42 0 0 1 1.162-.714c.448-.168.924-.252 1.428-.252.466 0 .891.084 1.274.252a2.61 2.61 0 0 1 .994.7c.28.308.494.691.644 1.148.158.448.238.966.238 1.554v.462h-5.124zm3.444-1.26c-.01-.495-.164-.882-.462-1.162-.299-.289-.714-.434-1.246-.434-.504 0-.906.145-1.204.434-.29.289-.467.677-.532 1.162h3.444zm-52.341 14.328c-.196-.205-.401-.369-.616-.49s-.434-.182-.658-.182a1.95 1.95 0 0 0-.826.168c-.243.112-.453.261-.63.448a2.05 2.05 0 0 0-.392.644 2.3 2.3 0 0 0-.126.756 2.3 2.3 0 0 0 .126.756 2.05 2.05 0 0 0 .392.644c.177.187.387.336.63.448a1.95 1.95 0 0 0 .826.168c.261 0 .504-.051.728-.154a1.66 1.66 0 0 0 .574-.476l1.12 1.204c-.168.168-.364.313-.588.434a3.8 3.8 0 0 1-.658.294c-.224.075-.439.126-.644.154-.205.037-.383.056-.532.056-.504 0-.98-.084-1.428-.252s-.835-.406-1.162-.714-.588-.677-.784-1.106c-.187-.439-.28-.924-.28-1.456s.093-1.013.28-1.442c.196-.439.457-.812.784-1.12s.714-.546 1.162-.714.924-.252 1.428-.252c.429 0 .859.084 1.288.252a2.87 2.87 0 0 1 1.148.77l-1.162 1.162zm6.362 3.78h-.042a2.21 2.21 0 0 1-.924.84c-.373.168-.784.252-1.232.252-.308 0-.611-.042-.91-.126-.289-.084-.551-.21-.784-.378-.224-.168-.406-.378-.546-.63s-.21-.546-.21-.882c0-.364.065-.672.196-.924.131-.261.303-.476.518-.644.224-.177.481-.317.77-.42s.588-.177.896-.224a6.54 6.54 0 0 1 .952-.098l.896-.028h.42v-.182c0-.42-.145-.733-.434-.938-.289-.215-.658-.322-1.106-.322a2.51 2.51 0 0 0-.994.196 2.41 2.41 0 0 0-.798.504l-.882-.882c.373-.383.807-.658 1.302-.826.504-.168 1.022-.252 1.554-.252.476 0 .877.056 1.204.168a2.55 2.55 0 0 1 .812.406 1.72 1.72 0 0 1 .49.588 2.3 2.3 0 0 1 .252.658c.056.224.089.443.098.658l.014.546v3.864h-1.512v-.924zm-.098-2.086h-.35l-.784.028c-.289.019-.565.065-.826.14-.252.065-.467.168-.644.308-.177.131-.266.317-.266.56 0 .159.033.294.098.406.075.103.168.191.28.266s.238.131.378.168c.14.028.28.042.42.042.579 0 1.003-.135 1.274-.406.28-.28.42-.658.42-1.134v-.378zm3.347-3.71h1.596v1.05h.028c.15-.317.388-.597.714-.84.336-.252.784-.378 1.344-.378 1.055 0 1.755.415 2.1 1.246.243-.429.546-.742.91-.938.364-.205.798-.308 1.302-.308.448 0 .826.075 1.134.224a1.92 1.92 0 0 1 .742.616c.196.261.336.569.42.924a4.73 4.73 0 0 1 .126 1.12v4.004h-1.68v-3.808a2.95 2.95 0 0 0-.056-.588 1.34 1.34 0 0 0-.196-.504c-.093-.149-.219-.266-.378-.35s-.364-.126-.616-.126c-.261 0-.485.051-.672.154a1.29 1.29 0 0 0-.448.392 1.71 1.71 0 0 0-.252.56 2.87 2.87 0 0 0-.07.63v3.64h-1.68v-4.004c0-.42-.088-.751-.266-.994-.177-.252-.471-.378-.882-.378-.28 0-.518.047-.714.14a1.45 1.45 0 0 0-.476.378 1.58 1.58 0 0 0-.266.546c-.056.205-.084.42-.084.644v3.668h-1.68v-6.72zm12.252 0h1.596v1.008h.028a2.16 2.16 0 0 1 .98-.896 3.17 3.17 0 0 1 1.33-.28 3.31 3.31 0 0 1 1.386.28c.411.177.761.425 1.05.742s.509.691.658 1.12.224.891.224 1.386-.079.957-.238 1.386-.383.803-.672 1.12c-.28.317-.621.569-1.022.756-.401.177-.84.266-1.316.266-.317 0-.597-.033-.84-.098s-.457-.149-.644-.252-.345-.21-.476-.322a2.64 2.64 0 0 1-.322-.35h-.042v4.046h-1.68v-9.912zm5.572 3.36a2.1 2.1 0 0 0-.14-.756c-.084-.243-.215-.457-.392-.644-.168-.187-.373-.336-.616-.448a1.95 1.95 0 0 0-.826-.168 1.95 1.95 0 0 0-.826.168c-.243.112-.453.261-.63.448a2.05 2.05 0 0 0-.392.644 2.3 2.3 0 0 0-.126.756 2.3 2.3 0 0 0 .126.756 2.05 2.05 0 0 0 .392.644c.177.187.387.336.63.448a1.95 1.95 0 0 0 .826.168 1.95 1.95 0 0 0 .826-.168c.243-.112.448-.261.616-.448.177-.187.308-.401.392-.644a2.1 2.1 0 0 0 .14-.756zm7.446 2.436h-.042c-.242.383-.55.663-.924.84-.373.168-.784.252-1.232.252-.308 0-.611-.042-.91-.126-.289-.084-.55-.21-.784-.378-.224-.168-.406-.378-.546-.63s-.21-.546-.21-.882c0-.364.066-.672.196-.924.131-.261.304-.476.518-.644.224-.177.481-.317.77-.42s.588-.177.896-.224c.318-.056.635-.089.952-.098l.896-.028h.42v-.182c0-.42-.144-.733-.434-.938-.289-.215-.658-.322-1.106-.322-.354 0-.686.065-.994.196a2.41 2.41 0 0 0-.798.504l-.882-.882a3.27 3.27 0 0 1 1.302-.826c.504-.168 1.022-.252 1.554-.252.476 0 .878.056 1.204.168a2.54 2.54 0 0 1 .812.406 1.72 1.72 0 0 1 .49.588c.122.215.206.434.252.658.056.224.089.443.098.658l.014.546v3.864h-1.512v-.924zm-.098-2.086h-.35l-.784.028c-.289.019-.564.065-.826.14-.252.065-.466.168-.644.308-.177.131-.266.317-.266.56 0 .159.033.294.098.406.075.103.168.191.28.266s.238.131.378.168c.14.028.28.042.42.042.579 0 1.004-.135 1.274-.406.28-.28.42-.658.42-1.134v-.378zm3.446-3.71h1.68v6.72h-1.68v-6.72zm-.238-2.282c0-.271.098-.504.294-.7.205-.205.462-.308.77-.308a1.07 1.07 0 0 1 .77.294c.215.187.322.425.322.714s-.107.532-.322.728c-.205.187-.462.28-.77.28a1.07 1.07 0 0 1-.77-.294 1 1 0 0 1-.294-.714zm10.763 2.282v6.118c0 .607-.075 1.153-.224 1.638-.15.495-.383.91-.7 1.246-.308.345-.7.611-1.176.798s-1.041.28-1.694.28c-.626 0-1.218-.079-1.778-.238s-1.078-.448-1.554-.868l1.008-1.372c.336.308.686.546 1.05.714s.784.252 1.26.252c.401 0 .737-.056 1.008-.168a1.58 1.58 0 0 0 .658-.462c.168-.196.284-.434.35-.714a3.45 3.45 0 0 0 .112-.91v-.49h-.028c-.243.327-.565.574-.966.742a3.32 3.32 0 0 1-1.232.238 3.43 3.43 0 0 1-1.372-.266c-.411-.187-.766-.434-1.064-.742-.29-.308-.514-.672-.672-1.092s-.238-.868-.238-1.344a4.17 4.17 0 0 1 .224-1.386c.149-.429.368-.803.658-1.12s.634-.565 1.036-.742c.41-.187.877-.28 1.4-.28a3.17 3.17 0 0 1 1.33.28c.41.187.737.485.98.896h.028v-1.008h1.596zm-3.584 1.344c-.299 0-.57.051-.812.154a1.78 1.78 0 0 0-.63.406 1.87 1.87 0 0 0-.406.63c-.094.243-.14.513-.14.812a2 2 0 0 0 .14.756 1.98 1.98 0 0 0 .42.616c.177.177.387.317.63.42s.504.154.784.154c.308 0 .583-.051.826-.154.252-.103.462-.238.63-.406.177-.177.312-.387.406-.63s.14-.504.14-.784c0-.588-.178-1.064-.532-1.428s-.84-.546-1.456-.546zm5.486-1.344h1.596v1.078h.028c.159-.336.401-.625.728-.868.327-.252.77-.378 1.33-.378.448 0 .826.075 1.134.224.317.149.574.345.77.588a2.23 2.23 0 0 1 .42.84 3.87 3.87 0 0 1 .126.994v4.242h-1.68v-3.402l-.028-.616c-.019-.233-.07-.448-.154-.644-.075-.205-.196-.373-.364-.504-.168-.14-.397-.21-.686-.21-.28 0-.518.047-.714.14a1.44 1.44 0 0 0-.476.378 1.58 1.58 0 0 0-.266.546c-.056.205-.084.42-.084.644v3.668h-1.68v-6.72zm11.623 1.862c-.327-.457-.765-.686-1.316-.686a1.41 1.41 0 0 0-.658.168.57.57 0 0 0-.322.546.47.47 0 0 0 .266.448c.177.093.401.173.672.238l.868.21a3.12 3.12 0 0 1 .882.322c.271.14.495.336.672.588s.266.597.266 1.036c0 .401-.089.742-.266 1.022a1.97 1.97 0 0 1-.672.658c-.271.168-.579.289-.924.364a4.87 4.87 0 0 1-1.036.112c-.523 0-1.003-.075-1.442-.224s-.831-.42-1.176-.812l1.12-1.05c.215.243.443.443.686.602.252.149.555.224.91.224a1.81 1.81 0 0 0 .378-.042c.131-.028.252-.075.364-.14s.201-.145.266-.238a.58.58 0 0 0 .112-.35.57.57 0 0 0-.266-.518c-.177-.112-.401-.201-.672-.266-.271-.075-.565-.14-.882-.196-.308-.065-.597-.163-.868-.294-.271-.14-.495-.331-.672-.574s-.266-.579-.266-1.008c0-.373.075-.695.224-.966a2.08 2.08 0 0 1 .616-.686c.252-.177.541-.308.868-.392a3.98 3.98 0 0 1 .994-.126 3.88 3.88 0 0 1 1.33.238 2.13 2.13 0 0 1 1.064.784l-1.12 1.008z"/></g><g class="D"><path d="M10 460h297"/><path d="M10.534 355v127.924"/></g><circle cx="10.229" cy="445.246" r="9.527" class="B"/><circle cx="10.229" cy="445.246" r="2.735" class="C"/><circle cx="305.027" cy="189.027" r="9.527" class="B"/><circle cx="305.027" cy="189.027" r="2.735" class="C"/><path d="M143.233 475.637c-.16-.232-.376-.4-.648-.504a2.13 2.13 0 0 0-.84-.168 2.22 2.22 0 0 0-.516.06c-.16.04-.308.104-.444.192a1.01 1.01 0 0 0-.312.348c-.08.136-.12.3-.12.492 0 .288.1.508.3.66a2.95 2.95 0 0 0 .744.396l.972.324a3.95 3.95 0 0 1 .972.432c.296.184.544.428.744.732s.3.708.3 1.212c0 .456-.084.856-.252 1.2a2.42 2.42 0 0 1-.684.84c-.28.224-.608.392-.984.504a4.14 4.14 0 0 1-1.188.168c-.528 0-1.036-.088-1.524-.264s-.908-.472-1.26-.888l1.14-1.104a1.97 1.97 0 0 0 .72.66 2.12 2.12 0 0 0 .96.228 2 2 0 0 0 .528-.072c.176-.048.336-.12.48-.216a1.15 1.15 0 0 0 .348-.36 1.01 1.01 0 0 0 .132-.516c0-.312-.1-.552-.3-.72s-.448-.308-.744-.42c-.296-.12-.62-.232-.972-.336s-.676-.244-.972-.42c-.296-.184-.544-.424-.744-.72-.2-.304-.3-.708-.3-1.212 0-.44.088-.82.264-1.14a2.5 2.5 0 0 1 .708-.792 3.09 3.09 0 0 1 1.008-.48 4.3 4.3 0 0 1 1.152-.156c.448 0 .88.068 1.296.204a3.01 3.01 0 0 1 1.14.672l-1.104 1.164zm1.923 2.136v-1.224h1.188v-1.668h1.44v1.668h1.584v1.224h-1.584v2.52c0 .288.052.516.156.684.112.168.328.252.648.252.128 0 .268-.012.42-.036a.94.94 0 0 0 .36-.144v1.212c-.152.072-.34.12-.564.144a3.98 3.98 0 0 1-.576.048c-.384 0-.7-.044-.948-.132-.24-.08-.432-.204-.576-.372-.136-.176-.232-.392-.288-.648-.048-.256-.072-.552-.072-.888v-2.64h-1.188zm6.488 2.16c.048.432.216.768.504 1.008s.636.36 1.044.36c.36 0 .66-.072.9-.216a2.57 2.57 0 0 0 .648-.564l1.032.78c-.336.416-.712.712-1.128.888s-.852.264-1.308.264c-.432 0-.84-.072-1.224-.216s-.716-.348-.996-.612a3 3 0 0 1-.672-.948c-.16-.376-.24-.792-.24-1.248s.08-.868.24-1.236c.168-.376.392-.696.672-.96s.612-.468.996-.612.792-.216 1.224-.216c.4 0 .764.072 1.092.216a2.23 2.23 0 0 1 .852.6c.24.264.424.592.552.984.136.384.204.828.204 1.332v.396h-4.392zm2.952-1.08c-.008-.424-.14-.756-.396-.996-.256-.248-.612-.372-1.068-.372-.432 0-.776.124-1.032.372-.248.248-.4.58-.456.996h2.952zm2.786-2.304h1.368v.864h.024c.208-.352.488-.608.84-.768s.732-.24 1.14-.24a2.84 2.84 0 0 1 1.188.24 2.59 2.59 0 0 1 .9.636c.248.272.436.592.564.96a3.59 3.59 0 0 1 .192 1.188 3.4 3.4 0 0 1-.204 1.188 2.9 2.9 0 0 1-.576.96c-.24.272-.532.488-.876.648a2.76 2.76 0 0 1-1.128.228 2.78 2.78 0 0 1-.72-.084 2.48 2.48 0 0 1-.552-.216c-.16-.088-.296-.18-.408-.276a2.3 2.3 0 0 1-.276-.3h-.036v3.468h-1.44v-8.496zm4.776 2.88a1.79 1.79 0 0 0-.12-.648 1.51 1.51 0 0 0-.336-.552c-.144-.16-.32-.288-.528-.384a1.67 1.67 0 0 0-.708-.144 1.67 1.67 0 0 0-.708.144c-.208.096-.388.224-.54.384-.144.16-.256.344-.336.552-.072.208-.108.424-.108.648s.036.44.108.648c.08.208.192.392.336.552.152.16.332.288.54.384a1.67 1.67 0 0 0 .708.144 1.67 1.67 0 0 0 .708-.144c.208-.096.384-.224.528-.384a1.51 1.51 0 0 0 .336-.552 1.79 1.79 0 0 0 .12-.648zm5.998-1.368c0-.672.052-1.244.156-1.716.112-.48.256-.88.432-1.2.176-.328.372-.588.588-.78.224-.2.448-.348.672-.444.232-.104.452-.172.66-.204.216-.032.404-.048.564-.048a3.68 3.68 0 0 1 .552.048c.216.032.436.1.66.204.232.096.456.244.672.444.224.192.424.452.6.78.176.32.316.72.42 1.2.112.472.168 1.044.168 1.716s-.056 1.248-.168 1.728c-.104.472-.244.872-.42 1.2-.176.32-.376.58-.6.78-.216.192-.44.34-.672.444a2.67 2.67 0 0 1-.66.192 3.68 3.68 0 0 1-.552.048c-.16 0-.348-.016-.564-.048a2.88 2.88 0 0 1-.66-.192c-.224-.104-.448-.252-.672-.444-.216-.2-.412-.46-.588-.78-.176-.328-.32-.728-.432-1.2-.104-.48-.156-1.056-.156-1.728zm1.44 0a10.37 10.37 0 0 0 .048.924 4.41 4.41 0 0 0 .228.984 2.11 2.11 0 0 0 .492.792c.216.216.504.324.864.324s.648-.108.864-.324a2.11 2.11 0 0 0 .492-.792c.112-.312.184-.64.216-.984l.06-.924c0-.264-.02-.568-.06-.912a4.01 4.01 0 0 0-.216-.996 2.11 2.11 0 0 0-.492-.792c-.216-.216-.504-.324-.864-.324s-.648.108-.864.324a2.11 2.11 0 0 0-.492.792c-.112.312-.188.644-.228.996l-.048.912zm11.241-2.952h-3.42l-.036 1.692c.112-.04.252-.068.42-.084l.492-.024c.416 0 .796.068 1.14.204.352.128.652.316.9.564a2.58 2.58 0 0 1 .576.888c.144.344.216.732.216 1.164 0 .456-.08.868-.24 1.236a2.61 2.61 0 0 1-.648.924c-.272.248-.596.44-.972.576s-.78.204-1.212.204c-.68 0-1.26-.16-1.74-.48-.472-.32-.808-.808-1.008-1.464l1.512-.408c.096.304.26.544.492.72s.532.264.9.264a1.54 1.54 0 0 0 .588-.108c.184-.072.34-.172.468-.3a1.41 1.41 0 0 0 .312-.468c.072-.176.108-.368.108-.576 0-.296-.056-.548-.168-.756-.104-.208-.248-.376-.432-.504a1.71 1.71 0 0 0-.636-.288 2.92 2.92 0 0 0-.756-.096 4.15 4.15 0 0 0-.936.108 3.86 3.86 0 0 0-.84.3l.084-4.584h4.836v1.296zM37.964 405.525a1.58 1.58 0 0 0-.756-.588 2.48 2.48 0 0 0-.98-.196c-.205 0-.406.023-.602.07a1.71 1.71 0 0 0-.518.224 1.18 1.18 0 0 0-.364.406c-.093.159-.14.35-.14.574 0 .336.117.593.35.77s.523.331.868.462l1.134.378c.411.121.789.289 1.134.504s.635.499.868.854.35.826.35 1.414c0 .532-.098.999-.294 1.4a2.82 2.82 0 0 1-.798.98c-.327.261-.709.457-1.148.588a4.82 4.82 0 0 1-1.386.196 5.21 5.21 0 0 1-1.778-.308 3.43 3.43 0 0 1-1.47-1.036l1.33-1.288a2.3 2.3 0 0 0 .84.77c.355.177.728.266 1.12.266a2.33 2.33 0 0 0 .616-.084 1.91 1.91 0 0 0 .56-.252 1.34 1.34 0 0 0 .406-.42c.103-.177.154-.378.154-.602 0-.364-.117-.644-.35-.84a2.98 2.98 0 0 0-.868-.49c-.345-.14-.723-.271-1.134-.392s-.789-.285-1.134-.49a2.87 2.87 0 0 1-.868-.84c-.233-.355-.35-.826-.35-1.414 0-.513.103-.957.308-1.33.215-.373.49-.681.826-.924a3.6 3.6 0 0 1 1.176-.56 5.03 5.03 0 0 1 1.344-.182 4.82 4.82 0 0 1 1.512.238c.495.159.938.42 1.33.784l-1.288 1.358zm7.619 3.08c-.196-.205-.401-.369-.616-.49s-.434-.182-.658-.182a1.95 1.95 0 0 0-.826.168 2.03 2.03 0 0 0-.63.448 2.05 2.05 0 0 0-.392.644 2.3 2.3 0 0 0-.126.756 2.3 2.3 0 0 0 .126.756 2.05 2.05 0 0 0 .392.644 2.03 2.03 0 0 0 .63.448 1.95 1.95 0 0 0 .826.168 1.72 1.72 0 0 0 .728-.154 1.66 1.66 0 0 0 .574-.476l1.12 1.204c-.168.168-.364.313-.588.434a3.79 3.79 0 0 1-.658.294c-.224.075-.439.126-.644.154a3.07 3.07 0 0 1-.532.056c-.504 0-.98-.084-1.428-.252s-.835-.406-1.162-.714a3.5 3.5 0 0 1-.784-1.106c-.187-.439-.28-.924-.28-1.456s.093-1.013.28-1.442c.196-.439.457-.812.784-1.12s.714-.546 1.162-.714.924-.252 1.428-.252c.429 0 .859.084 1.288.252a2.87 2.87 0 0 1 1.148.77l-1.162 1.162zm6.362 3.78h-.042a2.21 2.21 0 0 1-.924.84c-.373.168-.784.252-1.232.252-.308 0-.611-.042-.91-.126-.289-.084-.551-.21-.784-.378-.224-.168-.406-.378-.546-.63s-.21-.546-.21-.882c0-.364.065-.672.196-.924a1.86 1.86 0 0 1 .518-.644 2.68 2.68 0 0 1 .77-.42 4.84 4.84 0 0 1 .896-.224 6.54 6.54 0 0 1 .952-.098l.896-.028h.42v-.182c0-.42-.145-.733-.434-.938-.289-.215-.658-.322-1.106-.322a2.51 2.51 0 0 0-.994.196 2.41 2.41 0 0 0-.798.504l-.882-.882a3.26 3.26 0 0 1 1.302-.826c.504-.168 1.022-.252 1.554-.252.476 0 .877.056 1.204.168a2.55 2.55 0 0 1 .812.406 1.72 1.72 0 0 1 .49.588 2.3 2.3 0 0 1 .252.658c.056.224.089.443.098.658l.014.546v3.864h-1.512v-.924zm-.098-2.086h-.35l-.784.028c-.289.019-.565.065-.826.14-.252.065-.467.168-.644.308-.177.131-.266.317-.266.56a.79.79 0 0 0 .098.406 1.09 1.09 0 0 0 .28.266c.112.075.238.131.378.168.14.028.28.042.42.042.579 0 1.003-.135 1.274-.406.28-.28.42-.658.42-1.134v-.378zm3.445-7.574h1.68v10.584h-1.68v-10.584zm4.953 7.812c.056.504.252.896.588 1.176s.742.42 1.218.42c.42 0 .77-.084 1.05-.252a3 3 0 0 0 .756-.658l1.204.91c-.392.485-.831.831-1.316 1.036a3.88 3.88 0 0 1-1.526.308c-.504 0-.98-.084-1.428-.252s-.835-.406-1.162-.714-.588-.677-.784-1.106c-.187-.439-.28-.924-.28-1.456a3.58 3.58 0 0 1 .28-1.442c.196-.439.457-.812.784-1.12s.714-.546 1.162-.714.924-.252 1.428-.252c.467 0 .891.084 1.274.252a2.61 2.61 0 0 1 .994.7c.28.308.495.691.644 1.148.159.448.238.966.238 1.554v.462h-5.124zm3.444-1.26c-.009-.495-.163-.882-.462-1.162-.299-.289-.714-.434-1.246-.434-.504 0-.905.145-1.204.434-.289.289-.467.677-.532 1.162h3.444zm-31.647 12.312h1.848l1.876 4.662h.028l1.68-4.662h1.75l-3.178 8.162a4.54 4.54 0 0 1-.406.826c-.14.243-.308.443-.504.602-.196.168-.429.289-.7.364-.261.084-.579.126-.952.126-.439 0-.868-.056-1.288-.168l.21-1.512a2.85 2.85 0 0 0 .406.112c.149.037.299.056.448.056a2.06 2.06 0 0 0 .518-.056.83.83 0 0 0 .35-.182.83.83 0 0 0 .252-.308 5.51 5.51 0 0 0 .21-.448l.322-.798-2.87-6.776zm7.834 3.36c0-.532.093-1.013.28-1.442.196-.439.457-.812.784-1.12s.714-.546 1.162-.714.924-.252 1.428-.252.98.084 1.428.252.835.406 1.162.714.583.681.77 1.12c.196.429.294.91.294 1.442a3.53 3.53 0 0 1-.294 1.456c-.187.429-.443.798-.77 1.106s-.714.546-1.162.714-.924.252-1.428.252-.98-.084-1.428-.252-.835-.406-1.162-.714a3.5 3.5 0 0 1-.784-1.106c-.187-.439-.28-.924-.28-1.456zm1.68 0a2.3 2.3 0 0 0 .126.756 2.05 2.05 0 0 0 .392.644 2.03 2.03 0 0 0 .63.448 1.95 1.95 0 0 0 .826.168 1.95 1.95 0 0 0 .826-.168 1.87 1.87 0 0 0 .616-.448 1.76 1.76 0 0 0 .392-.644 2.09 2.09 0 0 0 .14-.756 2.09 2.09 0 0 0-.14-.756 1.76 1.76 0 0 0-.392-.644 1.87 1.87 0 0 0-.616-.448 1.95 1.95 0 0 0-.826-.168 1.95 1.95 0 0 0-.826.168 2.03 2.03 0 0 0-.63.448 2.05 2.05 0 0 0-.392.644 2.3 2.3 0 0 0-.126.756zm13.333 3.36h-1.596v-1.078h-.028c-.159.336-.401.63-.728.882-.327.243-.77.364-1.33.364-.448 0-.831-.07-1.148-.21-.308-.149-.56-.345-.756-.588a2.36 2.36 0 0 1-.42-.854 3.87 3.87 0 0 1-.126-.994v-4.242h1.68v3.402l.028.63c.019.224.065.439.14.644a1.4 1.4 0 0 0 .364.504c.168.131.401.196.7.196.28 0 .513-.047.7-.14a1.27 1.27 0 0 0 .476-.378 1.45 1.45 0 0 0 .28-.546c.056-.205.084-.42.084-.644v-3.668h1.68v6.72zm1.907-6.72h1.68v1.064h.028c.187-.392.453-.695.798-.91s.742-.322 1.19-.322c.103 0 .201.009.294.028l.308.07v1.624a3.47 3.47 0 0 0-.42-.084c-.131-.028-.261-.042-.392-.042-.392 0-.709.075-.952.224-.233.14-.415.303-.546.49-.121.187-.205.373-.252.56a2.36 2.36 0 0 0-.056.42v3.598h-1.68v-6.72zm13.784 5.796h-.042a2.21 2.21 0 0 1-.924.84c-.373.168-.784.252-1.232.252-.308 0-.611-.042-.91-.126-.289-.084-.551-.21-.784-.378-.224-.168-.406-.378-.546-.63s-.21-.546-.21-.882c0-.364.065-.672.196-.924.131-.261.303-.476.518-.644a2.68 2.68 0 0 1 .77-.42c.289-.103.588-.177.896-.224a6.54 6.54 0 0 1 .952-.098l.896-.028h.42v-.182c0-.42-.145-.733-.434-.938-.289-.215-.658-.322-1.106-.322a2.51 2.51 0 0 0-.994.196 2.41 2.41 0 0 0-.798.504l-.882-.882a3.26 3.26 0 0 1 1.302-.826c.504-.168 1.022-.252 1.554-.252.476 0 .877.056 1.204.168a2.55 2.55 0 0 1 .812.406 1.72 1.72 0 0 1 .49.588 2.3 2.3 0 0 1 .252.658c.056.224.089.443.098.658l.014.546v3.864H70.58v-.924zm-.098-2.086h-.35l-.784.028c-.289.019-.565.065-.826.14-.252.065-.467.168-.644.308-.177.131-.266.317-.266.56 0 .159.033.294.098.406a1.09 1.09 0 0 0 .28.266c.112.075.238.131.378.168.14.028.28.042.42.042.579 0 1.003-.135 1.274-.406.28-.28.42-.658.42-1.134v-.378zm8.738 2.002h-.028a2.16 2.16 0 0 1-.98.896 3.17 3.17 0 0 1-1.33.28c-.523 0-.989-.089-1.4-.266-.401-.187-.747-.439-1.036-.756a3.2 3.2 0 0 1-.658-1.12c-.149-.429-.224-.891-.224-1.386s.079-.957.238-1.386a3.52 3.52 0 0 1 .658-1.12c.289-.317.635-.565 1.036-.742.401-.187.84-.28 1.316-.28a3.26 3.26 0 0 1 .84.098c.243.065.457.149.644.252a2.41 2.41 0 0 1 .476.336 2.13 2.13 0 0 1 .322.336h.042v-4.718h1.68v10.584H79.22v-1.008zm-3.976-2.352a2.3 2.3 0 0 0 .126.756 2.05 2.05 0 0 0 .392.644 2.03 2.03 0 0 0 .63.448 1.95 1.95 0 0 0 .826.168 1.95 1.95 0 0 0 .826-.168 1.87 1.87 0 0 0 .616-.448 1.76 1.76 0 0 0 .392-.644 2.09 2.09 0 0 0 .14-.756 2.09 2.09 0 0 0-.14-.756 1.76 1.76 0 0 0-.392-.644 1.87 1.87 0 0 0-.616-.448 1.95 1.95 0 0 0-.826-.168 1.95 1.95 0 0 0-.826.168 2.03 2.03 0 0 0-.63.448 2.05 2.05 0 0 0-.392.644 2.3 2.3 0 0 0-.126.756zm11.058-1.498c-.327-.457-.765-.686-1.316-.686a1.41 1.41 0 0 0-.658.168.57.57 0 0 0-.322.546.47.47 0 0 0 .266.448c.177.093.401.173.672.238l.868.21a3.11 3.11 0 0 1 .882.322 1.85 1.85 0 0 1 .672.588c.177.252.266.597.266 1.036 0 .401-.089.742-.266 1.022a1.97 1.97 0 0 1-.672.658c-.271.168-.579.289-.924.364a4.87 4.87 0 0 1-1.036.112 4.46 4.46 0 0 1-1.442-.224c-.439-.149-.831-.42-1.176-.812l1.12-1.05c.215.243.443.443.686.602.252.149.555.224.91.224a1.8 1.8 0 0 0 .378-.042c.131-.028.252-.075.364-.14s.201-.145.266-.238a.58.58 0 0 0 .112-.35.57.57 0 0 0-.266-.518c-.177-.112-.401-.201-.672-.266-.271-.075-.565-.14-.882-.196-.308-.065-.597-.163-.868-.294a1.9 1.9 0 0 1-.672-.574c-.177-.243-.266-.579-.266-1.008 0-.373.075-.695.224-.966a2.08 2.08 0 0 1 .616-.686 2.64 2.64 0 0 1 .868-.392 3.98 3.98 0 0 1 .994-.126 3.88 3.88 0 0 1 1.33.238 2.13 2.13 0 0 1 1.064.784l-1.12 1.008z" fill="#000"/><path d="M15.028 104.527h294.135" class="B E"/><path d="M162.399 0V127.924" class="D"/><circle cx="15.027" cy="104.527" r="9.527" class="B"/><circle cx="15.027" cy="104.527" r="2.735" class="C"/><circle cx="162.095" cy="104.527" r="9.527" class="B"/><circle cx="162.095" cy="104.527" r="2.735" class="C"/><circle cx="309.162" cy="104.527" r="9.527" class="B"/><circle cx="309.162" cy="104.527" r="2.735" class="C"/><g fill="#000"><path d="M59.233 120.637c-.16-.232-.376-.4-.648-.504a2.13 2.13 0 0 0-.84-.168 2.22 2.22 0 0 0-.516.06c-.16.04-.308.104-.444.192a1.01 1.01 0 0 0-.312.348c-.08.136-.12.3-.12.492 0 .288.1.508.3.66a2.95 2.95 0 0 0 .744.396l.972.324a3.95 3.95 0 0 1 .972.432c.296.184.544.428.744.732s.3.708.3 1.212c0 .456-.084.856-.252 1.2a2.42 2.42 0 0 1-.684.84c-.28.224-.608.392-.984.504a4.14 4.14 0 0 1-1.188.168c-.528 0-1.036-.088-1.524-.264s-.908-.472-1.26-.888l1.14-1.104a1.97 1.97 0 0 0 .72.66 2.12 2.12 0 0 0 .96.228 2 2 0 0 0 .528-.072c.176-.048.336-.12.48-.216a1.15 1.15 0 0 0 .348-.36 1.01 1.01 0 0 0 .132-.516c0-.312-.1-.552-.3-.72s-.448-.308-.744-.42c-.296-.12-.62-.232-.972-.336s-.676-.244-.972-.42c-.296-.184-.544-.424-.744-.72-.2-.304-.3-.708-.3-1.212 0-.44.088-.82.264-1.14a2.5 2.5 0 0 1 .708-.792 3.09 3.09 0 0 1 1.008-.48 4.3 4.3 0 0 1 1.152-.156c.448 0 .88.068 1.296.204a3.01 3.01 0 0 1 1.14.672l-1.104 1.164zm1.923 2.136v-1.224h1.188v-1.668h1.44v1.668h1.584v1.224h-1.584v2.52c0 .288.052.516.156.684.112.168.328.252.648.252.128 0 .268-.012.42-.036a.94.94 0 0 0 .36-.144v1.212c-.152.072-.34.12-.564.144a3.98 3.98 0 0 1-.576.048c-.384 0-.7-.044-.948-.132-.24-.08-.432-.204-.576-.372-.136-.176-.232-.392-.288-.648-.048-.256-.072-.552-.072-.888v-2.64h-1.188zm6.488 2.16c.048.432.216.768.504 1.008s.636.36 1.044.36c.36 0 .66-.072.9-.216a2.57 2.57 0 0 0 .648-.564l1.032.78c-.336.416-.712.712-1.128.888s-.852.264-1.308.264c-.432 0-.84-.072-1.224-.216s-.716-.348-.996-.612a3 3 0 0 1-.672-.948c-.16-.376-.24-.792-.24-1.248s.08-.868.24-1.236c.168-.376.392-.696.672-.96s.612-.468.996-.612.792-.216 1.224-.216c.4 0 .764.072 1.092.216a2.23 2.23 0 0 1 .852.6c.24.264.424.592.552.984.136.384.204.828.204 1.332v.396h-4.392zm2.952-1.08c-.008-.424-.14-.756-.396-.996-.256-.248-.612-.372-1.068-.372-.432 0-.776.124-1.032.372-.248.248-.4.58-.456.996h2.952zm2.787-2.304h1.368v.864h.024c.208-.352.488-.608.84-.768s.732-.24 1.14-.24a2.84 2.84 0 0 1 1.188.24 2.59 2.59 0 0 1 .9.636c.248.272.436.592.564.96a3.59 3.59 0 0 1 .192 1.188 3.4 3.4 0 0 1-.204 1.188 2.9 2.9 0 0 1-.576.96c-.24.272-.532.488-.876.648a2.76 2.76 0 0 1-1.128.228 2.78 2.78 0 0 1-.72-.084 2.48 2.48 0 0 1-.552-.216c-.16-.088-.296-.18-.408-.276a2.3 2.3 0 0 1-.276-.3h-.036v3.468h-1.44v-8.496zm4.776 2.88a1.79 1.79 0 0 0-.12-.648 1.51 1.51 0 0 0-.336-.552c-.144-.16-.32-.288-.528-.384a1.67 1.67 0 0 0-.708-.144 1.67 1.67 0 0 0-.708.144c-.208.096-.388.224-.54.384-.144.16-.256.344-.336.552-.072.208-.108.424-.108.648s.036.44.108.648c.08.208.192.392.336.552.152.16.332.288.54.384a1.67 1.67 0 0 0 .708.144 1.67 1.67 0 0 0 .708-.144c.208-.096.384-.224.528-.384a1.51 1.51 0 0 0 .336-.552 1.79 1.79 0 0 0 .12-.648zm5.997-1.368c0-.672.052-1.244.156-1.716.112-.48.256-.88.432-1.2.176-.328.372-.588.588-.78.224-.2.448-.348.672-.444.232-.104.452-.172.66-.204.216-.032.404-.048.564-.048a3.68 3.68 0 0 1 .552.048c.216.032.436.1.66.204.232.096.456.244.672.444.224.192.424.452.6.78.176.32.316.72.42 1.2.112.472.168 1.044.168 1.716s-.056 1.248-.168 1.728c-.104.472-.244.872-.42 1.2-.176.32-.376.58-.6.78-.216.192-.44.34-.672.444a2.67 2.67 0 0 1-.66.192 3.68 3.68 0 0 1-.552.048c-.16 0-.348-.016-.564-.048a2.88 2.88 0 0 1-.66-.192c-.224-.104-.448-.252-.672-.444-.216-.2-.412-.46-.588-.78-.176-.328-.32-.728-.432-1.2-.104-.48-.156-1.056-.156-1.728zm1.44 0a10.37 10.37 0 0 0 .048.924 4.41 4.41 0 0 0 .228.984 2.11 2.11 0 0 0 .492.792c.216.216.504.324.864.324s.648-.108.864-.324a2.11 2.11 0 0 0 .492-.792c.112-.312.184-.64.216-.984l.06-.924c0-.264-.02-.568-.06-.912a4.01 4.01 0 0 0-.216-.996 2.11 2.11 0 0 0-.492-.792c-.216-.216-.504-.324-.864-.324s-.648.108-.864.324a2.11 2.11 0 0 0-.492.792c-.112.312-.188.644-.228.996l-.048.912zm8.398-2.592l-1.596 1.476-.84-.996 2.568-2.136h1.308v8.496h-1.44v-6.84zm152.739.168c-.16-.232-.376-.4-.648-.504a2.13 2.13 0 0 0-.84-.168 2.22 2.22 0 0 0-.516.06c-.16.04-.308.104-.444.192a1.01 1.01 0 0 0-.312.348c-.08.136-.12.3-.12.492 0 .288.1.508.3.66a2.95 2.95 0 0 0 .744.396l.972.324a3.95 3.95 0 0 1 .972.432c.296.184.544.428.744.732s.3.708.3 1.212c0 .456-.084.856-.252 1.2a2.42 2.42 0 0 1-.684.84c-.28.224-.608.392-.984.504a4.14 4.14 0 0 1-1.188.168c-.528 0-1.036-.088-1.524-.264s-.908-.472-1.26-.888l1.14-1.104a1.97 1.97 0 0 0 .72.66 2.12 2.12 0 0 0 .96.228 2 2 0 0 0 .528-.072c.176-.048.336-.12.48-.216a1.15 1.15 0 0 0 .348-.36 1.01 1.01 0 0 0 .132-.516c0-.312-.1-.552-.3-.72s-.448-.308-.744-.42c-.296-.12-.62-.232-.972-.336s-.676-.244-.972-.42c-.296-.184-.544-.424-.744-.72-.2-.304-.3-.708-.3-1.212 0-.44.088-.82.264-1.14a2.5 2.5 0 0 1 .708-.792 3.09 3.09 0 0 1 1.008-.48 4.3 4.3 0 0 1 1.152-.156c.448 0 .88.068 1.296.204a3.01 3.01 0 0 1 1.14.672l-1.104 1.164zm1.923 2.136v-1.224h1.188v-1.668h1.44v1.668h1.584v1.224h-1.584v2.52c0 .288.052.516.156.684.112.168.328.252.648.252.128 0 .268-.012.42-.036a.94.94 0 0 0 .36-.144v1.212c-.152.072-.34.12-.564.144a3.98 3.98 0 0 1-.576.048c-.384 0-.7-.044-.948-.132-.24-.08-.432-.204-.576-.372-.136-.176-.232-.392-.288-.648-.048-.256-.072-.552-.072-.888v-2.64h-1.188zm6.488 2.16c.048.432.216.768.504 1.008s.636.36 1.044.36c.36 0 .66-.072.9-.216a2.57 2.57 0 0 0 .648-.564l1.032.78c-.336.416-.712.712-1.128.888s-.852.264-1.308.264c-.432 0-.84-.072-1.224-.216s-.716-.348-.996-.612a3 3 0 0 1-.672-.948c-.16-.376-.24-.792-.24-1.248s.08-.868.24-1.236c.168-.376.392-.696.672-.96s.612-.468.996-.612.792-.216 1.224-.216c.4 0 .764.072 1.092.216a2.23 2.23 0 0 1 .852.6c.24.264.424.592.552.984.136.384.204.828.204 1.332v.396h-4.392zm2.952-1.08c-.008-.424-.14-.756-.396-.996-.256-.248-.612-.372-1.068-.372-.432 0-.776.124-1.032.372-.248.248-.4.58-.456.996h2.952zm2.786-2.304h1.368v.864h.024c.208-.352.488-.608.84-.768s.732-.24 1.14-.24a2.84 2.84 0 0 1 1.188.24 2.59 2.59 0 0 1 .9.636c.248.272.436.592.564.96a3.59 3.59 0 0 1 .192 1.188 3.4 3.4 0 0 1-.204 1.188 2.9 2.9 0 0 1-.576.96c-.24.272-.532.488-.876.648a2.76 2.76 0 0 1-1.128.228 2.78 2.78 0 0 1-.72-.084 2.48 2.48 0 0 1-.552-.216c-.16-.088-.296-.18-.408-.276a2.3 2.3 0 0 1-.276-.3h-.036v3.468h-1.44v-8.496zm4.776 2.88a1.79 1.79 0 0 0-.12-.648 1.51 1.51 0 0 0-.336-.552c-.144-.16-.32-.288-.528-.384a1.67 1.67 0 0 0-.708-.144 1.67 1.67 0 0 0-.708.144c-.208.096-.388.224-.54.384-.144.16-.256.344-.336.552-.072.208-.108.424-.108.648s.036.44.108.648c.08.208.192.392.336.552.152.16.332.288.54.384a1.67 1.67 0 0 0 .708.144 1.67 1.67 0 0 0 .708-.144c.208-.096.384-.224.528-.384a1.51 1.51 0 0 0 .336-.552 1.79 1.79 0 0 0 .12-.648zm5.998-1.368c0-.672.052-1.244.156-1.716.112-.48.256-.88.432-1.2.176-.328.372-.588.588-.78.224-.2.448-.348.672-.444.232-.104.452-.172.66-.204.216-.032.404-.048.564-.048a3.68 3.68 0 0 1 .552.048c.216.032.436.1.66.204.232.096.456.244.672.444.224.192.424.452.6.78.176.32.316.72.42 1.2.112.472.168 1.044.168 1.716s-.056 1.248-.168 1.728c-.104.472-.244.872-.42 1.2-.176.32-.376.58-.6.78-.216.192-.44.34-.672.444a2.67 2.67 0 0 1-.66.192 3.68 3.68 0 0 1-.552.048c-.16 0-.348-.016-.564-.048a2.88 2.88 0 0 1-.66-.192c-.224-.104-.448-.252-.672-.444-.216-.2-.412-.46-.588-.78-.176-.328-.32-.728-.432-1.2-.104-.48-.156-1.056-.156-1.728zm1.44 0a10.37 10.37 0 0 0 .048.924 4.41 4.41 0 0 0 .228.984 2.11 2.11 0 0 0 .492.792c.216.216.504.324.864.324s.648-.108.864-.324a2.11 2.11 0 0 0 .492-.792c.112-.312.184-.64.216-.984l.06-.924c0-.264-.02-.568-.06-.912a4.01 4.01 0 0 0-.216-.996 2.11 2.11 0 0 0-.492-.792c-.216-.216-.504-.324-.864-.324s-.648.108-.864.324a2.11 2.11 0 0 0-.492.792c-.112.312-.188.644-.228.996l-.048.912zm5.889 2.724l3.3-3.192.3-.3a2.77 2.77 0 0 0 .276-.348 1.95 1.95 0 0 0 .216-.372c.056-.136.084-.276.084-.42 0-.176-.036-.332-.108-.468a1.03 1.03 0 0 0-.264-.348c-.112-.096-.244-.168-.396-.216a1.28 1.28 0 0 0-.468-.084c-.36 0-.656.104-.888.312s-.372.488-.42.84l-1.512-.12c.032-.392.124-.736.276-1.032a2.38 2.38 0 0 1 .612-.756c.248-.2.536-.352.864-.456s.684-.156 1.068-.156.74.052 1.068.156a2.45 2.45 0 0 1 .876.444c.248.192.444.44.588.744s.216.66.216 1.068c0 .536-.124 1-.372 1.392-.24.384-.552.752-.936 1.104l-2.628 2.436h3.936v1.296h-5.688v-1.524z"/><path d="M53.964 50.525a1.58 1.58 0 0 0-.756-.588c-.308-.131-.635-.196-.98-.196a2.59 2.59 0 0 0-.602.07c-.187.047-.359.121-.518.224-.149.103-.271.238-.364.406-.093.159-.14.35-.14.574 0 .336.117.593.35.77s.523.331.868.462l1.134.378c.411.121.789.289 1.134.504s.635.499.868.854.35.826.35 1.414c0 .532-.098.999-.294 1.4-.196.392-.462.719-.798.98-.327.261-.709.457-1.148.588s-.901.196-1.386.196a5.2 5.2 0 0 1-1.778-.308c-.569-.205-1.059-.551-1.47-1.036l1.33-1.288c.215.327.495.583.84.77.355.177.728.266 1.12.266a2.33 2.33 0 0 0 .616-.084c.205-.056.392-.14.56-.252a1.34 1.34 0 0 0 .406-.42 1.18 1.18 0 0 0 .154-.602c0-.364-.117-.644-.35-.84a2.97 2.97 0 0 0-.868-.49c-.345-.14-.723-.271-1.134-.392a4.96 4.96 0 0 1-1.134-.49c-.345-.215-.635-.495-.868-.84-.233-.355-.35-.826-.35-1.414 0-.513.103-.957.308-1.33.215-.373.49-.681.826-.924.345-.252.737-.439 1.176-.56s.887-.182 1.344-.182c.523 0 1.027.079 1.512.238a3.51 3.51 0 0 1 1.33.784l-1.288 1.358zm4.371 5.012c.056.504.252.896.588 1.176s.742.42 1.218.42c.42 0 .77-.084 1.05-.252.289-.177.541-.397.756-.658l1.204.91c-.392.485-.831.831-1.316 1.036a3.88 3.88 0 0 1-1.526.308c-.504 0-.98-.084-1.428-.252s-.835-.406-1.162-.714-.588-.677-.784-1.106c-.187-.439-.28-.924-.28-1.456a3.58 3.58 0 0 1 .28-1.442c.196-.439.457-.812.784-1.12s.714-.546 1.162-.714.924-.252 1.428-.252c.467 0 .891.084 1.274.252a2.6 2.6 0 0 1 .994.7c.28.308.495.691.644 1.148.159.448.238.966.238 1.554v.462h-5.124zm3.444-1.26c-.009-.495-.163-.882-.462-1.162-.299-.289-.714-.434-1.246-.434-.504 0-.905.145-1.204.434-.289.289-.467.677-.532 1.162h3.444zm2.467-1.26v-1.428h1.386v-1.946h1.68v1.946h1.848v1.428h-1.848v2.94c0 .336.061.602.182.798.131.196.383.294.756.294a3.16 3.16 0 0 0 .49-.042c.177-.037.317-.093.42-.168v1.414a2.05 2.05 0 0 1-.658.168c-.252.037-.476.056-.672.056-.448 0-.817-.051-1.106-.154-.28-.093-.504-.238-.672-.434-.159-.205-.271-.457-.336-.756-.056-.299-.084-.644-.084-1.036v-3.08h-1.386zm16.5 5.292H79.15v-1.078h-.028c-.159.336-.401.63-.728.882-.327.243-.77.364-1.33.364-.448 0-.831-.07-1.148-.21-.308-.149-.56-.345-.756-.588a2.36 2.36 0 0 1-.42-.854 3.87 3.87 0 0 1-.126-.994v-4.242h1.68v3.402l.028.63a2.48 2.48 0 0 0 .14.644 1.4 1.4 0 0 0 .364.504c.168.131.401.196.7.196.28 0 .513-.047.7-.14a1.28 1.28 0 0 0 .476-.378c.131-.159.224-.341.28-.546s.084-.42.084-.644v-3.668h1.68v6.72zm1.907-6.72h1.596v1.008h.028a2.16 2.16 0 0 1 .98-.896c.411-.187.854-.28 1.33-.28.513 0 .975.093 1.386.28.411.177.761.425 1.05.742s.509.691.658 1.12a4.19 4.19 0 0 1 .224 1.386 3.97 3.97 0 0 1-.238 1.386c-.159.429-.383.803-.672 1.12-.28.317-.621.569-1.022.756a3.22 3.22 0 0 1-1.316.266c-.317 0-.597-.033-.84-.098a2.9 2.9 0 0 1-.644-.252c-.187-.103-.345-.21-.476-.322-.131-.121-.238-.238-.322-.35h-.042v4.046h-1.68v-9.912zm5.572 3.36a2.09 2.09 0 0 0-.14-.756 1.76 1.76 0 0 0-.392-.644c-.168-.187-.373-.336-.616-.448a1.95 1.95 0 0 0-.826-.168 1.95 1.95 0 0 0-.826.168c-.243.112-.453.261-.63.448-.168.187-.299.401-.392.644-.084.243-.126.495-.126.756s.042.513.126.756c.093.243.224.457.392.644.177.187.387.336.63.448a1.95 1.95 0 0 0 .826.168 1.95 1.95 0 0 0 .826-.168c.243-.112.448-.261.616-.448a1.76 1.76 0 0 0 .392-.644 2.09 2.09 0 0 0 .14-.756zm6.479-3.36h1.848l1.876 4.662h.028l1.68-4.662h1.75l-3.178 8.162c-.121.317-.257.593-.406.826a2.14 2.14 0 0 1-.504.602 1.79 1.79 0 0 1-.7.364c-.261.084-.579.126-.952.126-.439 0-.868-.056-1.288-.168l.21-1.512a2.9 2.9 0 0 0 .406.112c.149.037.299.056.448.056.205 0 .378-.019.518-.056s.257-.098.35-.182a.83.83 0 0 0 .252-.308 5.33 5.33 0 0 0 .21-.448l.322-.798-2.87-6.776zm7.834 3.36c0-.532.093-1.013.28-1.442a3.45 3.45 0 0 1 .784-1.12c.327-.308.714-.546 1.162-.714s.924-.252 1.428-.252.98.084 1.428.252.835.406 1.162.714.583.681.77 1.12c.196.429.294.91.294 1.442a3.53 3.53 0 0 1-.294 1.456 3.32 3.32 0 0 1-.77 1.106c-.327.308-.714.546-1.162.714s-.924.252-1.428.252-.98-.084-1.428-.252-.835-.406-1.162-.714-.588-.677-.784-1.106c-.187-.439-.28-.924-.28-1.456zm1.68 0c0 .261.042.513.126.756a2.05 2.05 0 0 0 .392.644 2.03 2.03 0 0 0 .63.448 1.95 1.95 0 0 0 .826.168 1.95 1.95 0 0 0 .826-.168 1.87 1.87 0 0 0 .616-.448c.177-.187.308-.401.392-.644.093-.243.14-.495.14-.756s-.047-.513-.14-.756c-.084-.243-.215-.457-.392-.644a1.87 1.87 0 0 0-.616-.448 1.95 1.95 0 0 0-.826-.168 1.95 1.95 0 0 0-.826.168 2.03 2.03 0 0 0-.63.448 2.05 2.05 0 0 0-.392.644c-.084.243-.126.495-.126.756zm13.333 3.36h-1.596v-1.078h-.028c-.159.336-.402.63-.728.882-.327.243-.77.364-1.33.364-.448 0-.831-.07-1.148-.21-.308-.149-.56-.345-.756-.588a2.36 2.36 0 0 1-.42-.854 3.87 3.87 0 0 1-.126-.994v-4.242h1.68v3.402l.028.63a2.44 2.44 0 0 0 .14.644c.084.196.205.364.364.504.168.131.401.196.7.196.28 0 .513-.047.7-.14.196-.093.354-.219.476-.378.13-.159.224-.341.28-.546s.084-.42.084-.644v-3.668h1.68v6.72zm1.907-6.72h1.68v1.064h.028c.187-.392.453-.695.798-.91s.742-.322 1.19-.322a1.49 1.49 0 0 1 .294.028l.308.07v1.624a3.32 3.32 0 0 0-.42-.084c-.131-.028-.261-.042-.392-.042-.392 0-.709.075-.952.224a1.76 1.76 0 0 0-.546.49 1.87 1.87 0 0 0-.252.56 2.39 2.39 0 0 0-.056.42v3.598h-1.68v-6.72zM53.544 68.605c-.196-.205-.401-.369-.616-.49s-.434-.182-.658-.182a1.95 1.95 0 0 0-.826.168c-.243.112-.453.261-.63.448-.168.187-.299.401-.392.644-.084.243-.126.495-.126.756s.042.513.126.756c.093.243.224.457.392.644.177.187.387.336.63.448a1.95 1.95 0 0 0 .826.168c.261 0 .504-.051.728-.154.224-.112.415-.271.574-.476l1.12 1.204a2.53 2.53 0 0 1-.588.434c-.215.121-.434.219-.658.294a3.57 3.57 0 0 1-.644.154 3.04 3.04 0 0 1-.532.056c-.504 0-.98-.084-1.428-.252s-.835-.406-1.162-.714-.588-.677-.784-1.106c-.187-.439-.28-.924-.28-1.456a3.58 3.58 0 0 1 .28-1.442c.196-.439.457-.812.784-1.12s.714-.546 1.162-.714.924-.252 1.428-.252c.429 0 .859.084 1.288.252a2.87 2.87 0 0 1 1.148.77l-1.162 1.162zm6.362 3.78h-.042c-.243.383-.551.663-.924.84-.373.168-.784.252-1.232.252-.308 0-.611-.042-.91-.126-.289-.084-.551-.21-.784-.378-.224-.168-.406-.378-.546-.63s-.21-.546-.21-.882c0-.364.065-.672.196-.924a1.86 1.86 0 0 1 .518-.644c.224-.177.481-.317.77-.42s.588-.177.896-.224a6.58 6.58 0 0 1 .952-.098l.896-.028h.42v-.182c0-.42-.145-.733-.434-.938-.289-.215-.658-.322-1.106-.322-.355 0-.686.065-.994.196a2.42 2.42 0 0 0-.798.504l-.882-.882c.373-.383.807-.658 1.302-.826.504-.168 1.022-.252 1.554-.252.476 0 .877.056 1.204.168.327.103.597.238.812.406s.378.364.49.588a2.28 2.28 0 0 1 .252.658 3.3 3.3 0 0 1 .098.658l.014.546v3.864h-1.512v-.924zm-.098-2.086h-.35l-.784.028a3.91 3.91 0 0 0-.826.14c-.252.065-.467.168-.644.308-.177.131-.266.317-.266.56 0 .159.033.294.098.406a1.09 1.09 0 0 0 .28.266c.112.075.238.131.378.168.14.028.28.042.42.042.579 0 1.003-.135 1.274-.406.28-.28.42-.658.42-1.134v-.378zm3.348-3.71h1.596v1.05h.028c.149-.317.387-.597.714-.84.336-.252.784-.378 1.344-.378 1.055 0 1.755.415 2.1 1.246.243-.429.546-.742.91-.938.364-.205.798-.308 1.302-.308.448 0 .826.075 1.134.224s.555.355.742.616c.196.261.336.569.42.924a4.73 4.73 0 0 1 .126 1.12v4.004h-1.68v-3.808c0-.205-.019-.401-.056-.588-.037-.196-.103-.364-.196-.504-.093-.149-.219-.266-.378-.35s-.364-.126-.616-.126c-.261 0-.485.051-.672.154-.177.093-.327.224-.448.392a1.71 1.71 0 0 0-.252.56c-.047.205-.07.415-.07.63v3.64h-1.68v-4.004c0-.42-.089-.751-.266-.994-.177-.252-.471-.378-.882-.378a1.65 1.65 0 0 0-.714.14 1.45 1.45 0 0 0-.476.378c-.121.159-.21.341-.266.546s-.084.42-.084.644v3.668h-1.68v-6.72zm12.252 0h1.596v1.008h.028a2.16 2.16 0 0 1 .98-.896c.411-.187.854-.28 1.33-.28.513 0 .975.093 1.386.28.411.177.761.425 1.05.742s.509.691.658 1.12a4.19 4.19 0 0 1 .224 1.386 3.97 3.97 0 0 1-.238 1.386c-.159.429-.383.803-.672 1.12-.28.317-.621.569-1.022.756a3.22 3.22 0 0 1-1.316.266c-.317 0-.597-.033-.84-.098a2.9 2.9 0 0 1-.644-.252c-.187-.103-.345-.21-.476-.322-.131-.121-.238-.238-.322-.35h-.042v4.046h-1.68v-9.912zm5.572 3.36a2.09 2.09 0 0 0-.14-.756 1.76 1.76 0 0 0-.392-.644c-.168-.187-.373-.336-.616-.448a1.95 1.95 0 0 0-.826-.168 1.95 1.95 0 0 0-.826.168c-.243.112-.453.261-.63.448-.168.187-.299.401-.392.644-.084.243-.126.495-.126.756s.042.513.126.756c.093.243.224.457.392.644.177.187.387.336.63.448a1.95 1.95 0 0 0 .826.168 1.95 1.95 0 0 0 .826-.168c.243-.112.448-.261.616-.448a1.76 1.76 0 0 0 .392-.644 2.09 2.09 0 0 0 .14-.756zm7.446 2.436h-.042a2.21 2.21 0 0 1-.924.84c-.373.168-.784.252-1.232.252-.308 0-.611-.042-.91-.126-.289-.084-.551-.21-.784-.378-.224-.168-.406-.378-.546-.63s-.21-.546-.21-.882c0-.364.065-.672.196-.924a1.86 1.86 0 0 1 .518-.644c.224-.177.481-.317.77-.42s.588-.177.896-.224a6.58 6.58 0 0 1 .952-.098l.896-.028h.42v-.182c0-.42-.145-.733-.434-.938-.289-.215-.658-.322-1.106-.322-.355 0-.686.065-.994.196a2.42 2.42 0 0 0-.798.504l-.882-.882c.373-.383.807-.658 1.302-.826.504-.168 1.022-.252 1.554-.252.476 0 .877.056 1.204.168.327.103.597.238.812.406s.378.364.49.588c.121.215.205.434.252.658a3.3 3.3 0 0 1 .098.658l.014.546v3.864h-1.512v-.924zm-.098-2.086h-.35l-.784.028a3.91 3.91 0 0 0-.826.14c-.252.065-.467.168-.644.308-.177.131-.266.317-.266.56 0 .159.033.294.098.406a1.09 1.09 0 0 0 .28.266c.112.075.238.131.378.168.14.028.28.042.42.042.579 0 1.003-.135 1.274-.406.28-.28.42-.658.42-1.134v-.378zm3.446-3.71h1.68v6.72h-1.68v-6.72zm-.238-2.282c0-.271.098-.504.294-.7.205-.205.462-.308.77-.308a1.07 1.07 0 0 1 .77.294c.215.187.322.425.322.714s-.107.532-.322.728c-.205.187-.462.28-.77.28a1.07 1.07 0 0 1-.77-.294c-.196-.205-.294-.443-.294-.714zm10.763 2.282v6.118c0 .607-.075 1.153-.224 1.638-.15.495-.383.91-.7 1.246-.308.345-.7.611-1.176.798s-1.041.28-1.694.28c-.625 0-1.218-.079-1.778-.238s-1.078-.448-1.554-.868l1.008-1.372c.336.308.686.546 1.05.714s.784.252 1.26.252c.401 0 .737-.056 1.008-.168.28-.112.499-.266.658-.462.168-.196.284-.434.35-.714a3.45 3.45 0 0 0 .112-.91v-.49h-.028c-.243.327-.565.574-.966.742-.401.159-.812.238-1.232.238-.504 0-.961-.089-1.372-.266a3.46 3.46 0 0 1-1.064-.742c-.289-.308-.513-.672-.672-1.092a3.77 3.77 0 0 1-.238-1.344 4.19 4.19 0 0 1 .224-1.386 3.2 3.2 0 0 1 .658-1.12c.289-.317.635-.565 1.036-.742.411-.187.877-.28 1.4-.28.476 0 .919.093 1.33.28s.737.485.98.896h.028v-1.008h1.596zm-3.584 1.344c-.299 0-.569.051-.812.154-.243.093-.453.229-.63.406-.168.168-.303.378-.406.63-.093.243-.14.513-.14.812 0 .271.047.523.14.756.103.233.243.439.42.616a1.96 1.96 0 0 0 .63.42c.243.103.504.154.784.154.308 0 .583-.051.826-.154.252-.103.462-.238.63-.406a1.8 1.8 0 0 0 .406-.63c.093-.243.14-.504.14-.784 0-.588-.178-1.064-.532-1.428s-.84-.546-1.456-.546zm5.486-1.344h1.596v1.078h.028a2.3 2.3 0 0 1 .728-.868c.327-.252.77-.378 1.33-.378.448 0 .826.075 1.134.224.317.149.574.345.77.588s.336.523.42.84a3.87 3.87 0 0 1 .126.994v4.242h-1.68v-3.402l-.028-.616c-.019-.233-.07-.448-.154-.644-.075-.205-.196-.373-.364-.504-.168-.14-.397-.21-.686-.21a1.65 1.65 0 0 0-.714.14c-.187.093-.345.219-.476.378a1.57 1.57 0 0 0-.266.546c-.056.205-.084.42-.084.644v3.668h-1.68v-6.72z"/><path d="M239.044 54.669c0 .597-.103 1.139-.308 1.624-.205.476-.485.882-.84 1.218a3.79 3.79 0 0 1-1.26.784c-.485.177-1.013.266-1.582.266s-1.097-.089-1.582-.266a3.95 3.95 0 0 1-1.274-.784c-.355-.336-.635-.742-.84-1.218-.196-.485-.294-1.027-.294-1.624v-6.272h1.764v6.216c0 .243.037.499.112.77a2.23 2.23 0 0 0 .364.728c.177.224.406.411.686.56.289.14.644.21 1.064.21s.77-.07 1.05-.21c.289-.149.518-.336.686-.56a2.1 2.1 0 0 0 .378-.728c.075-.271.112-.527.112-.77v-6.216h1.764v6.272zm2.012-3.08h1.596v1.008h.028c.242-.411.569-.709.98-.896s.854-.28 1.33-.28c.513 0 .975.093 1.386.28.41.177.76.425 1.05.742s.508.691.658 1.12a4.2 4.2 0 0 1 .224 1.386c0 .495-.08.957-.238 1.386s-.383.803-.672 1.12c-.28.317-.621.569-1.022.756-.402.177-.84.266-1.316.266-.318 0-.598-.033-.84-.098s-.458-.149-.644-.252-.346-.21-.476-.322c-.131-.121-.238-.238-.322-.35h-.042v4.046h-1.68v-9.912zm5.572 3.36c0-.261-.047-.513-.14-.756-.084-.243-.215-.457-.392-.644a1.88 1.88 0 0 0-.616-.448 1.95 1.95 0 0 0-.826-.168c-.308 0-.584.056-.826.168a2.03 2.03 0 0 0-.63.448 2.05 2.05 0 0 0-.392.644c-.084.243-.126.495-.126.756s.042.513.126.756a2.05 2.05 0 0 0 .392.644 2.03 2.03 0 0 0 .63.448c.242.112.518.168.826.168a1.95 1.95 0 0 0 .826-.168 1.88 1.88 0 0 0 .616-.448c.177-.187.308-.401.392-.644.093-.243.14-.495.14-.756zm3.274-7.224h1.68v10.584h-1.68V47.725zm3.273 7.224c0-.532.093-1.013.28-1.442a3.45 3.45 0 0 1 .784-1.12 3.42 3.42 0 0 1 1.162-.714c.448-.168.924-.252 1.428-.252s.98.084 1.428.252.835.406 1.162.714a3.3 3.3 0 0 1 .77 1.12c.196.429.294.91.294 1.442a3.53 3.53 0 0 1-.294 1.456c-.187.429-.444.798-.77 1.106s-.714.546-1.162.714-.924.252-1.428.252-.98-.084-1.428-.252a3.42 3.42 0 0 1-1.162-.714c-.327-.308-.588-.677-.784-1.106-.187-.439-.28-.924-.28-1.456zm1.68 0c0 .261.042.513.126.756a2.05 2.05 0 0 0 .392.644 2.03 2.03 0 0 0 .63.448c.242.112.518.168.826.168a1.95 1.95 0 0 0 .826-.168 1.88 1.88 0 0 0 .616-.448c.177-.187.308-.401.392-.644.093-.243.14-.495.14-.756s-.047-.513-.14-.756c-.084-.243-.215-.457-.392-.644a1.88 1.88 0 0 0-.616-.448 1.95 1.95 0 0 0-.826-.168c-.308 0-.584.056-.826.168a2.03 2.03 0 0 0-.63.448 2.05 2.05 0 0 0-.392.644c-.084.243-.126.495-.126.756zm11.401 2.436h-.042c-.243.383-.551.663-.924.84a2.97 2.97 0 0 1-1.232.252 3.34 3.34 0 0 1-.91-.126c-.29-.084-.551-.21-.784-.378-.224-.168-.406-.378-.546-.63s-.21-.546-.21-.882c0-.364.065-.672.196-.924.13-.261.303-.476.518-.644.224-.177.48-.317.77-.42s.588-.177.896-.224c.317-.056.634-.089.952-.098l.896-.028h.42v-.182c0-.42-.145-.733-.434-.938-.29-.215-.658-.322-1.106-.322-.355 0-.686.065-.994.196a2.42 2.42 0 0 0-.798.504l-.882-.882a3.26 3.26 0 0 1 1.302-.826c.504-.168 1.022-.252 1.554-.252.476 0 .877.056 1.204.168.326.103.597.238.812.406a1.73 1.73 0 0 1 .49.588c.121.215.205.434.252.658a3.35 3.35 0 0 1 .098.658l.014.546v3.864h-1.512v-.924zm-.098-2.086h-.35l-.784.028a3.9 3.9 0 0 0-.826.14 1.72 1.72 0 0 0-.644.308c-.178.131-.266.317-.266.56 0 .159.032.294.098.406a1.08 1.08 0 0 0 .28.266c.112.075.238.131.378.168.14.028.28.042.42.042.578 0 1.003-.135 1.274-.406.28-.28.42-.658.42-1.134v-.378zm8.737 2.002h-.028a2.16 2.16 0 0 1-.98.896c-.411.187-.854.28-1.33.28-.523 0-.989-.089-1.4-.266a3.23 3.23 0 0 1-1.036-.756c-.289-.317-.509-.691-.658-1.12a4.2 4.2 0 0 1-.224-1.386 3.96 3.96 0 0 1 .238-1.386 3.52 3.52 0 0 1 .658-1.12c.289-.317.635-.565 1.036-.742a3.08 3.08 0 0 1 1.316-.28c.317 0 .597.033.84.098a2.89 2.89 0 0 1 .644.252 2.38 2.38 0 0 1 .476.336 2.13 2.13 0 0 1 .322.336h.042v-4.718h1.68v10.584h-1.596v-1.008zm-3.976-2.352c0 .261.042.513.126.756a2.05 2.05 0 0 0 .392.644 2.03 2.03 0 0 0 .63.448 1.95 1.95 0 0 0 .826.168 1.95 1.95 0 0 0 .826-.168 1.87 1.87 0 0 0 .616-.448c.177-.187.308-.401.392-.644.093-.243.14-.495.14-.756s-.047-.513-.14-.756c-.084-.243-.215-.457-.392-.644a1.87 1.87 0 0 0-.616-.448 1.95 1.95 0 0 0-.826-.168 1.95 1.95 0 0 0-.826.168 2.03 2.03 0 0 0-.63.448 2.05 2.05 0 0 0-.392.644c-.084.243-.126.495-.126.756zm-35.375 13.656a2.67 2.67 0 0 0-.616-.49c-.215-.121-.434-.182-.658-.182a1.95 1.95 0 0 0-.826.168 2.03 2.03 0 0 0-.63.448 2.05 2.05 0 0 0-.392.644c-.084.243-.126.495-.126.756s.042.513.126.756a2.05 2.05 0 0 0 .392.644 2.03 2.03 0 0 0 .63.448 1.95 1.95 0 0 0 .826.168 1.73 1.73 0 0 0 .728-.154c.224-.112.415-.271.574-.476l1.12 1.204a2.53 2.53 0 0 1-.588.434c-.215.121-.434.219-.658.294s-.439.126-.644.154a3.04 3.04 0 0 1-.532.056c-.504 0-.98-.084-1.428-.252s-.835-.406-1.162-.714-.588-.677-.784-1.106c-.187-.439-.28-.924-.28-1.456s.093-1.013.28-1.442a3.45 3.45 0 0 1 .784-1.12c.327-.308.714-.546 1.162-.714s.924-.252 1.428-.252c.429 0 .859.084 1.288.252a2.87 2.87 0 0 1 1.148.77l-1.162 1.162zm2.162-2.016h1.68v1.064h.028c.187-.392.453-.695.798-.91s.742-.322 1.19-.322a1.49 1.49 0 0 1 .294.028l.308.07v1.624a3.32 3.32 0 0 0-.42-.084c-.131-.028-.261-.042-.392-.042-.392 0-.709.075-.952.224a1.76 1.76 0 0 0-.546.49 1.87 1.87 0 0 0-.252.56 2.39 2.39 0 0 0-.056.42v3.598h-1.68v-6.72zm6.539 3.948c.056.504.252.896.588 1.176s.742.42 1.218.42c.42 0 .77-.084 1.05-.252a2.98 2.98 0 0 0 .756-.658l1.204.91c-.392.485-.83.831-1.316 1.036s-.994.308-1.526.308c-.504 0-.98-.084-1.428-.252s-.835-.406-1.162-.714a3.51 3.51 0 0 1-.784-1.106c-.186-.439-.28-.924-.28-1.456s.094-1.013.28-1.442c.196-.439.458-.812.784-1.12s.714-.546 1.162-.714.924-.252 1.428-.252c.467 0 .892.084 1.274.252.392.159.724.392.994.7.28.308.495.691.644 1.148.159.448.238.966.238 1.554v.462h-5.124zm3.444-1.26c-.009-.495-.163-.882-.462-1.162-.298-.289-.714-.434-1.246-.434-.504 0-.905.145-1.204.434-.289.289-.466.677-.532 1.162h3.444zm7.451 3.108h-.042c-.242.383-.55.663-.924.84-.373.168-.784.252-1.232.252-.308 0-.611-.042-.91-.126-.289-.084-.55-.21-.784-.378-.224-.168-.406-.378-.546-.63s-.21-.546-.21-.882c0-.364.066-.672.196-.924a1.87 1.87 0 0 1 .518-.644c.224-.177.481-.317.77-.42s.588-.177.896-.224c.318-.056.635-.089.952-.098l.896-.028h.42v-.182c0-.42-.144-.733-.434-.938-.289-.215-.658-.322-1.106-.322a2.52 2.52 0 0 0-.994.196 2.42 2.42 0 0 0-.798.504l-.882-.882c.374-.383.808-.658 1.302-.826.504-.168 1.022-.252 1.554-.252.476 0 .878.056 1.204.168.327.103.598.238.812.406a1.72 1.72 0 0 1 .49.588 2.24 2.24 0 0 1 .252.658c.056.224.089.443.098.658l.014.546v3.864h-1.512v-.924zm-.098-2.086h-.35l-.784.028a3.92 3.92 0 0 0-.826.14c-.252.065-.466.168-.644.308-.177.131-.266.317-.266.56 0 .159.033.294.098.406.075.103.168.191.28.266s.238.131.378.168c.14.028.28.042.42.042.579 0 1.004-.135 1.274-.406.28-.28.42-.658.42-1.134v-.378zm2.634-2.282v-1.428h1.386v-1.946h1.68v1.946h1.848v1.428h-1.848v2.94c0 .336.06.602.182.798.13.196.382.294.756.294a3.17 3.17 0 0 0 .49-.042c.177-.037.317-.093.42-.168v1.414c-.178.084-.397.14-.658.168-.252.037-.476.056-.672.056-.448 0-.817-.051-1.106-.154-.28-.093-.504-.238-.672-.434-.159-.205-.271-.457-.336-.756-.056-.299-.084-.644-.084-1.036v-3.08h-1.386zm6.267-1.428h1.68v6.72h-1.68v-6.72zm-.238-2.282c0-.271.098-.504.294-.7.205-.205.462-.308.77-.308a1.07 1.07 0 0 1 .77.294.9.9 0 0 1 .322.714c0 .289-.107.532-.322.728a1.1 1.1 0 0 1-.77.28 1.07 1.07 0 0 1-.77-.294c-.196-.205-.294-.443-.294-.714zm2.937 2.282h1.834l1.792 4.704h.028l1.806-4.704h1.722l-2.646 6.72h-1.792l-2.744-6.72zm9.513 3.948c.056.504.252.896.588 1.176s.742.42 1.218.42c.42 0 .77-.084 1.05-.252a2.98 2.98 0 0 0 .756-.658l1.204.91c-.392.485-.83.831-1.316 1.036s-.994.308-1.526.308c-.504 0-.98-.084-1.428-.252s-.835-.406-1.162-.714a3.51 3.51 0 0 1-.784-1.106c-.186-.439-.28-.924-.28-1.456s.094-1.013.28-1.442c.196-.439.458-.812.784-1.12s.714-.546 1.162-.714.924-.252 1.428-.252c.467 0 .892.084 1.274.252.392.159.724.392.994.7.28.308.495.691.644 1.148.159.448.238.966.238 1.554v.462h-5.124zm3.444-1.26c-.009-.495-.163-.882-.462-1.162-.298-.289-.714-.434-1.246-.434-.504 0-.905.145-1.204.434-.289.289-.466.677-.532 1.162h3.444zm6.835-.826c-.326-.457-.765-.686-1.316-.686a1.41 1.41 0 0 0-.658.168.57.57 0 0 0-.322.546.47.47 0 0 0 .266.448c.178.093.402.173.672.238l.868.21c.318.065.612.173.882.322.271.14.495.336.672.588s.266.597.266 1.036c0 .401-.088.742-.266 1.022-.168.271-.392.49-.672.658-.27.168-.578.289-.924.364s-.69.112-1.036.112c-.522 0-1.003-.075-1.442-.224s-.83-.42-1.176-.812l1.12-1.05c.215.243.444.443.686.602.252.149.556.224.91.224.122 0 .248-.014.378-.042s.252-.075.364-.14.201-.145.266-.238a.58.58 0 0 0 .112-.35c0-.233-.088-.406-.266-.518s-.401-.201-.672-.266c-.27-.075-.564-.14-.882-.196-.308-.065-.597-.163-.868-.294-.27-.14-.494-.331-.672-.574s-.266-.579-.266-1.008c0-.373.075-.695.224-.966a2.08 2.08 0 0 1 .616-.686c.252-.177.542-.308.868-.392a3.98 3.98 0 0 1 .994-.126 3.88 3.88 0 0 1 1.33.238c.439.149.794.411 1.064.784l-1.12 1.008z"/></g></svg>