<svg xmlns="http://www.w3.org/2000/svg" xmlns:xlink="http://www.w3.org/1999/xlink" width="1472" height="254" fill="none" xmlns:v="https://vecta.io/nano"><style><![CDATA[.B{stroke:#1bfcb6}.C{fill:#1bfcb6}]]></style><path d="M19.525 203.867h285.762 286.946l288.72-28.398 284.577-57.389 286.95-84.013" stroke-width="3" class="B"/><g stroke="#c9cbdd"><path d="M19.525 203.867H1457.21"/><path d="M306.471.343v249.081M592.824.343v249.081M879.178.343v249.081M1165.53.343v249.081"/></g><circle cx="19.524" cy="203.867" r="19.024" class="B"/><circle cx="19.524" cy="203.867" r="5.325" class="C"/><circle cx="305.878" cy="203.867" r="19.024" class="B"/><circle cx="305.878" cy="203.867" r="5.325" class="C"/><circle cx="592.231" cy="203.867" r="19.024" class="B"/><circle cx="592.231" cy="203.867" r="5.325" class="C"/><circle cx="878.585" cy="176.06" r="19.024" class="B"/><circle cx="878.585" cy="176.06" r="5.325" class="C"/><circle cx="1164.94" cy="119.263" r="19.024" class="B"/><circle cx="1164.94" cy="119.263" r="5.325" class="C"/><circle cx="1452.48" cy="34.067" r="19.024" class="B"/><circle cx="1452.48" cy="34.067" r="5.325" class="C"/><g fill="#000"><path d="M101.041 236.66c-.2-.29-.47-.5-.81-.63-.33-.14-.68-.21-1.05-.21-.22 0-.435.025-.645.075a1.83 1.83 0 0 0-.555.24 1.26 1.26 0 0 0-.39.435c-.1.17-.15.375-.15.615 0 .36.125.635.375.825s.56.355.93.495l1.215.405c.44.13.845.31 1.215.54s.68.535.93.915.375.885.375 1.515c0 .57-.105 1.07-.315 1.5-.21.42-.495.77-.855 1.05-.35.28-.76.49-1.23.63a5.17 5.17 0 0 1-1.485.21 5.57 5.57 0 0 1-1.905-.33 3.67 3.67 0 0 1-1.575-1.11l1.425-1.38a2.46 2.46 0 0 0 .9.825 2.65 2.65 0 0 0 1.2.285 2.5 2.5 0 0 0 .66-.09 2.04 2.04 0 0 0 .6-.27 1.44 1.44 0 0 0 .435-.45c.11-.19.165-.405.165-.645 0-.39-.125-.69-.375-.9s-.56-.385-.93-.525a13.18 13.18 0 0 0-1.215-.42 5.31 5.31 0 0 1-1.215-.525c-.37-.23-.68-.53-.93-.9-.25-.38-.375-.885-.375-1.515 0-.55.11-1.025.33-1.425.23-.4.525-.73.885-.99.37-.27.79-.47 1.26-.6s.95-.195 1.44-.195c.56 0 1.1.085 1.62.255.53.17 1.005.45 1.425.84l-1.38 1.455zm2.404 2.67v-1.53h1.485v-2.085h1.8v2.085h1.98v1.53h-1.98v3.15c0 .36.065.645.195.855.14.21.41.315.81.315.16 0 .335-.015.525-.045.19-.04.34-.1.45-.18v1.515c-.19.09-.425.15-.705.18-.27.04-.51.06-.72.06-.48 0-.875-.055-1.185-.165-.3-.1-.54-.255-.72-.465-.17-.22-.29-.49-.36-.81-.06-.32-.09-.69-.09-1.11v-3.3h-1.485zm8.11 2.7c.06.54.27.96.63 1.26s.795.45 1.305.45c.45 0 .825-.09 1.125-.27.31-.19.58-.425.81-.705l1.29.975c-.42.52-.89.89-1.41 1.11s-1.065.33-1.635.33a4.32 4.32 0 0 1-1.53-.27 3.67 3.67 0 0 1-1.245-.765c-.35-.33-.63-.725-.84-1.185-.2-.47-.3-.99-.3-1.56s.1-1.085.3-1.545c.21-.47.49-.87.84-1.2a3.67 3.67 0 0 1 1.245-.765 4.32 4.32 0 0 1 1.53-.27 3.36 3.36 0 0 1 1.365.27 2.79 2.79 0 0 1 1.065.75c.3.33.53.74.69 1.23.17.48.255 1.035.255 1.665v.495h-5.49zm3.69-1.35c-.01-.53-.175-.945-.495-1.245-.32-.31-.765-.465-1.335-.465-.54 0-.97.155-1.29.465-.31.31-.5.725-.57 1.245h3.69zm3.483-2.88h1.71v1.08h.03c.26-.44.61-.76 1.05-.96s.915-.3 1.425-.3c.55 0 1.045.1 1.485.3a3.24 3.24 0 0 1 1.125.795 3.43 3.43 0 0 1 .705 1.2 4.49 4.49 0 0 1 .24 1.485 4.25 4.25 0 0 1-.255 1.485c-.17.46-.41.86-.72 1.2-.3.34-.665.61-1.095.81a3.45 3.45 0 0 1-1.41.285c-.34 0-.64-.035-.9-.105a3.1 3.1 0 0 1-.69-.27c-.2-.11-.37-.225-.51-.345-.14-.13-.255-.255-.345-.375h-.045v4.335h-1.8V237.8zm5.97 3.6c0-.28-.05-.55-.15-.81-.09-.26-.23-.49-.42-.69-.18-.2-.4-.36-.66-.48s-.555-.18-.885-.18-.625.06-.885.18a2.18 2.18 0 0 0-.675.48c-.18.2-.32.43-.42.69a2.46 2.46 0 0 0-.135.81 2.46 2.46 0 0 0 .135.81c.1.26.24.49.42.69a2.18 2.18 0 0 0 .675.48c.26.12.555.18.885.18s.625-.06.885-.18.48-.28.66-.48c.19-.2.33-.43.42-.69.1-.26.15-.53.15-.81zm7.497-1.71c0-.84.065-1.555.195-2.145.14-.6.32-1.1.54-1.5.22-.41.465-.735.735-.975.28-.25.56-.435.84-.555a3.23 3.23 0 0 1 .825-.255c.27-.04.505-.06.705-.06a4.6 4.6 0 0 1 .69.06c.27.04.545.125.825.255.29.12.57.305.84.555.28.24.53.565.75.975.22.4.395.9.525 1.5.14.59.21 1.305.21 2.145s-.07 1.56-.21 2.16c-.13.59-.305 1.09-.525 1.5-.22.4-.47.725-.75.975-.27.24-.55.425-.84.555-.28.12-.555.2-.825.24a4.6 4.6 0 0 1-.69.06c-.2 0-.435-.02-.705-.06a3.6 3.6 0 0 1-.825-.24 3.69 3.69 0 0 1-.84-.555c-.27-.25-.515-.575-.735-.975-.22-.41-.4-.91-.54-1.5-.13-.6-.195-1.32-.195-2.16zm1.8 0a12.96 12.96 0 0 0 .06 1.155 5.51 5.51 0 0 0 .285 1.23c.14.39.345.72.615.99s.63.405 1.08.405.81-.135 1.08-.405.475-.6.615-.99.23-.8.27-1.23l.075-1.155c0-.33-.025-.71-.075-1.14-.04-.44-.13-.855-.27-1.245s-.345-.72-.615-.99-.63-.405-1.08-.405-.81.135-1.08.405-.475.6-.615.99-.235.805-.285 1.245l-.06 1.14zm10.497-3.24l-1.995 1.845-1.05-1.245 3.21-2.67h1.635V245h-1.8v-8.55z"/><use xlink:href="#B"/><use xlink:href="#B" x="287.5"/><path d="M963.541 236.66c-.2-.29-.47-.5-.81-.63a2.66 2.66 0 0 0-1.05-.21c-.22 0-.435.025-.645.075a1.83 1.83 0 0 0-.555.24 1.26 1.26 0 0 0-.39.435c-.1.17-.15.375-.15.615 0 .36.125.635.375.825s.56.355.93.495l1.215.405a4.94 4.94 0 0 1 1.215.54c.37.23.68.535.93.915s.375.885.375 1.515c0 .57-.105 1.07-.315 1.5-.21.42-.495.77-.855 1.05-.35.28-.76.49-1.23.63s-.965.21-1.485.21a5.57 5.57 0 0 1-1.905-.33 3.67 3.67 0 0 1-1.575-1.11l1.425-1.38a2.46 2.46 0 0 0 .9.825 2.65 2.65 0 0 0 1.2.285 2.5 2.5 0 0 0 .66-.09 2.04 2.04 0 0 0 .6-.27c.18-.12.325-.27.435-.45.11-.19.165-.405.165-.645 0-.39-.125-.69-.375-.9s-.56-.385-.93-.525a13.18 13.18 0 0 0-1.215-.42 5.31 5.31 0 0 1-1.215-.525c-.37-.23-.68-.53-.93-.9-.25-.38-.375-.885-.375-1.515 0-.55.11-1.025.33-1.425.23-.4.525-.73.885-.99.37-.27.79-.47 1.26-.6s.95-.195 1.44-.195a5.18 5.18 0 0 1 1.62.255c.53.17 1.005.45 1.425.84l-1.38 1.455zm2.404 2.67v-1.53h1.485v-2.085h1.8v2.085h1.98v1.53h-1.98v3.15c0 .36.065.645.195.855.14.21.41.315.81.315.16 0 .335-.015.525-.045.19-.04.34-.1.45-.18v1.515c-.19.09-.425.15-.705.18-.27.04-.51.06-.72.06-.48 0-.875-.055-1.185-.165-.3-.1-.54-.255-.72-.465-.17-.22-.29-.49-.36-.81-.06-.32-.09-.69-.09-1.11v-3.3h-1.485zm8.11 2.7c.06.54.27.96.63 1.26s.795.45 1.305.45c.45 0 .825-.09 1.125-.27.31-.19.58-.425.81-.705l1.29.975c-.42.52-.89.89-1.41 1.11s-1.065.33-1.635.33a4.32 4.32 0 0 1-1.53-.27 3.67 3.67 0 0 1-1.245-.765c-.35-.33-.63-.725-.84-1.185-.2-.47-.3-.99-.3-1.56s.1-1.085.3-1.545c.21-.47.49-.87.84-1.2a3.67 3.67 0 0 1 1.245-.765 4.32 4.32 0 0 1 1.53-.27 3.36 3.36 0 0 1 1.365.27 2.79 2.79 0 0 1 1.065.75c.3.33.53.74.69 1.23.17.48.255 1.035.255 1.665v.495h-5.49zm3.69-1.35c-.01-.53-.175-.945-.495-1.245-.32-.31-.765-.465-1.335-.465-.54 0-.97.155-1.29.465-.31.31-.5.725-.57 1.245h3.69zm3.483-2.88h1.71v1.08h.03c.26-.44.61-.76 1.05-.96s.915-.3 1.425-.3c.55 0 1.045.1 1.485.3a3.24 3.24 0 0 1 1.125.795 3.43 3.43 0 0 1 .705 1.2 4.49 4.49 0 0 1 .24 1.485 4.25 4.25 0 0 1-.255 1.485c-.17.46-.41.86-.72 1.2-.3.34-.665.61-1.095.81a3.45 3.45 0 0 1-1.41.285c-.34 0-.64-.035-.9-.105a3.1 3.1 0 0 1-.69-.27c-.2-.11-.37-.225-.51-.345-.14-.13-.255-.255-.345-.375h-.045v4.335h-1.8V237.8zm5.97 3.6c0-.28-.05-.55-.15-.81-.09-.26-.23-.49-.42-.69-.18-.2-.4-.36-.66-.48s-.555-.18-.885-.18-.625.06-.885.18a2.18 2.18 0 0 0-.675.48c-.18.2-.32.43-.42.69a2.46 2.46 0 0 0-.135.81 2.46 2.46 0 0 0 .135.81c.1.26.24.49.42.69a2.18 2.18 0 0 0 .675.48c.26.12.555.18.885.18s.625-.06.885-.18.48-.28.66-.48c.19-.2.33-.43.42-.69.1-.26.15-.53.15-.81zm7.497-1.71c0-.84.065-1.555.195-2.145.14-.6.32-1.1.54-1.5.22-.41.465-.735.735-.975.28-.25.56-.435.84-.555a3.23 3.23 0 0 1 .825-.255c.27-.04.505-.06.705-.06a4.6 4.6 0 0 1 .69.06c.27.04.545.125.825.255.29.12.57.305.84.555.28.24.53.565.75.975.22.4.39.9.52 1.5.14.59.21 1.305.21 2.145s-.07 1.56-.21 2.16c-.13.59-.3 1.09-.52 1.5-.22.4-.47.725-.75.975-.27.24-.55.425-.84.555-.28.12-.555.2-.825.24a4.6 4.6 0 0 1-.69.06c-.2 0-.435-.02-.705-.06a3.6 3.6 0 0 1-.825-.24 3.69 3.69 0 0 1-.84-.555c-.27-.25-.515-.575-.735-.975-.22-.41-.4-.91-.54-1.5-.13-.6-.195-1.32-.195-2.16zm1.8 0a12.96 12.96 0 0 0 .06 1.155 5.51 5.51 0 0 0 .285 1.23c.14.39.345.72.615.99s.63.405 1.08.405.81-.135 1.08-.405.475-.6.615-.99.23-.8.27-1.23a10.27 10.27 0 0 0 .07-1.155c0-.33-.02-.71-.07-1.14-.04-.44-.13-.855-.27-1.245s-.345-.72-.615-.99-.63-.405-1.08-.405-.81.135-1.08.405-.475.6-.615.99-.235.805-.285 1.245l-.06 1.14zm10.495-3.24l-1.99 1.845-1.05-1.245 3.21-2.67h1.63V245h-1.8v-8.55zm244.05.21c-.2-.29-.47-.5-.81-.63a2.66 2.66 0 0 0-1.05-.21c-.22 0-.43.025-.64.075a1.86 1.86 0 0 0-.56.24 1.26 1.26 0 0 0-.39.435c-.1.17-.15.375-.15.615 0 .36.13.635.38.825s.56.355.93.495l1.21.405c.44.13.85.31 1.22.54s.68.535.93.915.37.885.37 1.515c0 .57-.1 1.07-.31 1.5-.21.42-.5.77-.86 1.05-.35.28-.76.49-1.23.63a5.14 5.14 0 0 1-1.48.21 5.6 5.6 0 0 1-1.91-.33c-.61-.22-1.13-.59-1.57-1.11l1.42-1.38a2.46 2.46 0 0 0 .9.825 2.65 2.65 0 0 0 1.2.285 2.5 2.5 0 0 0 .66-.09 2.04 2.04 0 0 0 .6-.27c.18-.12.33-.27.44-.45a1.26 1.26 0 0 0 .16-.645c0-.39-.12-.69-.37-.9s-.56-.385-.93-.525a13.3 13.3 0 0 0-1.22-.42 5.27 5.27 0 0 1-1.21-.525c-.37-.23-.68-.53-.93-.9-.25-.38-.38-.885-.38-1.515 0-.55.11-1.025.33-1.425a3.14 3.14 0 0 1 .89-.99c.37-.27.79-.47 1.26-.6s.95-.195 1.44-.195a5.18 5.18 0 0 1 1.62.255c.53.17 1 .45 1.42.84l-1.38 1.455zm2.4 2.67v-1.53h1.49v-2.085h1.8v2.085h1.98v1.53h-1.98v3.15c0 .36.06.645.19.855.14.21.41.315.81.315.16 0 .34-.015.53-.045.19-.04.34-.1.45-.18v1.515a2.23 2.23 0 0 1-.71.18c-.27.04-.51.06-.72.06-.48 0-.87-.055-1.18-.165-.3-.1-.54-.255-.72-.465-.17-.22-.29-.49-.36-.81-.06-.32-.09-.69-.09-1.11v-3.3h-1.49zm8.11 2.7c.06.54.27.96.63 1.26s.8.45 1.31.45c.45 0 .82-.09 1.12-.27.31-.19.58-.425.81-.705l1.29.975c-.42.52-.89.89-1.41 1.11a4.13 4.13 0 0 1-1.63.33 4.32 4.32 0 0 1-1.53-.27c-.48-.18-.9-.435-1.25-.765s-.63-.725-.84-1.185c-.2-.47-.3-.99-.3-1.56s.1-1.085.3-1.545c.21-.47.49-.87.84-1.2s.77-.585 1.25-.765a4.32 4.32 0 0 1 1.53-.27c.5 0 .95.09 1.36.27.42.17.78.42 1.07.75.3.33.53.74.69 1.23.17.48.25 1.035.25 1.665v.495h-5.49zm3.69-1.35c-.01-.53-.17-.945-.49-1.245-.32-.31-.77-.465-1.34-.465-.54 0-.97.155-1.29.465-.31.31-.5.725-.57 1.245h3.69zm3.49-2.88h1.71v1.08h.03c.26-.44.61-.76 1.05-.96a3.38 3.38 0 0 1 1.42-.3c.55 0 1.05.1 1.49.3a3.22 3.22 0 0 1 1.12.795 3.44 3.44 0 0 1 .71 1.2 4.49 4.49 0 0 1 .24 1.485c0 .53-.09 1.025-.26 1.485s-.41.86-.72 1.2a3.27 3.27 0 0 1-1.09.81 3.45 3.45 0 0 1-1.41.285c-.34 0-.64-.035-.9-.105a3.1 3.1 0 0 1-.69-.27c-.2-.11-.37-.225-.51-.345-.14-.13-.26-.255-.35-.375h-.04v4.335h-1.8V237.8zm5.97 3.6c0-.28-.05-.55-.15-.81-.09-.26-.23-.49-.42-.69-.18-.2-.4-.36-.66-.48s-.56-.18-.89-.18-.62.06-.88.18-.49.28-.68.48c-.18.2-.32.43-.42.69-.09.26-.13.53-.13.81s.04.55.13.81c.1.26.24.49.42.69.19.2.42.36.68.48s.55.18.88.18.63-.06.89-.18.48-.28.66-.48c.19-.2.33-.43.42-.69.1-.26.15-.53.15-.81zm7.49-1.71c0-.84.07-1.555.2-2.145.14-.6.32-1.1.54-1.5.22-.41.46-.735.73-.975.28-.25.56-.435.84-.555a3.26 3.26 0 0 1 .83-.255c.27-.04.5-.06.7-.06a4.6 4.6 0 0 1 .69.06c.27.04.55.125.83.255.29.12.57.305.84.555.28.24.53.565.75.975.22.4.39.9.52 1.5.14.59.21 1.305.21 2.145s-.07 1.56-.21 2.16c-.13.59-.3 1.09-.52 1.5-.22.4-.47.725-.75.975-.27.24-.55.425-.84.555a3.37 3.37 0 0 1-.83.24 4.6 4.6 0 0 1-.69.06c-.2 0-.43-.02-.7-.06-.26-.04-.54-.12-.83-.24a3.69 3.69 0 0 1-.84-.555c-.27-.25-.51-.575-.73-.975-.22-.41-.4-.91-.54-1.5-.13-.6-.2-1.32-.2-2.16zm1.8 0a12.96 12.96 0 0 0 .06 1.155 5.52 5.52 0 0 0 .29 1.23c.14.39.34.72.61.99s.63.405 1.08.405.81-.135 1.08-.405.48-.6.62-.99.23-.8.27-1.23a10.27 10.27 0 0 0 .07-1.155c0-.33-.02-.71-.07-1.14-.04-.44-.13-.855-.27-1.245s-.35-.72-.62-.99-.63-.405-1.08-.405-.81.135-1.08.405-.47.6-.61.99a5.52 5.52 0 0 0-.29 1.245l-.06 1.14zm10.5-3.24l-1.99 1.845-1.05-1.245 3.21-2.67h1.63V245h-1.8v-8.55z"/><path d="M92.372 103.768c-.293-.425-.689-.733-1.188-.924-.484-.205-.997-.308-1.54-.308a4.09 4.09 0 0 0-.946.11c-.293.073-.565.191-.814.352-.235.161-.425.374-.572.638-.147.249-.22.55-.22.902 0 .528.183.931.55 1.21s.821.521 1.364.726l1.782.594a7.27 7.27 0 0 1 1.782.792c.543.337.997.785 1.364 1.342s.55 1.298.55 2.222c0 .836-.154 1.569-.462 2.2-.308.616-.726 1.129-1.254 1.54-.513.411-1.115.719-1.804.924a7.6 7.6 0 0 1-2.178.308c-.968 0-1.899-.161-2.794-.484s-1.665-.865-2.31-1.628l2.09-2.024c.337.513.777.917 1.32 1.21a3.88 3.88 0 0 0 1.76.418c.323 0 .645-.044.968-.132s.616-.22.88-.396.477-.396.638-.66c.161-.279.242-.594.242-.946 0-.572-.183-1.012-.55-1.32s-.821-.565-1.364-.77c-.543-.22-1.137-.425-1.782-.616a7.79 7.79 0 0 1-1.782-.77 4.49 4.49 0 0 1-1.364-1.32c-.367-.557-.55-1.298-.55-2.222 0-.807.161-1.503.484-2.09.337-.587.77-1.071 1.298-1.452.543-.396 1.159-.689 1.848-.88s1.393-.286 2.112-.286c.821 0 1.613.125 2.376.374.777.249 1.474.66 2.09 1.232l-2.024 2.134zm6.869 7.876c.088.792.396 1.408.924 1.848s1.166.66 1.914.66c.66 0 1.21-.132 1.65-.396a4.74 4.74 0 0 0 1.188-1.034l1.892 1.43c-.616.763-1.306 1.305-2.068 1.628s-1.562.484-2.398.484c-.792 0-1.54-.132-2.244-.396a5.38 5.38 0 0 1-1.826-1.122c-.513-.484-.924-1.063-1.232-1.738-.293-.689-.44-1.452-.44-2.288s.147-1.591.44-2.266c.308-.689.719-1.276 1.232-1.76a5.38 5.38 0 0 1 1.826-1.122c.704-.264 1.452-.396 2.244-.396.733 0 1.4.132 2.002.396a4.09 4.09 0 0 1 1.562 1.1c.44.484.777 1.085 1.012 1.804.249.704.374 1.518.374 2.442v.726h-8.052zm5.412-1.98c-.015-.777-.257-1.386-.726-1.826-.47-.455-1.122-.682-1.958-.682-.792 0-1.423.227-1.892.682-.455.455-.733 1.063-.836 1.826h5.412zm3.877-1.98v-2.244h2.178v-3.058h2.64v3.058h2.904v2.244h-2.904v4.62c0 .528.095.946.286 1.254.205.308.601.462 1.188.462.234 0 .491-.022.77-.066.278-.059.498-.147.66-.264v2.222c-.279.132-.624.22-1.034.264-.396.059-.748.088-1.056.088-.704 0-1.284-.081-1.738-.242-.44-.147-.792-.374-1.056-.682-.25-.323-.426-.719-.528-1.188-.088-.469-.132-1.012-.132-1.628v-4.84h-2.178zM134.458 116h-2.508v-1.694h-.044c-.249.528-.63.99-1.144 1.386-.513.381-1.21.572-2.09.572-.704 0-1.305-.11-1.804-.33a3.42 3.42 0 0 1-1.188-.924c-.308-.396-.528-.843-.66-1.342a6.08 6.08 0 0 1-.198-1.562v-6.666h2.64v5.346l.044.99a3.94 3.94 0 0 0 .22 1.012 2.2 2.2 0 0 0 .572.792c.264.205.631.308 1.1.308.44 0 .807-.073 1.1-.22.308-.147.558-.345.748-.594a2.26 2.26 0 0 0 .44-.858 3.83 3.83 0 0 0 .132-1.012v-5.764h2.64V116zm2.997-10.56h2.508v1.584h.044c.381-.645.895-1.115 1.54-1.408s1.342-.44 2.09-.44c.807 0 1.533.147 2.178.44.645.279 1.195.667 1.65 1.166s.799 1.085 1.034 1.76.352 1.401.352 2.178-.125 1.503-.374 2.178-.601 1.261-1.056 1.76c-.44.499-.975.895-1.606 1.188-.631.279-1.32.418-2.068.418a5.08 5.08 0 0 1-1.32-.154 4.58 4.58 0 0 1-1.012-.396c-.293-.161-.543-.33-.748-.506-.205-.191-.374-.374-.506-.55h-.066v6.358h-2.64V105.44zm8.756 5.28a3.27 3.27 0 0 0-.22-1.188c-.132-.381-.337-.719-.616-1.012a2.95 2.95 0 0 0-.968-.704c-.381-.176-.814-.264-1.298-.264s-.917.088-1.298.264-.711.411-.99.704a3.24 3.24 0 0 0-.616 1.012c-.132.381-.198.777-.198 1.188s.066.807.198 1.188a3.24 3.24 0 0 0 .616 1.012c.279.293.609.528.99.704s.814.264 1.298.264.917-.088 1.298-.264a2.95 2.95 0 0 0 .968-.704c.279-.293.484-.631.616-1.012a3.27 3.27 0 0 0 .22-1.188zm10.181-5.28h2.904l2.948 7.326h.044l2.64-7.326h2.75l-4.994 12.826a7.07 7.07 0 0 1-.638 1.298 3.36 3.36 0 0 1-.792.946c-.308.264-.674.455-1.1.572-.41.132-.909.198-1.496.198-.689 0-1.364-.088-2.024-.264l.33-2.376c.206.073.418.132.638.176.235.059.47.088.704.088.323 0 .594-.029.814-.088s.404-.154.55-.286c.162-.117.294-.279.396-.484.103-.191.213-.425.33-.704l.506-1.254-4.51-10.648zm12.31 5.28c0-.836.147-1.591.44-2.266a5.44 5.44 0 0 1 1.232-1.76c.514-.484 1.122-.858 1.826-1.122s1.452-.396 2.244-.396 1.54.132 2.244.396 1.313.638 1.826 1.122.917 1.071 1.21 1.76c.308.675.462 1.43.462 2.266s-.154 1.599-.462 2.288a5.2 5.2 0 0 1-1.21 1.738c-.513.484-1.122.858-1.826 1.122s-1.452.396-2.244.396-1.54-.132-2.244-.396-1.312-.638-1.826-1.122a5.5 5.5 0 0 1-1.232-1.738c-.293-.689-.44-1.452-.44-2.288zm2.64 0c0 .411.066.807.198 1.188a3.24 3.24 0 0 0 .616 1.012c.279.293.609.528.99.704s.814.264 1.298.264.917-.088 1.298-.264a2.94 2.94 0 0 0 .968-.704c.279-.293.484-.631.616-1.012a3.27 3.27 0 0 0 .22-1.188 3.27 3.27 0 0 0-.22-1.188c-.132-.381-.337-.719-.616-1.012a2.94 2.94 0 0 0-.968-.704c-.381-.176-.814-.264-1.298-.264s-.916.088-1.298.264-.711.411-.99.704a3.24 3.24 0 0 0-.616 1.012c-.132.381-.198.777-.198 1.188zm20.952 5.28h-2.508v-1.694h-.044c-.249.528-.631.99-1.144 1.386-.513.381-1.21.572-2.09.572-.704 0-1.305-.11-1.804-.33a3.42 3.42 0 0 1-1.188-.924c-.308-.396-.528-.843-.66-1.342a6.08 6.08 0 0 1-.198-1.562v-6.666h2.64v5.346l.044.99c.029.352.103.689.22 1.012a2.2 2.2 0 0 0 .572.792c.264.205.631.308 1.1.308.44 0 .807-.073 1.1-.22a2.02 2.02 0 0 0 .748-.594c.205-.249.352-.535.44-.858a3.83 3.83 0 0 0 .132-1.012v-5.764h2.64V116zm2.997-10.56h2.64v1.672h.044a3.31 3.31 0 0 1 1.254-1.43c.543-.337 1.166-.506 1.87-.506.161 0 .315.015.462.044l.484.11v2.552a5.14 5.14 0 0 0-.66-.132 2.93 2.93 0 0 0-.616-.066c-.616 0-1.115.117-1.496.352a2.75 2.75 0 0 0-.858.77 2.9 2.9 0 0 0-.396.88c-.059.293-.088.513-.088.66V116h-2.64v-10.56zM91.712 128.608c-.308-.323-.631-.579-.968-.77s-.682-.286-1.034-.286c-.484 0-.917.088-1.298.264s-.711.411-.99.704c-.264.293-.469.631-.616 1.012-.132.381-.198.777-.198 1.188s.066.807.198 1.188c.147.381.352.719.616 1.012.279.293.609.528.99.704s.814.264 1.298.264c.411 0 .792-.081 1.144-.242.352-.176.653-.425.902-.748l1.76 1.892a3.98 3.98 0 0 1-.924.682c-.337.191-.682.345-1.034.462a5.63 5.63 0 0 1-1.012.242c-.323.059-.601.088-.836.088-.792 0-1.54-.132-2.244-.396s-1.313-.638-1.826-1.122-.924-1.063-1.232-1.738c-.293-.689-.44-1.452-.44-2.288s.147-1.591.44-2.266c.308-.689.719-1.276 1.232-1.76s1.122-.858 1.826-1.122 1.452-.396 2.244-.396a5.52 5.52 0 0 1 2.024.396 4.51 4.51 0 0 1 1.804 1.21l-1.826 1.826zm9.997 5.94h-.066c-.381.601-.865 1.041-1.452 1.32-.586.264-1.232.396-1.936.396-.484 0-.961-.066-1.43-.198-.455-.132-.865-.33-1.232-.594-.352-.264-.638-.594-.858-.99s-.33-.858-.33-1.386c0-.572.103-1.056.308-1.452.205-.411.477-.748.814-1.012.352-.279.755-.499 1.21-.66s.924-.279 1.408-.352c.499-.088.997-.139 1.496-.154l1.408-.044h.66v-.286c0-.66-.227-1.151-.682-1.474-.454-.337-1.034-.506-1.738-.506-.557 0-1.078.103-1.562.308-.484.191-.902.455-1.254.792l-1.386-1.386a5.13 5.13 0 0 1 2.046-1.298c.792-.264 1.606-.396 2.442-.396.748 0 1.379.088 1.892.264.514.161.939.374 1.276.638a2.7 2.7 0 0 1 .77.924c.191.337.323.682.396 1.034.088.352.14.697.154 1.034l.022.858V136h-2.376v-1.452zm-.154-3.278h-.55l-1.232.044c-.455.029-.887.103-1.298.22-.396.103-.733.264-1.012.484-.279.205-.418.499-.418.88 0 .249.051.462.154.638a1.71 1.71 0 0 0 .44.418 2 2 0 0 0 .594.264 3.36 3.36 0 0 0 .66.066c.909 0 1.577-.213 2.002-.638.44-.44.66-1.034.66-1.782v-.594zm5.261-5.83h2.508v1.65h.044c.234-.499.608-.939 1.122-1.32.528-.396 1.232-.594 2.112-.594 1.657 0 2.757.653 3.3 1.958.381-.675.858-1.166 1.43-1.474.572-.323 1.254-.484 2.046-.484.704 0 1.298.117 1.782.352s.872.557 1.166.968c.308.411.528.895.66 1.452.132.543.198 1.129.198 1.76V136h-2.64v-5.984a4.75 4.75 0 0 0-.088-.924c-.059-.308-.162-.572-.308-.792-.147-.235-.345-.418-.594-.55s-.572-.198-.968-.198c-.411 0-.763.081-1.056.242-.279.147-.514.352-.704.616-.176.249-.308.543-.396.88a4.42 4.42 0 0 0-.11.99V136h-2.64v-6.292c0-.66-.14-1.181-.418-1.562-.279-.396-.741-.594-1.386-.594-.44 0-.814.073-1.122.22-.294.147-.543.345-.748.594a2.45 2.45 0 0 0-.418.858 3.83 3.83 0 0 0-.132 1.012V136h-2.64v-10.56zm19.252 0h2.508v1.584h.044a3.4 3.4 0 0 1 1.54-1.408c.646-.293 1.342-.44 2.09-.44.807 0 1.533.147 2.178.44.646.279 1.196.667 1.65 1.166s.8 1.085 1.034 1.76.352 1.401.352 2.178-.124 1.503-.374 2.178-.601 1.261-1.056 1.76c-.44.499-.975.895-1.606 1.188-.63.279-1.32.418-2.068.418-.498 0-.938-.051-1.32-.154a4.6 4.6 0 0 1-1.012-.396c-.293-.161-.542-.33-.748-.506-.205-.191-.374-.374-.506-.55h-.066v6.358h-2.64V125.44zm8.756 5.28a3.27 3.27 0 0 0-.22-1.188c-.132-.381-.337-.719-.616-1.012a2.94 2.94 0 0 0-.968-.704c-.381-.176-.814-.264-1.298-.264s-.916.088-1.298.264-.711.411-.99.704a3.24 3.24 0 0 0-.616 1.012c-.132.381-.198.777-.198 1.188s.066.807.198 1.188a3.24 3.24 0 0 0 .616 1.012c.279.293.609.528.99.704s.814.264 1.298.264.917-.088 1.298-.264a2.94 2.94 0 0 0 .968-.704c.279-.293.484-.631.616-1.012a3.27 3.27 0 0 0 .22-1.188zm11.702 3.828h-.066c-.382.601-.866 1.041-1.452 1.32-.587.264-1.232.396-1.936.396-.484 0-.961-.066-1.43-.198-.455-.132-.866-.33-1.232-.594-.352-.264-.638-.594-.858-.99s-.33-.858-.33-1.386c0-.572.102-1.056.308-1.452.205-.411.476-.748.814-1.012a4.17 4.17 0 0 1 1.21-.66c.454-.161.924-.279 1.408-.352a10.38 10.38 0 0 1 1.496-.154l1.408-.044h.66v-.286c0-.66-.228-1.151-.682-1.474-.455-.337-1.034-.506-1.738-.506a3.96 3.96 0 0 0-1.562.308c-.484.191-.902.455-1.254.792l-1.386-1.386c.586-.601 1.268-1.034 2.046-1.298.792-.264 1.606-.396 2.442-.396.748 0 1.378.088 1.892.264.513.161.938.374 1.276.638a2.71 2.71 0 0 1 .77.924c.19.337.322.682.396 1.034.088.352.139.697.154 1.034l.022.858V136h-2.376v-1.452zm-.154-3.278h-.55l-1.232.044c-.455.029-.888.103-1.298.22-.396.103-.734.264-1.012.484-.279.205-.418.499-.418.88 0 .249.051.462.154.638.117.161.264.301.44.418a2 2 0 0 0 .594.264 3.36 3.36 0 0 0 .66.066c.909 0 1.576-.213 2.002-.638.44-.44.66-1.034.66-1.782v-.594zm5.414-5.83h2.64V136h-2.64v-10.56zm-.374-3.586a1.5 1.5 0 0 1 .462-1.1 1.64 1.64 0 0 1 1.21-.484c.484 0 .887.154 1.21.462a1.42 1.42 0 0 1 .506 1.122c0 .455-.169.836-.506 1.144-.323.293-.726.44-1.21.44s-.887-.154-1.21-.462c-.308-.323-.462-.697-.462-1.122zm16.913 3.586v9.614c0 .953-.117 1.811-.352 2.574-.235.777-.601 1.43-1.1 1.958-.484.543-1.1.961-1.848 1.254s-1.635.44-2.662.44c-.983 0-1.914-.125-2.794-.374s-1.694-.704-2.442-1.364l1.584-2.156c.528.484 1.078.858 1.65 1.122s1.232.396 1.98.396c.631 0 1.159-.088 1.584-.264.44-.176.785-.418 1.034-.726.264-.308.447-.682.55-1.122a5.39 5.39 0 0 0 .176-1.43v-.77h-.044c-.381.513-.887.902-1.518 1.166a5.23 5.23 0 0 1-1.936.374c-.792 0-1.511-.139-2.156-.418a5.43 5.43 0 0 1-1.672-1.166c-.455-.484-.807-1.056-1.056-1.716s-.374-1.364-.374-2.112c0-.777.117-1.503.352-2.178s.579-1.261 1.034-1.76.997-.887 1.628-1.166c.645-.293 1.379-.44 2.2-.44.748 0 1.445.147 2.09.44s1.159.763 1.54 1.408h.044v-1.584h2.508zm-5.632 2.112a3.25 3.25 0 0 0-1.276.242c-.381.147-.711.359-.99.638a2.95 2.95 0 0 0-.638.99c-.147.381-.22.807-.22 1.276 0 .425.073.821.22 1.188a3.14 3.14 0 0 0 .66.968c.279.279.609.499.99.66s.792.242 1.232.242c.484 0 .917-.081 1.298-.242a2.95 2.95 0 0 0 .99-.638c.279-.279.491-.609.638-.99s.22-.792.22-1.232c0-.924-.279-1.672-.836-2.244s-1.32-.858-2.288-.858zm8.621-2.112h2.508v1.694h.044c.25-.528.631-.983 1.144-1.364.514-.396 1.21-.594 2.09-.594.704 0 1.298.117 1.782.352.499.235.902.543 1.21.924s.528.821.66 1.32a6.08 6.08 0 0 1 .198 1.562V136h-2.64v-5.346l-.044-.968c-.029-.367-.11-.704-.242-1.012-.117-.323-.308-.587-.572-.792-.264-.22-.623-.33-1.078-.33-.44 0-.814.073-1.122.22-.293.147-.542.345-.748.594a2.47 2.47 0 0 0-.418.858 3.83 3.83 0 0 0-.132 1.012V136h-2.64v-10.56z"/><path d="M393.212 110.28c0 .939-.161 1.789-.484 2.552-.323.748-.763 1.386-1.32 1.914s-1.217.939-1.98 1.232c-.763.279-1.591.418-2.486.418s-1.723-.139-2.486-.418a6.19 6.19 0 0 1-2.002-1.232c-.557-.528-.997-1.166-1.32-1.914-.308-.763-.462-1.613-.462-2.552v-9.856h2.772v9.768c0 .381.059.785.176 1.21.117.411.308.792.572 1.144.279.352.638.645 1.078.88.455.22 1.012.33 1.672.33s1.21-.11 1.65-.33c.455-.235.814-.528 1.078-.88a3.27 3.27 0 0 0 .594-1.144c.117-.425.176-.829.176-1.21v-9.768h2.772v9.856zm3.161-4.84h2.508v1.584h.044c.381-.645.895-1.115 1.54-1.408s1.342-.44 2.09-.44c.807 0 1.533.147 2.178.44.645.279 1.195.667 1.65 1.166s.799 1.085 1.034 1.76.352 1.401.352 2.178-.125 1.503-.374 2.178-.601 1.261-1.056 1.76c-.44.499-.975.895-1.606 1.188-.631.279-1.32.418-2.068.418a5.08 5.08 0 0 1-1.32-.154 4.58 4.58 0 0 1-1.012-.396c-.293-.161-.543-.33-.748-.506-.205-.191-.374-.374-.506-.55h-.066v6.358h-2.64V105.44zm8.756 5.28a3.27 3.27 0 0 0-.22-1.188c-.132-.381-.337-.719-.616-1.012a2.95 2.95 0 0 0-.968-.704c-.381-.176-.814-.264-1.298-.264s-.917.088-1.298.264-.711.411-.99.704a3.24 3.24 0 0 0-.616 1.012c-.132.381-.198.777-.198 1.188s.066.807.198 1.188a3.24 3.24 0 0 0 .616 1.012c.279.293.609.528.99.704s.814.264 1.298.264.917-.088 1.298-.264a2.95 2.95 0 0 0 .968-.704c.279-.293.484-.631.616-1.012a3.27 3.27 0 0 0 .22-1.188zm5.145-11.352h2.64V116h-2.64V99.368zm5.143 11.352c0-.836.147-1.591.44-2.266a5.44 5.44 0 0 1 1.232-1.76c.514-.484 1.122-.858 1.826-1.122s1.452-.396 2.244-.396 1.54.132 2.244.396 1.313.638 1.826 1.122.917 1.071 1.21 1.76c.308.675.462 1.43.462 2.266s-.154 1.599-.462 2.288a5.2 5.2 0 0 1-1.21 1.738c-.513.484-1.122.858-1.826 1.122s-1.452.396-2.244.396-1.54-.132-2.244-.396-1.312-.638-1.826-1.122a5.5 5.5 0 0 1-1.232-1.738c-.293-.689-.44-1.452-.44-2.288zm2.64 0c0 .411.066.807.198 1.188a3.24 3.24 0 0 0 .616 1.012c.279.293.609.528.99.704s.814.264 1.298.264.917-.088 1.298-.264a2.94 2.94 0 0 0 .968-.704c.279-.293.484-.631.616-1.012a3.27 3.27 0 0 0 .22-1.188 3.27 3.27 0 0 0-.22-1.188c-.132-.381-.337-.719-.616-1.012a2.94 2.94 0 0 0-.968-.704c-.381-.176-.814-.264-1.298-.264s-.916.088-1.298.264-.711.411-.99.704a3.24 3.24 0 0 0-.616 1.012c-.132.381-.198.777-.198 1.188zm17.916 3.828h-.066c-.381.601-.865 1.041-1.452 1.32-.587.264-1.232.396-1.936.396-.484 0-.961-.066-1.43-.198-.455-.132-.865-.33-1.232-.594-.352-.264-.638-.594-.858-.99s-.33-.858-.33-1.386c0-.572.103-1.056.308-1.452a2.92 2.92 0 0 1 .814-1.012 4.17 4.17 0 0 1 1.21-.66c.455-.161.924-.279 1.408-.352.499-.088.997-.139 1.496-.154l1.408-.044h.66v-.286c0-.66-.227-1.151-.682-1.474-.455-.337-1.034-.506-1.738-.506-.557 0-1.078.103-1.562.308-.484.191-.902.455-1.254.792l-1.386-1.386c.587-.601 1.269-1.034 2.046-1.298.792-.264 1.606-.396 2.442-.396.748 0 1.379.088 1.892.264.513.161.939.374 1.276.638a2.71 2.71 0 0 1 .77.924c.191.337.323.682.396 1.034.088.352.139.697.154 1.034l.022.858V116h-2.376v-1.452zm-.154-3.278h-.55l-1.232.044c-.455.029-.887.103-1.298.22-.396.103-.733.264-1.012.484-.279.205-.418.499-.418.88 0 .249.051.462.154.638.117.161.264.301.44.418a2 2 0 0 0 .594.264 3.36 3.36 0 0 0 .66.066c.909 0 1.577-.213 2.002-.638.44-.44.66-1.034.66-1.782v-.594zm13.73 3.146h-.044a3.39 3.39 0 0 1-1.54 1.408c-.645.293-1.342.44-2.09.44-.821 0-1.554-.139-2.2-.418-.63-.293-1.173-.689-1.628-1.188s-.799-1.085-1.034-1.76-.352-1.401-.352-2.178.125-1.503.374-2.178.594-1.261 1.034-1.76c.455-.499.998-.887 1.628-1.166.631-.293 1.32-.44 2.068-.44a5.08 5.08 0 0 1 1.32.154c.382.103.719.235 1.012.396a3.69 3.69 0 0 1 .748.528c.206.176.374.352.506.528h.066v-7.414h2.64V116h-2.508v-1.584zm-6.248-3.696c0 .411.066.807.198 1.188a3.24 3.24 0 0 0 .616 1.012c.279.293.609.528.99.704s.814.264 1.298.264.917-.088 1.298-.264a2.94 2.94 0 0 0 .968-.704c.279-.293.484-.631.616-1.012a3.27 3.27 0 0 0 .22-1.188 3.27 3.27 0 0 0-.22-1.188c-.132-.381-.337-.719-.616-1.012a2.94 2.94 0 0 0-.968-.704c-.381-.176-.814-.264-1.298-.264s-.916.088-1.298.264-.711.411-.99.704a3.24 3.24 0 0 0-.616 1.012c-.132.381-.198.777-.198 1.188zm-55.589 17.888a4.22 4.22 0 0 0-.968-.77c-.337-.191-.682-.286-1.034-.286-.484 0-.917.088-1.298.264s-.711.411-.99.704a3.24 3.24 0 0 0-.616 1.012c-.132.381-.198.777-.198 1.188s.066.807.198 1.188a3.24 3.24 0 0 0 .616 1.012c.279.293.609.528.99.704s.814.264 1.298.264c.411 0 .792-.081 1.144-.242a2.59 2.59 0 0 0 .902-.748l1.76 1.892a3.98 3.98 0 0 1-.924.682c-.337.191-.682.345-1.034.462s-.689.198-1.012.242c-.323.059-.601.088-.836.088-.792 0-1.54-.132-2.244-.396s-1.313-.638-1.826-1.122a5.5 5.5 0 0 1-1.232-1.738c-.293-.689-.44-1.452-.44-2.288s.147-1.591.44-2.266a5.44 5.44 0 0 1 1.232-1.76c.513-.484 1.122-.858 1.826-1.122s1.452-.396 2.244-.396c.675 0 1.349.132 2.024.396a4.51 4.51 0 0 1 1.804 1.21l-1.826 1.826zm3.397-3.168h2.64v1.672h.044c.294-.616.712-1.093 1.254-1.43s1.166-.506 1.87-.506c.162 0 .316.015.462.044l.484.11v2.552a5.14 5.14 0 0 0-.66-.132c-.205-.044-.41-.066-.616-.066-.616 0-1.114.117-1.496.352-.366.22-.652.477-.858.77a2.95 2.95 0 0 0-.396.88c-.058.293-.088.513-.088.66V136h-2.64v-10.56zm10.276 6.204c.088.792.396 1.408.924 1.848s1.166.66 1.914.66c.66 0 1.21-.132 1.65-.396.455-.279.851-.623 1.188-1.034l1.892 1.43c-.616.763-1.305 1.305-2.068 1.628s-1.562.484-2.398.484c-.792 0-1.54-.132-2.244-.396s-1.312-.638-1.826-1.122a5.5 5.5 0 0 1-1.232-1.738c-.293-.689-.44-1.452-.44-2.288s.147-1.591.44-2.266a5.44 5.44 0 0 1 1.232-1.76c.514-.484 1.122-.858 1.826-1.122s1.452-.396 2.244-.396c.734 0 1.401.132 2.002.396.616.249 1.137.616 1.562 1.1.44.484.778 1.085 1.012 1.804.25.704.374 1.518.374 2.442v.726h-8.052zm5.412-1.98c-.014-.777-.256-1.386-.726-1.826-.469-.455-1.122-.682-1.958-.682-.792 0-1.422.227-1.892.682-.454.455-.733 1.063-.836 1.826h5.412zm11.709 4.884h-.066c-.381.601-.865 1.041-1.452 1.32-.587.264-1.232.396-1.936.396-.484 0-.961-.066-1.43-.198-.455-.132-.865-.33-1.232-.594-.352-.264-.638-.594-.858-.99s-.33-.858-.33-1.386c0-.572.103-1.056.308-1.452a2.92 2.92 0 0 1 .814-1.012 4.17 4.17 0 0 1 1.21-.66c.455-.161.924-.279 1.408-.352.499-.088.997-.139 1.496-.154l1.408-.044h.66v-.286c0-.66-.227-1.151-.682-1.474-.455-.337-1.034-.506-1.738-.506-.557 0-1.078.103-1.562.308-.484.191-.902.455-1.254.792l-1.386-1.386c.587-.601 1.269-1.034 2.046-1.298.792-.264 1.606-.396 2.442-.396.748 0 1.379.088 1.892.264.513.161.939.374 1.276.638a2.71 2.71 0 0 1 .77.924c.191.337.323.682.396 1.034.088.352.139.697.154 1.034l.022.858V136h-2.376v-1.452zm-.154-3.278h-.55l-1.232.044c-.455.029-.887.103-1.298.22-.396.103-.733.264-1.012.484-.279.205-.418.499-.418.88 0 .249.051.462.154.638.117.161.264.301.44.418a2 2 0 0 0 .594.264 3.36 3.36 0 0 0 .66.066c.909 0 1.577-.213 2.002-.638.44-.44.66-1.034.66-1.782v-.594zm4.139-3.586v-2.244h2.178v-3.058h2.64v3.058h2.904v2.244h-2.904v4.62c0 .528.095.946.286 1.254.205.308.601.462 1.188.462.234 0 .491-.022.77-.066.278-.059.498-.147.66-.264v2.222c-.279.132-.624.22-1.034.264-.396.059-.748.088-1.056.088-.704 0-1.284-.081-1.738-.242-.44-.147-.792-.374-1.056-.682-.25-.323-.426-.719-.528-1.188-.088-.469-.132-1.012-.132-1.628v-4.84h-2.178zm9.848-2.244h2.64V136h-2.64v-10.56zm-.374-3.586a1.5 1.5 0 0 1 .462-1.1c.322-.323.726-.484 1.21-.484s.887.154 1.21.462a1.42 1.42 0 0 1 .506 1.122c0 .455-.169.836-.506 1.144-.323.293-.726.44-1.21.44s-.888-.154-1.21-.462c-.308-.323-.462-.697-.462-1.122zm4.615 3.586h2.882l2.816 7.392h.044l2.838-7.392h2.706L443.708 136h-2.816l-4.312-10.56zm14.95 6.204c.088.792.396 1.408.924 1.848s1.166.66 1.914.66c.66 0 1.21-.132 1.65-.396.455-.279.851-.623 1.188-1.034l1.892 1.43c-.616.763-1.305 1.305-2.068 1.628s-1.562.484-2.398.484c-.792 0-1.54-.132-2.244-.396s-1.313-.638-1.826-1.122a5.5 5.5 0 0 1-1.232-1.738c-.293-.689-.44-1.452-.44-2.288s.147-1.591.44-2.266a5.44 5.44 0 0 1 1.232-1.76c.513-.484 1.122-.858 1.826-1.122s1.452-.396 2.244-.396c.733 0 1.401.132 2.002.396.616.249 1.137.616 1.562 1.1.44.484.777 1.085 1.012 1.804.249.704.374 1.518.374 2.442v.726h-8.052zm5.412-1.98c-.015-.777-.257-1.386-.726-1.826-.469-.455-1.122-.682-1.958-.682-.792 0-1.423.227-1.892.682-.455.455-.733 1.063-.836 1.826h5.412zm10.741-1.298c-.514-.719-1.203-1.078-2.068-1.078a2.21 2.21 0 0 0-1.034.264c-.338.176-.506.462-.506.858 0 .323.139.557.418.704s.63.271 1.056.374l1.364.33c.498.103.96.271 1.386.506.425.22.777.528 1.056.924s.418.939.418 1.628c0 .631-.14 1.166-.418 1.606a3.1 3.1 0 0 1-1.056 1.034c-.426.264-.91.455-1.452.572s-1.086.176-1.628.176c-.822 0-1.577-.117-2.266-.352s-1.306-.66-1.848-1.276l1.76-1.65a5.34 5.34 0 0 0 1.078.946c.396.235.872.352 1.43.352.19 0 .388-.022.594-.066s.396-.117.572-.22a1.3 1.3 0 0 0 .418-.374c.117-.161.176-.345.176-.55 0-.367-.14-.638-.418-.814s-.631-.315-1.056-.418l-1.386-.308c-.484-.103-.939-.257-1.364-.462-.426-.22-.778-.521-1.056-.902s-.418-.909-.418-1.584c0-.587.117-1.093.352-1.518.249-.44.572-.799.968-1.078s.85-.484 1.364-.616 1.034-.198 1.562-.198c.704 0 1.4.125 2.09.374.689.235 1.246.645 1.672 1.232l-1.76 1.584z"/><path d="M663.928 102.932h-4.774v-2.508h12.32v2.508H666.7V116h-2.772v-13.068zm11.841 3.982h.044c.205-.44.564-.836 1.078-1.188.528-.367 1.202-.55 2.024-.55.704 0 1.298.117 1.782.352a3.38 3.38 0 0 1 1.21.924c.308.381.528.821.66 1.32a6.08 6.08 0 0 1 .198 1.562V116h-2.64v-5.346l-.044-.968c-.03-.367-.11-.704-.242-1.012-.118-.323-.308-.587-.572-.792-.264-.22-.624-.33-1.078-.33-.44 0-.814.073-1.122.22-.294.147-.543.345-.748.594a2.45 2.45 0 0 0-.418.858 3.83 3.83 0 0 0-.132 1.012V116h-2.64V99.368h2.64v7.546zm12.105 4.73c.088.792.396 1.408.924 1.848s1.166.66 1.914.66c.66 0 1.21-.132 1.65-.396a4.74 4.74 0 0 0 1.188-1.034l1.892 1.43c-.616.763-1.306 1.305-2.068 1.628s-1.562.484-2.398.484c-.792 0-1.54-.132-2.244-.396s-1.313-.638-1.826-1.122-.924-1.063-1.232-1.738c-.294-.689-.44-1.452-.44-2.288s.146-1.591.44-2.266c.308-.689.718-1.276 1.232-1.76s1.122-.858 1.826-1.122 1.452-.396 2.244-.396c.733 0 1.4.132 2.002.396a4.09 4.09 0 0 1 1.562 1.1c.44.484.777 1.085 1.012 1.804.249.704.374 1.518.374 2.442v.726h-8.052zm5.412-1.98c-.015-.777-.257-1.386-.726-1.826-.47-.455-1.122-.682-1.958-.682-.792 0-1.423.227-1.892.682-.455.455-.734 1.063-.836 1.826h5.412zm11.662-10.296h2.64V116h-2.64V99.368zm7.783 12.276c.088.792.396 1.408.924 1.848s1.166.66 1.914.66c.66 0 1.21-.132 1.65-.396.455-.279.851-.623 1.188-1.034l1.892 1.43c-.616.763-1.305 1.305-2.068 1.628s-1.562.484-2.398.484c-.792 0-1.54-.132-2.244-.396s-1.313-.638-1.826-1.122a5.5 5.5 0 0 1-1.232-1.738c-.293-.689-.44-1.452-.44-2.288s.147-1.591.44-2.266a5.44 5.44 0 0 1 1.232-1.76c.513-.484 1.122-.858 1.826-1.122s1.452-.396 2.244-.396c.733 0 1.401.132 2.002.396.616.249 1.137.616 1.562 1.1.44.484.777 1.085 1.012 1.804.249.704.374 1.518.374 2.442v.726h-8.052zm5.412-1.98c-.015-.777-.257-1.386-.726-1.826-.469-.455-1.122-.682-1.958-.682-.792 0-1.423.227-1.892.682-.455.455-.733 1.063-.836 1.826h5.412zm11.709 4.884h-.066c-.381.601-.865 1.041-1.452 1.32-.587.264-1.232.396-1.936.396-.484 0-.961-.066-1.43-.198-.455-.132-.865-.33-1.232-.594-.352-.264-.638-.594-.858-.99s-.33-.858-.33-1.386c0-.572.103-1.056.308-1.452a2.92 2.92 0 0 1 .814-1.012 4.17 4.17 0 0 1 1.21-.66c.455-.161.924-.279 1.408-.352.499-.088.997-.139 1.496-.154l1.408-.044h.66v-.286c0-.66-.227-1.151-.682-1.474-.455-.337-1.034-.506-1.738-.506-.557 0-1.078.103-1.562.308-.484.191-.902.455-1.254.792l-1.386-1.386c.587-.601 1.269-1.034 2.046-1.298.792-.264 1.606-.396 2.442-.396.748 0 1.379.088 1.892.264.513.161.939.374 1.276.638a2.71 2.71 0 0 1 .77.924c.191.337.323.682.396 1.034.088.352.139.697.154 1.034l.022.858V116h-2.376v-1.452zm-.154-3.278h-.55l-1.232.044c-.455.029-.887.103-1.298.22-.396.103-.733.264-1.012.484-.279.205-.418.499-.418.88 0 .249.051.462.154.638.117.161.264.301.44.418a2 2 0 0 0 .594.264 3.36 3.36 0 0 0 .66.066c.909 0 1.577-.213 2.002-.638.44-.44.66-1.034.66-1.782v-.594zm5.37-5.83h2.64v1.672h.044c.294-.616.712-1.093 1.254-1.43s1.166-.506 1.87-.506c.162 0 .316.015.462.044l.484.11v2.552a5.14 5.14 0 0 0-.66-.132c-.205-.044-.41-.066-.616-.066-.616 0-1.114.117-1.496.352-.366.22-.652.477-.858.77a2.95 2.95 0 0 0-.396.88c-.058.293-.088.513-.088.66V116h-2.64v-10.56zm8.938 0h2.508v1.694h.044c.249-.528.63-.983 1.144-1.364.513-.396 1.21-.594 2.09-.594.704 0 1.298.117 1.782.352a3.38 3.38 0 0 1 1.21.924c.308.381.528.821.66 1.32a6.08 6.08 0 0 1 .198 1.562V116h-2.64v-5.346l-.044-.968c-.03-.367-.11-.704-.242-1.012-.118-.323-.308-.587-.572-.792-.264-.22-.624-.33-1.078-.33-.44 0-.814.073-1.122.22-.294.147-.543.345-.748.594a2.45 2.45 0 0 0-.418.858 3.83 3.83 0 0 0-.132 1.012V116h-2.64v-10.56zm12.677 0h2.64V116h-2.64v-10.56zm-.374-3.586a1.5 1.5 0 0 1 .462-1.1c.322-.323.726-.484 1.21-.484s.887.154 1.21.462a1.42 1.42 0 0 1 .506 1.122c0 .455-.169.836-.506 1.144-.323.293-.726.44-1.21.44s-.888-.154-1.21-.462c-.308-.323-.462-.697-.462-1.122zm6.044 3.586h2.508v1.694h.044c.25-.528.631-.983 1.144-1.364.514-.396 1.21-.594 2.09-.594.704 0 1.298.117 1.782.352.499.235.902.543 1.21.924s.528.821.66 1.32a6.08 6.08 0 0 1 .198 1.562V116h-2.64v-5.346l-.044-.968c-.029-.367-.11-.704-.242-1.012-.117-.323-.308-.587-.572-.792-.264-.22-.623-.33-1.078-.33-.44 0-.814.073-1.122.22-.293.147-.542.345-.748.594a2.47 2.47 0 0 0-.418.858 3.83 3.83 0 0 0-.132 1.012V116h-2.64v-10.56zm23.501 0v9.614c0 .953-.117 1.811-.352 2.574-.234.777-.601 1.43-1.1 1.958-.484.543-1.1.961-1.848 1.254s-1.635.44-2.662.44a10.22 10.22 0 0 1-2.794-.374c-.88-.249-1.694-.704-2.442-1.364l1.584-2.156c.528.484 1.078.858 1.65 1.122s1.232.396 1.98.396c.631 0 1.159-.088 1.584-.264.44-.176.785-.418 1.034-.726.264-.308.448-.682.55-1.122.118-.425.176-.902.176-1.43v-.77h-.044c-.381.513-.887.902-1.518 1.166-.63.249-1.276.374-1.936.374-.792 0-1.51-.139-2.156-.418a5.44 5.44 0 0 1-1.672-1.166c-.454-.484-.806-1.056-1.056-1.716s-.374-1.364-.374-2.112c0-.777.118-1.503.352-2.178s.58-1.261 1.034-1.76.998-.887 1.628-1.166c.646-.293 1.379-.44 2.2-.44.748 0 1.445.147 2.09.44a3.39 3.39 0 0 1 1.54 1.408h.044v-1.584h2.508zm-5.632 2.112c-.469 0-.894.081-1.276.242-.381.147-.711.359-.99.638-.264.264-.476.594-.638.99-.146.381-.22.807-.22 1.276 0 .425.074.821.22 1.188.162.367.382.689.66.968s.609.499.99.66.792.242 1.232.242c.484 0 .917-.081 1.298-.242a2.95 2.95 0 0 0 .99-.638 2.8 2.8 0 0 0 .638-.99c.147-.381.22-.792.22-1.232 0-.924-.278-1.672-.836-2.244s-1.32-.858-2.288-.858zM660.496 125.44h2.508v1.584h.044c.381-.645.895-1.115 1.54-1.408s1.342-.44 2.09-.44c.807 0 1.533.147 2.178.44.645.279 1.195.667 1.65 1.166s.799 1.085 1.034 1.76.352 1.401.352 2.178-.125 1.503-.374 2.178-.601 1.261-1.056 1.76c-.44.499-.975.895-1.606 1.188-.631.279-1.32.418-2.068.418a5.08 5.08 0 0 1-1.32-.154 4.58 4.58 0 0 1-1.012-.396c-.293-.161-.543-.33-.748-.506-.205-.191-.374-.374-.506-.55h-.066v6.358h-2.64V125.44zm8.756 5.28a3.27 3.27 0 0 0-.22-1.188c-.132-.381-.337-.719-.616-1.012a2.95 2.95 0 0 0-.968-.704c-.381-.176-.814-.264-1.298-.264s-.917.088-1.298.264-.711.411-.99.704a3.24 3.24 0 0 0-.616 1.012c-.132.381-.198.777-.198 1.188s.066.807.198 1.188a3.24 3.24 0 0 0 .616 1.012c.279.293.609.528.99.704s.814.264 1.298.264.917-.088 1.298-.264a2.95 2.95 0 0 0 .968-.704c.279-.293.484-.631.616-1.012a3.27 3.27 0 0 0 .22-1.188zm5.101-5.28h2.64v1.672h.044c.294-.616.712-1.093 1.254-1.43s1.166-.506 1.87-.506c.162 0 .316.015.462.044l.484.11v2.552a5.14 5.14 0 0 0-.66-.132c-.205-.044-.41-.066-.616-.066-.616 0-1.114.117-1.496.352-.366.22-.652.477-.858.77a2.95 2.95 0 0 0-.396.88c-.058.293-.088.513-.088.66V136h-2.64v-10.56zm7.636 5.28c0-.836.147-1.591.44-2.266a5.44 5.44 0 0 1 1.232-1.76c.514-.484 1.122-.858 1.826-1.122s1.452-.396 2.244-.396 1.54.132 2.244.396 1.313.638 1.826 1.122.917 1.071 1.21 1.76c.308.675.462 1.43.462 2.266s-.154 1.599-.462 2.288a5.2 5.2 0 0 1-1.21 1.738c-.513.484-1.122.858-1.826 1.122s-1.452.396-2.244.396-1.54-.132-2.244-.396-1.312-.638-1.826-1.122a5.5 5.5 0 0 1-1.232-1.738c-.293-.689-.44-1.452-.44-2.288zm2.64 0c0 .411.066.807.198 1.188a3.24 3.24 0 0 0 .616 1.012c.279.293.609.528.99.704s.814.264 1.298.264.917-.088 1.298-.264a2.94 2.94 0 0 0 .968-.704c.279-.293.484-.631.616-1.012a3.27 3.27 0 0 0 .22-1.188 3.27 3.27 0 0 0-.22-1.188c-.132-.381-.337-.719-.616-1.012a2.94 2.94 0 0 0-.968-.704c-.381-.176-.814-.264-1.298-.264s-.916.088-1.298.264-.711.411-.99.704a3.24 3.24 0 0 0-.616 1.012c-.132.381-.198.777-.198 1.188zm18.532-2.112c-.308-.323-.63-.579-.968-.77s-.682-.286-1.034-.286c-.484 0-.916.088-1.298.264s-.711.411-.99.704a3.24 3.24 0 0 0-.616 1.012c-.132.381-.198.777-.198 1.188s.066.807.198 1.188a3.24 3.24 0 0 0 .616 1.012c.279.293.609.528.99.704s.814.264 1.298.264c.411 0 .792-.081 1.144-.242a2.59 2.59 0 0 0 .902-.748l1.76 1.892a3.98 3.98 0 0 1-.924.682c-.337.191-.682.345-1.034.462s-.689.198-1.012.242a4.73 4.73 0 0 1-.836.088c-.792 0-1.54-.132-2.244-.396s-1.312-.638-1.826-1.122a5.5 5.5 0 0 1-1.232-1.738c-.293-.689-.44-1.452-.44-2.288s.147-1.591.44-2.266a5.44 5.44 0 0 1 1.232-1.76c.514-.484 1.122-.858 1.826-1.122s1.452-.396 2.244-.396c.675 0 1.35.132 2.024.396.69.249 1.291.653 1.804 1.21l-1.826 1.826zm5.51 3.036c.088.792.396 1.408.924 1.848s1.166.66 1.914.66c.66 0 1.21-.132 1.65-.396a4.74 4.74 0 0 0 1.188-1.034l1.892 1.43c-.616.763-1.306 1.305-2.068 1.628s-1.562.484-2.398.484c-.792 0-1.54-.132-2.244-.396s-1.313-.638-1.826-1.122-.924-1.063-1.232-1.738c-.294-.689-.44-1.452-.44-2.288s.146-1.591.44-2.266c.308-.689.718-1.276 1.232-1.76s1.122-.858 1.826-1.122 1.452-.396 2.244-.396c.733 0 1.4.132 2.002.396a4.09 4.09 0 0 1 1.562 1.1c.44.484.777 1.085 1.012 1.804.249.704.374 1.518.374 2.442v.726h-8.052zm5.412-1.98c-.015-.777-.257-1.386-.726-1.826-.47-.455-1.122-.682-1.958-.682-.792 0-1.423.227-1.892.682-.455.455-.734 1.063-.836 1.826h5.412zm10.74-1.298a2.41 2.41 0 0 0-2.068-1.078c-.352 0-.696.088-1.034.264s-.506.462-.506.858a.74.74 0 0 0 .418.704c.279.147.631.271 1.056.374l1.364.33c.499.103.961.271 1.386.506.426.22.778.528 1.056.924s.418.939.418 1.628c0 .631-.139 1.166-.418 1.606a3.1 3.1 0 0 1-1.056 1.034 4.54 4.54 0 0 1-1.452.572 7.7 7.7 0 0 1-1.628.176c-.821 0-1.576-.117-2.266-.352s-1.305-.66-1.848-1.276l1.76-1.65c.338.381.697.697 1.078.946.396.235.873.352 1.43.352a2.83 2.83 0 0 0 .594-.066c.206-.044.396-.117.572-.22a1.29 1.29 0 0 0 .418-.374c.118-.161.176-.345.176-.55 0-.367-.139-.638-.418-.814s-.63-.315-1.056-.418l-1.386-.308a6.02 6.02 0 0 1-1.364-.462 3 3 0 0 1-1.056-.902c-.278-.381-.418-.909-.418-1.584 0-.587.118-1.093.352-1.518.25-.44.572-.799.968-1.078s.851-.484 1.364-.616a6.25 6.25 0 0 1 1.562-.198 6.11 6.11 0 0 1 2.09.374c.69.235 1.247.645 1.672 1.232l-1.76 1.584zm9.776 0c-.514-.719-1.203-1.078-2.068-1.078a2.21 2.21 0 0 0-1.034.264c-.338.176-.506.462-.506.858 0 .323.139.557.418.704s.63.271 1.056.374l1.364.33c.498.103.96.271 1.386.506.425.22.777.528 1.056.924s.418.939.418 1.628c0 .631-.14 1.166-.418 1.606a3.1 3.1 0 0 1-1.056 1.034c-.426.264-.91.455-1.452.572s-1.086.176-1.628.176c-.822 0-1.577-.117-2.266-.352s-1.306-.66-1.848-1.276l1.76-1.65a5.34 5.34 0 0 0 1.078.946c.396.235.872.352 1.43.352.19 0 .388-.022.594-.066s.396-.117.572-.22a1.3 1.3 0 0 0 .418-.374c.117-.161.176-.345.176-.55 0-.367-.14-.638-.418-.814s-.631-.315-1.056-.418l-1.386-.308c-.484-.103-.939-.257-1.364-.462-.426-.22-.778-.521-1.056-.902s-.418-.909-.418-1.584c0-.587.117-1.093.352-1.518.249-.44.572-.799.968-1.078s.85-.484 1.364-.616 1.034-.198 1.562-.198c.704 0 1.4.125 2.09.374.689.235 1.246.645 1.672 1.232l-1.76 1.584z"/><path d="M950.902 108.278c0-1.247.205-2.376.616-3.388.411-1.027.975-1.899 1.694-2.618.733-.719 1.599-1.269 2.596-1.65 1.012-.396 2.119-.594 3.322-.594 1.217-.015 2.332.169 3.344.55 1.012.367 1.885.909 2.618 1.628s1.305 1.584 1.716 2.596.616 2.141.616 3.388c0 1.217-.205 2.325-.616 3.322s-.983 1.855-1.716 2.574-1.606 1.283-2.618 1.694c-1.012.396-2.127.601-3.344.616-1.203 0-2.31-.191-3.322-.572-.997-.396-1.863-.946-2.596-1.65-.719-.719-1.283-1.577-1.694-2.574s-.616-2.105-.616-3.322zm2.904-.176c0 .836.125 1.606.374 2.31.264.704.631 1.313 1.1 1.826a5.1 5.1 0 0 0 1.672 1.21c.66.293 1.393.44 2.2.44s1.54-.147 2.2-.44 1.225-.697 1.694-1.21.829-1.122 1.078-1.826c.264-.704.396-1.474.396-2.31 0-.777-.132-1.503-.396-2.178a5.13 5.13 0 0 0-1.078-1.76c-.469-.513-1.034-.909-1.694-1.188-.66-.293-1.393-.44-2.2-.44s-1.54.147-2.2.44c-.645.279-1.203.675-1.672 1.188-.469.499-.836 1.085-1.1 1.76-.249.675-.374 1.401-.374 2.178zm16.016-2.662h2.508v1.584h.044a3.4 3.4 0 0 1 1.54-1.408c.646-.293 1.342-.44 2.09-.44.807 0 1.533.147 2.178.44.646.279 1.196.667 1.65 1.166s.8 1.085 1.034 1.76.352 1.401.352 2.178-.124 1.503-.374 2.178-.601 1.261-1.056 1.76c-.44.499-.975.895-1.606 1.188-.63.279-1.32.418-2.068.418-.498 0-.938-.051-1.32-.154a4.6 4.6 0 0 1-1.012-.396c-.293-.161-.542-.33-.748-.506-.205-.191-.374-.374-.506-.55h-.066v6.358h-2.64V105.44zm8.756 5.28a3.27 3.27 0 0 0-.22-1.188c-.132-.381-.337-.719-.616-1.012a2.94 2.94 0 0 0-.968-.704c-.381-.176-.814-.264-1.298-.264s-.916.088-1.298.264-.711.411-.99.704a3.24 3.24 0 0 0-.616 1.012c-.132.381-.198.777-.198 1.188s.066.807.198 1.188a3.24 3.24 0 0 0 .616 1.012c.279.293.609.528.99.704s.814.264 1.298.264.917-.088 1.298-.264a2.94 2.94 0 0 0 .968-.704c.279-.293.484-.631.616-1.012a3.27 3.27 0 0 0 .22-1.188zm3.87-3.036v-2.244h2.178v-3.058h2.64v3.058h2.904v2.244h-2.904v4.62c0 .528.095.946.286 1.254.205.308.601.462 1.188.462.234 0 .491-.022.77-.066.278-.059.498-.147.66-.264v2.222c-.279.132-.624.22-1.034.264-.396.059-.748.088-1.056.088-.704 0-1.284-.081-1.738-.242-.44-.147-.792-.374-1.056-.682-.25-.323-.426-.719-.528-1.188-.088-.469-.132-1.012-.132-1.628v-4.84h-2.178zm9.848-2.244h2.64V116h-2.64v-10.56zm-.374-3.586a1.5 1.5 0 0 1 .462-1.1 1.64 1.64 0 0 1 1.21-.484c.484 0 .887.154 1.21.462a1.42 1.42 0 0 1 .506 1.122c0 .455-.169.836-.506 1.144-.323.293-.726.44-1.21.44s-.887-.154-1.21-.462c-.308-.323-.462-.697-.462-1.122zm5.935 3.586h2.503v1.65h.05c.23-.499.61-.939 1.12-1.32.53-.396 1.23-.594 2.11-.594 1.66 0 2.76.653 3.3 1.958.38-.675.86-1.166 1.43-1.474.57-.323 1.26-.484 2.05-.484.7 0 1.3.117 1.78.352s.87.557 1.17.968a4.15 4.15 0 0 1 .66 1.452 7.55 7.55 0 0 1 .19 1.76V116h-2.64v-5.984c0-.323-.02-.631-.08-.924-.06-.308-.16-.572-.31-.792-.15-.235-.35-.418-.6-.55-.24-.132-.57-.198-.96-.198-.41 0-.77.081-1.06.242-.28.147-.51.352-.7.616-.18.249-.31.543-.4.88-.07.323-.11.653-.11.99V116h-2.64v-6.292c0-.66-.14-1.181-.42-1.562-.28-.396-.74-.594-1.38-.594-.44 0-.82.073-1.13.22-.29.147-.54.345-.74.594a2.51 2.51 0 0 0-.42.858 3.75 3.75 0 0 0-.13 1.012V116h-2.643v-10.56zm19.293 0h2.64V116h-2.64v-10.56zm-.37-3.586a1.49 1.49 0 0 1 .46-1.1c.32-.323.73-.484 1.21-.484.49 0 .89.154 1.21.462.34.293.51.667.51 1.122a1.48 1.48 0 0 1-.51 1.144c-.32.293-.72.44-1.21.44-.48 0-.89-.154-1.21-.462-.31-.323-.46-.697-.46-1.122zm5.3 11.704l5.65-5.962v-.044h-5.39v-2.112h8.58v2.398l-5.72 6.05h5.98V116h-9.1v-2.442zm13.47-1.914c.09.792.4 1.408.92 1.848.53.44 1.17.66 1.92.66.66 0 1.21-.132 1.65-.396.45-.279.85-.623 1.19-1.034l1.89 1.43c-.62.763-1.31 1.305-2.07 1.628s-1.56.484-2.4.484c-.79 0-1.54-.132-2.24-.396-.71-.264-1.32-.638-1.83-1.122s-.92-1.063-1.23-1.738c-.29-.689-.44-1.452-.44-2.288s.15-1.591.44-2.266c.31-.689.72-1.276 1.23-1.76s1.12-.858 1.83-1.122c.7-.264 1.45-.396 2.24-.396.73 0 1.4.132 2 .396a4.12 4.12 0 0 1 1.57 1.1c.44.484.77 1.085 1.01 1.804.25.704.37 1.518.37 2.442v.726h-8.05zm5.41-1.98c-.01-.777-.26-1.386-.72-1.826-.47-.455-1.13-.682-1.96-.682-.79 0-1.43.227-1.89.682s-.74 1.063-.84 1.826h5.41zm-82.248 18.944a4.22 4.22 0 0 0-.968-.77c-.337-.191-.682-.286-1.034-.286-.484 0-.917.088-1.298.264s-.711.411-.99.704a3.24 3.24 0 0 0-.616 1.012c-.132.381-.198.777-.198 1.188s.066.807.198 1.188a3.24 3.24 0 0 0 .616 1.012c.279.293.609.528.99.704s.814.264 1.298.264c.411 0 .792-.081 1.144-.242a2.59 2.59 0 0 0 .902-.748l1.76 1.892a3.98 3.98 0 0 1-.924.682c-.337.191-.682.345-1.034.462s-.689.198-1.012.242c-.323.059-.601.088-.836.088-.792 0-1.54-.132-2.244-.396s-1.313-.638-1.826-1.122a5.5 5.5 0 0 1-1.232-1.738c-.293-.689-.44-1.452-.44-2.288s.147-1.591.44-2.266a5.44 5.44 0 0 1 1.232-1.76c.513-.484 1.122-.858 1.826-1.122s1.452-.396 2.244-.396c.675 0 1.349.132 2.024.396a4.51 4.51 0 0 1 1.804 1.21l-1.826 1.826zm9.997 5.94h-.066c-.381.601-.865 1.041-1.452 1.32-.586.264-1.232.396-1.936.396a5.26 5.26 0 0 1-1.43-.198 4.01 4.01 0 0 1-1.232-.594c-.352-.264-.638-.594-.858-.99s-.33-.858-.33-1.386c0-.572.103-1.056.308-1.452a2.93 2.93 0 0 1 .814-1.012 4.18 4.18 0 0 1 1.21-.66c.455-.161.924-.279 1.408-.352a10.41 10.41 0 0 1 1.496-.154l1.408-.044h.66v-.286c0-.66-.227-1.151-.682-1.474-.454-.337-1.034-.506-1.738-.506-.557 0-1.078.103-1.562.308-.484.191-.902.455-1.254.792l-1.386-1.386c.587-.601 1.269-1.034 2.046-1.298.792-.264 1.606-.396 2.442-.396.748 0 1.379.088 1.892.264.514.161.939.374 1.276.638a2.7 2.7 0 0 1 .77.924c.191.337.323.682.396 1.034.088.352.14.697.154 1.034l.022.858V136h-2.376v-1.452zm-.154-3.278h-.55l-1.232.044c-.454.029-.887.103-1.298.22-.396.103-.733.264-1.012.484-.278.205-.418.499-.418.88 0 .249.052.462.154.638a1.72 1.72 0 0 0 .44.418 2 2 0 0 0 .594.264 3.36 3.36 0 0 0 .66.066c.91 0 1.577-.213 2.002-.638.44-.44.66-1.034.66-1.782v-.594zm5.261-5.83h2.508v1.65h.044c.234-.499.608-.939 1.122-1.32.528-.396 1.232-.594 2.112-.594 1.657 0 2.757.653 3.3 1.958.381-.675.858-1.166 1.43-1.474.572-.323 1.254-.484 2.046-.484.704 0 1.298.117 1.782.352s.872.557 1.166.968c.308.411.528.895.66 1.452.132.543.198 1.129.198 1.76V136h-2.64v-5.984a4.75 4.75 0 0 0-.088-.924c-.059-.308-.162-.572-.308-.792-.147-.235-.345-.418-.594-.55s-.572-.198-.968-.198c-.411 0-.763.081-1.056.242-.279.147-.514.352-.704.616-.176.249-.308.543-.396.88a4.42 4.42 0 0 0-.11.99V136h-2.64v-6.292c0-.66-.14-1.181-.418-1.562-.279-.396-.741-.594-1.386-.594-.44 0-.814.073-1.122.22-.294.147-.543.345-.748.594a2.45 2.45 0 0 0-.418.858 3.83 3.83 0 0 0-.132 1.012V136h-2.64v-10.56zm19.252 0h2.508v1.584h.044a3.4 3.4 0 0 1 1.54-1.408c.646-.293 1.342-.44 2.09-.44.81 0 1.53.147 2.18.44a4.85 4.85 0 0 1 1.65 1.166c.45.499.8 1.085 1.03 1.76.24.675.35 1.401.35 2.178a6.22 6.22 0 0 1-.37 2.178c-.25.675-.6 1.261-1.06 1.76-.44.499-.97.895-1.6 1.188-.63.279-1.32.418-2.07.418-.498 0-.938-.051-1.32-.154a4.6 4.6 0 0 1-1.012-.396c-.293-.161-.542-.33-.748-.506-.205-.191-.374-.374-.506-.55h-.066v6.358h-2.64V125.44zm8.752 5.28a3.21 3.21 0 0 0-.22-1.188 2.71 2.71 0 0 0-.61-1.012c-.27-.293-.59-.528-.97-.704s-.814-.264-1.298-.264-.916.088-1.298.264-.711.411-.99.704a3.24 3.24 0 0 0-.616 1.012c-.132.381-.198.777-.198 1.188s.066.807.198 1.188a3.24 3.24 0 0 0 .616 1.012c.279.293.609.528.99.704s.814.264 1.298.264.917-.088 1.298-.264.7-.411.97-.704a2.71 2.71 0 0 0 .61-1.012 3.21 3.21 0 0 0 .22-1.188zm11.71 3.828h-.07c-.38.601-.87 1.041-1.45 1.32-.59.264-1.23.396-1.94.396-.48 0-.96-.066-1.43-.198-.45-.132-.86-.33-1.23-.594a3.14 3.14 0 0 1-.86-.99c-.22-.396-.33-.858-.33-1.386 0-.572.1-1.056.31-1.452.21-.411.48-.748.81-1.012.36-.279.76-.499 1.21-.66a7.82 7.82 0 0 1 1.41-.352 10.45 10.45 0 0 1 1.5-.154l1.41-.044h.66v-.286c0-.66-.23-1.151-.69-1.474-.45-.337-1.03-.506-1.73-.506-.56 0-1.08.103-1.57.308a3.82 3.82 0 0 0-1.25.792l-1.39-1.386a5.15 5.15 0 0 1 2.05-1.298 7.68 7.68 0 0 1 2.44-.396c.75 0 1.38.088 1.89.264.52.161.94.374 1.28.638s.59.572.77.924c.19.337.32.682.4 1.034s.14.697.15 1.034l.02.858V136h-2.37v-1.452zm-.16-3.278h-.55l-1.23.044c-.45.029-.89.103-1.3.22-.39.103-.73.264-1.01.484-.28.205-.42.499-.42.88 0 .249.05.462.16.638.11.161.26.301.44.418a1.91 1.91 0 0 0 .59.264 3.36 3.36 0 0 0 .66.066c.91 0 1.58-.213 2-.638.44-.44.66-1.034.66-1.782v-.594zm5.42-5.83h2.64V136h-2.64v-10.56zm-.38-3.586c0-.425.16-.792.46-1.1.33-.323.73-.484 1.21-.484.49 0 .89.154 1.21.462.34.293.51.667.51 1.122a1.48 1.48 0 0 1-.51 1.144c-.32.293-.72.44-1.21.44-.48 0-.88-.154-1.21-.462-.3-.323-.46-.697-.46-1.122zm16.91 3.586v9.614c0 .953-.11 1.811-.35 2.574-.23.777-.6 1.43-1.1 1.958-.48.543-1.1.961-1.85 1.254-.74.293-1.63.44-2.66.44-.98 0-1.91-.125-2.79-.374s-1.7-.704-2.44-1.364l1.58-2.156c.53.484 1.08.858 1.65 1.122s1.23.396 1.98.396c.63 0 1.16-.088 1.58-.264.44-.176.79-.418 1.04-.726.26-.308.45-.682.55-1.122.12-.425.17-.902.17-1.43v-.77h-.04c-.38.513-.89.902-1.52 1.166-.63.249-1.27.374-1.93.374-.8 0-1.51-.139-2.16-.418-.64-.293-1.2-.682-1.67-1.166a5.05 5.05 0 0 1-1.06-1.716 5.91 5.91 0 0 1-.37-2.112 6.71 6.71 0 0 1 .35-2.178 5.18 5.18 0 0 1 1.03-1.76 4.87 4.87 0 0 1 1.63-1.166c.65-.293 1.38-.44 2.2-.44.75 0 1.45.147 2.09.44.65.293 1.16.763 1.54 1.408h.05v-1.584h2.5zm-5.63 2.112c-.47 0-.89.081-1.27.242a2.83 2.83 0 0 0-.99.638c-.27.264-.48.594-.64.99-.15.381-.22.807-.22 1.276 0 .425.07.821.22 1.188.16.367.38.689.66.968a3.1 3.1 0 0 0 .99.66 3.12 3.12 0 0 0 1.23.242c.48 0 .92-.081 1.3-.242.39-.161.72-.374.99-.638.28-.279.49-.609.64-.99a3.55 3.55 0 0 0 .22-1.232c0-.924-.28-1.672-.84-2.244s-1.32-.858-2.29-.858zm8.62-2.112h2.51v1.694h.05c.25-.528.63-.983 1.14-1.364.51-.396 1.21-.594 2.09-.594.7 0 1.3.117 1.78.352a3.38 3.38 0 0 1 1.21.924c.31.381.53.821.66 1.32a6.17 6.17 0 0 1 .2 1.562V136h-2.64v-5.346l-.04-.968c-.03-.367-.11-.704-.25-1.012-.11-.323-.3-.587-.57-.792-.26-.22-.62-.33-1.08-.33-.44 0-.81.073-1.12.22a2.38 2.38 0 0 0-.75.594 2.32 2.32 0 0 0-.41.858c-.09.323-.14.66-.14 1.012V136h-2.64v-10.56zm18.27 2.926c-.51-.719-1.2-1.078-2.07-1.078a2.18 2.18 0 0 0-1.03.264c-.34.176-.51.462-.51.858 0 .323.14.557.42.704s.63.271 1.06.374l1.36.33c.5.103.96.271 1.39.506.42.22.77.528 1.05.924s.42.939.42 1.628c0 .631-.14 1.166-.42 1.606a3.05 3.05 0 0 1-1.05 1.034c-.43.264-.91.455-1.46.572a7.63 7.63 0 0 1-1.62.176c-.83 0-1.58-.117-2.27-.352s-1.31-.66-1.85-1.276l1.76-1.65c.34.381.7.697 1.08.946.4.235.87.352 1.43.352.19 0 .39-.022.59-.066a1.96 1.96 0 0 0 .58-.22c.17-.103.31-.227.41-.374.12-.161.18-.345.18-.55 0-.367-.14-.638-.42-.814s-.63-.315-1.05-.418l-1.39-.308c-.48-.103-.94-.257-1.36-.462a2.98 2.98 0 0 1-1.06-.902c-.28-.381-.42-.909-.42-1.584 0-.587.12-1.093.35-1.518a3.35 3.35 0 0 1 .97-1.078c.4-.279.85-.484 1.37-.616a6.2 6.2 0 0 1 1.56-.198c.7 0 1.4.125 2.09.374a3.36 3.36 0 0 1 1.67 1.232l-1.76 1.584z"/><path d="M1246.37 103.768a2.47 2.47 0 0 0-1.19-.924c-.48-.205-.99-.308-1.54-.308-.32 0-.63.037-.94.11-.3.073-.57.191-.82.352-.23.161-.42.374-.57.638-.14.249-.22.55-.22.902 0 .528.19.931.55 1.21.37.279.82.521 1.37.726l1.78.594a7.3 7.3 0 0 1 1.78.792 4.35 4.35 0 0 1 1.36 1.342c.37.557.55 1.298.55 2.222 0 .836-.15 1.569-.46 2.2-.31.616-.72 1.129-1.25 1.54-.52.411-1.12.719-1.81.924s-1.41.308-2.17.308c-.97 0-1.9-.161-2.8-.484-.89-.323-1.66-.865-2.31-1.628l2.09-2.024a3.65 3.65 0 0 0 1.32 1.21c.56.279 1.15.418 1.76.418a3.68 3.68 0 0 0 .97-.132 2.98 2.98 0 0 0 .88-.396c.26-.176.48-.396.64-.66.16-.279.24-.594.24-.946 0-.572-.18-1.012-.55-1.32s-.82-.565-1.36-.77l-1.79-.616c-.64-.191-1.24-.447-1.78-.77-.54-.337-1-.777-1.36-1.32-.37-.557-.55-1.298-.55-2.222 0-.807.16-1.503.48-2.09a4.59 4.59 0 0 1 1.3-1.452 5.65 5.65 0 0 1 1.85-.88c.69-.191 1.39-.286 2.11-.286a7.67 7.67 0 0 1 2.38.374 5.6 5.6 0 0 1 2.09 1.232l-2.03 2.134zm11.97 4.84c-.3-.323-.63-.579-.96-.77a2.11 2.11 0 0 0-1.04-.286c-.48 0-.91.088-1.3.264-.38.176-.71.411-.99.704a3.36 3.36 0 0 0-.61 1.012c-.13.381-.2.777-.2 1.188s.07.807.2 1.188a3.36 3.36 0 0 0 .61 1.012c.28.293.61.528.99.704.39.176.82.264 1.3.264.41 0 .79-.081 1.15-.242.35-.176.65-.425.9-.748l1.76 1.892c-.27.264-.57.491-.93.682-.33.191-.68.345-1.03.462s-.69.198-1.01.242c-.32.059-.6.088-.84.088-.79 0-1.54-.132-2.24-.396-.71-.264-1.31-.638-1.83-1.122-.51-.484-.92-1.063-1.23-1.738-.29-.689-.44-1.452-.44-2.288s.15-1.591.44-2.266c.31-.689.72-1.276 1.23-1.76.52-.484 1.12-.858 1.83-1.122.7-.264 1.45-.396 2.24-.396a5.55 5.55 0 0 1 2.03.396 4.47 4.47 0 0 1 1.8 1.21l-1.83 1.826zm10 5.94h-.06c-.39.601-.87 1.041-1.46 1.32-.58.264-1.23.396-1.93.396a5.23 5.23 0 0 1-1.43-.198 3.86 3.86 0 0 1-1.23-.594c-.36-.264-.64-.594-.86-.99s-.33-.858-.33-1.386c0-.572.1-1.056.31-1.452a2.82 2.82 0 0 1 .81-1.012c.35-.279.76-.499 1.21-.66s.92-.279 1.41-.352a10.46 10.46 0 0 1 1.49-.154l1.41-.044h.66v-.286c0-.66-.23-1.151-.68-1.474-.45-.337-1.03-.506-1.74-.506a3.93 3.93 0 0 0-1.56.308 3.82 3.82 0 0 0-1.25.792l-1.39-1.386a5.15 5.15 0 0 1 2.05-1.298c.79-.264 1.6-.396 2.44-.396.75 0 1.38.088 1.89.264.51.161.94.374 1.28.638.33.264.59.572.77.924.19.337.32.682.39 1.034.09.352.14.697.16 1.034l.02.858V116h-2.38v-1.452zm-.15-3.278h-.55l-1.23.044a6.11 6.11 0 0 0-1.3.22c-.4.103-.74.264-1.01.484-.28.205-.42.499-.42.88 0 .249.05.462.15.638.12.161.27.301.44.418.18.117.38.205.6.264a3.36 3.36 0 0 0 .66.066c.91 0 1.57-.213 2-.638.44-.44.66-1.034.66-1.782v-.594zm5.41-11.902h2.64V116h-2.64V99.368zm7.79 12.276c.08.792.39 1.408.92 1.848s1.17.66 1.91.66c.66 0 1.21-.132 1.65-.396a4.68 4.68 0 0 0 1.19-1.034l1.89 1.43c-.61.763-1.3 1.305-2.06 1.628-.77.323-1.57.484-2.4.484-.79 0-1.54-.132-2.25-.396-.7-.264-1.31-.638-1.82-1.122-.52-.484-.93-1.063-1.23-1.738-.3-.689-.44-1.452-.44-2.288s.14-1.591.44-2.266c.3-.689.71-1.276 1.23-1.76.51-.484 1.12-.858 1.82-1.122.71-.264 1.46-.396 2.25-.396.73 0 1.4.132 2 .396a4.01 4.01 0 0 1 1.56 1.1c.44.484.78 1.085 1.01 1.804.25.704.38 1.518.38 2.442v.726h-8.05zm5.41-1.98c-.02-.777-.26-1.386-.73-1.826-.47-.455-1.12-.682-1.96-.682-.79 0-1.42.227-1.89.682-.45.455-.73 1.063-.83 1.826h5.41zm-49.73 15.776h2.9l2.95 7.326h.04l2.64-7.326h2.75l-4.99 12.826c-.19.499-.41.931-.64 1.298-.22.381-.48.697-.79.946a2.86 2.86 0 0 1-1.1.572c-.41.132-.91.198-1.5.198-.69 0-1.36-.088-2.02-.264l.33-2.376a4.42 4.42 0 0 0 .64.176c.23.059.47.088.7.088.32 0 .59-.029.81-.088s.41-.154.55-.286c.17-.117.3-.279.4-.484l.33-.704.51-1.254-4.51-10.648zm12.31 5.28c0-.836.14-1.591.44-2.266.3-.689.71-1.276 1.23-1.76.51-.484 1.12-.858 1.82-1.122.71-.264 1.46-.396 2.25-.396s1.54.132 2.24.396c.71.264 1.31.638 1.83 1.122a5.31 5.31 0 0 1 1.21 1.76c.31.675.46 1.43.46 2.266s-.15 1.599-.46 2.288c-.3.675-.7 1.254-1.21 1.738-.52.484-1.12.858-1.83 1.122-.7.264-1.45.396-2.24.396s-1.54-.132-2.25-.396c-.7-.264-1.31-.638-1.82-1.122-.52-.484-.93-1.063-1.23-1.738-.3-.689-.44-1.452-.44-2.288zm2.64 0a3.65 3.65 0 0 0 .19 1.188c.15.381.36.719.62 1.012.28.293.61.528.99.704s.81.264 1.3.264c.48 0 .91-.088 1.3-.264.38-.176.7-.411.96-.704.28-.293.49-.631.62-1.012a3.21 3.21 0 0 0 .22-1.188 3.21 3.21 0 0 0-.22-1.188c-.13-.381-.34-.719-.62-1.012-.26-.293-.58-.528-.96-.704-.39-.176-.82-.264-1.3-.264-.49 0-.92.088-1.3.264s-.71.411-.99.704c-.26.293-.47.631-.62 1.012a3.65 3.65 0 0 0-.19 1.188zm20.95 5.28h-2.51v-1.694h-.04c-.25.528-.63.99-1.15 1.386-.51.381-1.21.572-2.09.572-.7 0-1.3-.11-1.8-.33-.49-.235-.88-.543-1.19-.924a3.64 3.64 0 0 1-.66-1.342 6.17 6.17 0 0 1-.2-1.562v-6.666h2.64v5.346c0 .293.02.623.05.99.03.352.1.689.22 1.012a2.16 2.16 0 0 0 .57.792c.26.205.63.308 1.1.308.44 0 .8-.073 1.1-.22.31-.147.56-.345.75-.594a2.38 2.38 0 0 0 .44-.858c.08-.323.13-.66.13-1.012v-5.764h2.64V136zm2.99-10.56h2.64v1.672h.05c.29-.616.71-1.093 1.25-1.43.55-.337 1.17-.506 1.87-.506.16 0 .32.015.46.044a5 5 0 0 1 .49.11v2.552a5.14 5.14 0 0 0-.66-.132 2.97 2.97 0 0 0-.62-.066c-.61 0-1.11.117-1.49.352-.37.22-.66.477-.86.77-.19.293-.32.587-.4.88-.06.293-.09.513-.09.66V136h-2.64v-10.56zm21.67 9.108h-.07c-.38.601-.87 1.041-1.45 1.32-.59.264-1.23.396-1.94.396-.48 0-.96-.066-1.43-.198-.45-.132-.86-.33-1.23-.594a3.14 3.14 0 0 1-.86-.99c-.22-.396-.33-.858-.33-1.386 0-.572.1-1.056.31-1.452a2.93 2.93 0 0 1 .81-1.012c.36-.279.76-.499 1.21-.66a7.82 7.82 0 0 1 1.41-.352 10.45 10.45 0 0 1 1.5-.154l1.41-.044h.66v-.286c0-.66-.23-1.151-.69-1.474-.45-.337-1.03-.506-1.73-.506-.56 0-1.08.103-1.57.308a3.82 3.82 0 0 0-1.25.792l-1.39-1.386a5.15 5.15 0 0 1 2.05-1.298 7.68 7.68 0 0 1 2.44-.396c.75 0 1.38.088 1.89.264.52.161.94.374 1.28.638s.59.572.77.924c.19.337.32.682.4 1.034a6.37 6.37 0 0 1 .15 1.034l.02.858V136h-2.37v-1.452zm-.16-3.278h-.55l-1.23.044a6.11 6.11 0 0 0-1.3.22c-.39.103-.73.264-1.01.484-.28.205-.42.499-.42.88 0 .249.05.462.16.638.11.161.26.301.44.418a1.91 1.91 0 0 0 .59.264 3.36 3.36 0 0 0 .66.066c.91 0 1.58-.213 2-.638.44-.44.66-1.034.66-1.782v-.594zm13.73 3.146h-.04c-.38.645-.9 1.115-1.54 1.408-.65.293-1.34.44-2.09.44-.82 0-1.56-.139-2.2-.418-.63-.293-1.18-.689-1.63-1.188s-.8-1.085-1.03-1.76c-.24-.675-.36-1.401-.36-2.178s.13-1.503.38-2.178.59-1.261 1.03-1.76a4.87 4.87 0 0 1 1.63-1.166c.63-.293 1.32-.44 2.07-.44.5 0 .94.051 1.32.154s.72.235 1.01.396a3.98 3.98 0 0 1 .75.528 3.47 3.47 0 0 1 .5.528h.07v-7.414h2.64V136h-2.51v-1.584zm-6.25-3.696c0 .411.07.807.2 1.188.15.381.35.719.62 1.012.28.293.61.528.99.704s.81.264 1.3.264c.48 0 .91-.088 1.29-.264a2.83 2.83 0 0 0 .97-.704c.28-.293.49-.631.62-1.012.14-.381.22-.777.22-1.188s-.08-.807-.22-1.188c-.13-.381-.34-.719-.62-1.012a2.83 2.83 0 0 0-.97-.704c-.38-.176-.81-.264-1.29-.264-.49 0-.92.088-1.3.264s-.71.411-.99.704c-.27.293-.47.631-.62 1.012-.13.381-.2.777-.2 1.188zm17.38-2.354c-.51-.719-1.2-1.078-2.07-1.078a2.21 2.21 0 0 0-1.03.264c-.34.176-.51.462-.51.858 0 .323.14.557.42.704s.63.271 1.06.374l1.36.33c.5.103.96.271 1.39.506.42.22.77.528 1.05.924s.42.939.42 1.628c0 .631-.14 1.166-.42 1.606a3.05 3.05 0 0 1-1.05 1.034c-.43.264-.91.455-1.45.572-.55.117-1.09.176-1.63.176-.82 0-1.58-.117-2.27-.352s-1.3-.66-1.85-1.276l1.76-1.65c.34.381.7.697 1.08.946.4.235.87.352 1.43.352a2.93 2.93 0 0 0 .6-.066 2.01 2.01 0 0 0 .57-.22 1.46 1.46 0 0 0 .42-.374c.11-.161.17-.345.17-.55 0-.367-.14-.638-.42-.814s-.63-.315-1.05-.418l-1.39-.308c-.48-.103-.94-.257-1.36-.462a2.98 2.98 0 0 1-1.06-.902c-.28-.381-.42-.909-.42-1.584 0-.587.12-1.093.36-1.518a3.21 3.21 0 0 1 .96-1.078c.4-.279.85-.484 1.37-.616a6.2 6.2 0 0 1 1.56-.198c.7 0 1.4.125 2.09.374a3.32 3.32 0 0 1 1.67 1.232l-1.76 1.584z"/></g><defs ><path id="B" d="M388.541 236.66c-.2-.29-.47-.5-.81-.63a2.66 2.66 0 0 0-1.05-.21c-.22 0-.435.025-.645.075a1.83 1.83 0 0 0-.555.24 1.26 1.26 0 0 0-.39.435c-.1.17-.15.375-.15.615 0 .36.125.635.375.825s.56.355.93.495l1.215.405a4.94 4.94 0 0 1 1.215.54c.37.23.68.535.93.915s.375.885.375 1.515c0 .57-.105 1.07-.315 1.5-.21.42-.495.77-.855 1.05-.35.28-.76.49-1.23.63s-.965.21-1.485.21a5.57 5.57 0 0 1-1.905-.33 3.67 3.67 0 0 1-1.575-1.11l1.425-1.38a2.46 2.46 0 0 0 .9.825 2.65 2.65 0 0 0 1.2.285 2.5 2.5 0 0 0 .66-.09 2.04 2.04 0 0 0 .6-.27c.18-.12.325-.27.435-.45.11-.19.165-.405.165-.645 0-.39-.125-.69-.375-.9s-.56-.385-.93-.525a13.18 13.18 0 0 0-1.215-.42 5.31 5.31 0 0 1-1.215-.525c-.37-.23-.68-.53-.93-.9-.25-.38-.375-.885-.375-1.515 0-.55.11-1.025.33-1.425.23-.4.525-.73.885-.99.37-.27.79-.47 1.26-.6s.95-.195 1.44-.195a5.18 5.18 0 0 1 1.62.255c.53.17 1.005.45 1.425.84l-1.38 1.455zm2.404 2.67v-1.53h1.485v-2.085h1.8v2.085h1.98v1.53h-1.98v3.15c0 .36.065.645.195.855.14.21.41.315.81.315.16 0 .335-.015.525-.045.19-.04.34-.1.45-.18v1.515c-.19.09-.425.15-.705.18-.27.04-.51.06-.72.06-.48 0-.875-.055-1.185-.165-.3-.1-.54-.255-.72-.465-.17-.22-.29-.49-.36-.81-.06-.32-.09-.69-.09-1.11v-3.3h-1.485zm8.11 2.7c.06.54.27.96.63 1.26s.795.45 1.305.45c.45 0 .825-.09 1.125-.27.31-.19.58-.425.81-.705l1.29.975c-.42.52-.89.89-1.41 1.11s-1.065.33-1.635.33a4.32 4.32 0 0 1-1.53-.27 3.67 3.67 0 0 1-1.245-.765c-.35-.33-.63-.725-.84-1.185-.2-.47-.3-.99-.3-1.56s.1-1.085.3-1.545c.21-.47.49-.87.84-1.2a3.67 3.67 0 0 1 1.245-.765 4.32 4.32 0 0 1 1.53-.27 3.36 3.36 0 0 1 1.365.27 2.79 2.79 0 0 1 1.065.75c.3.33.53.74.69 1.23.17.48.255 1.035.255 1.665v.495h-5.49zm3.69-1.35c-.01-.53-.175-.945-.495-1.245-.32-.31-.765-.465-1.335-.465-.54 0-.97.155-1.29.465-.31.31-.5.725-.57 1.245h3.69zm3.483-2.88h1.71v1.08h.03c.26-.44.61-.76 1.05-.96s.915-.3 1.425-.3c.55 0 1.045.1 1.485.3a3.24 3.24 0 0 1 1.125.795 3.43 3.43 0 0 1 .705 1.2 4.49 4.49 0 0 1 .24 1.485 4.25 4.25 0 0 1-.255 1.485c-.17.46-.41.86-.72 1.2-.3.34-.665.61-1.095.81a3.45 3.45 0 0 1-1.41.285c-.34 0-.64-.035-.9-.105a3.1 3.1 0 0 1-.69-.27c-.2-.11-.37-.225-.51-.345-.14-.13-.255-.255-.345-.375h-.045v4.335h-1.8V237.8zm5.97 3.6c0-.28-.05-.55-.15-.81-.09-.26-.23-.49-.42-.69-.18-.2-.4-.36-.66-.48s-.555-.18-.885-.18-.625.06-.885.18a2.18 2.18 0 0 0-.675.48c-.18.2-.32.43-.42.69a2.46 2.46 0 0 0-.135.81 2.46 2.46 0 0 0 .135.81c.1.26.24.49.42.69a2.18 2.18 0 0 0 .675.48c.26.12.555.18.885.18s.625-.06.885-.18.48-.28.66-.48c.19-.2.33-.43.42-.69.1-.26.15-.53.15-.81zm7.497-1.71c0-.84.065-1.555.195-2.145.14-.6.32-1.1.54-1.5.22-.41.465-.735.735-.975.28-.25.56-.435.84-.555a3.23 3.23 0 0 1 .825-.255c.27-.04.505-.06.705-.06a4.6 4.6 0 0 1 .69.06c.27.04.545.125.825.255.29.12.57.305.84.555.28.24.53.565.75.975.22.4.395.9.525 1.5.14.59.21 1.305.21 2.145s-.07 1.56-.21 2.16c-.13.59-.305 1.09-.525 1.5-.22.4-.47.725-.75.975-.27.24-.55.425-.84.555-.28.12-.555.2-.825.24a4.6 4.6 0 0 1-.69.06c-.2 0-.435-.02-.705-.06a3.6 3.6 0 0 1-.825-.24 3.69 3.69 0 0 1-.84-.555c-.27-.25-.515-.575-.735-.975-.22-.41-.4-.91-.54-1.5-.13-.6-.195-1.32-.195-2.16zm1.8 0a12.96 12.96 0 0 0 .06 1.155 5.51 5.51 0 0 0 .285 1.23c.14.39.345.72.615.99s.63.405 1.08.405.81-.135 1.08-.405.475-.6.615-.99.23-.8.27-1.23l.075-1.155c0-.33-.025-.71-.075-1.14-.04-.44-.13-.855-.27-1.245s-.345-.72-.615-.99-.63-.405-1.08-.405-.81.135-1.08.405-.475.6-.615.99-.235.805-.285 1.245l-.06 1.14zm10.497-3.24l-1.995 1.845-1.05-1.245 3.21-2.67h1.635V245h-1.8v-8.55z"/></defs></svg>