<svg xmlns="http://www.w3.org/2000/svg" width="302" height="389" fill="none" xmlns:v="https://vecta.io/nano"><style><![CDATA[.B{stroke-opacity:.42}.C{stroke:#0f1546}.D{stroke-linecap:round}]]></style><path d="M5.168 25.833c0-5.525 2.195-10.824 6.102-14.731S20.476 5 26.001 5h250c5.526 0 10.825 2.195 14.732 6.102s6.102 9.206 6.102 14.731v336.436c0 5.525-2.195 10.824-6.102 14.731s-9.206 6.102-14.732 6.102h-250c-5.525 0-10.824-2.195-14.731-6.102s-6.102-9.206-6.102-14.731V25.833z" stroke-width="10" stroke-linejoin="round" class="C"/><circle cx="48.5" cy="47.5" r="16.5" fill="#0f1546" fill-opacity=".4"/><path d="M75 48h77" stroke-width="7" class="B C D"/><g fill="#269e8d"><rect x="133" y="90" width="61" height="22" rx="4"/><rect x="205" y="90" width="61" height="22" rx="4"/><rect x="133" y="118" width="61" height="22" rx="4"/><rect x="205" y="118" width="61" height="22" rx="4"/><rect x="205" y="279" width="61" height="22" rx="4"/></g><g class="C D B"><g stroke-width="3"><path d="M38.5 165H266M38.5 182H266"/><path d="M49 174H76"/></g><path d="M49 194h63m-63 6h51m31-6h13m13 0h13m68 0h13m-120 20h13m-13 20h13m-13 20h13m13-40h13m-13 20h13m-13 20h13m68-40h13m-13 20h13m-13 20h13M49 214h63m-63 6h51m-51 14h63m-63 6h51m-51 14h63m-63 6h51" stroke-width="2"/><path d="M155 174h18m-45 0h18m85 0h27" stroke-width="3"/></g></svg>