<svg xmlns="http://www.w3.org/2000/svg" width="13" height="14" fill="none" xmlns:v="https://vecta.io/nano"><path d="M.049 6.881l.004-5.112c0-.468.182-.849.615-1.079.182-.095.385-.134.58-.134H11.53c.468 0 .845.199 1.07.633.091.178.126.377.126.572v10.263c0 .459-.186.84-.615 1.07-.182.095-.385.134-.58.134H1.248c-.468 0-.849-.199-1.07-.633a1.29 1.29 0 0 1-.13-.594V6.881zm6.973-.897V5.56c0-.23-.13-.364-.359-.364-.459 0-.918.009-1.373-.004-.269-.009-.403.186-.403.407l.004 5.853c0 .273.139.416.407.416h1.33c.26 0 .394-.139.394-.403V8.454a1.97 1.97 0 0 1 .061-.503c.052-.212.126-.42.251-.602.225-.325.546-.438.931-.416.364.022.637.173.801.503.147.29.186.607.191.927v3.102c0 .269.126.394.39.399h1.373c.269 0 .407-.134.407-.403l-.03-3.748c-.026-.516-.121-1.018-.355-1.486a1.91 1.91 0 0 0-1.109-.992c-.411-.147-.836-.165-1.26-.139a2.53 2.53 0 0 0-.797.178c-.346.152-.624.381-.853.71zM1.864 8.523v2.933c0 .247.121.399.364.403a29.88 29.88 0 0 0 1.395 0c.221-.004.346-.143.368-.364a.67.67 0 0 0 .004-.095V5.634L3.99 5.53c-.03-.225-.156-.338-.381-.338H2.266c-.273 0-.398.13-.398.403l-.004 2.929zM1.556 3.29A1.38 1.38 0 0 0 2.92 4.668a1.39 1.39 0 0 0 1.373-1.36A1.38 1.38 0 0 0 2.92 1.925c-.749 0-1.364.62-1.364 1.365z" fill="#39fcbf"/></svg>