<svg xmlns="http://www.w3.org/2000/svg" width="324" height="68" fill="#75f7bb" xmlns:v="https://vecta.io/nano"><path d="M128.442 41.308c-3.371 0-6.16-.279-8.404-.824-2.23-.545-3.904-1.432-5.019-2.636s-1.673-2.789-1.673-4.766c0-1.965.557-3.562 1.673-4.779s2.789-2.104 5.019-2.662 5.033-.837 8.404-.837c3.347 0 6.123.279 8.341.837s3.866 1.445 4.969 2.662 1.648 2.814 1.648 4.779-.558 3.562-1.648 4.766c-1.103 1.204-2.764 2.091-4.969 2.636-2.218.545-4.994.824-8.341.824zm0-4.601c1.572 0 2.878-.127 3.942-.393s1.864-.672 2.409-1.204c.545-.545.824-1.217.824-2.015s-.266-1.483-.811-2.028-1.344-.963-2.396-1.242-2.383-.418-3.968-.418c-1.571 0-2.89.139-3.98.418s-1.914.684-2.472 1.217c-.557.545-.836 1.217-.836 2.053 0 .811.279 1.483.824 2.015.545.545 1.369.938 2.459 1.204 1.077.254 2.421.393 4.005.393zm30.104 1.267l-3.625-.063 7.998-12.638h8.417l-11.078 15.566h-7.175l-10.571-15.566h8.378l7.656 12.701zm33.376-2.738h7.491c-.19 1.23-.798 2.294-1.825 3.207s-2.522 1.61-4.474 2.117c-1.952.494-4.449.748-7.479.748-3.194 0-5.957-.253-8.277-.761s-4.107-1.369-5.349-2.573-1.876-2.839-1.876-4.893c0-2.028.608-3.651 1.825-4.88 1.217-1.217 2.979-2.091 5.286-2.624s5.108-.799 8.378-.799c3.22 0 5.857.292 7.91.862s3.562 1.496 4.538 2.776 1.445 3.017 1.394 5.197h-21.599c.101.545.406 1.065.9 1.521.494.469 1.267.837 2.32 1.128s2.446.431 4.208.431c1.825 0 3.321-.127 4.487-.38 1.204-.253 1.914-.608 2.142-1.077zm-6.604-5.844c-2.243 0-3.955.241-5.133.735-1.179.482-1.864.976-2.079 1.458h13.968c-.152-.545-.748-1.052-1.774-1.508-1.04-.456-2.7-.684-4.982-.684zm15.489-4.119h7.618v15.566h-7.618V25.273zm15.819 5.869c-1.382 0-2.637.127-3.778.38s-2.116.558-2.928.9c-.798.355-1.407.697-1.812 1.027l-.064-1.521c.064-.444.229-.963.507-1.572s.647-1.23 1.116-1.876a9.99 9.99 0 0 1 1.711-1.813c.672-.558 1.458-1.014 2.332-1.369s1.851-.52 2.903-.52v6.363h.013zm34.427-1.116l-17.176 7.403-.291-1.369h17.657v4.766h-24.641V36.06l17.048-7.403.292 1.369h-17.34V25.26h24.451v4.766zm13.843 11.243c-2.282 0-4.323-.317-6.097-.963s-3.182-1.584-4.209-2.814-1.533-2.713-1.533-4.449c0-1.825.507-3.346 1.533-4.576s2.434-2.142 4.209-2.763 3.815-.925 6.097-.925c2.535 0 4.74.342 6.591 1.027s3.283 1.648 4.284 2.89 1.509 2.687 1.509 4.335c0 1.23-.292 2.345-.862 3.346s-1.394 1.876-2.472 2.599c-1.077.735-2.383 1.293-3.904 1.686-1.534.418-3.245.608-5.146.608zm2.852-4.817c1.609 0 3.08-.101 4.423-.304s2.421-.545 3.245-1.027c.812-.482 1.217-1.179 1.217-2.066 0-.913-.405-1.61-1.217-2.092s-1.901-.824-3.245-1.014-2.814-.292-4.423-.292c-2.155 0-3.828.279-5.02.837s-1.774 1.407-1.774 2.561a2.5 2.5 0 0 0 .798 1.876c.532.507 1.306.887 2.32 1.141s2.243.38 3.676.38zm8.898-11.18h7.618v15.566h-7.174l-.33-2.827-.114-3.207v-9.532zm9.583-6.35h7.618v21.916h-7.618V18.922zm26.935 6.35l-12.574 8.734.165-4.132 13.499 10.952h-9.646l-10.609-8.86 9.088-6.705h10.077v.013zm9.837-8.162v4.766h-8.062V17.11h8.062zm-7.846 8.163h7.618v15.566h-7.618V25.273zM84.17 22.243s6.313 0 6.313 10.888c.076 5.02-.951 10.888-6.49 10.888m-77.677-.214s-6.312 0-6.312-10.888c-.076-5.02.951-10.888 6.49-10.888"/><path d="M72.776 5.791c-.038-.013-.089-.038-.127-.051l-.722-.279C63.662 2.216 54.662.441 45.232.441c-9.405 0-18.418 1.775-26.682 5.02a27.55 27.55 0 0 0-.723.279c-.038.025-.089.038-.127.051a17.92 17.92 0 0 0-1.116.494c-6.794 3.27-10.9 10.356-10.9 17.898v19.888c0 7.542 4.12 14.653 10.926 17.911.355.177.723.33 1.09.482.038.025.089.038.127.051a12.18 12.18 0 0 0 .723.279 72.85 72.85 0 0 0 26.682 5.032c9.418 0 18.43-1.787 26.695-5.032a27.48 27.48 0 0 0 .722-.279c.038-.013.089-.038.127-.051a28.56 28.56 0 0 0 1.09-.482c6.807-3.258 10.926-10.369 10.926-17.911V24.183c0-7.529-4.107-14.628-10.901-17.898-.368-.165-.735-.342-1.115-.494zm1.445 38.749a9.03 9.03 0 0 1-8.391 8.239l-3.853.241c-7.669.494-25.82.494-33.502 0l-3.841-.241a9.03 9.03 0 0 1-8.391-8.239c-.494-6.173-.494-14.653 0-20.826a9.03 9.03 0 0 1 8.391-8.239l3.841-.241c3.841-.241 10.293-.368 16.745-.368 6.465 0 12.916.127 16.744.368l3.853.241a9.06 9.06 0 0 1 8.391 8.239c.507 6.173.507 14.653.013 20.826zm-13.97-21.041H30.476v7.25h12.917L30.248 38.43v6.351h29.75v-7.288H47.056l13.195-7.643V23.5z"/></svg>