<svg xmlns="http://www.w3.org/2000/svg" width="169" height="36" fill="#0f1546" xmlns:v="https://vecta.io/nano"><path d="M67.203 21.15c-1.764 0-3.223-.146-4.397-.431-1.167-.285-2.043-.749-2.626-1.38s-.876-1.459-.876-2.494c0-1.028.292-1.864.876-2.5s1.459-1.101 2.626-1.393 2.633-.438 4.397-.438c1.751 0 3.203.146 4.364.438s2.023.756 2.6 1.393.862 1.472.862 2.5-.292 1.864-.862 2.494c-.577.63-1.446 1.094-2.6 1.38-1.161.285-2.613.431-4.364.431zm0-2.408c.822 0 1.505-.066 2.063-.205s.975-.352 1.26-.63c.285-.285.431-.637.431-1.055s-.139-.776-.424-1.061-.703-.504-1.254-.65-1.247-.219-2.076-.219c-.822 0-1.512.073-2.082.219s-1.001.358-1.293.637c-.292.285-.438.637-.438 1.074 0 .424.146.776.431 1.055.285.285.716.491 1.287.63.564.133 1.267.205 2.096.205zm15.752.664l-1.897-.033 4.185-6.612h4.404l-5.796 8.144h-3.754l-5.531-8.144h4.384l4.006 6.645zm17.462-1.433h3.92c-.1.643-.418 1.2-.955 1.678s-1.32.842-2.341 1.108c-1.022.259-2.328.391-3.913.391-1.671 0-3.117-.133-4.331-.398s-2.149-.716-2.799-1.346-.982-1.486-.982-2.56c0-1.061.318-1.91.955-2.553.637-.637 1.559-1.094 2.766-1.373s2.673-.418 4.384-.418c1.685 0 3.064.153 4.138.451s1.864.783 2.375 1.452.756 1.579.729 2.719H93.062c.053.285.212.557.471.796.259.245.663.438 1.214.59s1.28.226 2.202.226c.955 0 1.738-.066 2.348-.199.63-.133 1.002-.318 1.121-.564zm-3.455-3.057c-1.174 0-2.069.126-2.686.385-.617.252-.975.511-1.088.763h7.309c-.08-.285-.392-.55-.929-.789-.544-.239-1.413-.358-2.606-.358zm8.104-2.155h3.986v8.144h-3.986v-8.144zm8.276 3.071c-.722 0-1.379.066-1.976.199s-1.107.292-1.532.471c-.418.186-.736.365-.948.537l-.033-.796c.033-.232.119-.504.265-.822s.338-.643.583-.982a5.14 5.14 0 0 1 .896-.948c.352-.291.762-.531 1.22-.716s.968-.272 1.519-.272v3.329h.006zm18.014-.584l-8.987 3.873-.152-.716h9.238v2.494h-12.893v-2.494l8.92-3.873.153.716h-9.073v-2.494h12.794v2.494zm7.242 5.882c-1.194 0-2.262-.166-3.19-.504s-1.665-.829-2.202-1.472-.802-1.419-.802-2.328c0-.955.265-1.751.802-2.394s1.273-1.121 2.202-1.446 1.996-.484 3.19-.484c1.326 0 2.48.179 3.449.537s1.717.862 2.241 1.512a3.51 3.51 0 0 1 .79 2.268c0 .643-.153 1.227-.451 1.751s-.73.982-1.294 1.36c-.563.385-1.247.677-2.042.882-.803.219-1.698.318-2.693.318zm1.492-2.52c.842 0 1.612-.053 2.315-.159s1.266-.285 1.698-.537c.424-.252.636-.617.636-1.081a1.2 1.2 0 0 0-.636-1.094c-.425-.252-.995-.431-1.698-.531s-1.473-.152-2.315-.152c-1.127 0-2.003.146-2.626.438s-.929.736-.929 1.34a1.31 1.31 0 0 0 .418.982c.279.265.683.464 1.214.597s1.174.199 1.923.199zm4.656-5.85h3.986v8.144h-3.754l-.172-1.479-.06-1.678V12.76zm5.014-3.322h3.986v11.467h-3.986V9.438zm14.093 3.323l-6.579 4.57.086-2.162 7.063 5.73h-5.047l-5.551-4.636 4.756-3.508h5.272v.007zM169 8.49v2.494h-4.218V8.49H169zm-4.105 4.271h3.985v8.144h-3.985v-8.144zM44.039 11.566s3.303 0 3.303 5.697c.04 2.626-.497 5.697-3.396 5.697m-40.641-.113s-3.303 0-3.303-5.697c-.04-2.626.497-5.697 3.396-5.697"/><path d="M38.077 2.957c-.02-.007-.046-.02-.066-.027l-.378-.146A38.12 38.12 0 0 0 23.665.159c-4.921 0-9.637.928-13.961 2.626a14.41 14.41 0 0 0-.378.146c-.02.013-.046.02-.066.027-.199.08-.391.166-.584.259-3.555 1.711-5.704 5.418-5.704 9.364v10.406c0 3.946 2.155 7.667 5.717 9.371.186.093.378.172.57.252.02.013.046.02.066.027a6.74 6.74 0 0 0 .378.146c4.324 1.698 9.033 2.633 13.961 2.633s9.643-.935 13.967-2.633l.378-.146c.02-.007.047-.02.066-.027a14.89 14.89 0 0 0 .57-.252c3.561-1.704 5.717-5.425 5.717-9.371V12.581c0-3.939-2.149-7.653-5.704-9.364-.192-.086-.385-.179-.584-.259zm.756 20.274c-.192 2.315-2.069 4.165-4.39 4.311l-2.016.126c-4.012.259-13.51.259-17.529 0l-2.01-.126c-2.315-.146-4.205-1.996-4.39-4.311a76.5 76.5 0 0 1 0-10.896c.186-2.308 2.069-4.165 4.39-4.311l2.01-.126c2.009-.126 5.385-.192 8.761-.192 3.382 0 6.758.066 8.761.192l2.016.126a4.74 4.74 0 0 1 4.391 4.311c.265 3.23.265 7.667.007 10.897zm-7.309-11.008H15.946v3.794h6.758l-6.878 4.019v3.323h15.566v-3.814H24.62l6.904-3.999v-3.323z"/></svg>