<svg width="556" height="599" viewBox="0 0 556 599" fill="none" xmlns="http://www.w3.org/2000/svg">
<rect y="120" width="417" height="274" rx="33" fill="white"/>
<path d="M44.344 208.12C44.024 207.704 43.6187 207.384 43.128 207.16C42.6373 206.936 42.1307 206.824 41.608 206.824C40.968 206.824 40.3867 206.947 39.864 207.192C39.352 207.427 38.9093 207.752 38.536 208.168C38.1733 208.584 37.8907 209.075 37.688 209.64C37.4853 210.195 37.384 210.792 37.384 211.432C37.384 212.029 37.48 212.595 37.672 213.128C37.864 213.661 38.1413 214.131 38.504 214.536C38.8667 214.941 39.3093 215.261 39.832 215.496C40.3547 215.731 40.9467 215.848 41.608 215.848C42.2587 215.848 42.8293 215.715 43.32 215.448C43.8107 215.181 44.2267 214.808 44.568 214.328L45.864 215.304C45.7787 215.421 45.6293 215.592 45.416 215.816C45.2027 216.029 44.92 216.248 44.568 216.472C44.216 216.685 43.7893 216.872 43.288 217.032C42.7973 217.203 42.2267 217.288 41.576 217.288C40.68 217.288 39.8693 217.117 39.144 216.776C38.4293 216.435 37.816 215.987 37.304 215.432C36.8027 214.877 36.4187 214.253 36.152 213.56C35.8853 212.856 35.752 212.147 35.752 211.432C35.752 210.557 35.896 209.752 36.184 209.016C36.472 208.269 36.872 207.629 37.384 207.096C37.9067 206.552 38.5307 206.131 39.256 205.832C39.9813 205.533 40.7813 205.384 41.656 205.384C42.4027 205.384 43.1333 205.528 43.848 205.816C44.5733 206.104 45.1653 206.547 45.624 207.144L44.344 208.12ZM47.4656 204.904H48.9056V217H47.4656V204.904ZM51.3094 209.416H52.7494V217H51.3094V209.416ZM50.9734 206.696C50.9734 206.408 51.0747 206.163 51.2774 205.96C51.4907 205.747 51.7414 205.64 52.0294 205.64C52.3174 205.64 52.5627 205.747 52.7654 205.96C52.9787 206.163 53.0854 206.408 53.0854 206.696C53.0854 206.984 52.9787 207.235 52.7654 207.448C52.5627 207.651 52.3174 207.752 52.0294 207.752C51.7414 207.752 51.4907 207.651 51.2774 207.448C51.0747 207.235 50.9734 206.984 50.9734 206.696ZM60.4651 211.432C60.1985 211.155 59.9158 210.947 59.6171 210.808C59.3291 210.659 58.9825 210.584 58.5771 210.584C58.1825 210.584 57.8358 210.659 57.5371 210.808C57.2491 210.947 57.0038 211.144 56.8011 211.4C56.6091 211.645 56.4598 211.933 56.3531 212.264C56.2571 212.584 56.2091 212.92 56.2091 213.272C56.2091 213.624 56.2678 213.96 56.3851 214.28C56.5025 214.589 56.6678 214.861 56.8811 215.096C57.0945 215.331 57.3505 215.517 57.6491 215.656C57.9478 215.784 58.2838 215.848 58.6571 215.848C59.0625 215.848 59.4091 215.779 59.6971 215.64C59.9851 215.491 60.2518 215.277 60.4971 215L61.5211 216.024C61.1478 216.44 60.7105 216.739 60.2091 216.92C59.7185 217.101 59.1958 217.192 58.6411 217.192C58.0545 217.192 57.5158 217.096 57.0251 216.904C56.5451 216.712 56.1291 216.445 55.7771 216.104C55.4251 215.752 55.1531 215.336 54.9611 214.856C54.7691 214.365 54.6731 213.827 54.6731 213.24C54.6731 212.653 54.7691 212.115 54.9611 211.624C55.1531 211.133 55.4198 210.712 55.7611 210.36C56.1131 210.008 56.5291 209.736 57.0091 209.544C57.4998 209.341 58.0438 209.24 58.6411 209.24C59.1958 209.24 59.7238 209.341 60.2251 209.544C60.7371 209.736 61.1798 210.035 61.5531 210.44L60.4651 211.432ZM62.7599 204.904H64.1999V212.712L67.4639 209.432H69.4639L65.9279 212.872L69.7679 217H67.7199L64.1999 213.064V217H62.7599V204.904Z" fill="black"/>
<path d="M304.536 207.112H299.944L299.896 209.944C299.971 209.912 300.077 209.88 300.216 209.848C300.355 209.816 300.493 209.789 300.632 209.768C300.781 209.747 300.925 209.731 301.064 209.72C301.203 209.709 301.32 209.704 301.416 209.704C301.949 209.704 302.429 209.795 302.856 209.976C303.293 210.157 303.667 210.413 303.976 210.744C304.285 211.075 304.52 211.469 304.68 211.928C304.851 212.387 304.936 212.893 304.936 213.448C304.936 214.013 304.829 214.525 304.616 214.984C304.413 215.443 304.131 215.837 303.768 216.168C303.405 216.499 302.984 216.755 302.504 216.936C302.024 217.107 301.507 217.192 300.952 217.192C300.184 217.192 299.491 216.995 298.872 216.6C298.253 216.205 297.811 215.64 297.544 214.904L299.096 214.376C299.299 214.899 299.571 215.277 299.912 215.512C300.253 215.736 300.68 215.848 301.192 215.848C301.491 215.848 301.773 215.795 302.04 215.688C302.317 215.581 302.552 215.432 302.744 215.24C302.947 215.037 303.107 214.792 303.224 214.504C303.341 214.216 303.4 213.891 303.4 213.528C303.4 212.696 303.144 212.077 302.632 211.672C302.131 211.256 301.475 211.048 300.664 211.048C300.376 211.048 300.008 211.101 299.56 211.208C299.123 211.304 298.712 211.448 298.328 211.64L298.456 205.672H304.536V207.112ZM306.435 211.336C306.435 210.92 306.456 210.488 306.499 210.04C306.541 209.592 306.616 209.155 306.723 208.728C306.84 208.291 306.989 207.875 307.171 207.48C307.363 207.085 307.603 206.744 307.891 206.456C308.189 206.157 308.536 205.923 308.931 205.752C309.336 205.571 309.805 205.48 310.339 205.48C310.872 205.48 311.336 205.571 311.731 205.752C312.136 205.923 312.483 206.157 312.771 206.456C313.069 206.744 313.309 207.085 313.491 207.48C313.683 207.875 313.832 208.291 313.939 208.728C314.056 209.155 314.136 209.592 314.179 210.04C314.221 210.488 314.243 210.92 314.243 211.336C314.243 211.933 314.189 212.573 314.083 213.256C313.976 213.939 313.779 214.573 313.491 215.16C313.203 215.747 312.803 216.232 312.291 216.616C311.789 217 311.139 217.192 310.339 217.192C309.539 217.192 308.883 217 308.371 216.616C307.869 216.232 307.475 215.747 307.187 215.16C306.899 214.573 306.701 213.939 306.595 213.256C306.488 212.573 306.435 211.933 306.435 211.336ZM307.971 211.336C307.971 211.709 307.992 212.152 308.035 212.664C308.088 213.176 308.195 213.672 308.355 214.152C308.515 214.621 308.749 215.021 309.059 215.352C309.379 215.683 309.805 215.848 310.339 215.848C310.872 215.848 311.293 215.683 311.603 215.352C311.923 215.021 312.163 214.621 312.323 214.152C312.483 213.672 312.584 213.176 312.627 212.664C312.68 212.152 312.707 211.709 312.707 211.336C312.707 211.08 312.696 210.792 312.675 210.472C312.664 210.141 312.627 209.811 312.563 209.48C312.509 209.139 312.429 208.813 312.323 208.504C312.216 208.184 312.072 207.901 311.891 207.656C311.72 207.4 311.507 207.197 311.251 207.048C310.995 206.899 310.691 206.824 310.339 206.824C309.987 206.824 309.683 206.899 309.427 207.048C309.171 207.197 308.952 207.4 308.771 207.656C308.6 207.901 308.461 208.184 308.355 208.504C308.248 208.813 308.163 209.139 308.099 209.48C308.045 209.811 308.008 210.141 307.987 210.472C307.976 210.792 307.971 211.08 307.971 211.336ZM315.325 211.336C315.325 210.92 315.347 210.488 315.389 210.04C315.432 209.592 315.507 209.155 315.613 208.728C315.731 208.291 315.88 207.875 316.061 207.48C316.253 207.085 316.493 206.744 316.781 206.456C317.08 206.157 317.427 205.923 317.821 205.752C318.227 205.571 318.696 205.48 319.229 205.48C319.763 205.48 320.227 205.571 320.621 205.752C321.027 205.923 321.373 206.157 321.661 206.456C321.96 206.744 322.2 207.085 322.381 207.48C322.573 207.875 322.723 208.291 322.829 208.728C322.947 209.155 323.027 209.592 323.069 210.04C323.112 210.488 323.133 210.92 323.133 211.336C323.133 211.933 323.08 212.573 322.973 213.256C322.867 213.939 322.669 214.573 322.381 215.16C322.093 215.747 321.693 216.232 321.181 216.616C320.68 217 320.029 217.192 319.229 217.192C318.429 217.192 317.773 217 317.261 216.616C316.76 216.232 316.365 215.747 316.077 215.16C315.789 214.573 315.592 213.939 315.485 213.256C315.379 212.573 315.325 211.933 315.325 211.336ZM316.861 211.336C316.861 211.709 316.883 212.152 316.925 212.664C316.979 213.176 317.085 213.672 317.245 214.152C317.405 214.621 317.64 215.021 317.949 215.352C318.269 215.683 318.696 215.848 319.229 215.848C319.763 215.848 320.184 215.683 320.493 215.352C320.813 215.021 321.053 214.621 321.213 214.152C321.373 213.672 321.475 213.176 321.517 212.664C321.571 212.152 321.597 211.709 321.597 211.336C321.597 211.08 321.587 210.792 321.565 210.472C321.555 210.141 321.517 209.811 321.453 209.48C321.4 209.139 321.32 208.813 321.213 208.504C321.107 208.184 320.963 207.901 320.781 207.656C320.611 207.4 320.397 207.197 320.141 207.048C319.885 206.899 319.581 206.824 319.229 206.824C318.877 206.824 318.573 206.899 318.317 207.048C318.061 207.197 317.843 207.4 317.661 207.656C317.491 207.901 317.352 208.184 317.245 208.504C317.139 208.813 317.053 209.139 316.989 209.48C316.936 209.811 316.899 210.141 316.877 210.472C316.867 210.792 316.861 211.08 316.861 211.336Z" fill="black"/>
<path d="M344.376 248.616H344.312C343.96 248.787 343.544 248.872 343.064 248.872C342.659 248.872 342.248 248.803 341.832 248.664C341.416 248.525 341.037 248.312 340.696 248.024C340.365 247.725 340.093 247.352 339.88 246.904C339.667 246.445 339.56 245.907 339.56 245.288C339.56 244.669 339.661 244.125 339.864 243.656C340.077 243.176 340.36 242.776 340.712 242.456C341.064 242.136 341.475 241.896 341.944 241.736C342.413 241.565 342.915 241.48 343.448 241.48C343.981 241.48 344.483 241.565 344.952 241.736C345.421 241.907 345.832 242.152 346.184 242.472C346.536 242.792 346.813 243.176 347.016 243.624C347.229 244.072 347.336 244.573 347.336 245.128C347.336 245.48 347.309 245.8 347.256 246.088C347.203 246.376 347.123 246.653 347.016 246.92C346.92 247.176 346.803 247.432 346.664 247.688C346.525 247.944 346.371 248.205 346.2 248.472L343.336 253H341.528L344.376 248.616ZM345.8 245.176C345.8 244.835 345.741 244.52 345.624 244.232C345.517 243.944 345.357 243.699 345.144 243.496C344.941 243.283 344.696 243.117 344.408 243C344.12 242.883 343.8 242.824 343.448 242.824C343.096 242.824 342.776 242.883 342.488 243C342.2 243.117 341.949 243.283 341.736 243.496C341.533 243.699 341.373 243.944 341.256 244.232C341.149 244.52 341.096 244.835 341.096 245.176C341.096 245.517 341.149 245.832 341.256 246.12C341.373 246.408 341.533 246.659 341.736 246.872C341.949 247.075 342.2 247.235 342.488 247.352C342.776 247.469 343.096 247.528 343.448 247.528C343.8 247.528 344.12 247.469 344.408 247.352C344.696 247.235 344.941 247.075 345.144 246.872C345.357 246.659 345.517 246.408 345.624 246.12C345.741 245.832 345.8 245.517 345.8 245.176ZM348.435 247.336C348.435 246.92 348.456 246.488 348.499 246.04C348.541 245.592 348.616 245.155 348.723 244.728C348.84 244.291 348.989 243.875 349.171 243.48C349.363 243.085 349.603 242.744 349.891 242.456C350.189 242.157 350.536 241.923 350.931 241.752C351.336 241.571 351.805 241.48 352.339 241.48C352.872 241.48 353.336 241.571 353.731 241.752C354.136 241.923 354.483 242.157 354.771 242.456C355.069 242.744 355.309 243.085 355.491 243.48C355.683 243.875 355.832 244.291 355.939 244.728C356.056 245.155 356.136 245.592 356.179 246.04C356.221 246.488 356.243 246.92 356.243 247.336C356.243 247.933 356.189 248.573 356.083 249.256C355.976 249.939 355.779 250.573 355.491 251.16C355.203 251.747 354.803 252.232 354.291 252.616C353.789 253 353.139 253.192 352.339 253.192C351.539 253.192 350.883 253 350.371 252.616C349.869 252.232 349.475 251.747 349.187 251.16C348.899 250.573 348.701 249.939 348.595 249.256C348.488 248.573 348.435 247.933 348.435 247.336ZM349.971 247.336C349.971 247.709 349.992 248.152 350.035 248.664C350.088 249.176 350.195 249.672 350.355 250.152C350.515 250.621 350.749 251.021 351.059 251.352C351.379 251.683 351.805 251.848 352.339 251.848C352.872 251.848 353.293 251.683 353.603 251.352C353.923 251.021 354.163 250.621 354.323 250.152C354.483 249.672 354.584 249.176 354.627 248.664C354.68 248.152 354.707 247.709 354.707 247.336C354.707 247.08 354.696 246.792 354.675 246.472C354.664 246.141 354.627 245.811 354.563 245.48C354.509 245.139 354.429 244.813 354.323 244.504C354.216 244.184 354.072 243.901 353.891 243.656C353.72 243.4 353.507 243.197 353.251 243.048C352.995 242.899 352.691 242.824 352.339 242.824C351.987 242.824 351.683 242.899 351.427 243.048C351.171 243.197 350.952 243.4 350.771 243.656C350.6 243.901 350.461 244.184 350.355 244.504C350.248 244.813 350.163 245.139 350.099 245.48C350.045 245.811 350.008 246.141 349.987 246.472C349.976 246.792 349.971 247.08 349.971 247.336ZM357.325 247.336C357.325 246.92 357.347 246.488 357.389 246.04C357.432 245.592 357.507 245.155 357.613 244.728C357.731 244.291 357.88 243.875 358.061 243.48C358.253 243.085 358.493 242.744 358.781 242.456C359.08 242.157 359.427 241.923 359.821 241.752C360.227 241.571 360.696 241.48 361.229 241.48C361.763 241.48 362.227 241.571 362.621 241.752C363.027 241.923 363.373 242.157 363.661 242.456C363.96 242.744 364.2 243.085 364.381 243.48C364.573 243.875 364.723 244.291 364.829 244.728C364.947 245.155 365.027 245.592 365.069 246.04C365.112 246.488 365.133 246.92 365.133 247.336C365.133 247.933 365.08 248.573 364.973 249.256C364.867 249.939 364.669 250.573 364.381 251.16C364.093 251.747 363.693 252.232 363.181 252.616C362.68 253 362.029 253.192 361.229 253.192C360.429 253.192 359.773 253 359.261 252.616C358.76 252.232 358.365 251.747 358.077 251.16C357.789 250.573 357.592 249.939 357.485 249.256C357.379 248.573 357.325 247.933 357.325 247.336ZM358.861 247.336C358.861 247.709 358.883 248.152 358.925 248.664C358.979 249.176 359.085 249.672 359.245 250.152C359.405 250.621 359.64 251.021 359.949 251.352C360.269 251.683 360.696 251.848 361.229 251.848C361.763 251.848 362.184 251.683 362.493 251.352C362.813 251.021 363.053 250.621 363.213 250.152C363.373 249.672 363.475 249.176 363.517 248.664C363.571 248.152 363.597 247.709 363.597 247.336C363.597 247.08 363.587 246.792 363.565 246.472C363.555 246.141 363.517 245.811 363.453 245.48C363.4 245.139 363.32 244.813 363.213 244.504C363.107 244.184 362.963 243.901 362.781 243.656C362.611 243.4 362.397 243.197 362.141 243.048C361.885 242.899 361.581 242.824 361.229 242.824C360.877 242.824 360.573 242.899 360.317 243.048C360.061 243.197 359.843 243.4 359.661 243.656C359.491 243.901 359.352 244.184 359.245 244.504C359.139 244.813 359.053 245.139 358.989 245.48C358.936 245.811 358.899 246.141 358.877 246.472C358.867 246.792 358.861 247.08 358.861 247.336Z" fill="black"/>
<path d="M227.736 289.368L232.28 284.856C232.44 284.707 232.595 284.547 232.744 284.376C232.893 284.195 233.027 284.008 233.144 283.816C233.261 283.624 233.352 283.421 233.416 283.208C233.491 282.995 233.528 282.771 233.528 282.536C233.528 282.259 233.475 282.008 233.368 281.784C233.272 281.56 233.133 281.373 232.952 281.224C232.781 281.064 232.573 280.941 232.328 280.856C232.093 280.771 231.843 280.728 231.576 280.728C231.021 280.728 230.563 280.883 230.2 281.192C229.837 281.501 229.608 281.928 229.512 282.472L227.848 282.328C227.923 281.827 228.067 281.395 228.28 281.032C228.504 280.659 228.776 280.349 229.096 280.104C229.427 279.859 229.8 279.677 230.216 279.56C230.643 279.443 231.101 279.384 231.592 279.384C232.083 279.384 232.541 279.453 232.968 279.592C233.405 279.72 233.784 279.917 234.104 280.184C234.435 280.44 234.691 280.765 234.872 281.16C235.064 281.544 235.16 281.997 235.16 282.52C235.16 282.893 235.101 283.245 234.984 283.576C234.877 283.896 234.733 284.2 234.552 284.488C234.371 284.776 234.163 285.048 233.928 285.304C233.693 285.56 233.448 285.811 233.192 286.056L229.464 289.656H235.16V291H227.736V289.368ZM241.267 288.504H236.435V286.936L240.947 279.672H242.803V287.16H244.403V288.504H242.803V291H241.267V288.504ZM241.267 281.496H241.235L237.779 287.16H241.267V281.496ZM245.325 285.336C245.325 284.92 245.347 284.488 245.389 284.04C245.432 283.592 245.507 283.155 245.613 282.728C245.731 282.291 245.88 281.875 246.061 281.48C246.253 281.085 246.493 280.744 246.781 280.456C247.08 280.157 247.427 279.923 247.821 279.752C248.227 279.571 248.696 279.48 249.229 279.48C249.763 279.48 250.227 279.571 250.621 279.752C251.027 279.923 251.373 280.157 251.661 280.456C251.96 280.744 252.2 281.085 252.381 281.48C252.573 281.875 252.723 282.291 252.829 282.728C252.947 283.155 253.027 283.592 253.069 284.04C253.112 284.488 253.133 284.92 253.133 285.336C253.133 285.933 253.08 286.573 252.973 287.256C252.867 287.939 252.669 288.573 252.381 289.16C252.093 289.747 251.693 290.232 251.181 290.616C250.68 291 250.029 291.192 249.229 291.192C248.429 291.192 247.773 291 247.261 290.616C246.76 290.232 246.365 289.747 246.077 289.16C245.789 288.573 245.592 287.939 245.485 287.256C245.379 286.573 245.325 285.933 245.325 285.336ZM246.861 285.336C246.861 285.709 246.883 286.152 246.925 286.664C246.979 287.176 247.085 287.672 247.245 288.152C247.405 288.621 247.64 289.021 247.949 289.352C248.269 289.683 248.696 289.848 249.229 289.848C249.763 289.848 250.184 289.683 250.493 289.352C250.813 289.021 251.053 288.621 251.213 288.152C251.373 287.672 251.475 287.176 251.517 286.664C251.571 286.152 251.597 285.709 251.597 285.336C251.597 285.08 251.587 284.792 251.565 284.472C251.555 284.141 251.517 283.811 251.453 283.48C251.4 283.139 251.32 282.813 251.213 282.504C251.107 282.184 250.963 281.901 250.781 281.656C250.611 281.4 250.397 281.197 250.141 281.048C249.885 280.899 249.581 280.824 249.229 280.824C248.877 280.824 248.573 280.899 248.317 281.048C248.061 281.197 247.843 281.4 247.661 281.656C247.491 281.901 247.352 282.184 247.245 282.504C247.139 282.813 247.053 283.139 246.989 283.48C246.936 283.811 246.899 284.141 246.877 284.472C246.867 284.792 246.861 285.08 246.861 285.336Z" fill="black"/>
<path d="M188.32 318.432L186.24 320.352L185.344 319.28L188.496 316.672H189.856V328H188.32V318.432ZM193.627 326.368L198.171 321.856C198.331 321.707 198.485 321.547 198.635 321.376C198.784 321.195 198.917 321.008 199.035 320.816C199.152 320.624 199.243 320.421 199.307 320.208C199.381 319.995 199.419 319.771 199.419 319.536C199.419 319.259 199.365 319.008 199.259 318.784C199.163 318.56 199.024 318.373 198.843 318.224C198.672 318.064 198.464 317.941 198.219 317.856C197.984 317.771 197.733 317.728 197.467 317.728C196.912 317.728 196.453 317.883 196.091 318.192C195.728 318.501 195.499 318.928 195.403 319.472L193.739 319.328C193.813 318.827 193.957 318.395 194.171 318.032C194.395 317.659 194.667 317.349 194.987 317.104C195.317 316.859 195.691 316.677 196.107 316.56C196.533 316.443 196.992 316.384 197.483 316.384C197.973 316.384 198.432 316.453 198.859 316.592C199.296 316.72 199.675 316.917 199.995 317.184C200.325 317.44 200.581 317.765 200.763 318.16C200.955 318.544 201.051 318.997 201.051 319.52C201.051 319.893 200.992 320.245 200.875 320.576C200.768 320.896 200.624 321.2 200.443 321.488C200.261 321.776 200.053 322.048 199.819 322.304C199.584 322.56 199.339 322.811 199.083 323.056L195.355 326.656H201.051V328H193.627V326.368ZM202.325 322.336C202.325 321.92 202.347 321.488 202.389 321.04C202.432 320.592 202.507 320.155 202.613 319.728C202.731 319.291 202.88 318.875 203.061 318.48C203.253 318.085 203.493 317.744 203.781 317.456C204.08 317.157 204.427 316.923 204.821 316.752C205.227 316.571 205.696 316.48 206.229 316.48C206.763 316.48 207.227 316.571 207.621 316.752C208.027 316.923 208.373 317.157 208.661 317.456C208.96 317.744 209.2 318.085 209.381 318.48C209.573 318.875 209.723 319.291 209.829 319.728C209.947 320.155 210.027 320.592 210.069 321.04C210.112 321.488 210.133 321.92 210.133 322.336C210.133 322.933 210.08 323.573 209.973 324.256C209.867 324.939 209.669 325.573 209.381 326.16C209.093 326.747 208.693 327.232 208.181 327.616C207.68 328 207.029 328.192 206.229 328.192C205.429 328.192 204.773 328 204.261 327.616C203.76 327.232 203.365 326.747 203.077 326.16C202.789 325.573 202.592 324.939 202.485 324.256C202.379 323.573 202.325 322.933 202.325 322.336ZM203.861 322.336C203.861 322.709 203.883 323.152 203.925 323.664C203.979 324.176 204.085 324.672 204.245 325.152C204.405 325.621 204.64 326.021 204.949 326.352C205.269 326.683 205.696 326.848 206.229 326.848C206.763 326.848 207.184 326.683 207.493 326.352C207.813 326.021 208.053 325.621 208.213 325.152C208.373 324.672 208.475 324.176 208.517 323.664C208.571 323.152 208.597 322.709 208.597 322.336C208.597 322.08 208.587 321.792 208.565 321.472C208.555 321.141 208.517 320.811 208.453 320.48C208.4 320.139 208.32 319.813 208.213 319.504C208.107 319.184 207.963 318.901 207.781 318.656C207.611 318.4 207.397 318.197 207.141 318.048C206.885 317.899 206.581 317.824 206.229 317.824C205.877 317.824 205.573 317.899 205.317 318.048C205.061 318.197 204.843 318.4 204.661 318.656C204.491 318.901 204.352 319.184 204.245 319.504C204.139 319.813 204.053 320.139 203.989 320.48C203.936 320.811 203.899 321.141 203.877 321.472C203.867 321.792 203.861 322.08 203.861 322.336Z" fill="black"/>
<path d="M34.904 242.672H36.68L40.008 251.888H40.04L43.496 242.672H45.176L40.712 254H39.272L34.904 242.672ZM45.9969 246.416H47.4369V254H45.9969V246.416ZM45.6609 243.696C45.6609 243.408 45.7622 243.163 45.9649 242.96C46.1782 242.747 46.4289 242.64 46.7169 242.64C47.0049 242.64 47.2502 242.747 47.4529 242.96C47.6662 243.163 47.7729 243.408 47.7729 243.696C47.7729 243.984 47.6662 244.235 47.4529 244.448C47.2502 244.651 47.0049 244.752 46.7169 244.752C46.4289 244.752 46.1782 244.651 45.9649 244.448C45.7622 244.235 45.6609 243.984 45.6609 243.696ZM50.8166 250.736C50.8166 251.067 50.886 251.371 51.0246 251.648C51.174 251.915 51.366 252.144 51.6006 252.336C51.8353 252.528 52.1073 252.677 52.4166 252.784C52.726 252.891 53.046 252.944 53.3766 252.944C53.8246 252.944 54.214 252.843 54.5446 252.64C54.8753 252.427 55.1793 252.149 55.4566 251.808L56.5446 252.64C55.7446 253.675 54.6246 254.192 53.1846 254.192C52.5873 254.192 52.0433 254.091 51.5526 253.888C51.0726 253.685 50.662 253.408 50.3206 253.056C49.99 252.693 49.734 252.272 49.5526 251.792C49.3713 251.301 49.2806 250.773 49.2806 250.208C49.2806 249.643 49.3766 249.12 49.5686 248.64C49.7713 248.149 50.0433 247.728 50.3846 247.376C50.7366 247.013 51.1526 246.731 51.6326 246.528C52.1126 246.325 52.6353 246.224 53.2006 246.224C53.8726 246.224 54.438 246.341 54.8966 246.576C55.366 246.811 55.75 247.12 56.0486 247.504C56.3473 247.877 56.5606 248.304 56.6886 248.784C56.8273 249.253 56.8966 249.733 56.8966 250.224V250.736H50.8166ZM55.3606 249.584C55.35 249.264 55.2966 248.971 55.2006 248.704C55.1153 248.437 54.982 248.208 54.8006 248.016C54.6193 247.813 54.39 247.659 54.1126 247.552C53.846 247.435 53.5313 247.376 53.1686 247.376C52.8166 247.376 52.4913 247.445 52.1926 247.584C51.9046 247.712 51.6593 247.883 51.4566 248.096C51.254 248.309 51.094 248.549 50.9766 248.816C50.87 249.072 50.8166 249.328 50.8166 249.584H55.3606ZM57.7073 246.416H59.3233L61.0353 252.08H61.0673L62.8753 246.416H64.3953L66.3153 252.08H66.3472L67.9793 246.416H69.4993L67.0513 254H65.5953L63.5953 248.336H63.5633L61.7552 254H60.2033L57.7073 246.416ZM74.7919 248.32C74.6212 248.107 74.4079 247.931 74.1519 247.792C73.9065 247.643 73.6025 247.568 73.2399 247.568C72.8985 247.568 72.5999 247.643 72.3439 247.792C72.0985 247.931 71.9759 248.139 71.9759 248.416C71.9759 248.64 72.0452 248.821 72.1839 248.96C72.3332 249.099 72.5039 249.211 72.6959 249.296C72.8985 249.381 73.1119 249.445 73.3359 249.488C73.5599 249.531 73.7519 249.568 73.9119 249.6C74.2212 249.675 74.5092 249.765 74.7759 249.872C75.0532 249.979 75.2879 250.117 75.4799 250.288C75.6825 250.459 75.8372 250.667 75.9439 250.912C76.0612 251.157 76.1199 251.456 76.1199 251.808C76.1199 252.235 76.0292 252.603 75.8479 252.912C75.6665 253.211 75.4319 253.456 75.1439 253.648C74.8559 253.84 74.5252 253.979 74.1519 254.064C73.7892 254.149 73.4212 254.192 73.0479 254.192C72.4185 254.192 71.8639 254.096 71.3839 253.904C70.9145 253.712 70.4932 253.36 70.1199 252.848L71.2079 251.952C71.4425 252.187 71.7039 252.395 71.9919 252.576C72.2799 252.757 72.6319 252.848 73.0479 252.848C73.2292 252.848 73.4105 252.832 73.5919 252.8C73.7839 252.757 73.9492 252.699 74.0879 252.624C74.2372 252.539 74.3545 252.437 74.4399 252.32C74.5359 252.192 74.5839 252.048 74.5839 251.888C74.5839 251.675 74.5145 251.499 74.3759 251.36C74.2479 251.221 74.0879 251.115 73.8959 251.04C73.7145 250.955 73.5172 250.891 73.3039 250.848C73.1012 250.795 72.9199 250.752 72.7599 250.72C72.4505 250.645 72.1572 250.56 71.8799 250.464C71.6025 250.368 71.3572 250.24 71.1439 250.08C70.9305 249.92 70.7599 249.717 70.6319 249.472C70.5039 249.227 70.4399 248.923 70.4399 248.56C70.4399 248.165 70.5199 247.824 70.6799 247.536C70.8505 247.237 71.0692 246.992 71.3359 246.8C71.6132 246.608 71.9225 246.464 72.2639 246.368C72.6159 246.272 72.9679 246.224 73.3199 246.224C73.8319 246.224 74.3225 246.32 74.7919 246.512C75.2612 246.704 75.6345 247.024 75.9119 247.472L74.7919 248.32Z" fill="black"/>
<path d="M36.792 288.632C37.0693 289.048 37.4213 289.357 37.848 289.56C38.2853 289.752 38.7333 289.848 39.192 289.848C39.448 289.848 39.7093 289.811 39.976 289.736C40.2427 289.651 40.4827 289.528 40.696 289.368C40.92 289.208 41.1013 289.011 41.24 288.776C41.3787 288.541 41.448 288.269 41.448 287.96C41.448 287.523 41.3093 287.192 41.032 286.968C40.7547 286.733 40.408 286.541 39.992 286.392C39.5867 286.232 39.1387 286.083 38.648 285.944C38.168 285.795 37.72 285.592 37.304 285.336C36.8987 285.08 36.5573 284.739 36.28 284.312C36.0027 283.875 35.864 283.288 35.864 282.552C35.864 282.221 35.9333 281.869 36.072 281.496C36.2213 281.123 36.4507 280.781 36.76 280.472C37.0693 280.163 37.464 279.907 37.944 279.704C38.4347 279.491 39.0213 279.384 39.704 279.384C40.3227 279.384 40.9147 279.469 41.48 279.64C42.0453 279.811 42.5413 280.157 42.968 280.68L41.72 281.816C41.528 281.517 41.256 281.277 40.904 281.096C40.552 280.915 40.152 280.824 39.704 280.824C39.2773 280.824 38.92 280.883 38.632 281C38.3547 281.107 38.1307 281.251 37.96 281.432C37.7893 281.603 37.6667 281.789 37.592 281.992C37.528 282.195 37.496 282.381 37.496 282.552C37.496 283.032 37.6347 283.4 37.912 283.656C38.1893 283.912 38.5307 284.12 38.936 284.28C39.352 284.44 39.8 284.584 40.28 284.712C40.7707 284.84 41.2187 285.021 41.624 285.256C42.04 285.48 42.3867 285.789 42.664 286.184C42.9413 286.568 43.08 287.101 43.08 287.784C43.08 288.328 42.9733 288.819 42.76 289.256C42.5573 289.693 42.28 290.061 41.928 290.36C41.576 290.659 41.16 290.888 40.68 291.048C40.2 291.208 39.688 291.288 39.144 291.288C38.4187 291.288 37.7307 291.16 37.08 290.904C36.4293 290.648 35.912 290.253 35.528 289.72L36.792 288.632ZM46.0666 287.736C46.0666 288.067 46.136 288.371 46.2746 288.648C46.424 288.915 46.616 289.144 46.8506 289.336C47.0853 289.528 47.3573 289.677 47.6666 289.784C47.976 289.891 48.296 289.944 48.6266 289.944C49.0746 289.944 49.464 289.843 49.7946 289.64C50.1253 289.427 50.4293 289.149 50.7066 288.808L51.7946 289.64C50.9946 290.675 49.8746 291.192 48.4346 291.192C47.8373 291.192 47.2933 291.091 46.8026 290.888C46.3226 290.685 45.912 290.408 45.5706 290.056C45.24 289.693 44.984 289.272 44.8026 288.792C44.6213 288.301 44.5306 287.773 44.5306 287.208C44.5306 286.643 44.6266 286.12 44.8186 285.64C45.0213 285.149 45.2933 284.728 45.6346 284.376C45.9866 284.013 46.4026 283.731 46.8826 283.528C47.3626 283.325 47.8853 283.224 48.4506 283.224C49.1226 283.224 49.688 283.341 50.1466 283.576C50.616 283.811 51 284.12 51.2986 284.504C51.5973 284.877 51.8106 285.304 51.9386 285.784C52.0773 286.253 52.1466 286.733 52.1466 287.224V287.736H46.0666ZM50.6106 286.584C50.6 286.264 50.5466 285.971 50.4506 285.704C50.3653 285.437 50.232 285.208 50.0506 285.016C49.8693 284.813 49.64 284.659 49.3626 284.552C49.096 284.435 48.7813 284.376 48.4186 284.376C48.0666 284.376 47.7413 284.445 47.4426 284.584C47.1546 284.712 46.9093 284.883 46.7066 285.096C46.504 285.309 46.344 285.549 46.2266 285.816C46.12 286.072 46.0666 286.328 46.0666 286.584H50.6106ZM53.9013 284.344C54.3066 283.971 54.7759 283.693 55.3093 283.512C55.8426 283.32 56.3759 283.224 56.9093 283.224C57.4639 283.224 57.9386 283.293 58.3333 283.432C58.7386 283.571 59.0693 283.757 59.3253 283.992C59.5813 284.227 59.7679 284.499 59.8853 284.808C60.0133 285.107 60.0773 285.421 60.0773 285.752V289.624C60.0773 289.891 60.0826 290.136 60.0933 290.36C60.1039 290.584 60.1199 290.797 60.1413 291H58.8613C58.8293 290.616 58.8133 290.232 58.8133 289.848H58.7813C58.4613 290.339 58.0826 290.685 57.6453 290.888C57.2079 291.091 56.7013 291.192 56.1253 291.192C55.7733 291.192 55.4373 291.144 55.1173 291.048C54.7973 290.952 54.5146 290.808 54.2693 290.616C54.0346 290.424 53.8479 290.189 53.7093 289.912C53.5706 289.624 53.5013 289.293 53.5013 288.92C53.5013 288.429 53.6079 288.019 53.8213 287.688C54.0453 287.357 54.3439 287.091 54.7173 286.888C55.1013 286.675 55.5439 286.525 56.0453 286.44C56.5573 286.344 57.1013 286.296 57.6773 286.296H58.7333V285.976C58.7333 285.784 58.6959 285.592 58.6213 285.4C58.5466 285.208 58.4346 285.037 58.2853 284.888C58.1359 284.728 57.9493 284.605 57.7253 284.52C57.5013 284.424 57.2346 284.376 56.9253 284.376C56.6479 284.376 56.4026 284.403 56.1893 284.456C55.9866 284.509 55.7999 284.579 55.6293 284.664C55.4586 284.739 55.3039 284.829 55.1653 284.936C55.0266 285.043 54.8933 285.144 54.7653 285.24L53.9013 284.344ZM57.9653 287.352C57.6239 287.352 57.2719 287.373 56.9093 287.416C56.5573 287.448 56.2319 287.517 55.9333 287.624C55.6453 287.731 55.4053 287.88 55.2133 288.072C55.0319 288.264 54.9413 288.509 54.9413 288.808C54.9413 289.245 55.0853 289.56 55.3733 289.752C55.6719 289.944 56.0719 290.04 56.5733 290.04C56.9679 290.04 57.3039 289.976 57.5813 289.848C57.8586 289.709 58.0826 289.533 58.2533 289.32C58.4239 289.107 58.5466 288.872 58.6213 288.616C58.6959 288.349 58.7333 288.088 58.7333 287.832V287.352H57.9653ZM62.1661 283.416H63.6061V284.584H63.6381C63.7341 284.381 63.8621 284.2 64.0221 284.04C64.1821 283.869 64.3581 283.725 64.5501 283.608C64.7528 283.491 64.9715 283.4 65.2061 283.336C65.4408 283.261 65.6755 283.224 65.9101 283.224C66.1448 283.224 66.3581 283.256 66.5501 283.32L66.4861 284.872C66.3688 284.84 66.2515 284.813 66.1341 284.792C66.0168 284.771 65.8995 284.76 65.7821 284.76C65.0781 284.76 64.5395 284.957 64.1661 285.352C63.7928 285.747 63.6061 286.36 63.6061 287.192V291H62.1661V283.416ZM73.2308 285.432C72.9641 285.155 72.6814 284.947 72.3828 284.808C72.0948 284.659 71.7481 284.584 71.3428 284.584C70.9481 284.584 70.6014 284.659 70.3028 284.808C70.0148 284.947 69.7694 285.144 69.5668 285.4C69.3748 285.645 69.2254 285.933 69.1188 286.264C69.0228 286.584 68.9748 286.92 68.9748 287.272C68.9748 287.624 69.0334 287.96 69.1508 288.28C69.2681 288.589 69.4334 288.861 69.6468 289.096C69.8601 289.331 70.1161 289.517 70.4148 289.656C70.7134 289.784 71.0494 289.848 71.4227 289.848C71.8281 289.848 72.1748 289.779 72.4628 289.64C72.7508 289.491 73.0174 289.277 73.2628 289L74.2868 290.024C73.9134 290.44 73.4761 290.739 72.9748 290.92C72.4841 291.101 71.9614 291.192 71.4068 291.192C70.8201 291.192 70.2814 291.096 69.7908 290.904C69.3108 290.712 68.8948 290.445 68.5428 290.104C68.1908 289.752 67.9188 289.336 67.7268 288.856C67.5348 288.365 67.4388 287.827 67.4388 287.24C67.4388 286.653 67.5348 286.115 67.7268 285.624C67.9188 285.133 68.1854 284.712 68.5268 284.36C68.8788 284.008 69.2948 283.736 69.7748 283.544C70.2654 283.341 70.8094 283.24 71.4068 283.24C71.9614 283.24 72.4894 283.341 72.9908 283.544C73.5028 283.736 73.9454 284.035 74.3188 284.44L73.2308 285.432ZM75.5255 278.904H76.9655V284.584H76.9975C77.1788 284.179 77.4935 283.853 77.9415 283.608C78.3895 283.352 78.9068 283.224 79.4935 283.224C79.8562 283.224 80.2028 283.283 80.5335 283.4C80.8748 283.507 81.1682 283.677 81.4135 283.912C81.6695 284.147 81.8722 284.451 82.0215 284.824C82.1708 285.187 82.2455 285.619 82.2455 286.12V291H80.8055V286.52C80.8055 286.168 80.7575 285.869 80.6615 285.624C80.5655 285.368 80.4375 285.165 80.2775 285.016C80.1175 284.856 79.9308 284.744 79.7175 284.68C79.5148 284.605 79.3015 284.568 79.0775 284.568C78.7788 284.568 78.5015 284.616 78.2455 284.712C77.9895 284.808 77.7655 284.963 77.5735 285.176C77.3815 285.379 77.2322 285.64 77.1255 285.96C77.0188 286.28 76.9655 286.659 76.9655 287.096V291H75.5255V278.904Z" fill="black"/>
<path d="M36.456 316.672H38.472L44.712 325.984H44.744V316.672H46.28V328H44.328L38.024 318.688H37.992V328H36.456V316.672ZM49.9904 324.208C49.9904 324.592 50.049 324.949 50.1664 325.28C50.2837 325.6 50.449 325.877 50.6624 326.112C50.8757 326.336 51.137 326.517 51.4464 326.656C51.7557 326.784 52.1024 326.848 52.4864 326.848C52.8704 326.848 53.217 326.784 53.5264 326.656C53.8357 326.517 54.097 326.336 54.3104 326.112C54.5237 325.877 54.689 325.6 54.8064 325.28C54.9237 324.949 54.9824 324.592 54.9824 324.208C54.9824 323.824 54.9237 323.472 54.8064 323.152C54.689 322.821 54.5237 322.544 54.3104 322.32C54.097 322.085 53.8357 321.904 53.5264 321.776C53.217 321.637 52.8704 321.568 52.4864 321.568C52.1024 321.568 51.7557 321.637 51.4464 321.776C51.137 321.904 50.8757 322.085 50.6624 322.32C50.449 322.544 50.2837 322.821 50.1664 323.152C50.049 323.472 49.9904 323.824 49.9904 324.208ZM48.4544 324.208C48.4544 323.653 48.5557 323.136 48.7584 322.656C48.9717 322.176 49.2597 321.755 49.6224 321.392C49.985 321.029 50.4117 320.747 50.9024 320.544C51.393 320.331 51.921 320.224 52.4864 320.224C53.0517 320.224 53.5797 320.331 54.0704 320.544C54.561 320.747 54.9877 321.029 55.3504 321.392C55.713 321.755 55.9957 322.176 56.1984 322.656C56.4117 323.136 56.5184 323.653 56.5184 324.208C56.5184 324.763 56.4117 325.285 56.1984 325.776C55.9957 326.256 55.713 326.677 55.3504 327.04C54.9877 327.392 54.561 327.675 54.0704 327.888C53.5797 328.091 53.0517 328.192 52.4864 328.192C51.921 328.192 51.393 328.091 50.9024 327.888C50.4117 327.675 49.985 327.392 49.6224 327.04C49.2597 326.677 48.9717 326.256 48.7584 325.776C48.5557 325.285 48.4544 324.763 48.4544 324.208ZM58.3224 320.416H59.7624V321.584H59.7944C59.9757 321.179 60.2904 320.853 60.7384 320.608C61.1864 320.352 61.7037 320.224 62.2904 320.224C62.653 320.224 62.9997 320.283 63.3304 320.4C63.6717 320.507 63.965 320.677 64.2104 320.912C64.4664 321.147 64.669 321.451 64.8184 321.824C64.9677 322.187 65.0424 322.619 65.0424 323.12V328H63.6024V323.52C63.6024 323.168 63.5544 322.869 63.4584 322.624C63.3624 322.368 63.2344 322.165 63.0744 322.016C62.9144 321.856 62.7277 321.744 62.5144 321.68C62.3117 321.605 62.0984 321.568 61.8744 321.568C61.5757 321.568 61.2984 321.616 61.0424 321.712C60.7864 321.808 60.5624 321.963 60.3704 322.176C60.1784 322.379 60.029 322.64 59.9224 322.96C59.8157 323.28 59.7624 323.659 59.7624 324.096V328H58.3224V320.416ZM68.301 324.736C68.301 325.067 68.3703 325.371 68.509 325.648C68.6583 325.915 68.8503 326.144 69.085 326.336C69.3197 326.528 69.5917 326.677 69.901 326.784C70.2103 326.891 70.5303 326.944 70.861 326.944C71.309 326.944 71.6983 326.843 72.029 326.64C72.3597 326.427 72.6637 326.149 72.941 325.808L74.029 326.64C73.229 327.675 72.109 328.192 70.669 328.192C70.0717 328.192 69.5277 328.091 69.037 327.888C68.557 327.685 68.1463 327.408 67.805 327.056C67.4743 326.693 67.2183 326.272 67.037 325.792C66.8557 325.301 66.765 324.773 66.765 324.208C66.765 323.643 66.861 323.12 67.053 322.64C67.2557 322.149 67.5277 321.728 67.869 321.376C68.221 321.013 68.637 320.731 69.117 320.528C69.597 320.325 70.1197 320.224 70.685 320.224C71.357 320.224 71.9223 320.341 72.381 320.576C72.8503 320.811 73.2343 321.12 73.533 321.504C73.8317 321.877 74.045 322.304 74.173 322.784C74.3117 323.253 74.381 323.733 74.381 324.224V324.736H68.301ZM72.845 323.584C72.8343 323.264 72.781 322.971 72.685 322.704C72.5997 322.437 72.4663 322.208 72.285 322.016C72.1037 321.813 71.8743 321.659 71.597 321.552C71.3303 321.435 71.0157 321.376 70.653 321.376C70.301 321.376 69.9757 321.445 69.677 321.584C69.389 321.712 69.1437 321.883 68.941 322.096C68.7383 322.309 68.5783 322.549 68.461 322.816C68.3543 323.072 68.301 323.328 68.301 323.584H72.845Z" fill="black"/>
<path d="M40.008 165.672H41.4L46.248 177H44.456L43.32 174.2H37.928L36.808 177H35.016L40.008 165.672ZM42.76 172.856L40.648 167.656H40.616L38.472 172.856H42.76ZM54.9536 177H53.5136V175.912H53.4816C53.2043 176.317 52.8203 176.632 52.3296 176.856C51.8496 177.08 51.3536 177.192 50.8416 177.192C50.255 177.192 49.7216 177.091 49.2416 176.888C48.7723 176.685 48.367 176.403 48.0256 176.04C47.695 175.677 47.439 175.256 47.2576 174.776C47.0763 174.296 46.9856 173.773 46.9856 173.208C46.9856 172.643 47.0763 172.12 47.2576 171.64C47.439 171.149 47.695 170.728 48.0256 170.376C48.367 170.013 48.7723 169.731 49.2416 169.528C49.7216 169.325 50.255 169.224 50.8416 169.224C51.3856 169.224 51.8976 169.341 52.3776 169.576C52.8576 169.8 53.2256 170.109 53.4816 170.504H53.5136V164.904H54.9536V177ZM51.0176 175.848C51.4016 175.848 51.7483 175.784 52.0576 175.656C52.367 175.517 52.6283 175.336 52.8416 175.112C53.055 174.877 53.2203 174.6 53.3376 174.28C53.455 173.949 53.5136 173.592 53.5136 173.208C53.5136 172.824 53.455 172.472 53.3376 172.152C53.2203 171.821 53.055 171.544 52.8416 171.32C52.6283 171.085 52.367 170.904 52.0576 170.776C51.7483 170.637 51.4016 170.568 51.0176 170.568C50.6336 170.568 50.287 170.637 49.9776 170.776C49.6683 170.904 49.407 171.085 49.1936 171.32C48.9803 171.544 48.815 171.821 48.6976 172.152C48.5803 172.472 48.5216 172.824 48.5216 173.208C48.5216 173.592 48.5803 173.949 48.6976 174.28C48.815 174.6 48.9803 174.877 49.1936 175.112C49.407 175.336 49.6683 175.517 49.9776 175.656C50.287 175.784 50.6336 175.848 51.0176 175.848ZM61.1669 171.32C60.9962 171.107 60.7829 170.931 60.5269 170.792C60.2815 170.643 59.9775 170.568 59.6149 170.568C59.2735 170.568 58.9749 170.643 58.7189 170.792C58.4735 170.931 58.3509 171.139 58.3509 171.416C58.3509 171.64 58.4202 171.821 58.5589 171.96C58.7082 172.099 58.8789 172.211 59.0709 172.296C59.2735 172.381 59.4869 172.445 59.7109 172.488C59.9349 172.531 60.1269 172.568 60.2869 172.6C60.5962 172.675 60.8842 172.765 61.1509 172.872C61.4282 172.979 61.6629 173.117 61.8549 173.288C62.0575 173.459 62.2122 173.667 62.3189 173.912C62.4362 174.157 62.4949 174.456 62.4949 174.808C62.4949 175.235 62.4042 175.603 62.2229 175.912C62.0415 176.211 61.8069 176.456 61.5189 176.648C61.2309 176.84 60.9002 176.979 60.5269 177.064C60.1642 177.149 59.7962 177.192 59.4229 177.192C58.7935 177.192 58.2389 177.096 57.7589 176.904C57.2895 176.712 56.8682 176.36 56.4949 175.848L57.5829 174.952C57.8175 175.187 58.0789 175.395 58.3669 175.576C58.6549 175.757 59.0069 175.848 59.4229 175.848C59.6042 175.848 59.7855 175.832 59.9669 175.8C60.1589 175.757 60.3242 175.699 60.4629 175.624C60.6122 175.539 60.7295 175.437 60.8149 175.32C60.9109 175.192 60.9589 175.048 60.9589 174.888C60.9589 174.675 60.8895 174.499 60.7509 174.36C60.6229 174.221 60.4629 174.115 60.2709 174.04C60.0895 173.955 59.8922 173.891 59.6789 173.848C59.4762 173.795 59.2949 173.752 59.1349 173.72C58.8255 173.645 58.5322 173.56 58.2549 173.464C57.9775 173.368 57.7322 173.24 57.5189 173.08C57.3055 172.92 57.1349 172.717 57.0069 172.472C56.8789 172.227 56.8149 171.923 56.8149 171.56C56.8149 171.165 56.8949 170.824 57.0549 170.536C57.2255 170.237 57.4442 169.992 57.7109 169.8C57.9882 169.608 58.2975 169.464 58.6389 169.368C58.9909 169.272 59.3429 169.224 59.6949 169.224C60.2069 169.224 60.6975 169.32 61.1669 169.512C61.6362 169.704 62.0095 170.024 62.2869 170.472L61.1669 171.32ZM67.7854 169.416H69.4494L71.7214 175.224L73.8974 169.416H75.4334L72.4574 177H70.8734L67.7854 169.416ZM76.8094 169.416H78.2494V177H76.8094V169.416ZM76.4734 166.696C76.4734 166.408 76.5747 166.163 76.7774 165.96C76.9907 165.747 77.2414 165.64 77.5294 165.64C77.8174 165.64 78.0627 165.747 78.2654 165.96C78.4787 166.163 78.5854 166.408 78.5854 166.696C78.5854 166.984 78.4787 167.235 78.2654 167.448C78.0627 167.651 77.8174 167.752 77.5294 167.752C77.2414 167.752 76.9907 167.651 76.7774 167.448C76.5747 167.235 76.4734 166.984 76.4734 166.696ZM81.6291 173.736C81.6291 174.067 81.6985 174.371 81.8371 174.648C81.9865 174.915 82.1785 175.144 82.4131 175.336C82.6478 175.528 82.9198 175.677 83.2291 175.784C83.5385 175.891 83.8585 175.944 84.1891 175.944C84.6371 175.944 85.0265 175.843 85.3571 175.64C85.6878 175.427 85.9918 175.149 86.2691 174.808L87.3571 175.64C86.5571 176.675 85.4371 177.192 83.9971 177.192C83.3998 177.192 82.8558 177.091 82.3651 176.888C81.8851 176.685 81.4745 176.408 81.1331 176.056C80.8025 175.693 80.5465 175.272 80.3651 174.792C80.1838 174.301 80.0931 173.773 80.0931 173.208C80.0931 172.643 80.1891 172.12 80.3811 171.64C80.5838 171.149 80.8558 170.728 81.1971 170.376C81.5491 170.013 81.9651 169.731 82.4451 169.528C82.9251 169.325 83.4478 169.224 84.0131 169.224C84.6851 169.224 85.2505 169.341 85.7091 169.576C86.1785 169.811 86.5625 170.12 86.8611 170.504C87.1598 170.877 87.3731 171.304 87.5011 171.784C87.6398 172.253 87.7091 172.733 87.7091 173.224V173.736H81.6291ZM86.1731 172.584C86.1625 172.264 86.1091 171.971 86.0131 171.704C85.9278 171.437 85.7945 171.208 85.6131 171.016C85.4318 170.813 85.2025 170.659 84.9251 170.552C84.6585 170.435 84.3438 170.376 83.9811 170.376C83.6291 170.376 83.3038 170.445 83.0051 170.584C82.7171 170.712 82.4718 170.883 82.2691 171.096C82.0665 171.309 81.9065 171.549 81.7891 171.816C81.6825 172.072 81.6291 172.328 81.6291 172.584H86.1731ZM88.5198 169.416H90.1358L91.8478 175.08H91.8798L93.6878 169.416H95.2078L97.1278 175.08H97.1597L98.7918 169.416H100.312L97.8638 177H96.4078L94.4078 171.336H94.3758L92.5677 177H91.0158L88.5198 169.416ZM105.604 171.32C105.434 171.107 105.22 170.931 104.964 170.792C104.719 170.643 104.415 170.568 104.052 170.568C103.711 170.568 103.412 170.643 103.156 170.792C102.911 170.931 102.788 171.139 102.788 171.416C102.788 171.64 102.858 171.821 102.996 171.96C103.146 172.099 103.316 172.211 103.508 172.296C103.711 172.381 103.924 172.445 104.148 172.488C104.372 172.531 104.564 172.568 104.724 172.6C105.034 172.675 105.322 172.765 105.588 172.872C105.866 172.979 106.1 173.117 106.292 173.288C106.495 173.459 106.65 173.667 106.756 173.912C106.874 174.157 106.932 174.456 106.932 174.808C106.932 175.235 106.842 175.603 106.66 175.912C106.479 176.211 106.244 176.456 105.956 176.648C105.668 176.84 105.338 176.979 104.964 177.064C104.602 177.149 104.234 177.192 103.86 177.192C103.231 177.192 102.676 177.096 102.196 176.904C101.727 176.712 101.306 176.36 100.932 175.848L102.02 174.952C102.255 175.187 102.516 175.395 102.804 175.576C103.092 175.757 103.444 175.848 103.86 175.848C104.042 175.848 104.223 175.832 104.404 175.8C104.596 175.757 104.762 175.699 104.9 175.624C105.05 175.539 105.167 175.437 105.252 175.32C105.348 175.192 105.396 175.048 105.396 174.888C105.396 174.675 105.327 174.499 105.188 174.36C105.06 174.221 104.9 174.115 104.708 174.04C104.527 173.955 104.33 173.891 104.116 173.848C103.914 173.795 103.732 173.752 103.572 173.72C103.263 173.645 102.97 173.56 102.692 173.464C102.415 173.368 102.17 173.24 101.956 173.08C101.743 172.92 101.572 172.717 101.444 172.472C101.316 172.227 101.252 171.923 101.252 171.56C101.252 171.165 101.332 170.824 101.492 170.536C101.663 170.237 101.882 169.992 102.148 169.8C102.426 169.608 102.735 169.464 103.076 169.368C103.428 169.272 103.78 169.224 104.132 169.224C104.644 169.224 105.135 169.32 105.604 169.512C106.074 169.704 106.447 170.024 106.724 170.472L105.604 171.32ZM112.223 169.416H113.887L116.159 175.224L118.335 169.416H119.871L116.895 177H115.311L112.223 169.416ZM121.247 169.416H122.687V177H121.247V169.416ZM120.911 166.696C120.911 166.408 121.012 166.163 121.215 165.96C121.428 165.747 121.679 165.64 121.967 165.64C122.255 165.64 122.5 165.747 122.703 165.96C122.916 166.163 123.023 166.408 123.023 166.696C123.023 166.984 122.916 167.235 122.703 167.448C122.5 167.651 122.255 167.752 121.967 167.752C121.679 167.752 121.428 167.651 121.215 167.448C121.012 167.235 120.911 166.984 120.911 166.696ZM125.011 170.344C125.416 169.971 125.885 169.693 126.419 169.512C126.952 169.32 127.485 169.224 128.019 169.224C128.573 169.224 129.048 169.293 129.443 169.432C129.848 169.571 130.179 169.757 130.435 169.992C130.691 170.227 130.877 170.499 130.995 170.808C131.123 171.107 131.187 171.421 131.187 171.752V175.624C131.187 175.891 131.192 176.136 131.203 176.36C131.213 176.584 131.229 176.797 131.251 177H129.971C129.939 176.616 129.923 176.232 129.923 175.848H129.891C129.571 176.339 129.192 176.685 128.755 176.888C128.317 177.091 127.811 177.192 127.235 177.192C126.883 177.192 126.547 177.144 126.227 177.048C125.907 176.952 125.624 176.808 125.379 176.616C125.144 176.424 124.957 176.189 124.819 175.912C124.68 175.624 124.611 175.293 124.611 174.92C124.611 174.429 124.717 174.019 124.931 173.688C125.155 173.357 125.453 173.091 125.827 172.888C126.211 172.675 126.653 172.525 127.155 172.44C127.667 172.344 128.211 172.296 128.787 172.296H129.843V171.976C129.843 171.784 129.805 171.592 129.731 171.4C129.656 171.208 129.544 171.037 129.395 170.888C129.245 170.728 129.059 170.605 128.835 170.52C128.611 170.424 128.344 170.376 128.035 170.376C127.757 170.376 127.512 170.403 127.299 170.456C127.096 170.509 126.909 170.579 126.739 170.664C126.568 170.739 126.413 170.829 126.275 170.936C126.136 171.043 126.003 171.144 125.875 171.24L125.011 170.344ZM129.075 173.352C128.733 173.352 128.381 173.373 128.019 173.416C127.667 173.448 127.341 173.517 127.043 173.624C126.755 173.731 126.515 173.88 126.323 174.072C126.141 174.264 126.051 174.509 126.051 174.808C126.051 175.245 126.195 175.56 126.483 175.752C126.781 175.944 127.181 176.04 127.683 176.04C128.077 176.04 128.413 175.976 128.691 175.848C128.968 175.709 129.192 175.533 129.363 175.32C129.533 175.107 129.656 174.872 129.731 174.616C129.805 174.349 129.843 174.088 129.843 173.832V173.352H129.075ZM134.412 177.096C134.124 177.096 133.873 176.995 133.66 176.792C133.457 176.579 133.356 176.328 133.356 176.04C133.356 175.752 133.457 175.507 133.66 175.304C133.873 175.091 134.124 174.984 134.412 174.984C134.7 174.984 134.945 175.091 135.148 175.304C135.361 175.507 135.468 175.752 135.468 176.04C135.468 176.328 135.361 176.579 135.148 176.792C134.945 176.995 134.7 177.096 134.412 177.096ZM138.865 177.096C138.577 177.096 138.326 176.995 138.113 176.792C137.91 176.579 137.809 176.328 137.809 176.04C137.809 175.752 137.91 175.507 138.113 175.304C138.326 175.091 138.577 174.984 138.865 174.984C139.153 174.984 139.398 175.091 139.601 175.304C139.814 175.507 139.921 175.752 139.921 176.04C139.921 176.328 139.814 176.579 139.601 176.792C139.398 176.995 139.153 177.096 138.865 177.096ZM143.318 177.096C143.03 177.096 142.779 176.995 142.566 176.792C142.363 176.579 142.262 176.328 142.262 176.04C142.262 175.752 142.363 175.507 142.566 175.304C142.779 175.091 143.03 174.984 143.318 174.984C143.606 174.984 143.851 175.091 144.054 175.304C144.267 175.507 144.374 175.752 144.374 176.04C144.374 176.328 144.267 176.579 144.054 176.792C143.851 176.995 143.606 177.096 143.318 177.096Z" fill="black"/>
<rect x="93" y="203" width="193" height="17" rx="8.5" fill="#151B4A"/>
<rect x="93" y="240" width="239" height="17" rx="8.5" fill="#151B4A"/>
<rect x="93" y="277" width="127" height="17" rx="8.5" fill="#151B4A"/>
<rect x="93" y="314" width="83" height="17" rx="8.5" fill="#151B4A"/>
<circle cx="429" cy="90.0017" r="74.8182" stroke="#E1EBFF" stroke-width="14"/>
<path d="M420.863 164.708C420.475 168.272 423.052 171.502 426.635 171.606C445.205 172.145 463.48 166.33 478.378 155.015C495.005 142.387 506.163 123.868 509.555 103.267C512.948 82.665 508.319 61.5464 496.62 44.2531C486.137 28.7583 470.692 17.3898 452.929 11.9449C449.502 10.8944 446.026 13.1283 445.251 16.628C444.476 20.1278 446.698 23.5637 450.109 24.6656C464.633 29.3577 477.246 38.7829 485.868 51.5269C495.707 66.0706 499.6 83.8313 496.747 101.157C493.894 118.483 484.51 134.057 470.527 144.678C458.274 153.984 443.304 158.866 428.042 158.653C424.458 158.603 421.252 161.145 420.863 164.708Z" fill="#1BFCB6"/>
<path d="M406.776 76.6744H393.666L393.528 83.1604C393.957 83.007 394.494 82.8997 395.138 82.8384C395.813 82.777 396.441 82.7464 397.024 82.7464C398.619 82.7464 400.075 83.007 401.394 83.5284C402.743 84.019 403.893 84.7397 404.844 85.6904C405.795 86.641 406.531 87.7757 407.052 89.0944C407.604 90.413 407.88 91.9004 407.88 93.5564C407.88 95.3044 407.573 96.8837 406.96 98.2944C406.377 99.6744 405.549 100.855 404.476 101.836C403.433 102.787 402.191 103.523 400.75 104.044C399.309 104.566 397.76 104.826 396.104 104.826C393.497 104.826 391.274 104.213 389.434 102.986C387.625 101.76 386.337 99.8891 385.57 97.3744L391.366 95.8104C391.734 96.9757 392.363 97.8957 393.252 98.5704C394.141 99.245 395.291 99.5824 396.702 99.5824C397.53 99.5824 398.281 99.4444 398.956 99.1684C399.661 98.8924 400.259 98.509 400.75 98.0184C401.271 97.497 401.67 96.899 401.946 96.2244C402.222 95.5497 402.36 94.8137 402.36 94.0164C402.36 92.8817 402.145 91.9157 401.716 91.1184C401.317 90.321 400.765 89.677 400.06 89.1864C399.355 88.665 398.542 88.297 397.622 88.0824C396.702 87.837 395.736 87.7144 394.724 87.7144C393.528 87.7144 392.332 87.8524 391.136 88.1284C389.971 88.4044 388.897 88.7877 387.916 89.2784L388.238 71.7064H406.776V76.6744ZM430.871 71.7064L423.051 83.7584L423.143 83.8504C423.48 83.6664 423.925 83.5284 424.477 83.4364C425.059 83.3444 425.627 83.2984 426.179 83.2984C427.62 83.2984 428.939 83.5744 430.135 84.1264C431.331 84.6784 432.358 85.4297 433.217 86.3804C434.106 87.331 434.781 88.435 435.241 89.6924C435.731 90.9497 435.977 92.2837 435.977 93.6944C435.977 95.381 435.685 96.9144 435.103 98.2944C434.52 99.6744 433.707 100.855 432.665 101.836C431.653 102.787 430.426 103.523 428.985 104.044C427.574 104.566 426.041 104.826 424.385 104.826C422.667 104.826 421.103 104.581 419.693 104.09C418.282 103.569 417.055 102.833 416.013 101.882C415.001 100.932 414.203 99.7664 413.621 98.3864C413.069 97.0064 412.793 95.4577 412.793 93.7404C412.793 92.023 413.069 90.4744 413.621 89.0944C414.203 87.6837 414.939 86.2577 415.829 84.8164L424.155 71.7064H430.871ZM418.589 93.6484C418.589 94.4764 418.742 95.2584 419.049 95.9944C419.355 96.6997 419.769 97.3284 420.291 97.8804C420.843 98.4017 421.471 98.8157 422.177 99.1224C422.913 99.429 423.695 99.5824 424.523 99.5824C425.351 99.5824 426.117 99.429 426.823 99.1224C427.559 98.8157 428.187 98.4017 428.709 97.8804C429.261 97.3284 429.69 96.6997 429.997 95.9944C430.303 95.2584 430.457 94.4764 430.457 93.6484C430.457 92.8204 430.303 92.0537 429.997 91.3484C429.69 90.6124 429.261 89.9837 428.709 89.4624C428.187 88.9104 427.559 88.481 426.823 88.1744C426.117 87.8677 425.351 87.7144 424.523 87.7144C423.695 87.7144 422.913 87.8677 422.177 88.1744C421.471 88.481 420.843 88.9104 420.291 89.4624C419.769 89.9837 419.355 90.6124 419.049 91.3484C418.742 92.0537 418.589 92.8204 418.589 93.6484ZM461.221 96.2704C461.221 95.0744 461.436 93.9704 461.865 92.9584C462.325 91.9157 462.939 91.0111 463.705 90.2444C464.503 89.447 465.407 88.8337 466.419 88.4044C467.462 87.9444 468.581 87.7144 469.777 87.7144C470.973 87.7144 472.077 87.9444 473.089 88.4044C474.132 88.8337 475.037 89.447 475.803 90.2444C476.601 91.0111 477.214 91.9157 477.643 92.9584C478.103 93.9704 478.333 95.0744 478.333 96.2704C478.333 97.4664 478.103 98.5857 477.643 99.6284C477.214 100.64 476.601 101.545 475.803 102.342C475.037 103.109 474.132 103.722 473.089 104.182C472.077 104.612 470.973 104.826 469.777 104.826C468.581 104.826 467.462 104.612 466.419 104.182C465.407 103.722 464.503 103.109 463.705 102.342C462.939 101.545 462.325 100.64 461.865 99.6284C461.436 98.5857 461.221 97.4664 461.221 96.2704ZM473.917 96.2704C473.917 95.105 473.519 94.1237 472.721 93.3264C471.924 92.5291 470.943 92.1304 469.777 92.1304C468.612 92.1304 467.631 92.5291 466.833 93.3264C466.036 94.1237 465.637 95.105 465.637 96.2704C465.637 97.4357 466.036 98.417 466.833 99.2144C467.631 100.012 468.612 100.41 469.777 100.41C470.943 100.41 471.924 100.012 472.721 99.2144C473.519 98.417 473.917 97.4357 473.917 96.2704ZM439.371 79.7104C439.371 78.5144 439.586 77.4104 440.015 76.3984C440.475 75.3557 441.089 74.451 441.855 73.6844C442.653 72.887 443.557 72.2737 444.569 71.8444C445.612 71.3844 446.731 71.1544 447.927 71.1544C449.123 71.1544 450.227 71.3844 451.239 71.8444C452.282 72.2737 453.187 72.887 453.953 73.6844C454.751 74.451 455.364 75.3557 455.793 76.3984C456.253 77.4104 456.483 78.5144 456.483 79.7104C456.483 80.9064 456.253 82.0257 455.793 83.0684C455.364 84.0804 454.751 84.985 453.953 85.7824C453.187 86.549 452.282 87.1624 451.239 87.6224C450.227 88.0517 449.123 88.2664 447.927 88.2664C446.731 88.2664 445.612 88.0517 444.569 87.6224C443.557 87.1624 442.653 86.549 441.855 85.7824C441.089 84.985 440.475 84.0804 440.015 83.0684C439.586 82.0257 439.371 80.9064 439.371 79.7104ZM452.067 79.7104C452.067 78.545 451.669 77.5637 450.871 76.7664C450.074 75.969 449.093 75.5704 447.927 75.5704C446.762 75.5704 445.781 75.969 444.983 76.7664C444.186 77.5637 443.787 78.545 443.787 79.7104C443.787 80.8757 444.186 81.857 444.983 82.6544C445.781 83.4517 446.762 83.8504 447.927 83.8504C449.093 83.8504 450.074 83.4517 450.871 82.6544C451.669 81.857 452.067 80.8757 452.067 79.7104ZM466.557 70.2344L470.375 71.9824L451.239 105.746L447.421 103.998L466.557 70.2344Z" fill="white"/>
<path d="M361.436 422.92L306.961 386.039C289.806 374.425 266.873 376.351 251.895 390.664L206.782 433.774C196.998 443.124 183.456 447.451 170.063 445.507L108.431 436.561C106.622 436.298 105 437.701 105 439.529V598.876H508.999C533.3 598.876 552.999 579.177 552.999 554.876V277L469.34 296.472C451.015 300.738 437.429 316.184 435.538 334.904L429.88 390.907C426.532 424.042 389.013 441.59 361.436 422.92Z" fill="url(#paint0_linear_708_4709)"/>
<path d="M105.294 437.661L169.69 447.35C183.427 449.417 197.332 444.876 207.201 435.1L251.611 391.111C266.738 376.127 290.423 374.125 307.85 386.355L361.141 423.752C388.65 443.057 426.77 425.643 430.188 392.212L435.957 335.796C437.861 317.168 451.347 301.786 469.566 297.462L552.998 277.657" stroke="url(#paint1_linear_708_4709)" stroke-width="5" stroke-linecap="round"/>
<defs>
<linearGradient id="paint0_linear_708_4709" x1="1136.98" y1="422.527" x2="912.918" y2="-99.263" gradientUnits="userSpaceOnUse">
<stop offset="0.0472756" stop-color="#1E1E1E" stop-opacity="0"/>
<stop offset="0.4375" stop-color="#1E1E1E" stop-opacity="0"/>
<stop offset="0.717039" stop-color="#36F9BD"/>
</linearGradient>
<linearGradient id="paint1_linear_708_4709" x1="542.903" y1="-9.74859" x2="105.703" y2="-9.77446" gradientUnits="userSpaceOnUse">
<stop offset="0.419065" stop-color="white"/>
<stop offset="0.598941" stop-color="#1BFCB6"/>
<stop offset="1" stop-color="#37F9BD"/>
</linearGradient>
</defs>
</svg>
