<svg xmlns="http://www.w3.org/2000/svg" width="556" height="599" fill="none" xmlns:v="https://vecta.io/nano"><rect y="120" width="417" height="274" rx="33" fill="#fff"/><g fill="#000"><path d="M44.344 208.12c-.32-.416-.725-.736-1.216-.96a3.62 3.62 0 0 0-1.52-.336 4.06 4.06 0 0 0-1.744.368 4.01 4.01 0 0 0-1.328.976c-.363.416-.645.907-.848 1.472-.203.555-.304 1.152-.304 1.792a4.97 4.97 0 0 0 .288 1.696c.192.533.469 1.003.832 1.408a3.91 3.91 0 0 0 1.328.96c.523.235 1.115.352 1.776.352.651 0 1.221-.133 1.712-.4a3.67 3.67 0 0 0 1.248-1.12l1.296.976c-.085.117-.235.288-.448.512a5 5 0 0 1-.848.656 6 6 0 0 1-1.28.56c-.491.171-1.061.256-1.712.256-.896 0-1.707-.171-2.432-.512a5.97 5.97 0 0 1-1.84-1.344 5.97 5.97 0 0 1-1.152-1.872c-.267-.704-.4-1.413-.4-2.128 0-.875.144-1.68.432-2.416.288-.747.688-1.387 1.2-1.92a5.44 5.44 0 0 1 1.872-1.264c.725-.299 1.525-.448 2.4-.448.747 0 1.477.144 2.192.432.725.288 1.317.731 1.776 1.328l-1.28.976zm3.122-3.216h1.44V217h-1.44v-12.096zm3.844 4.512h1.44V217h-1.44v-7.584zm-.336-2.72a1 1 0 0 1 .304-.736 1.03 1.03 0 0 1 .752-.32.98.98 0 0 1 .736.32.98.98 0 0 1 .32.736 1.03 1.03 0 0 1-.32.752 1 1 0 0 1-.736.304c-.288 0-.539-.101-.752-.304-.203-.213-.304-.464-.304-.752zm9.492 4.736a2.86 2.86 0 0 0-.848-.624c-.288-.149-.635-.224-1.04-.224-.395 0-.741.075-1.04.224-.288.139-.533.336-.736.592-.192.245-.341.533-.448.864a3.49 3.49 0 0 0-.144 1.008c0 .352.059.688.176 1.008.117.309.283.581.496.816a2.38 2.38 0 0 0 .768.56c.299.128.635.192 1.008.192.405 0 .752-.069 1.04-.208a2.78 2.78 0 0 0 .8-.64l1.024 1.024a3.21 3.21 0 0 1-1.312.896c-.491.181-1.013.272-1.568.272-.587 0-1.125-.096-1.616-.288a3.8 3.8 0 0 1-1.248-.8 3.67 3.67 0 0 1-.816-1.248c-.192-.491-.288-1.029-.288-1.616s.096-1.125.288-1.616a3.76 3.76 0 0 1 .8-1.264 3.67 3.67 0 0 1 1.248-.816 4.23 4.23 0 0 1 1.632-.304 4.18 4.18 0 0 1 1.584.304 3.41 3.41 0 0 1 1.328.896l-1.088.992zm2.295-6.528h1.44v7.808l3.264-3.28h2l-3.536 3.44 3.84 4.128H67.72l-3.52-3.936V217h-1.44v-12.096zm241.775 2.208h-4.592l-.048 2.832a1.99 1.99 0 0 1 .32-.096l.416-.08.432-.048.352-.016c.533 0 1.013.091 1.44.272a3.17 3.17 0 0 1 1.12.768c.309.331.544.725.704 1.184.171.459.256.965.256 1.52 0 .565-.107 1.077-.32 1.536-.203.459-.485.853-.848 1.184s-.784.587-1.264.768a4.59 4.59 0 0 1-1.552.256c-.768 0-1.461-.197-2.08-.592s-1.061-.96-1.328-1.696l1.552-.528c.203.523.475.901.816 1.136.341.224.768.336 1.28.336.299 0 .581-.053.848-.16a2 2 0 0 0 .704-.448c.203-.203.363-.448.48-.736s.176-.613.176-.976c0-.832-.256-1.451-.768-1.856-.501-.416-1.157-.624-1.968-.624-.288 0-.656.053-1.104.16-.437.096-.848.24-1.232.432l.128-5.968h6.08v1.44zm1.899 4.224a13.57 13.57 0 0 1 .064-1.296c.042-.448.117-.885.224-1.312a7.79 7.79 0 0 1 .448-1.248c.192-.395.432-.736.72-1.024a3.31 3.31 0 0 1 1.04-.704c.405-.181.874-.272 1.408-.272s.997.091 1.392.272c.405.171.752.405 1.04.704.298.288.538.629.72 1.024a6.24 6.24 0 0 1 .448 1.248 7.76 7.76 0 0 1 .24 1.312l.064 1.296c0 .597-.054 1.237-.16 1.92a6.62 6.62 0 0 1-.592 1.904c-.288.587-.688 1.072-1.2 1.456-.502.384-1.152.576-1.952.576s-1.456-.192-1.968-.576c-.502-.384-.896-.869-1.184-1.456s-.486-1.221-.592-1.904a12.44 12.44 0 0 1-.16-1.92zm1.536 0l.064 1.328c.053.512.16 1.008.32 1.488.16.469.394.869.704 1.2.32.331.746.496 1.28.496s.954-.165 1.264-.496c.32-.331.56-.731.72-1.2.16-.48.261-.976.304-1.488l.08-1.328-.032-.864a6.32 6.32 0 0 0-.112-.992 5.8 5.8 0 0 0-.24-.976c-.107-.32-.251-.603-.432-.848-.171-.256-.384-.459-.64-.608s-.56-.224-.912-.224-.656.075-.912.224-.475.352-.656.608c-.171.245-.31.528-.416.848-.107.309-.192.635-.256.976-.054.331-.091.661-.112.992l-.016.864zm7.354 0c0-.416.022-.848.064-1.296a9.01 9.01 0 0 1 .224-1.312 7.99 7.99 0 0 1 .448-1.248c.192-.395.432-.736.72-1.024a3.33 3.33 0 0 1 1.04-.704c.406-.181.875-.272 1.408-.272s.998.091 1.392.272c.406.171.752.405 1.04.704.299.288.539.629.72 1.024a6.18 6.18 0 0 1 .448 1.248c.118.427.198.864.24 1.312l.064 1.296a12.44 12.44 0 0 1-.16 1.92c-.106.683-.304 1.317-.592 1.904s-.688 1.072-1.2 1.456c-.501.384-1.152.576-1.952.576s-1.456-.192-1.968-.576c-.501-.384-.896-.869-1.184-1.456a6.62 6.62 0 0 1-.592-1.904c-.106-.683-.16-1.323-.16-1.92zm1.536 0l.064 1.328c.054.512.16 1.008.32 1.488.16.469.395.869.704 1.2.32.331.747.496 1.28.496s.955-.165 1.264-.496c.32-.331.56-.731.72-1.2.16-.48.262-.976.304-1.488l.08-1.328-.032-.864a6.2 6.2 0 0 0-.112-.992c-.053-.341-.133-.667-.24-.976-.106-.32-.25-.603-.432-.848-.17-.256-.384-.459-.64-.608s-.56-.224-.912-.224-.656.075-.912.224-.474.352-.656.608c-.17.245-.309.528-.416.848a6.97 6.97 0 0 0-.256.976l-.112.992-.016.864zm27.515 37.28h-.064c-.352.171-.768.256-1.248.256a3.87 3.87 0 0 1-1.232-.208 3.43 3.43 0 0 1-1.136-.64c-.331-.299-.603-.672-.816-1.12-.213-.459-.32-.997-.32-1.616s.101-1.163.304-1.632c.213-.48.496-.88.848-1.2a3.48 3.48 0 0 1 1.232-.72 4.36 4.36 0 0 1 1.504-.256 4.36 4.36 0 0 1 1.504.256c.469.171.88.416 1.232.736s.629.704.832 1.152c.213.448.32.949.32 1.504a5.32 5.32 0 0 1-.08.96 4.34 4.34 0 0 1-.24.832 6.09 6.09 0 0 1-.352.768l-.464.784-2.864 4.528h-1.808l2.848-4.384zm1.424-3.44c0-.341-.059-.656-.176-.944a1.93 1.93 0 0 0-.48-.736 2.09 2.09 0 0 0-.736-.496 2.53 2.53 0 0 0-.96-.176 2.53 2.53 0 0 0-.96.176 2.25 2.25 0 0 0-.752.496c-.203.203-.363.448-.48.736-.107.288-.16.603-.16.944s.053.656.16.944a2.37 2.37 0 0 0 1.232 1.232 2.53 2.53 0 0 0 .96.176 2.53 2.53 0 0 0 .96-.176c.288-.117.533-.277.736-.48a2.07 2.07 0 0 0 .48-.752c.117-.288.176-.603.176-.944zm2.635 2.16a13.57 13.57 0 0 1 .064-1.296c.042-.448.117-.885.224-1.312a7.79 7.79 0 0 1 .448-1.248c.192-.395.432-.736.72-1.024a3.31 3.31 0 0 1 1.04-.704c.405-.181.874-.272 1.408-.272s.997.091 1.392.272c.405.171.752.405 1.04.704.298.288.538.629.72 1.024a6.24 6.24 0 0 1 .448 1.248 7.76 7.76 0 0 1 .24 1.312l.064 1.296c0 .597-.054 1.237-.16 1.92a6.62 6.62 0 0 1-.592 1.904c-.288.587-.688 1.072-1.2 1.456-.502.384-1.152.576-1.952.576s-1.456-.192-1.968-.576c-.502-.384-.896-.869-1.184-1.456s-.486-1.221-.592-1.904a12.44 12.44 0 0 1-.16-1.92zm1.536 0l.064 1.328c.053.512.16 1.008.32 1.488.16.469.394.869.704 1.2.32.331.746.496 1.28.496s.954-.165 1.264-.496c.32-.331.56-.731.72-1.2.16-.48.261-.976.304-1.488l.08-1.328-.032-.864a6.32 6.32 0 0 0-.112-.992 5.8 5.8 0 0 0-.24-.976c-.107-.32-.251-.603-.432-.848-.171-.256-.384-.459-.64-.608s-.56-.224-.912-.224-.656.075-.912.224-.475.352-.656.608c-.171.245-.31.528-.416.848-.107.309-.192.635-.256.976-.054.331-.091.661-.112.992l-.016.864zm7.354 0c0-.416.022-.848.064-1.296a9.01 9.01 0 0 1 .224-1.312 7.99 7.99 0 0 1 .448-1.248c.192-.395.432-.736.72-1.024a3.33 3.33 0 0 1 1.04-.704c.406-.181.875-.272 1.408-.272s.998.091 1.392.272c.406.171.752.405 1.04.704.299.288.539.629.72 1.024a6.18 6.18 0 0 1 .448 1.248c.118.427.198.864.24 1.312l.064 1.296a12.44 12.44 0 0 1-.16 1.92c-.106.683-.304 1.317-.592 1.904s-.688 1.072-1.2 1.456c-.501.384-1.152.576-1.952.576s-1.456-.192-1.968-.576c-.501-.384-.896-.869-1.184-1.456a6.62 6.62 0 0 1-.592-1.904c-.106-.683-.16-1.323-.16-1.92zm1.536 0l.064 1.328c.054.512.16 1.008.32 1.488.16.469.395.869.704 1.2.32.331.747.496 1.28.496s.955-.165 1.264-.496c.32-.331.56-.731.72-1.2.16-.48.262-.976.304-1.488l.08-1.328-.032-.864a6.2 6.2 0 0 0-.112-.992c-.053-.341-.133-.667-.24-.976-.106-.32-.25-.603-.432-.848-.17-.256-.384-.459-.64-.608s-.56-.224-.912-.224-.656.075-.912.224-.474.352-.656.608c-.17.245-.309.528-.416.848a6.97 6.97 0 0 0-.256.976l-.112.992-.016.864zm-131.125 42.032l4.544-4.512a6.41 6.41 0 0 0 .464-.48c.149-.181.283-.368.4-.56s.208-.395.272-.608a2.01 2.01 0 0 0 .112-.672c0-.277-.053-.528-.16-.752-.096-.224-.235-.411-.416-.56a1.73 1.73 0 0 0-.624-.368 2.19 2.19 0 0 0-.752-.128c-.555 0-1.013.155-1.376.464s-.592.736-.688 1.28l-1.664-.144c.075-.501.219-.933.432-1.296.224-.373.496-.683.816-.928a3.42 3.42 0 0 1 1.12-.544c.427-.117.885-.176 1.376-.176s.949.069 1.376.208c.437.128.816.325 1.136.592a2.56 2.56 0 0 1 .768.976c.192.384.288.837.288 1.36 0 .373-.059.725-.176 1.056a4.23 4.23 0 0 1-.432.912c-.181.288-.389.56-.624.816l-.736.752-3.728 3.6h5.696V291h-7.424v-1.632zm13.531-.864h-4.832v-1.568l4.512-7.264h1.856v7.488h1.6v1.344h-1.6V291h-1.536v-2.496zm0-7.008h-.032l-3.456 5.664h3.488v-5.664zm4.058 3.84c0-.416.022-.848.064-1.296a9.01 9.01 0 0 1 .224-1.312 7.99 7.99 0 0 1 .448-1.248c.192-.395.432-.736.72-1.024a3.33 3.33 0 0 1 1.04-.704c.406-.181.875-.272 1.408-.272s.998.091 1.392.272c.406.171.752.405 1.04.704.299.288.539.629.72 1.024a6.18 6.18 0 0 1 .448 1.248c.118.427.198.864.24 1.312l.064 1.296a12.44 12.44 0 0 1-.16 1.92c-.106.683-.304 1.317-.592 1.904s-.688 1.072-1.2 1.456c-.501.384-1.152.576-1.952.576s-1.456-.192-1.968-.576c-.501-.384-.896-.869-1.184-1.456a6.62 6.62 0 0 1-.592-1.904c-.106-.683-.16-1.323-.16-1.92zm1.536 0l.064 1.328c.054.512.16 1.008.32 1.488.16.469.395.869.704 1.2.32.331.747.496 1.28.496s.955-.165 1.264-.496c.32-.331.56-.731.72-1.2.16-.48.262-.976.304-1.488l.08-1.328-.032-.864a6.2 6.2 0 0 0-.112-.992c-.053-.341-.133-.667-.24-.976-.106-.32-.25-.603-.432-.848-.17-.256-.384-.459-.64-.608s-.56-.224-.912-.224-.656.075-.912.224-.474.352-.656.608c-.17.245-.309.528-.416.848a6.97 6.97 0 0 0-.256.976l-.112.992-.016.864zm-58.541 33.096l-2.08 1.92-.896-1.072 3.152-2.608h1.36V328h-1.536v-9.568zm5.307 7.936l4.544-4.512a6.61 6.61 0 0 0 .464-.48 5 5 0 0 0 .4-.56c.117-.192.208-.395.272-.608.074-.213.112-.437.112-.672 0-.277-.054-.528-.16-.752-.096-.224-.235-.411-.416-.56a1.73 1.73 0 0 0-.624-.368c-.235-.085-.486-.128-.752-.128-.555 0-1.014.155-1.376.464s-.592.736-.688 1.28l-1.664-.144c.074-.501.218-.933.432-1.296.224-.373.496-.683.816-.928.33-.245.704-.427 1.12-.544a5.18 5.18 0 0 1 1.376-.176 4.42 4.42 0 0 1 1.376.208c.437.128.816.325 1.136.592a2.58 2.58 0 0 1 .768.976c.192.384.288.837.288 1.36 0 .373-.059.725-.176 1.056a4.23 4.23 0 0 1-.432.912 5.8 5.8 0 0 1-.624.816l-.736.752-3.728 3.6h5.696V328h-7.424v-1.632zm8.698-4.032c0-.416.022-.848.064-1.296a9.01 9.01 0 0 1 .224-1.312 7.99 7.99 0 0 1 .448-1.248c.192-.395.432-.736.72-1.024a3.33 3.33 0 0 1 1.04-.704c.406-.181.875-.272 1.408-.272s.998.091 1.392.272c.406.171.752.405 1.04.704.299.288.539.629.72 1.024a6.18 6.18 0 0 1 .448 1.248c.118.427.198.864.24 1.312l.064 1.296a12.44 12.44 0 0 1-.16 1.92c-.106.683-.304 1.317-.592 1.904s-.688 1.072-1.2 1.456c-.501.384-1.152.576-1.952.576s-1.456-.192-1.968-.576c-.501-.384-.896-.869-1.184-1.456a6.62 6.62 0 0 1-.592-1.904c-.106-.683-.16-1.323-.16-1.92zm1.536 0l.064 1.328c.054.512.16 1.008.32 1.488.16.469.395.869.704 1.2.32.331.747.496 1.28.496s.955-.165 1.264-.496c.32-.331.56-.731.72-1.2.16-.48.262-.976.304-1.488l.08-1.328-.032-.864a6.2 6.2 0 0 0-.112-.992c-.053-.341-.133-.667-.24-.976-.106-.32-.25-.603-.432-.848-.17-.256-.384-.459-.64-.608s-.56-.224-.912-.224-.656.075-.912.224-.474.352-.656.608c-.17.245-.309.528-.416.848a6.97 6.97 0 0 0-.256.976l-.112.992-.016.864zM34.904 242.672h1.776l3.328 9.216h.032l3.456-9.216h1.68L40.712 254h-1.44l-4.368-11.328zm11.093 3.744h1.44V254h-1.44v-7.584zm-.336-2.72a1 1 0 0 1 .304-.736 1.03 1.03 0 0 1 .752-.32.98.98 0 0 1 .736.32.98.98 0 0 1 .32.736 1.03 1.03 0 0 1-.32.752 1 1 0 0 1-.736.304c-.288 0-.539-.101-.752-.304-.203-.213-.304-.464-.304-.752zm5.156 7.04a2.01 2.01 0 0 0 .208.912c.149.267.341.496.576.688s.507.341.816.448.629.16.96.16c.448 0 .837-.101 1.168-.304a3.9 3.9 0 0 0 .912-.832l1.088.832c-.8 1.035-1.92 1.552-3.36 1.552a4.23 4.23 0 0 1-1.632-.304 3.7 3.7 0 0 1-1.232-.832c-.331-.363-.587-.784-.768-1.264-.181-.491-.272-1.019-.272-1.584s.096-1.088.288-1.568c.203-.491.475-.912.816-1.264.352-.363.768-.645 1.248-.848s1.003-.304 1.568-.304c.672 0 1.237.117 1.696.352.469.235.853.544 1.152.928a3.44 3.44 0 0 1 .64 1.28 5.05 5.05 0 0 1 .208 1.44v.512h-6.08zm4.544-1.152a2.88 2.88 0 0 0-.16-.88 1.77 1.77 0 0 0-.4-.688c-.181-.203-.411-.357-.688-.464-.267-.117-.581-.176-.944-.176-.352 0-.677.069-.976.208-.288.128-.533.299-.736.512a2.48 2.48 0 0 0-.48.72c-.107.256-.16.512-.16.768h4.544zm2.347-3.168h1.616l1.712 5.664h.032l1.808-5.664h1.52l1.92 5.664h.032l1.632-5.664h1.52L67.051 254h-1.456l-2-5.664h-.032L61.755 254h-1.552l-2.496-7.584zm17.085 1.904a2.08 2.08 0 0 0-.64-.528c-.245-.149-.549-.224-.912-.224a1.75 1.75 0 0 0-.896.224c-.245.139-.368.347-.368.624 0 .224.069.405.208.544a1.83 1.83 0 0 0 .512.336c.203.085.416.149.64.192l.576.112a6.32 6.32 0 0 1 .864.272c.277.107.512.245.704.416.203.171.357.379.464.624.117.245.176.544.176.896 0 .427-.091.795-.272 1.104a2.32 2.32 0 0 1-.704.736c-.288.192-.619.331-.992.416-.363.085-.731.128-1.104.128-.629 0-1.184-.096-1.664-.288-.469-.192-.891-.544-1.264-1.056l1.088-.896a4.46 4.46 0 0 0 .784.624c.288.181.64.272 1.056.272.181 0 .363-.016.544-.048a1.93 1.93 0 0 0 .496-.176c.149-.085.267-.187.352-.304a.7.7 0 0 0 .144-.432c0-.213-.069-.389-.208-.528-.128-.139-.288-.245-.48-.32a2.6 2.6 0 0 0-.592-.192l-.544-.128-.88-.256c-.277-.096-.523-.224-.736-.384a1.78 1.78 0 0 1-.512-.608c-.128-.245-.192-.549-.192-.912 0-.395.08-.736.24-1.024.171-.299.389-.544.656-.736.277-.192.587-.336.928-.432a4 4 0 0 1 1.056-.144 3.85 3.85 0 0 1 1.472.288 2.33 2.33 0 0 1 1.12.96l-1.12.848z"/><path d="M36.792 288.632a2.59 2.59 0 0 0 1.056.928 3.31 3.31 0 0 0 1.344.288 2.89 2.89 0 0 0 .784-.112 2.41 2.41 0 0 0 .72-.368 1.92 1.92 0 0 0 .544-.592c.139-.235.208-.507.208-.816 0-.437-.139-.768-.416-.992-.277-.235-.624-.427-1.04-.576-.405-.16-.853-.309-1.344-.448a5.88 5.88 0 0 1-1.344-.608c-.405-.256-.747-.597-1.024-1.024-.277-.437-.416-1.024-.416-1.76 0-.331.069-.683.208-1.056a3.04 3.04 0 0 1 .688-1.024c.309-.309.704-.565 1.184-.768.491-.213 1.077-.32 1.76-.32a6.1 6.1 0 0 1 1.776.256c.565.171 1.061.517 1.488 1.04l-1.248 1.136c-.192-.299-.464-.539-.816-.72s-.752-.272-1.2-.272c-.427 0-.784.059-1.072.176-.277.107-.501.251-.672.432-.171.171-.293.357-.368.56a1.87 1.87 0 0 0-.096.56c0 .48.139.848.416 1.104a3.25 3.25 0 0 0 1.024.624c.416.16.864.304 1.344.432.491.128.939.309 1.344.544.416.224.763.533 1.04.928.277.384.416.917.416 1.6 0 .544-.107 1.035-.32 1.472a3.19 3.19 0 0 1-.832 1.104 3.72 3.72 0 0 1-1.248.688c-.48.16-.992.24-1.536.24a5.59 5.59 0 0 1-2.064-.384c-.651-.256-1.168-.651-1.552-1.184l1.264-1.088zm9.275-.896a2.01 2.01 0 0 0 .208.912c.149.267.341.496.576.688s.507.341.816.448.629.16.96.16c.448 0 .837-.101 1.168-.304a3.9 3.9 0 0 0 .912-.832l1.088.832c-.8 1.035-1.92 1.552-3.36 1.552a4.23 4.23 0 0 1-1.632-.304 3.7 3.7 0 0 1-1.232-.832c-.331-.363-.587-.784-.768-1.264-.181-.491-.272-1.019-.272-1.584s.096-1.088.288-1.568c.203-.491.475-.912.816-1.264.352-.363.768-.645 1.248-.848s1.003-.304 1.568-.304c.672 0 1.237.117 1.696.352.469.235.853.544 1.152.928a3.44 3.44 0 0 1 .64 1.28 5.05 5.05 0 0 1 .208 1.44v.512h-6.08zm4.544-1.152a2.88 2.88 0 0 0-.16-.88 1.77 1.77 0 0 0-.4-.688c-.181-.203-.411-.357-.688-.464-.267-.117-.581-.176-.944-.176-.352 0-.677.069-.976.208-.288.128-.533.299-.736.512a2.48 2.48 0 0 0-.48.72c-.107.256-.16.512-.16.768h4.544zm3.291-2.24a3.91 3.91 0 0 1 1.408-.832c.533-.192 1.067-.288 1.6-.288.555 0 1.029.069 1.424.208.405.139.736.325.992.56a2.12 2.12 0 0 1 .56.816 2.37 2.37 0 0 1 .192.944v3.872l.016.736.048.64h-1.28l-.048-1.152h-.032c-.32.491-.699.837-1.136 1.04s-.944.304-1.52.304a3.49 3.49 0 0 1-1.008-.144 2.55 2.55 0 0 1-.848-.432 2.13 2.13 0 0 1-.56-.704 2.26 2.26 0 0 1-.208-.992c0-.491.107-.901.32-1.232.224-.331.523-.597.896-.8a4.15 4.15 0 0 1 1.328-.448 8.85 8.85 0 0 1 1.632-.144h1.056v-.32a1.58 1.58 0 0 0-.112-.576 1.47 1.47 0 0 0-.336-.512 1.46 1.46 0 0 0-.56-.368c-.224-.096-.491-.144-.8-.144-.277 0-.523.027-.736.08-.203.053-.389.123-.56.208a2.21 2.21 0 0 0-.464.272l-.4.304-.864-.896zm4.064 3.008c-.341 0-.693.021-1.056.064-.352.032-.677.101-.976.208-.288.107-.528.256-.72.448-.181.192-.272.437-.272.736 0 .437.144.752.432.944.299.192.699.288 1.2.288.395 0 .731-.064 1.008-.192a1.99 1.99 0 0 0 .672-.528c.171-.213.293-.448.368-.704a2.89 2.89 0 0 0 .112-.784v-.48h-.768zm4.201-3.936h1.44v1.168h.032a1.93 1.93 0 0 1 .384-.544 2.51 2.51 0 0 1 .528-.432 2.76 2.76 0 0 1 .656-.272 2.3 2.3 0 0 1 .704-.112c.235 0 .448.032.64.096l-.064 1.552-.352-.08c-.117-.021-.235-.032-.352-.032-.704 0-1.243.197-1.616.592s-.56 1.008-.56 1.84V291h-1.44v-7.584zm11.065 2.016a2.86 2.86 0 0 0-.848-.624c-.288-.149-.635-.224-1.04-.224-.395 0-.741.075-1.04.224a2.08 2.08 0 0 0-.736.592c-.192.245-.341.533-.448.864a3.49 3.49 0 0 0-.144 1.008c0 .352.059.688.176 1.008.117.309.283.581.496.816a2.38 2.38 0 0 0 .768.56c.299.128.635.192 1.008.192.405 0 .752-.069 1.04-.208a2.78 2.78 0 0 0 .8-.64l1.024 1.024a3.21 3.21 0 0 1-1.312.896c-.491.181-1.013.272-1.568.272-.587 0-1.125-.096-1.616-.288a3.8 3.8 0 0 1-1.248-.8 3.67 3.67 0 0 1-.816-1.248c-.192-.491-.288-1.029-.288-1.616s.096-1.125.288-1.616a3.76 3.76 0 0 1 .8-1.264 3.67 3.67 0 0 1 1.248-.816c.491-.203 1.035-.304 1.632-.304a4.18 4.18 0 0 1 1.584.304 3.41 3.41 0 0 1 1.328.896l-1.088.992zm2.295-6.528h1.44v5.68h.032c.181-.405.496-.731.944-.976.448-.256.965-.384 1.552-.384.363 0 .709.059 1.04.176.341.107.635.277.88.512a2.45 2.45 0 0 1 .608.912c.149.363.224.795.224 1.296V291h-1.44v-4.48c0-.352-.048-.651-.144-.896-.096-.256-.224-.459-.384-.608a1.32 1.32 0 0 0-.56-.336 1.83 1.83 0 0 0-.64-.112 2.35 2.35 0 0 0-.832.144 1.7 1.7 0 0 0-.672.464c-.192.203-.341.464-.448.784s-.16.699-.16 1.136V291h-1.44v-12.096zm-39.071 37.768h2.016l6.24 9.312h.032v-9.312h1.536V328h-1.952l-6.304-9.312h-.032V328h-1.536v-11.328zm13.534 7.536c0 .384.059.741.176 1.072.117.32.283.597.496.832a2.46 2.46 0 0 0 .784.544c.309.128.656.192 1.04.192s.731-.064 1.04-.192a2.46 2.46 0 0 0 .784-.544c.213-.235.379-.512.496-.832.117-.331.176-.688.176-1.072s-.059-.736-.176-1.056c-.117-.331-.283-.608-.496-.832-.213-.235-.475-.416-.784-.544a2.51 2.51 0 0 0-1.04-.208 2.51 2.51 0 0 0-1.04.208c-.309.128-.571.309-.784.544a2.3 2.3 0 0 0-.496.832c-.117.32-.176.672-.176 1.056zm-1.536 0a3.94 3.94 0 0 1 .304-1.552 4.16 4.16 0 0 1 .864-1.264 3.89 3.89 0 0 1 1.28-.848c.491-.213 1.019-.32 1.584-.32s1.093.107 1.584.32a3.89 3.89 0 0 1 1.28.848 3.94 3.94 0 0 1 .848 1.264c.213.48.32.997.32 1.552a3.89 3.89 0 0 1-.32 1.568 3.94 3.94 0 0 1-.848 1.264c-.363.352-.789.635-1.28.848-.491.203-1.019.304-1.584.304a4.1 4.1 0 0 1-1.584-.304c-.491-.213-.917-.496-1.28-.848a4.16 4.16 0 0 1-.864-1.264 4.06 4.06 0 0 1-.304-1.568zm9.868-3.792h1.44v1.168h.032c.181-.405.496-.731.944-.976.448-.256.965-.384 1.552-.384.363 0 .709.059 1.04.176.341.107.635.277.88.512.256.235.459.539.608.912.149.363.224.795.224 1.296V328h-1.44v-4.48c0-.352-.048-.651-.144-.896-.096-.256-.224-.459-.384-.608a1.32 1.32 0 0 0-.56-.336 1.83 1.83 0 0 0-.64-.112 2.35 2.35 0 0 0-.832.144 1.7 1.7 0 0 0-.672.464c-.192.203-.341.464-.448.784s-.16.699-.16 1.136V328h-1.44v-7.584zm9.979 4.32c0 .331.069.635.208.912.149.267.341.496.576.688s.507.341.816.448.629.16.96.16c.448 0 .837-.101 1.168-.304a3.9 3.9 0 0 0 .912-.832l1.088.832c-.8 1.035-1.92 1.552-3.36 1.552a4.23 4.23 0 0 1-1.632-.304 3.7 3.7 0 0 1-1.232-.832c-.331-.363-.587-.784-.768-1.264-.181-.491-.272-1.019-.272-1.584s.096-1.088.288-1.568c.203-.491.475-.912.816-1.264.352-.363.768-.645 1.248-.848s1.003-.304 1.568-.304c.672 0 1.237.117 1.696.352a3.31 3.31 0 0 1 1.152.928 3.44 3.44 0 0 1 .64 1.28 5.05 5.05 0 0 1 .208 1.44v.512h-6.08zm4.544-1.152a2.87 2.87 0 0 0-.16-.88 1.77 1.77 0 0 0-.4-.688c-.181-.203-.411-.357-.688-.464-.267-.117-.581-.176-.944-.176-.352 0-.677.069-.976.208-.288.128-.533.299-.736.512a2.49 2.49 0 0 0-.48.72c-.107.256-.16.512-.16.768h4.544zM40.008 165.672H41.4L46.248 177h-1.792l-1.136-2.8h-5.392l-1.12 2.8h-1.792l4.992-11.328zm2.752 7.184l-2.112-5.2h-.032l-2.144 5.2h4.288zM54.954 177h-1.44v-1.088h-.032c-.277.405-.661.72-1.152.944a3.48 3.48 0 0 1-1.488.336c-.587 0-1.12-.101-1.6-.304a3.62 3.62 0 0 1-1.216-.848c-.331-.363-.587-.784-.768-1.264a4.41 4.41 0 0 1-.272-1.568 4.41 4.41 0 0 1 .272-1.568c.181-.491.437-.912.768-1.264a3.62 3.62 0 0 1 1.216-.848c.48-.203 1.013-.304 1.6-.304.544 0 1.056.117 1.536.352.48.224.848.533 1.104.928h.032v-5.6h1.44V177zm-3.936-1.152c.384 0 .731-.064 1.04-.192a2.46 2.46 0 0 0 .784-.544c.213-.235.379-.512.496-.832.117-.331.176-.688.176-1.072s-.059-.736-.176-1.056a2.3 2.3 0 0 0-.496-.832c-.213-.235-.475-.416-.784-.544a2.51 2.51 0 0 0-1.04-.208 2.51 2.51 0 0 0-1.04.208c-.309.128-.571.309-.784.544-.213.224-.379.501-.496.832-.117.32-.176.672-.176 1.056s.059.741.176 1.072c.117.32.283.597.496.832a2.46 2.46 0 0 0 .784.544c.309.128.656.192 1.04.192zm10.149-4.528a2.08 2.08 0 0 0-.64-.528c-.245-.149-.549-.224-.912-.224a1.75 1.75 0 0 0-.896.224c-.245.139-.368.347-.368.624 0 .224.069.405.208.544a1.83 1.83 0 0 0 .512.336c.203.085.416.149.64.192l.576.112a6.32 6.32 0 0 1 .864.272c.277.107.512.245.704.416.203.171.357.379.464.624.117.245.176.544.176.896 0 .427-.091.795-.272 1.104a2.32 2.32 0 0 1-.704.736c-.288.192-.619.331-.992.416-.363.085-.731.128-1.104.128-.629 0-1.184-.096-1.664-.288-.469-.192-.891-.544-1.264-1.056l1.088-.896a4.46 4.46 0 0 0 .784.624c.288.181.64.272 1.056.272.181 0 .363-.016.544-.048a1.93 1.93 0 0 0 .496-.176c.149-.085.267-.187.352-.304a.7.7 0 0 0 .144-.432c0-.213-.069-.389-.208-.528-.128-.139-.288-.245-.48-.32a2.6 2.6 0 0 0-.592-.192l-.544-.128-.88-.256c-.277-.096-.523-.224-.736-.384a1.78 1.78 0 0 1-.512-.608c-.128-.245-.192-.549-.192-.912 0-.395.08-.736.24-1.024.171-.299.389-.544.656-.736.277-.192.587-.336.928-.432a4 4 0 0 1 1.056-.144 3.85 3.85 0 0 1 1.472.288 2.33 2.33 0 0 1 1.12.96l-1.12.848zm6.618-1.904h1.664l2.272 5.808 2.176-5.808h1.536L72.457 177h-1.584l-3.088-7.584zm9.024 0h1.44V177h-1.44v-7.584zm-.336-2.72a1 1 0 0 1 .304-.736 1.03 1.03 0 0 1 .752-.32.98.98 0 0 1 1.056 1.056 1.03 1.03 0 0 1-.32.752 1 1 0 0 1-.736.304c-.288 0-.539-.101-.752-.304-.203-.213-.304-.464-.304-.752zm5.156 7.04a2.01 2.01 0 0 0 .208.912c.149.267.341.496.576.688s.507.341.816.448.629.16.96.16c.448 0 .837-.101 1.168-.304a3.9 3.9 0 0 0 .912-.832l1.088.832c-.8 1.035-1.92 1.552-3.36 1.552a4.23 4.23 0 0 1-1.632-.304 3.7 3.7 0 0 1-1.232-.832c-.331-.363-.587-.784-.768-1.264-.181-.491-.272-1.019-.272-1.584s.096-1.088.288-1.568c.203-.491.475-.912.816-1.264.352-.363.768-.645 1.248-.848s1.003-.304 1.568-.304c.672 0 1.237.117 1.696.352.469.235.853.544 1.152.928a3.44 3.44 0 0 1 .64 1.28 5.05 5.05 0 0 1 .208 1.44v.512h-6.08zm4.544-1.152a2.88 2.88 0 0 0-.16-.88 1.77 1.77 0 0 0-.4-.688c-.181-.203-.411-.357-.688-.464-.267-.117-.581-.176-.944-.176-.352 0-.677.069-.976.208-.288.128-.533.299-.736.512a2.48 2.48 0 0 0-.48.72c-.107.256-.16.512-.16.768h4.544zm2.347-3.168h1.616l1.712 5.664h.032l1.808-5.664h1.52l1.92 5.664h.032l1.632-5.664h1.52L97.864 177h-1.456l-2-5.664h-.032L92.568 177h-1.552l-2.496-7.584zm17.084 1.904c-.17-.213-.384-.389-.64-.528-.245-.149-.549-.224-.912-.224a1.75 1.75 0 0 0-.896.224c-.245.139-.368.347-.368.624 0 .224.07.405.208.544.15.139.32.251.512.336.203.085.416.149.64.192l.576.112c.31.075.598.165.864.272a2.27 2.27 0 0 1 .704.416c.203.171.358.379.464.624.118.245.176.544.176.896 0 .427-.09.795-.272 1.104-.181.299-.416.544-.704.736s-.618.331-.992.416c-.362.085-.73.128-1.104.128-.629 0-1.184-.096-1.664-.288-.469-.192-.89-.544-1.264-1.056l1.088-.896a4.46 4.46 0 0 0 .784.624c.288.181.64.272 1.056.272.182 0 .363-.016.544-.048.192-.043.358-.101.496-.176a1.09 1.09 0 0 0 .352-.304.7.7 0 0 0 .144-.432c0-.213-.069-.389-.208-.528-.128-.139-.288-.245-.48-.32-.181-.085-.378-.149-.592-.192l-.544-.128-.88-.256a2.69 2.69 0 0 1-.736-.384 1.78 1.78 0 0 1-.512-.608c-.128-.245-.192-.549-.192-.912 0-.395.08-.736.24-1.024.171-.299.39-.544.656-.736.278-.192.587-.336.928-.432a4 4 0 0 1 1.056-.144 3.85 3.85 0 0 1 1.472.288c.47.192.843.512 1.12.96l-1.12.848zm6.619-1.904h1.664l2.272 5.808 2.176-5.808h1.536L116.895 177h-1.584l-3.088-7.584zm9.024 0h1.44V177h-1.44v-7.584zm-.336-2.72a1 1 0 0 1 .304-.736 1.03 1.03 0 0 1 .752-.32.98.98 0 0 1 1.056 1.056 1.03 1.03 0 0 1-.32.752 1 1 0 0 1-.736.304c-.288 0-.539-.101-.752-.304-.203-.213-.304-.464-.304-.752zm4.1 3.648c.405-.373.874-.651 1.408-.832.533-.192 1.066-.288 1.6-.288.554 0 1.029.069 1.424.208.405.139.736.325.992.56s.442.507.56.816a2.37 2.37 0 0 1 .192.944v3.872l.016.736.048.64h-1.28l-.048-1.152h-.032c-.32.491-.699.837-1.136 1.04s-.944.304-1.52.304a3.49 3.49 0 0 1-1.008-.144c-.32-.096-.603-.24-.848-.432a2.12 2.12 0 0 1-.56-.704c-.139-.288-.208-.619-.208-.992 0-.491.106-.901.32-1.232.224-.331.522-.597.896-.8.384-.213.826-.363 1.328-.448a8.85 8.85 0 0 1 1.632-.144h1.056v-.32c0-.192-.038-.384-.112-.576a1.48 1.48 0 0 0-.336-.512c-.15-.16-.336-.283-.56-.368-.224-.096-.491-.144-.8-.144a3.06 3.06 0 0 0-.736.08c-.203.053-.39.123-.56.208-.171.075-.326.165-.464.272l-.4.304-.864-.896zm4.064 3.008a8.95 8.95 0 0 0-1.056.064c-.352.032-.678.101-.976.208-.288.107-.528.256-.72.448-.182.192-.272.437-.272.736 0 .437.144.752.432.944.298.192.698.288 1.2.288.394 0 .73-.064 1.008-.192a1.99 1.99 0 0 0 .672-.528 2.04 2.04 0 0 0 .368-.704 2.93 2.93 0 0 0 .112-.784v-.48h-.768zm5.337 3.744c-.288 0-.539-.101-.752-.304-.203-.213-.304-.464-.304-.752a1 1 0 0 1 .304-.736 1.03 1.03 0 0 1 .752-.32.98.98 0 0 1 1.056 1.056 1.03 1.03 0 0 1-.32.752 1 1 0 0 1-.736.304zm4.453 0c-.288 0-.539-.101-.752-.304-.203-.213-.304-.464-.304-.752a1 1 0 0 1 .304-.736 1.03 1.03 0 0 1 .752-.32.98.98 0 0 1 1.056 1.056 1.03 1.03 0 0 1-.32.752 1 1 0 0 1-.736.304zm4.453 0c-.288 0-.539-.101-.752-.304-.203-.213-.304-.464-.304-.752a1 1 0 0 1 .304-.736 1.03 1.03 0 0 1 .752-.32.98.98 0 0 1 1.056 1.056 1.03 1.03 0 0 1-.32.752 1 1 0 0 1-.736.304z"/></g><g fill="#151b4a"><rect x="93" y="203" width="193" height="17" rx="8.5"/><rect x="93" y="240" width="239" height="17" rx="8.5"/><rect x="93" y="277" width="127" height="17" rx="8.5"/><rect x="93" y="314" width="83" height="17" rx="8.5"/></g><circle cx="429" cy="90.002" r="74.818" stroke="#e1ebff" stroke-width="14"/><path d="M420.863 164.708c-.388 3.564 2.189 6.794 5.772 6.898a81.64 81.64 0 0 0 82.92-68.339c3.393-20.602-1.236-41.721-12.935-59.014-10.483-15.495-25.928-26.863-43.691-32.308-3.427-1.051-6.903 1.183-7.678 4.683s1.447 6.936 4.858 8.038a68.66 68.66 0 0 1 35.759 26.861c9.839 14.544 13.732 32.304 10.879 49.63s-12.237 32.9-26.22 43.521c-12.253 9.306-27.223 14.188-42.485 13.975-3.584-.05-6.79 2.492-7.179 6.055z" fill="#1bfcb6"/><path d="M406.776 76.674h-13.11l-.138 6.486c.429-.153.966-.261 1.61-.322l1.886-.092c1.595 0 3.051.261 4.37.782 1.349.491 2.499 1.211 3.45 2.162s1.687 2.085 2.208 3.404c.552 1.319.828 2.806.828 4.462 0 1.748-.307 3.327-.92 4.738-.583 1.38-1.411 2.561-2.484 3.542-1.043.951-2.285 1.687-3.726 2.208s-2.99.782-4.646.782c-2.607 0-4.83-.613-6.67-1.84-1.809-1.226-3.097-3.097-3.864-5.612l5.796-1.564c.368 1.165.997 2.085 1.886 2.76s2.039 1.012 3.45 1.012c.828 0 1.579-.138 2.254-.414.705-.276 1.303-.659 1.794-1.15a5.42 5.42 0 0 0 1.196-1.794c.276-.675.414-1.411.414-2.208 0-1.135-.215-2.101-.644-2.898-.399-.797-.951-1.441-1.656-1.932-.705-.521-1.518-.889-2.438-1.104a11.2 11.2 0 0 0-2.898-.368 15.91 15.91 0 0 0-3.588.414c-1.165.276-2.239.659-3.22 1.15l.322-17.572h18.538v4.968zm24.095-4.968l-7.82 12.052.092.092c.337-.184.782-.322 1.334-.414a10.9 10.9 0 0 1 1.702-.138c1.441 0 2.76.276 3.956.828a9.43 9.43 0 0 1 3.082 2.254c.889.951 1.564 2.055 2.024 3.312.49 1.257.736 2.591.736 4.002 0 1.687-.292 3.22-.874 4.6s-1.396 2.561-2.438 3.542c-1.012.951-2.239 1.687-3.68 2.208-1.411.522-2.944.782-4.6.782-1.718 0-3.282-.245-4.692-.736-1.411-.521-2.638-1.257-3.68-2.208-1.012-.95-1.81-2.116-2.392-3.496-.552-1.38-.828-2.929-.828-4.646s.276-3.266.828-4.646a29.78 29.78 0 0 1 2.208-4.278l8.326-13.11h6.716zm-12.282 21.942c0 .828.153 1.61.46 2.346a6.47 6.47 0 0 0 1.242 1.886 6.49 6.49 0 0 0 1.886 1.242 6.04 6.04 0 0 0 2.346.46c.828 0 1.594-.153 2.3-.46.736-.307 1.364-.721 1.886-1.242.552-.552.981-1.181 1.288-1.886a6.05 6.05 0 0 0 .46-2.346c0-.828-.154-1.595-.46-2.3-.307-.736-.736-1.365-1.288-1.886-.522-.552-1.15-.981-1.886-1.288-.706-.307-1.472-.46-2.3-.46s-1.61.153-2.346.46a6.06 6.06 0 0 0-1.886 1.288c-.522.521-.936 1.15-1.242 1.886a5.7 5.7 0 0 0-.46 2.3zm42.632 2.622c0-1.196.215-2.3.644-3.312.46-1.043 1.074-1.947 1.84-2.714.798-.797 1.702-1.411 2.714-1.84 1.043-.46 2.162-.69 3.358-.69s2.3.23 3.312.69c1.043.429 1.948 1.043 2.714 1.84a7.87 7.87 0 0 1 1.84 2.714c.46 1.012.69 2.116.69 3.312s-.23 2.315-.69 3.358c-.429 1.012-1.042 1.917-1.84 2.714-.766.767-1.671 1.38-2.714 1.84-1.012.43-2.116.644-3.312.644s-2.315-.214-3.358-.644c-1.012-.46-1.916-1.073-2.714-1.84a9.66 9.66 0 0 1-1.84-2.714c-.429-1.043-.644-2.162-.644-3.358zm12.696 0c0-1.165-.398-2.147-1.196-2.944s-1.778-1.196-2.944-1.196-2.146.399-2.944 1.196-1.196 1.779-1.196 2.944a4 4 0 0 0 1.196 2.944c.798.798 1.779 1.196 2.944 1.196s2.147-.398 2.944-1.196 1.196-1.779 1.196-2.944zm-34.546-16.56c0-1.196.215-2.3.644-3.312.46-1.043 1.074-1.947 1.84-2.714.798-.797 1.702-1.411 2.714-1.84 1.043-.46 2.162-.69 3.358-.69s2.3.23 3.312.69c1.043.429 1.948 1.043 2.714 1.84a7.87 7.87 0 0 1 1.84 2.714c.46 1.012.69 2.116.69 3.312s-.23 2.315-.69 3.358c-.429 1.012-1.042 1.917-1.84 2.714-.766.767-1.671 1.38-2.714 1.84-1.012.429-2.116.644-3.312.644s-2.315-.215-3.358-.644c-1.012-.46-1.916-1.073-2.714-1.84a9.66 9.66 0 0 1-1.84-2.714c-.429-1.043-.644-2.162-.644-3.358zm12.696 0c0-1.165-.398-2.147-1.196-2.944s-1.778-1.196-2.944-1.196a4 4 0 0 0-2.944 1.196c-.797.797-1.196 1.779-1.196 2.944a4 4 0 0 0 1.196 2.944c.798.797 1.779 1.196 2.944 1.196s2.147-.399 2.944-1.196 1.196-1.779 1.196-2.944zm14.49-9.476l3.818 1.748-19.136 33.764-3.818-1.748 19.136-33.764z" fill="#fff"/><path d="M361.436 422.92l-54.475-36.881c-17.155-11.614-40.088-9.688-55.066 4.625l-45.113 43.11a44 44 0 0 1-36.719 11.733l-61.632-8.946a3 3 0 0 0-3.431 2.968v159.347h403.999c24.301 0 44-19.699 44-44V277l-83.659 19.472c-18.325 4.266-31.911 19.712-33.802 38.432l-5.658 56.003c-3.348 33.135-40.867 50.683-68.444 32.013z" fill="url(#A)"/><path d="M105.294 437.661L169.69 447.35C183.427 449.417 197.332 444.876 207.201 435.1L251.611 391.111C266.738 376.127 290.423 374.125 307.85 386.355L361.141 423.752C388.65 443.057 426.77 425.643 430.188 392.212L435.957 335.796C437.861 317.168 451.347 301.786 469.566 297.462L552.998 277.657" stroke="url(#B)" stroke-width="5" stroke-linecap="round"/><defs><linearGradient id="A" x1="1136.98" y1="422.527" x2="912.918" y2="-99.263" gradientUnits="userSpaceOnUse"><stop offset=".047" stop-color="#1e1e1e" stop-opacity="0"/><stop offset=".438" stop-color="#1e1e1e" stop-opacity="0"/><stop offset=".717" stop-color="#36f9bd"/></linearGradient><linearGradient id="B" x1="542.903" y1="-9.749" x2="105.703" y2="-9.774" gradientUnits="userSpaceOnUse"><stop offset=".419" stop-color="#fff"/><stop offset=".599" stop-color="#1bfcb6"/><stop offset="1" stop-color="#37f9bd"/></linearGradient></defs></svg>