<svg width="260" height="386" viewBox="0 0 260 386" fill="none" xmlns="http://www.w3.org/2000/svg">
<rect x="31" y="307" width="198" height="74" rx="10" fill="#0F1546" fill-opacity="0.56"/>
<circle cx="50" cy="325" r="9" fill="white" fill-opacity="0.57"/>
<path d="M64.5 326H165.5" stroke="#ABB6B0" stroke-width="4" stroke-linecap="round"/>
<path d="M45 350H185" stroke="#ABB6B0" stroke-width="4" stroke-linecap="round"/>
<path d="M45 361H161" stroke="#ABB6B0" stroke-width="4" stroke-linecap="round"/>
<path d="M45 372H142" stroke="#ABB6B0" stroke-width="4" stroke-linecap="round"/>
<rect x="30" y="104" width="62" height="90" rx="10" fill="#0F1546" fill-opacity="0.56"/>
<rect x="100" y="104" width="61" height="90" rx="10" fill="#0F1546" fill-opacity="0.56"/>
<rect x="169" y="104" width="62" height="90" rx="10" fill="#0F1546" fill-opacity="0.56"/>
<path d="M5 47.1667C5 36.116 9.38987 25.5179 17.2039 17.7039C25.0179 9.88987 35.616 5.5 46.6667 5.5H213.333C224.384 5.5 234.982 9.88987 242.796 17.7039C250.61 25.5179 255 36.116 255 47.1667V338.833C255 349.884 250.61 360.482 242.796 368.296C234.982 376.11 224.384 380.5 213.333 380.5H46.6667C35.616 380.5 25.0179 376.11 17.2039 368.296C9.38987 360.482 5 349.884 5 338.833V47.1667Z" stroke="#1E2E34" stroke-width="10" stroke-linecap="round" stroke-linejoin="round"/>
<path d="M109.168 26.333H150.835" stroke="#1E2E34" stroke-width="7" stroke-linecap="round" stroke-linejoin="round"/>
<path d="M130 347.167V347.375" stroke="#97F3BF" stroke-width="14" stroke-linecap="round" stroke-linejoin="round"/>
<rect x="29" y="57" width="202" height="31" rx="15.5" fill="#0F1546" fill-opacity="0.56"/>
<path d="M64.721 76.224C64.929 76.536 65.193 76.768 65.513 76.92C65.841 77.064 66.177 77.136 66.521 77.136C66.713 77.136 66.909 77.108 67.109 77.052C67.309 76.988 67.489 76.896 67.649 76.776C67.817 76.656 67.953 76.508 68.057 76.332C68.161 76.156 68.213 75.952 68.213 75.72C68.213 75.392 68.109 75.144 67.901 74.976C67.693 74.8 67.433 74.656 67.121 74.544C66.817 74.424 66.481 74.312 66.113 74.208C65.753 74.096 65.417 73.944 65.105 73.752C64.801 73.56 64.545 73.304 64.337 72.984C64.129 72.656 64.025 72.216 64.025 71.664C64.025 71.416 64.077 71.152 64.181 70.872C64.293 70.592 64.465 70.336 64.697 70.104C64.929 69.872 65.225 69.68 65.585 69.528C65.953 69.368 66.393 69.288 66.905 69.288C67.369 69.288 67.813 69.352 68.237 69.48C68.661 69.608 69.033 69.868 69.353 70.26L68.417 71.112C68.273 70.888 68.069 70.708 67.805 70.572C67.541 70.436 67.241 70.368 66.905 70.368C66.585 70.368 66.317 70.412 66.101 70.5C65.893 70.58 65.725 70.688 65.597 70.824C65.469 70.952 65.377 71.092 65.321 71.244C65.273 71.396 65.249 71.536 65.249 71.664C65.249 72.024 65.353 72.3 65.561 72.492C65.769 72.684 66.025 72.84 66.329 72.96C66.641 73.08 66.977 73.188 67.337 73.284C67.705 73.38 68.041 73.516 68.345 73.692C68.657 73.86 68.917 74.092 69.125 74.388C69.333 74.676 69.437 75.076 69.437 75.588C69.437 75.996 69.357 76.364 69.197 76.692C69.045 77.02 68.837 77.296 68.573 77.52C68.309 77.744 67.997 77.916 67.637 78.036C67.277 78.156 66.893 78.216 66.485 78.216C65.941 78.216 65.425 78.12 64.937 77.928C64.449 77.736 64.061 77.44 63.773 77.04L64.721 76.224ZM71.6769 75.552C71.6769 75.8 71.7289 76.028 71.8329 76.236C71.9449 76.436 72.0889 76.608 72.2649 76.752C72.4409 76.896 72.6449 77.008 72.8769 77.088C73.1089 77.168 73.3489 77.208 73.5969 77.208C73.9329 77.208 74.2249 77.132 74.4729 76.98C74.7209 76.82 74.9489 76.612 75.1569 76.356L75.9729 76.98C75.3729 77.756 74.5329 78.144 73.4529 78.144C73.0049 78.144 72.5969 78.068 72.2289 77.916C71.8689 77.764 71.5609 77.556 71.3049 77.292C71.0569 77.02 70.8649 76.704 70.7289 76.344C70.5929 75.976 70.5249 75.58 70.5249 75.156C70.5249 74.732 70.5969 74.34 70.7409 73.98C70.8929 73.612 71.0969 73.296 71.3529 73.032C71.6169 72.76 71.9289 72.548 72.2889 72.396C72.6489 72.244 73.0409 72.168 73.4649 72.168C73.9689 72.168 74.3929 72.256 74.7369 72.432C75.0889 72.608 75.3769 72.84 75.6009 73.128C75.8249 73.408 75.9849 73.728 76.0809 74.088C76.1849 74.44 76.2369 74.8 76.2369 75.168V75.552H71.6769ZM75.0849 74.688C75.0769 74.448 75.0369 74.228 74.9649 74.028C74.9009 73.828 74.8009 73.656 74.6649 73.512C74.5289 73.36 74.3569 73.244 74.1489 73.164C73.9489 73.076 73.7129 73.032 73.4409 73.032C73.1769 73.032 72.9329 73.084 72.7089 73.188C72.4929 73.284 72.3089 73.412 72.1569 73.572C72.0049 73.732 71.8849 73.912 71.7969 74.112C71.7169 74.304 71.6769 74.496 71.6769 74.688H75.0849ZM77.5529 73.008C77.8569 72.728 78.2089 72.52 78.6089 72.384C79.0089 72.24 79.4089 72.168 79.8089 72.168C80.2249 72.168 80.5809 72.22 80.8769 72.324C81.1809 72.428 81.4289 72.568 81.6209 72.744C81.8129 72.92 81.9529 73.124 82.0409 73.356C82.1369 73.58 82.1849 73.816 82.1849 74.064V76.968C82.1849 77.168 82.1889 77.352 82.1969 77.52C82.2049 77.688 82.2169 77.848 82.2329 78H81.2729C81.2489 77.712 81.2369 77.424 81.2369 77.136H81.2129C80.9729 77.504 80.6889 77.764 80.3609 77.916C80.0329 78.068 79.6529 78.144 79.2209 78.144C78.9569 78.144 78.7049 78.108 78.4649 78.036C78.2249 77.964 78.0129 77.856 77.8289 77.712C77.6529 77.568 77.5129 77.392 77.4089 77.184C77.3049 76.968 77.2529 76.72 77.2529 76.44C77.2529 76.072 77.3329 75.764 77.4929 75.516C77.6609 75.268 77.8849 75.068 78.1649 74.916C78.4529 74.756 78.7849 74.644 79.1609 74.58C79.5449 74.508 79.9529 74.472 80.3849 74.472H81.1769V74.232C81.1769 74.088 81.1489 73.944 81.0929 73.8C81.0369 73.656 80.9529 73.528 80.8409 73.416C80.7289 73.296 80.5889 73.204 80.4209 73.14C80.2529 73.068 80.0529 73.032 79.8209 73.032C79.6129 73.032 79.4289 73.052 79.2689 73.092C79.1169 73.132 78.9769 73.184 78.8489 73.248C78.7209 73.304 78.6049 73.372 78.5009 73.452C78.3969 73.532 78.2969 73.608 78.2009 73.68L77.5529 73.008ZM80.6009 75.264C80.3449 75.264 80.0809 75.28 79.8089 75.312C79.5449 75.336 79.3009 75.388 79.0769 75.468C78.8609 75.548 78.6809 75.66 78.5369 75.804C78.4009 75.948 78.3329 76.132 78.3329 76.356C78.3329 76.684 78.4409 76.92 78.6569 77.064C78.8809 77.208 79.1809 77.28 79.5569 77.28C79.8529 77.28 80.1049 77.232 80.3129 77.136C80.5209 77.032 80.6889 76.9 80.8169 76.74C80.9449 76.58 81.0369 76.404 81.0929 76.212C81.1489 76.012 81.1769 75.816 81.1769 75.624V75.264H80.6009ZM83.7515 72.312H84.8315V73.188H84.8555C84.9275 73.036 85.0235 72.9 85.1435 72.78C85.2635 72.652 85.3955 72.544 85.5395 72.456C85.6915 72.368 85.8555 72.3 86.0315 72.252C86.2075 72.196 86.3835 72.168 86.5595 72.168C86.7355 72.168 86.8955 72.192 87.0395 72.24L86.9915 73.404C86.9035 73.38 86.8155 73.36 86.7275 73.344C86.6395 73.328 86.5515 73.32 86.4635 73.32C85.9355 73.32 85.5315 73.468 85.2515 73.764C84.9715 74.06 84.8315 74.52 84.8315 75.144V78H83.7515V72.312ZM92.05 73.824C91.85 73.616 91.638 73.46 91.414 73.356C91.198 73.244 90.938 73.188 90.634 73.188C90.338 73.188 90.078 73.244 89.854 73.356C89.638 73.46 89.454 73.608 89.302 73.8C89.158 73.984 89.046 74.2 88.966 74.448C88.894 74.688 88.858 74.94 88.858 75.204C88.858 75.468 88.902 75.72 88.99 75.96C89.078 76.192 89.202 76.396 89.362 76.572C89.522 76.748 89.714 76.888 89.938 76.992C90.162 77.088 90.414 77.136 90.694 77.136C90.998 77.136 91.258 77.084 91.474 76.98C91.69 76.868 91.89 76.708 92.074 76.5L92.842 77.268C92.562 77.58 92.234 77.804 91.858 77.94C91.49 78.076 91.098 78.144 90.682 78.144C90.242 78.144 89.838 78.072 89.47 77.928C89.11 77.784 88.798 77.584 88.534 77.328C88.27 77.064 88.066 76.752 87.922 76.392C87.778 76.024 87.706 75.62 87.706 75.18C87.706 74.74 87.778 74.336 87.922 73.968C88.066 73.6 88.266 73.284 88.522 73.02C88.786 72.756 89.098 72.552 89.458 72.408C89.826 72.256 90.234 72.18 90.682 72.18C91.098 72.18 91.494 72.256 91.87 72.408C92.254 72.552 92.586 72.776 92.866 73.08L92.05 73.824ZM93.7711 68.928H94.8511V73.188H94.8751C95.0111 72.884 95.2471 72.64 95.5831 72.456C95.9191 72.264 96.3071 72.168 96.7471 72.168C97.0191 72.168 97.2791 72.212 97.5271 72.3C97.7831 72.38 98.0031 72.508 98.1871 72.684C98.3791 72.86 98.5311 73.088 98.6431 73.368C98.7551 73.64 98.8111 73.964 98.8111 74.34V78H97.7311V74.64C97.7311 74.376 97.6951 74.152 97.6231 73.968C97.5511 73.776 97.4551 73.624 97.3351 73.512C97.2151 73.392 97.0751 73.308 96.9151 73.26C96.7631 73.204 96.6031 73.176 96.4351 73.176C96.2111 73.176 96.0031 73.212 95.8111 73.284C95.6191 73.356 95.4511 73.472 95.3071 73.632C95.1631 73.784 95.0511 73.98 94.9711 74.22C94.8911 74.46 94.8511 74.744 94.8511 75.072V78H93.7711V68.928Z" fill="#D8D8D8" fill-opacity="0.5"/>
<g clip-path="url(#clip0_1104_5353)">
<path d="M41 72.6667C41 73.2795 41.1207 73.8863 41.3552 74.4525C41.5898 75.0187 41.9335 75.5332 42.3668 75.9665C42.8002 76.3998 43.3146 76.7436 43.8808 76.9781C44.447 77.2126 45.0538 77.3333 45.6667 77.3333C46.2795 77.3333 46.8863 77.2126 47.4525 76.9781C48.0187 76.7436 48.5332 76.3998 48.9665 75.9665C49.3998 75.5332 49.7436 75.0187 49.9781 74.4525C50.2126 73.8863 50.3333 73.2795 50.3333 72.6667C50.3333 72.0538 50.2126 71.447 49.9781 70.8808C49.7436 70.3146 49.3998 69.8002 48.9665 69.3668C48.5332 68.9335 48.0187 68.5898 47.4525 68.3552C46.8863 68.1207 46.2795 68 45.6667 68C45.0538 68 44.447 68.1207 43.8808 68.3552C43.3146 68.5898 42.8002 68.9335 42.3668 69.3668C41.9335 69.8002 41.5898 70.3146 41.3552 70.8808C41.1207 71.447 41 72.0538 41 72.6667Z" stroke="white" stroke-opacity="0.7" stroke-width="2" stroke-linecap="round" stroke-linejoin="round"/>
<path d="M51 78L50.5 77.5" stroke="white" stroke-opacity="0.7" stroke-width="2" stroke-linecap="round" stroke-linejoin="round"/>
</g>
<rect x="31" y="208" width="198" height="92" rx="10" fill="#0F1546" fill-opacity="0.56"/>
<circle cx="50" cy="226" r="9" fill="white" fill-opacity="0.57"/>
<path d="M64.5 227H165.5" stroke="#ABB6B0" stroke-width="4" stroke-linecap="round"/>
<path d="M45 251H185" stroke="#ABB6B0" stroke-width="4" stroke-linecap="round"/>
<path d="M45 262H161" stroke="#ABB6B0" stroke-width="4" stroke-linecap="round"/>
<path d="M45 273H142" stroke="#ABB6B0" stroke-width="4" stroke-linecap="round"/>
<defs>
<clipPath id="clip0_1104_5353">
<rect width="16" height="16" fill="white" transform="translate(39 66)"/>
</clipPath>
</defs>
</svg>
