<svg xmlns="http://www.w3.org/2000/svg" xmlns:xlink="http://www.w3.org/1999/xlink" width="589" height="567" fill="none" xmlns:v="https://vecta.io/nano"><rect width="589" height="567" rx="69" fill="#fff"/><g fill="#151b4a"><path d="M96.6 145.32c-1.04-1.12-2.053-1.867-3.04-2.24-.96-.373-1.933-.56-2.92-.56-1.467 0-2.8.267-4 .8-1.173.507-2.187 1.227-3.04 2.16-.853.907-1.52 1.973-2 3.2-.453 1.227-.68 2.547-.68 3.96 0 1.52.227 2.92.68 4.2.48 1.28 1.147 2.387 2 3.32a9.27 9.27 0 0 0 3.04 2.2c1.2.533 2.533.8 4 .8a7.34 7.34 0 0 0 3.32-.8c1.093-.56 2.107-1.44 3.04-2.64l4.16 2.96c-1.28 1.76-2.84 3.04-4.68 3.84s-3.8 1.2-5.88 1.2c-2.187 0-4.2-.347-6.04-1.04-1.813-.72-3.387-1.72-4.72-3-1.307-1.307-2.333-2.867-3.08-4.68s-1.12-3.827-1.12-6.04c0-2.267.373-4.32 1.12-6.16.747-1.867 1.773-3.453 3.08-4.76 1.333-1.307 2.907-2.307 4.72-3 1.84-.72 3.853-1.08 6.04-1.08 1.92 0 3.693.347 5.32 1.04 1.653.667 3.187 1.813 4.6 3.44l-3.92 2.88zm12.303 5.16h.08c.373-.8 1.026-1.52 1.96-2.16.96-.667 2.186-1 3.68-1 1.28 0 2.36.213 3.24.64.906.427 1.64.987 2.2 1.68s.96 1.493 1.2 2.4.36 1.853.36 2.84V167h-4.8v-9.72l-.08-1.76c-.054-.667-.2-1.28-.44-1.84-.214-.587-.56-1.067-1.04-1.44-.48-.4-1.134-.6-1.96-.6-.8 0-1.48.133-2.04.4-.534.267-.987.627-1.36 1.08-.347.453-.6.973-.76 1.56s-.24 1.2-.24 1.84V167h-4.8v-30.24h4.8v13.72zm17.209 6.92c0-1.52.266-2.893.8-4.12.56-1.253 1.306-2.32 2.24-3.2s2.04-1.56 3.32-2.04 2.64-.72 4.08-.72 2.8.24 4.08.72 2.386 1.16 3.32 2.04 1.666 1.947 2.2 3.2c.56 1.227.84 2.6.84 4.12s-.28 2.907-.84 4.16c-.534 1.227-1.267 2.28-2.2 3.16s-2.04 1.56-3.32 2.04-2.64.72-4.08.72-2.8-.24-4.08-.72-2.387-1.16-3.32-2.04a9.98 9.98 0 0 1-2.24-3.16c-.534-1.253-.8-2.64-.8-4.16zm4.8 0c0 .747.12 1.467.36 2.16.266.693.64 1.307 1.12 1.84.506.533 1.106.96 1.8 1.28s1.48.48 2.36.48 1.666-.16 2.36-.48a5.36 5.36 0 0 0 1.76-1.28 5.04 5.04 0 0 0 1.12-1.84 5.98 5.98 0 0 0 0-4.32 5.04 5.04 0 0 0-1.12-1.84 5.36 5.36 0 0 0-1.76-1.28c-.694-.32-1.48-.48-2.36-.48s-1.667.16-2.36.48-1.294.747-1.8 1.28c-.48.533-.854 1.147-1.12 1.84-.24.693-.36 1.413-.36 2.16zm19.614 0c0-1.52.266-2.893.8-4.12.56-1.253 1.306-2.32 2.24-3.2s2.04-1.56 3.32-2.04 2.64-.72 4.08-.72 2.8.24 4.08.72 2.386 1.16 3.32 2.04 1.666 1.947 2.2 3.2c.56 1.227.84 2.6.84 4.12s-.28 2.907-.84 4.16c-.534 1.227-1.267 2.28-2.2 3.16s-2.04 1.56-3.32 2.04-2.64.72-4.08.72-2.8-.24-4.08-.72-2.387-1.16-3.32-2.04a9.98 9.98 0 0 1-2.24-3.16c-.534-1.253-.8-2.64-.8-4.16zm4.8 0c0 .747.12 1.467.36 2.16.266.693.64 1.307 1.12 1.84.506.533 1.106.96 1.8 1.28s1.48.48 2.36.48 1.666-.16 2.36-.48a5.36 5.36 0 0 0 1.76-1.28 5.04 5.04 0 0 0 1.12-1.84 5.98 5.98 0 0 0 0-4.32 5.04 5.04 0 0 0-1.12-1.84 5.36 5.36 0 0 0-1.76-1.28c-.694-.32-1.48-.48-2.36-.48s-1.667.16-2.36.48-1.294.747-1.8 1.28c-.48.533-.854 1.147-1.12 1.84-.24.693-.36 1.413-.36 2.16zm30.814-4.28c-.934-1.307-2.187-1.96-3.76-1.96a4.02 4.02 0 0 0-1.88.48c-.614.32-.92.84-.92 1.56 0 .587.253 1.013.76 1.28s1.146.493 1.92.68l2.48.6a8.91 8.91 0 0 1 2.52.92c.773.4 1.413.96 1.92 1.68s.76 1.707.76 2.96c0 1.147-.254 2.12-.76 2.92-.48.773-1.12 1.4-1.92 1.88-.774.48-1.654.827-2.64 1.04a14 14 0 0 1-2.96.32c-1.494 0-2.867-.213-4.12-.64s-2.374-1.2-3.36-2.32l3.2-3a9.73 9.73 0 0 0 1.96 1.72c.72.427 1.586.64 2.6.64a5.16 5.16 0 0 0 1.08-.12c.373-.08.72-.213 1.04-.4s.573-.413.76-.68a1.66 1.66 0 0 0 .32-1c0-.667-.254-1.16-.76-1.48s-1.147-.573-1.92-.76l-2.52-.56c-.88-.187-1.707-.467-2.48-.84a5.43 5.43 0 0 1-1.92-1.64c-.507-.693-.76-1.653-.76-2.88 0-1.067.213-1.987.64-2.76.453-.8 1.04-1.453 1.76-1.96s1.546-.88 2.48-1.12 1.88-.36 2.84-.36a11.11 11.11 0 0 1 3.8.68c1.253.427 2.266 1.173 3.04 2.24l-3.2 2.88zm11.373 5.96c.16 1.44.72 2.56 1.68 3.36s2.12 1.2 3.48 1.2c1.2 0 2.2-.24 3-.72a8.56 8.56 0 0 0 2.16-1.88l3.44 2.6c-1.12 1.387-2.373 2.373-3.76 2.96s-2.84.88-4.36.88c-1.44 0-2.8-.24-4.08-.72s-2.387-1.16-3.32-2.04-1.68-1.933-2.24-3.16c-.533-1.253-.8-2.64-.8-4.16s.267-2.893.8-4.12c.56-1.253 1.307-2.32 2.24-3.2s2.04-1.56 3.32-2.04 2.64-.72 4.08-.72c1.333 0 2.547.24 3.64.72a7.43 7.43 0 0 1 2.84 2c.8.88 1.413 1.973 1.84 3.28.453 1.28.68 2.76.68 4.44v1.32h-14.64zm9.84-3.6c-.027-1.413-.467-2.52-1.32-3.32-.853-.827-2.04-1.24-3.56-1.24-1.44 0-2.587.413-3.44 1.24-.827.827-1.333 1.933-1.52 3.32h9.84zm18.525-7.68h5.28l5.36 13.32h.08l4.8-13.32h5l-9.08 23.32c-.347.907-.734 1.693-1.16 2.36-.4.693-.88 1.267-1.44 1.72-.56.48-1.227.827-2 1.04-.747.24-1.654.36-2.72.36-1.254 0-2.48-.16-3.68-.48l.6-4.32c.373.133.76.24 1.16.32a5.24 5.24 0 0 0 1.28.16c.586 0 1.08-.053 1.48-.16s.733-.28 1-.52c.293-.213.533-.507.72-.88.186-.347.386-.773.6-1.28l.92-2.28-8.2-19.36zm22.382 9.6c0-1.52.267-2.893.8-4.12.56-1.253 1.307-2.32 2.24-3.2s2.04-1.56 3.32-2.04 2.64-.72 4.08-.72 2.8.24 4.08.72 2.387 1.16 3.32 2.04 1.667 1.947 2.2 3.2c.56 1.227.84 2.6.84 4.12s-.28 2.907-.84 4.16c-.533 1.227-1.267 2.28-2.2 3.16s-2.04 1.56-3.32 2.04-2.64.72-4.08.72-2.8-.24-4.08-.72-2.387-1.16-3.32-2.04-1.68-1.933-2.24-3.16c-.533-1.253-.8-2.64-.8-4.16zm4.8 0c0 .747.12 1.467.36 2.16.267.693.64 1.307 1.12 1.84a5.83 5.83 0 0 0 1.8 1.28c.693.32 1.48.48 2.36.48s1.667-.16 2.36-.48a5.36 5.36 0 0 0 1.76-1.28c.507-.533.88-1.147 1.12-1.84.267-.693.4-1.413.4-2.16s-.133-1.467-.4-2.16c-.24-.693-.613-1.307-1.12-1.84a5.36 5.36 0 0 0-1.76-1.28c-.693-.32-1.48-.48-2.36-.48s-1.667.16-2.36.48a5.83 5.83 0 0 0-1.8 1.28c-.48.533-.853 1.147-1.12 1.84-.24.693-.36 1.413-.36 2.16zm38.094 9.6h-4.56v-3.08h-.08c-.453.96-1.147 1.8-2.08 2.52-.933.693-2.2 1.04-3.8 1.04-1.28 0-2.373-.2-3.28-.6-.88-.427-1.6-.987-2.16-1.68-.56-.72-.96-1.533-1.2-2.44s-.36-1.853-.36-2.84V147.8h4.8v9.72l.08 1.8c.053.64.187 1.253.4 1.84a4 4 0 0 0 1.04 1.44c.48.373 1.147.56 2 .56.8 0 1.467-.133 2-.4.56-.267 1.013-.627 1.36-1.08.373-.453.64-.973.8-1.56s.24-1.2.24-1.84V147.8h4.8V167zm5.449-19.2h4.8v3.04h.08c.533-1.12 1.293-1.987 2.28-2.6s2.12-.92 3.4-.92c.293 0 .573.027.84.08l.88.2v4.64c-.4-.107-.8-.187-1.2-.24a5.34 5.34 0 0 0-1.12-.12c-1.12 0-2.027.213-2.72.64-.667.4-1.187.867-1.56 1.4-.347.533-.587 1.067-.72 1.6-.107.533-.16.933-.16 1.2V167h-4.8v-19.2zm33.623-4.56h-8.68v-4.56h22.4v4.56h-8.68V167h-5.04v-23.76zm21.528 7.24h.08c.374-.8 1.027-1.52 1.96-2.16.96-.667 2.187-1 3.68-1 1.28 0 2.36.213 3.24.64.907.427 1.64.987 2.2 1.68s.96 1.493 1.2 2.4.36 1.853.36 2.84V167h-4.8v-9.72l-.08-1.76c-.053-.667-.2-1.28-.44-1.84a3.14 3.14 0 0 0-1.04-1.44c-.48-.4-1.133-.6-1.96-.6-.8 0-1.48.133-2.04.4-.533.267-.986.627-1.36 1.08-.346.453-.6.973-.76 1.56s-.24 1.2-.24 1.84V167h-4.8v-30.24h4.8v13.72zm22.009 8.6c.16 1.44.72 2.56 1.68 3.36s2.12 1.2 3.48 1.2c1.2 0 2.2-.24 3-.72a8.56 8.56 0 0 0 2.16-1.88l3.44 2.6c-1.12 1.387-2.373 2.373-3.76 2.96s-2.84.88-4.36.88c-1.44 0-2.8-.24-4.08-.72s-2.387-1.16-3.32-2.04-1.68-1.933-2.24-3.16c-.533-1.253-.8-2.64-.8-4.16s.267-2.893.8-4.12c.56-1.253 1.307-2.32 2.24-3.2s2.04-1.56 3.32-2.04 2.64-.72 4.08-.72c1.333 0 2.547.24 3.64.72a7.43 7.43 0 0 1 2.84 2c.8.88 1.413 1.973 1.84 3.28.453 1.28.68 2.76.68 4.44v1.32h-14.64zm9.84-3.6c-.027-1.413-.467-2.52-1.32-3.32-.853-.827-2.04-1.24-3.56-1.24-1.44 0-2.587.413-3.44 1.24-.827.827-1.333 1.933-1.52 3.32h9.84zm9.089-7.68h4.56v3h.08c.427-.907 1.107-1.707 2.04-2.4.96-.72 2.24-1.08 3.84-1.08 3.013 0 5.013 1.187 6 3.56.693-1.227 1.56-2.12 2.6-2.68 1.04-.587 2.28-.88 3.72-.88 1.28 0 2.36.213 3.24.64s1.587 1.013 2.12 1.76c.56.747.96 1.627 1.2 2.64.24.987.36 2.053.36 3.2V167h-4.8v-10.88a8.52 8.52 0 0 0-.16-1.68c-.107-.56-.293-1.04-.56-1.44a2.79 2.79 0 0 0-1.08-1c-.453-.24-1.04-.36-1.76-.36-.747 0-1.387.147-1.92.44a3.68 3.68 0 0 0-1.28 1.12c-.32.453-.56.987-.72 1.6a8.12 8.12 0 0 0-.2 1.8V167h-4.8v-11.44c0-1.2-.253-2.147-.76-2.84-.507-.72-1.347-1.08-2.52-1.08-.8 0-1.48.133-2.04.4-.533.267-.987.627-1.36 1.08-.347.453-.6.973-.76 1.56s-.24 1.2-.24 1.84V167h-4.8v-19.2zm38.845 11.28c.16 1.44.72 2.56 1.68 3.36s2.12 1.2 3.48 1.2c1.2 0 2.2-.24 3-.72.826-.507 1.546-1.133 2.16-1.88l3.44 2.6c-1.12 1.387-2.374 2.373-3.76 2.96s-2.84.88-4.36.88c-1.44 0-2.8-.24-4.08-.72s-2.387-1.16-3.32-2.04a9.98 9.98 0 0 1-2.24-3.16c-.534-1.253-.8-2.64-.8-4.16s.266-2.893.8-4.12c.56-1.253 1.306-2.32 2.24-3.2s2.04-1.56 3.32-2.04 2.64-.72 4.08-.72c1.333 0 2.546.24 3.64.72 1.12.453 2.066 1.12 2.84 2 .8.88 1.413 1.973 1.84 3.28.453 1.28.68 2.76.68 4.44v1.32h-14.64zm9.84-3.6c-.027-1.413-.467-2.52-1.32-3.32-.854-.827-2.04-1.24-3.56-1.24-1.44 0-2.587.413-3.44 1.24-.827.827-1.334 1.933-1.52 3.32h9.84z"/><path d="M76.548 194.176h12.796v2.52H79.236v5.908h9.408v2.52h-9.408v6.356h10.612V214h-13.3v-19.824zm16.529 8.176c.709-.653 1.531-1.139 2.464-1.456.933-.336 1.867-.504 2.8-.504.971 0 1.802.121 2.492.364.71.243 1.288.569 1.736.98a3.7 3.7 0 0 1 .98 1.428 4.15 4.15 0 0 1 .336 1.652v6.776l.028 1.288.084 1.12h-2.24l-.084-2.016h-.056c-.56.859-1.222 1.465-1.988 1.82s-1.652.532-2.66.532c-.616 0-1.204-.084-1.764-.252a4.46 4.46 0 0 1-1.484-.756c-.411-.336-.737-.747-.98-1.232-.243-.504-.364-1.083-.364-1.736 0-.859.187-1.577.56-2.156a4.38 4.38 0 0 1 1.568-1.4c.672-.373 1.447-.635 2.324-.784.896-.168 1.848-.252 2.856-.252h1.848v-.56c0-.336-.065-.672-.196-1.008s-.326-.635-.588-.896a2.56 2.56 0 0 0-.98-.644c-.392-.168-.859-.252-1.4-.252-.485 0-.915.047-1.288.14a5.07 5.07 0 0 0-.98.364c-.299.131-.569.289-.812.476l-.7.532-1.512-1.568zm7.112 5.264c-.597 0-1.213.037-1.848.112-.616.056-1.185.177-1.708.364-.504.187-.924.448-1.26.784-.317.336-.476.765-.476 1.288 0 .765.252 1.316.756 1.652.523.336 1.223.504 2.1.504.691 0 1.279-.112 1.764-.336.486-.243.878-.551 1.176-.924s.514-.784.644-1.232c.131-.467.196-.924.196-1.372v-.84h-1.344zm14.408-3.556c-.299-.373-.672-.681-1.12-.924-.43-.261-.962-.392-1.596-.392-.598 0-1.12.131-1.568.392-.43.243-.644.607-.644 1.092 0 .392.121.709.364.952a3.22 3.22 0 0 0 .896.588c.354.149.728.261 1.12.336l1.008.196a11.08 11.08 0 0 1 1.512.476 3.99 3.99 0 0 1 1.232.728c.354.299.625.663.812 1.092.205.429.308.952.308 1.568 0 .747-.159 1.391-.476 1.932-.318.523-.728.952-1.232 1.288s-1.083.579-1.736.728a8.43 8.43 0 0 1-1.932.224c-1.102 0-2.072-.168-2.912-.504-.822-.336-1.559-.952-2.212-1.848l1.904-1.568c.41.411.868.775 1.372 1.092s1.12.476 1.848.476c.317 0 .634-.028.952-.084.336-.075.625-.177.868-.308a1.94 1.94 0 0 0 .616-.532 1.23 1.23 0 0 0 .252-.756c0-.373-.122-.681-.364-.924-.224-.243-.504-.429-.84-.56a4.54 4.54 0 0 0-1.036-.336l-.952-.224-1.54-.448c-.486-.168-.915-.392-1.288-.672a3.1 3.1 0 0 1-.896-1.064c-.224-.429-.336-.961-.336-1.596 0-.691.14-1.288.42-1.792.298-.523.681-.952 1.148-1.288.485-.336 1.026-.588 1.624-.756.616-.168 1.232-.252 1.848-.252a6.74 6.74 0 0 1 2.576.504c.821.336 1.474.896 1.96 1.68l-1.96 1.484zm3.789-3.332h2.912l3.948 10.36h.056l3.752-10.36h2.716l-6.3 16.128c-.224.579-.457 1.101-.7 1.568-.243.485-.532.896-.868 1.232s-.747.597-1.232.784c-.467.187-1.045.28-1.736.28-.373 0-.756-.028-1.148-.084a3.77 3.77 0 0 1-1.092-.28l.308-2.296c.504.205 1.008.308 1.512.308.392 0 .719-.056.98-.168a1.62 1.62 0 0 0 .7-.448 2.29 2.29 0 0 0 .504-.672c.131-.261.261-.56.392-.896l.812-2.1-5.516-13.356zm30.501 2.184h-3.612v6.02l.028 1.12c.019.355.084.681.196.98.131.28.317.513.56.7.261.168.635.252 1.12.252a5.31 5.31 0 0 0 .924-.084c.317-.056.607-.159.868-.308v2.296c-.299.168-.691.28-1.176.336-.467.075-.831.112-1.092.112-.971 0-1.727-.131-2.268-.392-.523-.28-.915-.635-1.176-1.064-.243-.429-.392-.905-.448-1.428l-.056-1.624v-6.916h-2.912v-2.184h2.912v-3.724h2.52v3.724h3.612v2.184zm5.295 4.452a5.58 5.58 0 0 0 .308 1.876c.206.56.495 1.045.868 1.456a4.31 4.31 0 0 0 1.372.952c.542.224 1.148.336 1.82.336s1.279-.112 1.82-.336c.542-.243.999-.56 1.372-.952.374-.411.663-.896.868-1.456.206-.579.308-1.204.308-1.876s-.102-1.288-.308-1.848c-.205-.579-.494-1.064-.868-1.456-.373-.411-.83-.728-1.372-.952-.541-.243-1.148-.364-1.82-.364s-1.278.121-1.82.364a3.78 3.78 0 0 0-1.372.952c-.373.392-.662.877-.868 1.456a5.34 5.34 0 0 0-.308 1.848zm-2.688 0a6.92 6.92 0 0 1 .532-2.716c.374-.84.878-1.577 1.512-2.212s1.382-1.129 2.24-1.484c.859-.373 1.783-.56 2.772-.56s1.914.187 2.772.56c.859.355 1.606.849 2.24 1.484a6.87 6.87 0 0 1 1.484 2.212c.374.84.56 1.745.56 2.716s-.186 1.885-.56 2.744a6.87 6.87 0 0 1-1.484 2.212c-.634.616-1.381 1.111-2.24 1.484-.858.355-1.782.532-2.772.532s-1.913-.177-2.772-.532c-.858-.373-1.605-.868-2.24-1.484-.634-.635-1.138-1.372-1.512-2.212-.354-.859-.532-1.773-.532-2.744zm34.554-3.108c-.466-.485-.961-.849-1.484-1.092-.504-.261-1.11-.392-1.82-.392-.69 0-1.297.131-1.82.392-.504.243-.933.588-1.288 1.036-.336.429-.597.933-.784 1.512-.168.56-.252 1.148-.252 1.764a5.09 5.09 0 0 0 .308 1.764c.206.541.495 1.017.868 1.428s.822.737 1.344.98c.523.224 1.111.336 1.764.336.71 0 1.316-.121 1.82-.364.504-.261.971-.635 1.4-1.12l1.792 1.792c-.653.728-1.418 1.251-2.296 1.568-.858.317-1.773.476-2.744.476-1.026 0-1.969-.168-2.828-.504-.84-.336-1.568-.803-2.184-1.4-.616-.616-1.092-1.344-1.428-2.184-.336-.859-.504-1.801-.504-2.828s.168-1.969.504-2.828a6.58 6.58 0 0 1 1.4-2.212c.616-.616 1.344-1.092 2.184-1.428.859-.355 1.811-.532 2.856-.532.971 0 1.895.177 2.772.532a5.97 5.97 0 0 1 2.324 1.568l-1.904 1.736zm4.016-3.528h2.52v2.044h.056c.168-.355.392-.672.672-.952a4.41 4.41 0 0 1 .924-.756c.355-.205.737-.364 1.148-.476.411-.131.821-.196 1.232-.196s.784.056 1.12.168l-.112 2.716-.616-.14a3.47 3.47 0 0 0-.616-.056c-1.232 0-2.175.345-2.828 1.036s-.98 1.764-.98 3.22V214h-2.52v-13.272zm11.775 7.56c0 .579.122 1.111.364 1.596.262.467.598.868 1.008 1.204s.887.597 1.428.784 1.102.28 1.68.28c.784 0 1.466-.177 2.044-.532.579-.373 1.111-.859 1.596-1.456l1.904 1.456c-1.4 1.811-3.36 2.716-5.88 2.716-1.045 0-1.997-.177-2.856-.532-.84-.355-1.558-.84-2.156-1.456-.578-.635-1.026-1.372-1.344-2.212-.317-.859-.476-1.783-.476-2.772s.168-1.904.504-2.744c.355-.859.831-1.596 1.428-2.212.616-.635 1.344-1.129 2.184-1.484s1.755-.532 2.744-.532c1.176 0 2.166.205 2.968.616.822.411 1.494.952 2.016 1.624a6.02 6.02 0 0 1 1.12 2.24c.243.821.364 1.661.364 2.52v.896h-10.64zm7.952-2.016a5 5 0 0 0-.28-1.54 3.09 3.09 0 0 0-.7-1.204c-.317-.355-.718-.625-1.204-.812-.466-.205-1.017-.308-1.652-.308-.616 0-1.185.121-1.708.364-.504.224-.933.523-1.288.896s-.634.793-.84 1.26c-.186.448-.28.896-.28 1.344h7.952zm5.759-3.92c.709-.653 1.531-1.139 2.464-1.456.933-.336 1.867-.504 2.8-.504.971 0 1.801.121 2.492.364.709.243 1.288.569 1.736.98a3.7 3.7 0 0 1 .98 1.428 4.15 4.15 0 0 1 .336 1.652v6.776l.028 1.288.084 1.12h-2.24l-.084-2.016h-.056c-.56.859-1.223 1.465-1.988 1.82s-1.652.532-2.66.532c-.616 0-1.204-.084-1.764-.252s-1.055-.42-1.484-.756c-.411-.336-.737-.747-.98-1.232-.243-.504-.364-1.083-.364-1.736 0-.859.187-1.577.56-2.156.392-.579.915-1.045 1.568-1.4.672-.373 1.447-.635 2.324-.784.896-.168 1.848-.252 2.856-.252h1.848v-.56c0-.336-.065-.672-.196-1.008s-.327-.635-.588-.896a2.56 2.56 0 0 0-.98-.644c-.392-.168-.859-.252-1.4-.252-.485 0-.915.047-1.288.14a5.07 5.07 0 0 0-.98.364c-.299.131-.569.289-.812.476l-.7.532-1.512-1.568zm7.112 5.264c-.597 0-1.213.037-1.848.112-.616.056-1.185.177-1.708.364-.504.187-.924.448-1.26.784-.317.336-.476.765-.476 1.288 0 .765.252 1.316.756 1.652.523.336 1.223.504 2.1.504.691 0 1.279-.112 1.764-.336.485-.243.877-.551 1.176-.924a3.54 3.54 0 0 0 .644-1.232c.131-.467.196-.924.196-1.372v-.84h-1.344zm14.463-4.704h-3.612v6.02l.028 1.12c.019.355.084.681.196.98.131.28.318.513.56.7.262.168.635.252 1.12.252a5.31 5.31 0 0 0 .924-.084 2.67 2.67 0 0 0 .868-.308v2.296c-.298.168-.69.28-1.176.336-.466.075-.83.112-1.092.112-.97 0-1.726-.131-2.268-.392-.522-.28-.914-.635-1.176-1.064a3.67 3.67 0 0 1-.448-1.428l-.056-1.624v-6.916h-2.912v-2.184h2.912v-3.724h2.52v3.724h3.612v2.184zm5.156 5.376c0 .579.121 1.111.364 1.596.261.467.597.868 1.008 1.204a4.59 4.59 0 0 0 1.428.784c.541.187 1.101.28 1.68.28.784 0 1.465-.177 2.044-.532.578-.373 1.11-.859 1.596-1.456l1.904 1.456c-1.4 1.811-3.36 2.716-5.88 2.716-1.046 0-1.998-.177-2.856-.532-.84-.355-1.559-.84-2.156-1.456a6.82 6.82 0 0 1-1.344-2.212c-.318-.859-.476-1.783-.476-2.772s.168-1.904.504-2.744c.354-.859.83-1.596 1.428-2.212.616-.635 1.344-1.129 2.184-1.484s1.754-.532 2.744-.532c1.176 0 2.165.205 2.968.616.821.411 1.493.952 2.016 1.624.522.653.896 1.4 1.12 2.24a8.87 8.87 0 0 1 .364 2.52v.896h-10.64zm7.952-2.016c-.019-.56-.112-1.073-.28-1.54-.15-.467-.383-.868-.7-1.204-.318-.355-.719-.625-1.204-.812-.467-.205-1.018-.308-1.652-.308-.616 0-1.186.121-1.708.364-.504.224-.934.523-1.288.896s-.635.793-.84 1.26c-.187.448-.28.896-.28 1.344h7.952zm14.475-3.36h-2.856v-2.184h2.856v-2.968c0-1.773.336-3.089 1.008-3.948.691-.877 1.867-1.316 3.528-1.316l.868.028c.318.019.654.075 1.008.168l-.28 2.24c-.242-.093-.476-.159-.7-.196s-.466-.056-.728-.056c-.466 0-.84.075-1.12.224a1.58 1.58 0 0 0-.672.588c-.149.261-.252.579-.308.952a12.01 12.01 0 0 0-.056 1.232v3.052h2.996v2.184h-3.024V214h-2.52v-11.088zm8.4-.56c.71-.653 1.531-1.139 2.464-1.456.934-.336 1.867-.504 2.8-.504.971 0 1.802.121 2.492.364.71.243 1.288.569 1.736.98a3.7 3.7 0 0 1 .98 1.428 4.15 4.15 0 0 1 .336 1.652v6.776l.028 1.288.084 1.12h-2.24l-.084-2.016h-.056c-.56.859-1.222 1.465-1.988 1.82s-1.652.532-2.66.532c-.616 0-1.204-.084-1.764-.252s-1.054-.42-1.484-.756a3.74 3.74 0 0 1-.98-1.232c-.242-.504-.364-1.083-.364-1.736 0-.859.187-1.577.56-2.156.392-.579.915-1.045 1.568-1.4.672-.373 1.447-.635 2.324-.784.896-.168 1.848-.252 2.856-.252h1.848v-.56c0-.336-.065-.672-.196-1.008s-.326-.635-.588-.896a2.56 2.56 0 0 0-.98-.644c-.392-.168-.858-.252-1.4-.252-.485 0-.914.047-1.288.14-.354.093-.681.215-.98.364-.298.131-.569.289-.812.476l-.7.532-1.512-1.568zm7.112 5.264c-.597 0-1.213.037-1.848.112-.616.056-1.185.177-1.708.364-.504.187-.924.448-1.26.784-.317.336-.476.765-.476 1.288 0 .765.252 1.316.756 1.652.523.336 1.223.504 2.1.504.691 0 1.279-.112 1.764-.336.486-.243.878-.551 1.176-.924s.514-.784.644-1.232c.131-.467.196-.924.196-1.372v-.84h-1.344zm14.408-3.556c-.299-.373-.672-.681-1.12-.924-.429-.261-.961-.392-1.596-.392-.597 0-1.12.131-1.568.392-.429.243-.644.607-.644 1.092 0 .392.121.709.364.952a3.22 3.22 0 0 0 .896.588c.355.149.728.261 1.12.336l1.008.196a11.08 11.08 0 0 1 1.512.476 3.99 3.99 0 0 1 1.232.728c.355.299.625.663.812 1.092.205.429.308.952.308 1.568 0 .747-.159 1.391-.476 1.932-.317.523-.728.952-1.232 1.288s-1.083.579-1.736.728a8.43 8.43 0 0 1-1.932.224c-1.101 0-2.072-.168-2.912-.504-.821-.336-1.559-.952-2.212-1.848l1.904-1.568a7.82 7.82 0 0 0 1.372 1.092c.504.317 1.12.476 1.848.476a5.47 5.47 0 0 0 .952-.084c.336-.075.625-.177.868-.308.261-.149.467-.327.616-.532a1.23 1.23 0 0 0 .252-.756c0-.373-.121-.681-.364-.924-.224-.243-.504-.429-.84-.56-.317-.149-.663-.261-1.036-.336l-.952-.224-1.54-.448a4.68 4.68 0 0 1-1.288-.672 3.11 3.11 0 0 1-.896-1.064c-.224-.429-.336-.961-.336-1.596 0-.691.14-1.288.42-1.792.299-.523.681-.952 1.148-1.288.485-.336 1.027-.588 1.624-.756.616-.168 1.232-.252 1.848-.252.896 0 1.755.168 2.576.504s1.475.896 1.96 1.68l-1.96 1.484zm12.497-1.148h-3.612v6.02l.028 1.12c.019.355.084.681.196.98.131.28.318.513.56.7.262.168.635.252 1.12.252a5.31 5.31 0 0 0 .924-.084 2.67 2.67 0 0 0 .868-.308v2.296c-.298.168-.69.28-1.176.336-.466.075-.83.112-1.092.112-.97 0-1.726-.131-2.268-.392-.522-.28-.914-.635-1.176-1.064a3.67 3.67 0 0 1-.448-1.428l-.056-1.624v-6.916h-2.912v-2.184h2.912v-3.724h2.52v3.724h3.612v2.184zm11.101-.56c.709-.653 1.53-1.139 2.464-1.456.933-.336 1.866-.504 2.8-.504.97 0 1.801.121 2.492.364.709.243 1.288.569 1.736.98s.774.887.98 1.428a4.15 4.15 0 0 1 .336 1.652v6.776l.028 1.288.084 1.12h-2.24l-.084-2.016h-.056c-.56.859-1.223 1.465-1.988 1.82s-1.652.532-2.66.532c-.616 0-1.204-.084-1.764-.252s-1.055-.42-1.484-.756c-.411-.336-.738-.747-.98-1.232-.243-.504-.364-1.083-.364-1.736 0-.859.186-1.577.56-2.156.392-.579.914-1.045 1.568-1.4.672-.373 1.446-.635 2.324-.784.896-.168 1.848-.252 2.856-.252h1.848v-.56c0-.336-.066-.672-.196-1.008s-.327-.635-.588-.896c-.262-.28-.588-.495-.98-.644-.392-.168-.859-.252-1.4-.252-.486 0-.915.047-1.288.14-.355.093-.682.215-.98.364a3.84 3.84 0 0 0-.812.476l-.7.532-1.512-1.568zm7.112 5.264a15.73 15.73 0 0 0-1.848.112c-.616.056-1.186.177-1.708.364-.504.187-.924.448-1.26.784-.318.336-.476.765-.476 1.288 0 .765.252 1.316.756 1.652.522.336 1.222.504 2.1.504.69 0 1.278-.112 1.764-.336.485-.243.877-.551 1.176-.924a3.56 3.56 0 0 0 .644-1.232c.13-.467.196-.924.196-1.372v-.84h-1.344zm7.351-6.888h2.52v2.044h.056c.317-.709.868-1.279 1.652-1.708.784-.448 1.689-.672 2.716-.672a5.41 5.41 0 0 1 1.82.308c.597.187 1.111.485 1.54.896.448.411.803.943 1.064 1.596.261.635.392 1.391.392 2.268V214h-2.52v-7.84c0-.616-.084-1.139-.252-1.568-.168-.448-.392-.803-.672-1.064-.28-.28-.607-.476-.98-.588-.355-.131-.728-.196-1.12-.196-.523 0-1.008.084-1.456.252s-.84.439-1.176.812c-.336.355-.597.812-.784 1.372s-.28 1.223-.28 1.988V214h-2.52v-13.272zM361.548 214h-2.52v-1.904h-.056c-.486.709-1.158 1.26-2.016 1.652-.84.392-1.708.588-2.604.588-1.027 0-1.96-.177-2.8-.532-.822-.355-1.531-.849-2.128-1.484a6.82 6.82 0 0 1-1.344-2.212c-.318-.84-.476-1.755-.476-2.744s.158-1.904.476-2.744c.317-.859.765-1.596 1.344-2.212.597-.635 1.306-1.129 2.128-1.484.84-.355 1.773-.532 2.8-.532.952 0 1.848.205 2.688.616.84.392 1.484.933 1.932 1.624h.056v-9.8h2.52V214zm-6.888-2.016c.672 0 1.278-.112 1.82-.336a4.31 4.31 0 0 0 1.372-.952c.373-.411.662-.896.868-1.456a5.58 5.58 0 0 0 .308-1.876 5.34 5.34 0 0 0-.308-1.848c-.206-.579-.495-1.064-.868-1.456a3.78 3.78 0 0 0-1.372-.952c-.542-.243-1.148-.364-1.82-.364s-1.279.121-1.82.364c-.542.224-.999.541-1.372.952-.374.392-.663.877-.868 1.456-.206.56-.308 1.176-.308 1.848s.102 1.297.308 1.876c.205.56.494 1.045.868 1.456.373.392.83.709 1.372.952.541.224 1.148.336 1.82.336zm18.498-19.152h2.52v9.94h.056c.317-.709.868-1.279 1.652-1.708.784-.448 1.689-.672 2.716-.672a5.41 5.41 0 0 1 1.82.308c.597.187 1.111.485 1.54.896.448.411.803.943 1.064 1.596.261.635.392 1.391.392 2.268V214h-2.52v-7.84c0-.616-.084-1.139-.252-1.568-.168-.448-.392-.803-.672-1.064-.28-.28-.607-.476-.98-.588-.355-.131-.728-.196-1.12-.196-.523 0-1.008.084-1.456.252s-.84.439-1.176.812c-.336.355-.597.812-.784 1.372s-.28 1.223-.28 1.988V214h-2.52v-21.168zm17.463 15.456c0 .579.121 1.111.364 1.596.261.467.597.868 1.008 1.204a4.59 4.59 0 0 0 1.428.784c.541.187 1.101.28 1.68.28.784 0 1.465-.177 2.044-.532.578-.373 1.11-.859 1.596-1.456l1.904 1.456c-1.4 1.811-3.36 2.716-5.88 2.716-1.046 0-1.998-.177-2.856-.532-.84-.355-1.559-.84-2.156-1.456a6.82 6.82 0 0 1-1.344-2.212c-.318-.859-.476-1.783-.476-2.772s.168-1.904.504-2.744c.354-.859.83-1.596 1.428-2.212.616-.635 1.344-1.129 2.184-1.484s1.754-.532 2.744-.532c1.176 0 2.165.205 2.968.616.821.411 1.493.952 2.016 1.624.522.653.896 1.4 1.12 2.24a8.87 8.87 0 0 1 .364 2.52v.896h-10.64zm7.952-2.016c-.019-.56-.112-1.073-.28-1.54-.15-.467-.383-.868-.7-1.204-.318-.355-.719-.625-1.204-.812-.467-.205-1.018-.308-1.652-.308-.616 0-1.186.121-1.708.364-.504.224-.934.523-1.288.896s-.635.793-.84 1.26c-.187.448-.28.896-.28 1.344h7.952zm5.898-13.44h2.52V214h-2.52v-21.168zm6.531 7.896h2.52v1.904h.056c.485-.709 1.148-1.26 1.988-1.652.858-.392 1.736-.588 2.632-.588 1.026 0 1.95.177 2.772.532a5.99 5.99 0 0 1 2.128 1.484c.597.635 1.054 1.381 1.372 2.24.317.84.476 1.745.476 2.716 0 .989-.159 1.913-.476 2.772-.318.84-.775 1.577-1.372 2.212-.579.616-1.288 1.101-2.128 1.456-.822.355-1.746.532-2.772.532-.952 0-1.848-.196-2.688-.588-.84-.411-1.484-.961-1.932-1.652h-.056v9.8h-2.52v-21.168zm6.888 2.016c-.672 0-1.279.121-1.82.364-.542.224-.999.541-1.372.952-.374.392-.663.877-.868 1.456-.206.56-.308 1.176-.308 1.848s.102 1.297.308 1.876c.205.56.494 1.045.868 1.456.373.392.83.709 1.372.952.541.224 1.148.336 1.82.336s1.278-.112 1.82-.336a4.31 4.31 0 0 0 1.372-.952c.373-.411.662-.896.868-1.456a5.58 5.58 0 0 0 .308-1.876 5.34 5.34 0 0 0-.308-1.848c-.206-.579-.495-1.064-.868-1.456a3.78 3.78 0 0 0-1.372-.952c-.542-.243-1.148-.364-1.82-.364zm11.209.168h-2.856v-2.184h2.856v-2.968c0-1.773.336-3.089 1.008-3.948.691-.877 1.867-1.316 3.528-1.316l.868.028a5.22 5.22 0 0 1 1.008.168l-.28 2.24c-.243-.093-.476-.159-.7-.196s-.467-.056-.728-.056c-.467 0-.84.075-1.12.224a1.58 1.58 0 0 0-.672.588c-.149.261-.252.579-.308.952a12.01 12.01 0 0 0-.056 1.232v3.052h2.996v2.184h-3.024V214h-2.52v-11.088zM449.203 214h-2.52v-2.044h-.056c-.317.709-.868 1.288-1.652 1.736-.784.429-1.689.644-2.716.644-.653 0-1.269-.103-1.848-.308-.579-.187-1.092-.485-1.54-.896-.429-.411-.775-.933-1.036-1.568-.261-.653-.392-1.419-.392-2.296v-8.54h2.52v7.84c0 .616.084 1.148.252 1.596.168.429.392.784.672 1.064a2.81 2.81 0 0 0 .952.588 3.97 3.97 0 0 0 1.148.168c.523 0 1.008-.084 1.456-.252a3.1 3.1 0 0 0 1.176-.784c.336-.373.597-.84.784-1.4s.28-1.223.28-1.988v-6.832h2.52V214zm3.995-21.168h2.52V214h-2.52v-21.168zm14.323 7.896h2.352v2.072h.056c.056-.187.196-.42.42-.7.243-.28.542-.541.896-.784.374-.261.803-.476 1.288-.644.504-.187 1.055-.28 1.652-.28.99 0 1.82.205 2.492.616s1.223 1.027 1.652 1.848c.43-.821 1.036-1.437 1.82-1.848s1.578-.616 2.38-.616c1.027 0 1.867.168 2.52.504s1.167.784 1.54 1.344c.374.541.626 1.167.756 1.876.15.691.224 1.409.224 2.156V214h-2.52v-7.392a9.17 9.17 0 0 0-.112-1.456c-.056-.467-.186-.877-.392-1.232a2.2 2.2 0 0 0-.868-.84c-.373-.224-.868-.336-1.484-.336-1.213 0-2.081.373-2.604 1.12s-.784 1.708-.784 2.884V214h-2.52v-6.944c0-.635-.037-1.213-.112-1.736-.056-.523-.186-.971-.392-1.344-.186-.392-.466-.691-.84-.896-.354-.224-.84-.336-1.456-.336-.448 0-.886.093-1.316.28-.41.168-.774.429-1.092.784s-.569.812-.756 1.372c-.186.541-.28 1.185-.28 1.932V214h-2.52v-13.272zm25.888 6.636a5.58 5.58 0 0 0 .308 1.876c.205.56.495 1.045.868 1.456.373.392.831.709 1.372.952.541.224 1.148.336 1.82.336s1.279-.112 1.82-.336c.541-.243.999-.56 1.372-.952.373-.411.663-.896.868-1.456a5.58 5.58 0 0 0 .308-1.876 5.34 5.34 0 0 0-.308-1.848 4.03 4.03 0 0 0-.868-1.456c-.373-.411-.831-.728-1.372-.952-.541-.243-1.148-.364-1.82-.364s-1.279.121-1.82.364c-.541.224-.999.541-1.372.952a4.03 4.03 0 0 0-.868 1.456 5.34 5.34 0 0 0-.308 1.848zm-2.688 0c0-.971.177-1.876.532-2.716a7.27 7.27 0 0 1 1.512-2.212c.635-.635 1.381-1.129 2.24-1.484.859-.373 1.783-.56 2.772-.56s1.913.187 2.772.56c.859.355 1.605.849 2.24 1.484s1.129 1.372 1.484 2.212c.373.84.56 1.745.56 2.716s-.187 1.885-.56 2.744c-.355.84-.849 1.577-1.484 2.212-.635.616-1.381 1.111-2.24 1.484-.859.355-1.783.532-2.772.532s-1.913-.177-2.772-.532c-.859-.373-1.605-.868-2.24-1.484a7.27 7.27 0 0 1-1.512-2.212 7.11 7.11 0 0 1-.532-2.744zm17.269-14.532h2.52v9.8h.056c.448-.691 1.092-1.232 1.932-1.624.84-.411 1.736-.616 2.688-.616 1.027 0 1.951.177 2.772.532a5.99 5.99 0 0 1 2.128 1.484c.597.616 1.055 1.353 1.372 2.212.317.84.476 1.755.476 2.744s-.159 1.904-.476 2.744a6.59 6.59 0 0 1-1.372 2.212 5.99 5.99 0 0 1-2.128 1.484c-.821.355-1.745.532-2.772.532-.896 0-1.773-.196-2.632-.588-.84-.392-1.503-.943-1.988-1.652h-.056V214h-2.52v-21.168zm6.888 19.152c.672 0 1.279-.112 1.82-.336.541-.243.999-.56 1.372-.952.373-.411.663-.896.868-1.456a5.58 5.58 0 0 0 .308-1.876 5.34 5.34 0 0 0-.308-1.848 4.03 4.03 0 0 0-.868-1.456c-.373-.411-.831-.728-1.372-.952-.541-.243-1.148-.364-1.82-.364s-1.279.121-1.82.364c-.541.224-.999.541-1.372.952a4.03 4.03 0 0 0-.868 1.456 5.34 5.34 0 0 0-.308 1.848 5.58 5.58 0 0 0 .308 1.876c.205.56.495 1.045.868 1.456.373.392.831.709 1.372.952.541.224 1.148.336 1.82.336zm10.425-11.256h2.52V214h-2.52v-13.272zm-.588-4.76c0-.504.177-.933.532-1.288a1.8 1.8 0 0 1 1.316-.56 1.71 1.71 0 0 1 1.848 1.848 1.8 1.8 0 0 1-.56 1.316c-.355.355-.784.532-1.288.532s-.943-.177-1.316-.532c-.355-.373-.532-.812-.532-1.316zm7.315-3.136h2.52V214h-2.52v-21.168zm8.434 15.456c0 .579.122 1.111.364 1.596.262.467.598.868 1.008 1.204s.887.597 1.428.784 1.102.28 1.68.28c.784 0 1.466-.177 2.044-.532.579-.373 1.111-.859 1.596-1.456l1.904 1.456c-1.4 1.811-3.36 2.716-5.88 2.716-1.045 0-1.997-.177-2.856-.532-.84-.355-1.558-.84-2.156-1.456-.578-.635-1.026-1.372-1.344-2.212-.317-.859-.476-1.783-.476-2.772s.168-1.904.504-2.744c.355-.859.831-1.596 1.428-2.212.616-.635 1.344-1.129 2.184-1.484s1.755-.532 2.744-.532c1.176 0 2.166.205 2.968.616.822.411 1.494.952 2.016 1.624a6.02 6.02 0 0 1 1.12 2.24c.243.821.364 1.661.364 2.52v.896h-10.64zm7.952-2.016a5 5 0 0 0-.28-1.54 3.09 3.09 0 0 0-.7-1.204c-.317-.355-.718-.625-1.204-.812-.466-.205-1.017-.308-1.652-.308-.616 0-1.185.121-1.708.364-.504.224-.933.523-1.288.896s-.634.793-.84 1.26c-.186.448-.28.896-.28 1.344h7.952zM75.96 236.352c.709-.653 1.531-1.139 2.464-1.456.933-.336 1.867-.504 2.8-.504.971 0 1.801.121 2.492.364.709.243 1.288.569 1.736.98s.775.887.98 1.428a4.15 4.15 0 0 1 .336 1.652v6.776l.028 1.288.084 1.12h-2.24l-.084-2.016H84.5c-.56.859-1.223 1.465-1.988 1.82s-1.652.532-2.66.532c-.616 0-1.204-.084-1.764-.252a4.46 4.46 0 0 1-1.484-.756c-.411-.336-.737-.747-.98-1.232-.243-.504-.364-1.083-.364-1.736 0-.859.187-1.577.56-2.156a4.38 4.38 0 0 1 1.568-1.4c.672-.373 1.447-.635 2.324-.784.896-.168 1.848-.252 2.856-.252h1.848v-.56c0-.336-.065-.672-.196-1.008s-.327-.635-.588-.896a2.56 2.56 0 0 0-.98-.644c-.392-.168-.859-.252-1.4-.252-.485 0-.915.047-1.288.14a5.07 5.07 0 0 0-.98.364c-.299.131-.569.289-.812.476l-.7.532-1.512-1.568zm7.112 5.264c-.597 0-1.213.037-1.848.112-.616.056-1.185.177-1.708.364-.504.187-.924.448-1.26.784-.317.336-.476.765-.476 1.288 0 .765.252 1.316.756 1.652.523.336 1.223.504 2.1.504.691 0 1.279-.112 1.764-.336.485-.243.877-.551 1.176-.924s.513-.784.644-1.232c.131-.467.196-.924.196-1.372v-.84h-1.344zm7.352-6.888h2.52v1.904H93c.485-.709 1.148-1.26 1.988-1.652.859-.392 1.736-.588 2.632-.588 1.027 0 1.951.177 2.772.532a5.99 5.99 0 0 1 2.128 1.484c.597.635 1.054 1.381 1.372 2.24.317.84.476 1.745.476 2.716 0 .989-.159 1.913-.476 2.772-.318.84-.775 1.577-1.372 2.212-.579.616-1.288 1.101-2.128 1.456-.822.355-1.746.532-2.772.532-.952 0-1.848-.196-2.688-.588-.84-.411-1.484-.961-1.932-1.652h-.056v9.8h-2.52v-21.168zm6.888 2.016c-.672 0-1.279.121-1.82.364-.541.224-.999.541-1.372.952-.373.392-.663.877-.868 1.456-.205.56-.308 1.176-.308 1.848s.103 1.297.308 1.876c.205.56.495 1.045.868 1.456a4.3 4.3 0 0 0 1.372.952c.541.224 1.148.336 1.82.336s1.279-.112 1.82-.336c.541-.243.998-.56 1.373-.952.373-.411.662-.896.868-1.456a5.58 5.58 0 0 0 .308-1.876 5.34 5.34 0 0 0-.308-1.848c-.206-.579-.495-1.064-.868-1.456a3.78 3.78 0 0 0-1.373-.952c-.541-.243-1.148-.364-1.82-.364zm10.23-2.016h2.52v1.904h.056c.485-.709 1.148-1.26 1.988-1.652.858-.392 1.736-.588 2.632-.588 1.026 0 1.95.177 2.772.532a5.99 5.99 0 0 1 2.128 1.484c.597.635 1.054 1.381 1.372 2.24.317.84.476 1.745.476 2.716 0 .989-.159 1.913-.476 2.772-.318.84-.775 1.577-1.372 2.212-.579.616-1.288 1.101-2.128 1.456-.822.355-1.746.532-2.772.532-.952 0-1.848-.196-2.688-.588-.84-.411-1.484-.961-1.932-1.652h-.056v9.8h-2.52v-21.168zm6.888 2.016c-.672 0-1.279.121-1.82.364-.542.224-.999.541-1.372.952-.374.392-.663.877-.868 1.456-.206.56-.308 1.176-.308 1.848s.102 1.297.308 1.876c.205.56.494 1.045.868 1.456.373.392.83.709 1.372.952.541.224 1.148.336 1.82.336s1.278-.112 1.82-.336a4.31 4.31 0 0 0 1.372-.952c.373-.411.662-.896.868-1.456a5.58 5.58 0 0 0 .308-1.876 5.34 5.34 0 0 0-.308-1.848c-.206-.579-.495-1.064-.868-1.456a3.78 3.78 0 0 0-1.372-.952c-.542-.243-1.148-.364-1.82-.364zm16.426-2.016h2.828l2.996 9.912h.056l3.164-9.912h2.66l3.36 9.912h.056l2.856-9.912h2.66L147.207 248h-2.548l-3.5-9.912h-.056L137.939 248h-2.716l-4.368-13.272zm23.038 0h2.52V248h-2.52v-13.272zm-.588-4.76c0-.504.177-.933.532-1.288a1.8 1.8 0 0 1 1.316-.56 1.71 1.71 0 0 1 1.848 1.848 1.8 1.8 0 0 1-.56 1.316c-.355.355-.784.532-1.288.532s-.943-.177-1.316-.532c-.355-.373-.532-.812-.532-1.316zm14.231 6.944h-3.612v6.02l.028 1.12c.018.355.084.681.196.98a1.86 1.86 0 0 0 .56.7c.261.168.634.252 1.12.252.298 0 .606-.028.924-.084s.606-.159.868-.308v2.296c-.299.168-.691.28-1.176.336-.467.075-.831.112-1.092.112-.971 0-1.727-.131-2.268-.392-.523-.28-.915-.635-1.176-1.064-.243-.429-.392-.905-.448-1.428l-.056-1.624v-6.916h-2.912v-2.184h2.912v-3.724h2.52v3.724h3.612v2.184zm3.251-10.08h2.52v9.94h.056c.317-.709.868-1.279 1.652-1.708.784-.448 1.689-.672 2.716-.672.634 0 1.241.103 1.82.308.597.187 1.11.485 1.54.896.448.411.802.943 1.064 1.596.261.635.392 1.391.392 2.268V248h-2.52v-7.84c0-.616-.084-1.139-.252-1.568-.168-.448-.392-.803-.672-1.064-.28-.28-.607-.476-.98-.588-.355-.131-.728-.196-1.12-.196-.523 0-1.008.084-1.456.252s-.84.439-1.176.812c-.336.355-.598.812-.784 1.372s-.28 1.223-.28 1.988V248h-2.52v-21.168zm23.351 7.896h2.352v2.072h.056c.056-.187.196-.42.42-.7.243-.28.542-.541.896-.784.374-.261.803-.476 1.288-.644.504-.187 1.055-.28 1.652-.28.99 0 1.82.205 2.492.616s1.223 1.027 1.652 1.848c.43-.821 1.036-1.437 1.82-1.848s1.578-.616 2.38-.616c1.027 0 1.867.168 2.52.504s1.167.784 1.54 1.344c.374.541.626 1.167.756 1.876.15.691.224 1.409.224 2.156V248h-2.52v-7.392a9.17 9.17 0 0 0-.112-1.456c-.056-.467-.186-.877-.392-1.232a2.2 2.2 0 0 0-.868-.84c-.373-.224-.868-.336-1.484-.336-1.213 0-2.081.373-2.604 1.12s-.784 1.708-.784 2.884V248h-2.52v-6.944c0-.635-.037-1.213-.112-1.736-.056-.523-.186-.971-.392-1.344-.186-.392-.466-.691-.84-.896-.354-.224-.84-.336-1.456-.336-.448 0-.886.093-1.316.28-.41.168-.774.429-1.092.784s-.569.812-.756 1.372c-.186.541-.28 1.185-.28 1.932V248h-2.52v-13.272zm25.748 7.56c0 .579.121 1.111.364 1.596.261.467.597.868 1.008 1.204s.887.597 1.428.784 1.101.28 1.68.28c.784 0 1.465-.177 2.044-.532.579-.373 1.111-.859 1.596-1.456l1.904 1.456c-1.4 1.811-3.36 2.716-5.88 2.716-1.045 0-1.997-.177-2.856-.532-.84-.355-1.559-.84-2.156-1.456a6.82 6.82 0 0 1-1.344-2.212c-.317-.859-.476-1.783-.476-2.772s.168-1.904.504-2.744c.355-.859.831-1.596 1.428-2.212.616-.635 1.344-1.129 2.184-1.484s1.755-.532 2.744-.532c1.176 0 2.165.205 2.968.616.821.411 1.493.952 2.016 1.624a6.02 6.02 0 0 1 1.12 2.24c.243.821.364 1.661.364 2.52v.896h-10.64zm7.952-2.016c-.019-.56-.112-1.073-.28-1.54a3.1 3.1 0 0 0-.7-1.204c-.317-.355-.719-.625-1.204-.812-.467-.205-1.017-.308-1.652-.308-.616 0-1.185.121-1.708.364-.504.224-.933.523-1.288.896s-.635.793-.84 1.26c-.187.448-.28.896-.28 1.344h7.952z"/></g><path d="M87 319c0-16.016 12.984-29 29-29h124c16.016 0 29 12.984 29 29v248H87V319zm208 0c0-16.016 12.984-29 29-29h124c16.016 0 29 12.984 29 29v248H295V319zm208 0c0-16.016 12.984-29 29-29h57v248c0 16.016-12.984 29-29 29h-57V319z" fill="#37f9bd"/><g fill="#fff"><rect x="108" y="339" width="140" height="69" rx="13"/><rect x="108" y="466" width="64" height="88" rx="13"/><rect x="178" y="466" width="64" height="88" rx="13"/><path d="M248 479c0-7.18 5.82-13 13-13h8v88h-8c-7.18 0-13-5.82-13-13v-62z"/><circle cx="122" cy="319" r="10"/></g><g stroke-width="7" stroke-linecap="round"><path d="M138.5 319H164" stroke="url(#A)"/><path d="M119 427H243" stroke="url(#B)"/><path d="M119 440H243" stroke="url(#C)"/><path d="M119 453H243" stroke="url(#D)"/></g><g fill="#fff"><rect x="316" y="339" width="140" height="69" rx="13"/><circle cx="330" cy="319" r="10"/></g><g stroke-width="7" stroke-linecap="round"><path d="M346.5 319H372" stroke="url(#E)"/><path d="M320 522H451" stroke="url(#F)"/><path d="M320 535H451" stroke="url(#G)"/><path d="M320 548H451" stroke="url(#H)"/></g><g fill="#fff"><rect x="316" y="418" width="64" height="88" rx="13"/><rect x="386" y="418" width="64" height="88" rx="13"/><path d="M456 431c0-7.18 5.82-13 13-13h8v88h-8c-7.18 0-13-5.82-13-13v-62zm63-79c0-7.18 5.82-13 13-13h57v122h-57c-7.18 0-13-5.82-13-13v-96z"/><circle cx="533" cy="319" r="10"/><circle cx="548.5" cy="502.5" r="25.5"/></g><g stroke-width="7" stroke-linecap="round"><path d="M549.5 319H575" stroke="url(#I)"/><path d="M523 548H569.5" stroke="url(#J)"/></g><defs><linearGradient id="A" x1="138.011" y1="319" x2="164.031" y2="319" xlink:href="#K"><stop stop-color="#fff"/><stop offset="1" stop-color="#fff" stop-opacity="0"/></linearGradient><linearGradient id="B" x1="116.624" y1="427" x2="243.149" y2="427" xlink:href="#K"><stop stop-color="#fff"/><stop offset="1" stop-color="#fff" stop-opacity="0"/></linearGradient><linearGradient id="C" x1="116.624" y1="440" x2="243.149" y2="440" xlink:href="#K"><stop stop-color="#fff"/><stop offset="1" stop-color="#fff" stop-opacity="0"/></linearGradient><linearGradient id="D" x1="116.624" y1="453" x2="243.149" y2="453" xlink:href="#K"><stop stop-color="#fff"/><stop offset="1" stop-color="#fff" stop-opacity="0"/></linearGradient><linearGradient id="E" x1="346.011" y1="319" x2="372.031" y2="319" xlink:href="#K"><stop stop-color="#fff"/><stop offset="1" stop-color="#fff" stop-opacity="0"/></linearGradient><linearGradient id="F" x1="317.49" y1="522" x2="451.157" y2="522" xlink:href="#K"><stop stop-color="#fff"/><stop offset="1" stop-color="#fff" stop-opacity="0"/></linearGradient><linearGradient id="G" x1="317.49" y1="535" x2="451.157" y2="535" xlink:href="#K"><stop stop-color="#fff"/><stop offset="1" stop-color="#fff" stop-opacity="0"/></linearGradient><linearGradient id="H" x1="317.49" y1="548" x2="451.157" y2="548" xlink:href="#K"><stop stop-color="#fff"/><stop offset="1" stop-color="#fff" stop-opacity="0"/></linearGradient><linearGradient id="I" x1="549.011" y1="319" x2="575.031" y2="319" xlink:href="#K"><stop stop-color="#fff"/><stop offset="1" stop-color="#fff" stop-opacity="0"/></linearGradient><linearGradient id="J" x1="520.49" y1="548" x2="654.157" y2="548" xlink:href="#K"><stop stop-color="#fff"/><stop offset=".379" stop-color="#fff" stop-opacity="0"/></linearGradient><linearGradient id="K" gradientUnits="userSpaceOnUse"/></defs></svg>