<svg xmlns="http://www.w3.org/2000/svg" width="876" height="567" fill="none" xmlns:v="https://vecta.io/nano"><rect width="876" height="567" rx="69" fill="#37f9bd"/><g fill="#151b4a"><path d="M80.16 138.68h5.04v23.76h12.04V167H80.16v-28.32zm24.142 20.4c.16 1.44.72 2.56 1.68 3.36s2.12 1.2 3.48 1.2c1.2 0 2.2-.24 3-.72a8.56 8.56 0 0 0 2.16-1.88l3.44 2.6c-1.12 1.387-2.373 2.373-3.76 2.96a11.07 11.07 0 0 1-4.36.88c-1.44 0-2.8-.24-4.08-.72s-2.386-1.16-3.32-2.04-1.68-1.933-2.24-3.16c-.533-1.253-.8-2.64-.8-4.16s.267-2.893.8-4.12c.56-1.253 1.307-2.32 2.24-3.2s2.04-1.56 3.32-2.04 2.64-.72 4.08-.72c1.334 0 2.547.24 3.64.72a7.43 7.43 0 0 1 2.84 2c.8.88 1.414 1.973 1.84 3.28.454 1.28.68 2.76.68 4.44v1.32h-14.64zm9.84-3.6c-.026-1.413-.466-2.52-1.32-3.32-.853-.827-2.04-1.24-3.56-1.24-1.44 0-2.586.413-3.44 1.24-.826.827-1.333 1.933-1.52 3.32h9.84zm7.049-3.6v-4.08h3.96v-5.56h4.8v5.56h5.28v4.08h-5.28v8.4c0 .96.173 1.72.52 2.28.373.56 1.093.84 2.16.84.427 0 .893-.04 1.4-.12.507-.107.907-.267 1.2-.48v4.04c-.507.24-1.133.4-1.88.48-.72.107-1.36.16-1.92.16-1.28 0-2.333-.147-3.16-.44-.8-.267-1.44-.68-1.92-1.24-.453-.587-.773-1.307-.96-2.16-.16-.853-.24-1.84-.24-2.96v-8.8h-3.96zm28.663 5.52c0-1.52.266-2.893.8-4.12.56-1.253 1.306-2.32 2.24-3.2s2.04-1.56 3.32-2.04 2.64-.72 4.08-.72 2.8.24 4.08.72 2.386 1.16 3.32 2.04 1.666 1.947 2.2 3.2c.56 1.227.84 2.6.84 4.12s-.28 2.907-.84 4.16c-.534 1.227-1.267 2.28-2.2 3.16s-2.04 1.56-3.32 2.04-2.64.72-4.08.72-2.8-.24-4.08-.72-2.387-1.16-3.32-2.04a9.98 9.98 0 0 1-2.24-3.16c-.534-1.253-.8-2.64-.8-4.16zm4.8 0c0 .747.12 1.467.36 2.16.266.693.64 1.307 1.12 1.84.506.533 1.106.96 1.8 1.28s1.48.48 2.36.48 1.666-.16 2.36-.48a5.36 5.36 0 0 0 1.76-1.28 5.04 5.04 0 0 0 1.12-1.84 5.98 5.98 0 0 0 0-4.32 5.04 5.04 0 0 0-1.12-1.84 5.36 5.36 0 0 0-1.76-1.28c-.694-.32-1.48-.48-2.36-.48s-1.667.16-2.36.48-1.294.747-1.8 1.28c-.48.533-.854 1.147-1.12 1.84-.24.693-.36 1.413-.36 2.16zm17.974-9.6h5.24l5.12 13.44h.08l5.16-13.44h4.92l-7.56 19.2h-5.12l-7.84-19.2zm27.182 11.28c.16 1.44.72 2.56 1.68 3.36s2.12 1.2 3.48 1.2c1.2 0 2.2-.24 3-.72a8.56 8.56 0 0 0 2.16-1.88l3.44 2.6c-1.12 1.387-2.373 2.373-3.76 2.96s-2.84.88-4.36.88c-1.44 0-2.8-.24-4.08-.72s-2.387-1.16-3.32-2.04-1.68-1.933-2.24-3.16c-.533-1.253-.8-2.64-.8-4.16s.267-2.893.8-4.12c.56-1.253 1.307-2.32 2.24-3.2s2.04-1.56 3.32-2.04 2.64-.72 4.08-.72c1.333 0 2.547.24 3.64.72a7.43 7.43 0 0 1 2.84 2c.8.88 1.413 1.973 1.84 3.28.453 1.28.68 2.76.68 4.44v1.32h-14.64zm9.84-3.6c-.027-1.413-.467-2.52-1.32-3.32-.853-.827-2.04-1.24-3.56-1.24-1.44 0-2.587.413-3.44 1.24-.827.827-1.333 1.933-1.52 3.32h9.84zm9.289-7.68h4.8v3.04h.08c.533-1.12 1.293-1.987 2.28-2.6s2.12-.92 3.4-.92c.293 0 .573.027.84.08l.88.2v4.64c-.4-.107-.8-.187-1.2-.24a5.34 5.34 0 0 0-1.12-.12c-1.12 0-2.027.213-2.72.64-.667.4-1.187.867-1.56 1.4-.347.533-.587 1.067-.72 1.6-.107.533-.16.933-.16 1.2V167h-4.8v-19.2zm26.023 14.76l10.28-10.84v-.08h-9.8v-3.84h15.6v4.36l-10.4 11h10.88V167h-16.56v-4.44zm32.656 1.8h-.12c-.693 1.093-1.573 1.893-2.64 2.4-1.066.48-2.24.72-3.52.72-.88 0-1.746-.12-2.6-.36a7.28 7.28 0 0 1-2.24-1.08 5.65 5.65 0 0 1-1.56-1.8c-.4-.72-.6-1.56-.6-2.52 0-1.04.187-1.92.56-2.64.374-.747.867-1.36 1.48-1.84.64-.507 1.374-.907 2.2-1.2a13.84 13.84 0 0 1 2.56-.64c.907-.16 1.814-.253 2.72-.28l2.56-.08h1.2v-.52c0-1.2-.413-2.093-1.24-2.68-.826-.613-1.88-.92-3.16-.92-1.013 0-1.96.187-2.84.56a6.93 6.93 0 0 0-2.28 1.44l-2.52-2.52c1.067-1.093 2.307-1.88 3.72-2.36a13.95 13.95 0 0 1 4.44-.72c1.36 0 2.507.16 3.44.48.934.293 1.707.68 2.32 1.16s1.08 1.04 1.4 1.68c.347.613.587 1.24.72 1.88a9.39 9.39 0 0 1 .28 1.88l.04 1.56V167h-4.32v-2.64zm-.28-5.96h-1l-2.24.08a11.2 11.2 0 0 0-2.36.4c-.72.187-1.333.48-1.84.88-.506.373-.76.907-.76 1.6 0 .453.094.84.28 1.16a3.12 3.12 0 0 0 .8.76c.32.213.68.373 1.08.48.4.08.8.12 1.2.12 1.654 0 2.867-.387 3.64-1.16.8-.8 1.2-1.88 1.2-3.24v-1.08zm9.765-21.64h4.8v19l7.4-7.96h6.16l-8.24 8.72 8.76 10.48h-6.36l-7.64-9.8h-.08v9.8h-4.8v-30.24zm21.564 11.04h4.8V167h-4.8v-19.2zm-.68-6.52a2.73 2.73 0 0 1 .84-2c.587-.587 1.32-.88 2.2-.88s1.614.28 2.2.84c.614.533.92 1.213.92 2.04a2.7 2.7 0 0 1-.92 2.08c-.586.533-1.32.8-2.2.8s-1.613-.28-2.2-.84c-.56-.587-.84-1.267-.84-2.04zm23.147-2.6h5.04V167h-5.04v-28.32zm20.413 0h4.36l12.2 28.32h-5.76l-2.64-6.48h-12.28l-2.56 6.48h-5.64l12.32-28.32zm6.4 17.52l-4.36-11.52-4.44 11.52h8.8zm22.463-4.32v-4.08h3.96v-5.56h4.8v5.56h5.28v4.08h-5.28v8.4c0 .96.173 1.72.52 2.28.373.56 1.093.84 2.16.84.426 0 .893-.04 1.4-.12.506-.107.906-.267 1.2-.48v4.04c-.507.24-1.134.4-1.88.48-.72.107-1.36.16-1.92.16-1.28 0-2.334-.147-3.16-.44-.8-.267-1.44-.68-1.92-1.24-.454-.587-.774-1.307-.96-2.16-.16-.853-.24-1.84-.24-2.96v-8.8h-3.96zm22.626-1.4h.08c.373-.8 1.026-1.52 1.96-2.16.96-.667 2.186-1 3.68-1 1.28 0 2.36.213 3.24.64.906.427 1.64.987 2.2 1.68s.96 1.493 1.2 2.4.36 1.853.36 2.84V167h-4.8v-9.72l-.08-1.76c-.054-.667-.2-1.28-.44-1.84-.214-.587-.56-1.067-1.04-1.44-.48-.4-1.134-.6-1.96-.6-.8 0-1.48.133-2.04.4-.534.267-.987.627-1.36 1.08-.347.453-.6.973-.76 1.56s-.24 1.2-.24 1.84V167h-4.8v-30.24h4.8v13.72zm18.248-2.68h4.8V167h-4.8v-19.2zm-.68-6.52a2.73 2.73 0 0 1 .84-2c.587-.587 1.32-.88 2.2-.88s1.614.28 2.2.84c.614.533.92 1.213.92 2.04a2.7 2.7 0 0 1-.92 2.08c-.586.533-1.32.8-2.2.8s-1.613-.28-2.2-.84c-.56-.587-.84-1.267-.84-2.04zm10.991 6.52h4.56v3.08h.08c.453-.96 1.147-1.787 2.08-2.48.933-.72 2.2-1.08 3.8-1.08 1.28 0 2.36.213 3.24.64.907.427 1.64.987 2.2 1.68s.96 1.493 1.2 2.4.36 1.853.36 2.84V167h-4.8v-9.72l-.08-1.76c-.053-.667-.2-1.28-.44-1.84a3.14 3.14 0 0 0-1.04-1.44c-.48-.4-1.133-.6-1.96-.6-.8 0-1.48.133-2.04.4-.533.267-.987.627-1.36 1.08-.347.453-.6.973-.76 1.56s-.24 1.2-.24 1.84V167h-4.8v-19.2zm22.969-11.04h4.8v19l7.4-7.96h6.16l-8.24 8.72 8.76 10.48h-6.36l-7.64-9.8h-.08v9.8h-4.8v-30.24zm35.04 15.12h-3.96v-4.08h3.96v-2.72c0-1.333.093-2.533.28-3.6.187-1.093.533-2.027 1.04-2.8.533-.773 1.267-1.36 2.2-1.76.933-.427 2.147-.64 3.64-.64 1.093 0 2.107.093 3.04.28l-.32 4.08-1-.2a6.11 6.11 0 0 0-1-.08c-.667 0-1.2.107-1.6.32s-.72.507-.96.88c-.213.347-.36.76-.44 1.24-.053.48-.08.987-.08 1.52v3.48h4.44v4.08h-4.44V167h-4.8v-15.12zm11.383 5.52c0-1.52.266-2.893.8-4.12.56-1.253 1.306-2.32 2.24-3.2s2.04-1.56 3.32-2.04 2.64-.72 4.08-.72 2.8.24 4.08.72 2.386 1.16 3.32 2.04 1.666 1.947 2.2 3.2c.56 1.227.84 2.6.84 4.12s-.28 2.907-.84 4.16c-.534 1.227-1.267 2.28-2.2 3.16s-2.04 1.56-3.32 2.04-2.64.72-4.08.72-2.8-.24-4.08-.72-2.387-1.16-3.32-2.04a9.98 9.98 0 0 1-2.24-3.16c-.534-1.253-.8-2.64-.8-4.16zm4.8 0c0 .747.12 1.467.36 2.16.266.693.64 1.307 1.12 1.84.506.533 1.106.96 1.8 1.28s1.48.48 2.36.48 1.666-.16 2.36-.48a5.36 5.36 0 0 0 1.76-1.28 5.04 5.04 0 0 0 1.12-1.84 5.98 5.98 0 0 0 0-4.32 5.04 5.04 0 0 0-1.12-1.84 5.36 5.36 0 0 0-1.76-1.28c-.694-.32-1.48-.48-2.36-.48s-1.667.16-2.36.48-1.294.747-1.8 1.28c-.48.533-.854 1.147-1.12 1.84-.24.693-.36 1.413-.36 2.16zm20.574-9.6h4.8v3.04h.08c.533-1.12 1.293-1.987 2.28-2.6s2.12-.92 3.4-.92c.293 0 .573.027.84.08l.88.2v4.64c-.4-.107-.8-.187-1.2-.24a5.34 5.34 0 0 0-1.12-.12c-1.12 0-2.027.213-2.72.64-.667.4-1.187.867-1.56 1.4-.347.533-.587 1.067-.72 1.6-.107.533-.16.933-.16 1.2V167h-4.8v-19.2zm24.782 0h5.28l5.36 13.32h.08l4.8-13.32h5l-9.08 23.32c-.346.907-.733 1.693-1.16 2.36-.4.693-.88 1.267-1.44 1.72-.56.48-1.226.827-2 1.04-.746.24-1.653.36-2.72.36-1.253 0-2.48-.16-3.68-.48l.6-4.32a8.33 8.33 0 0 0 1.16.32 5.25 5.25 0 0 0 1.28.16c.587 0 1.08-.053 1.48-.16s.734-.28 1-.52c.294-.213.534-.507.72-.88a14.92 14.92 0 0 0 .6-1.28l.92-2.28-8.2-19.36zm22.383 9.6c0-1.52.266-2.893.8-4.12.56-1.253 1.306-2.32 2.24-3.2s2.04-1.56 3.32-2.04 2.64-.72 4.08-.72 2.8.24 4.08.72 2.386 1.16 3.32 2.04 1.666 1.947 2.2 3.2c.56 1.227.84 2.6.84 4.12s-.28 2.907-.84 4.16c-.534 1.227-1.267 2.28-2.2 3.16s-2.04 1.56-3.32 2.04-2.64.72-4.08.72-2.8-.24-4.08-.72-2.387-1.16-3.32-2.04a9.98 9.98 0 0 1-2.24-3.16c-.534-1.253-.8-2.64-.8-4.16zm4.8 0c0 .747.12 1.467.36 2.16.266.693.64 1.307 1.12 1.84.506.533 1.106.96 1.8 1.28s1.48.48 2.36.48 1.666-.16 2.36-.48a5.36 5.36 0 0 0 1.76-1.28 5.04 5.04 0 0 0 1.12-1.84 5.98 5.98 0 0 0 0-4.32 5.04 5.04 0 0 0-1.12-1.84 5.36 5.36 0 0 0-1.76-1.28c-.694-.32-1.48-.48-2.36-.48s-1.667.16-2.36.48-1.294.747-1.8 1.28c-.48.533-.854 1.147-1.12 1.84-.24.693-.36 1.413-.36 2.16zm38.094 9.6h-4.56v-3.08h-.08c-.454.96-1.147 1.8-2.08 2.52-.934.693-2.2 1.04-3.8 1.04-1.28 0-2.374-.2-3.28-.6-.88-.427-1.6-.987-2.16-1.68-.56-.72-.96-1.533-1.2-2.44s-.36-1.853-.36-2.84V147.8h4.8v9.72l.08 1.8a7.04 7.04 0 0 0 .4 1.84c.24.56.586 1.04 1.04 1.44.48.373 1.146.56 2 .56.8 0 1.466-.133 2-.4.56-.267 1.013-.627 1.36-1.08.373-.453.64-.973.8-1.56s.24-1.2.24-1.84V147.8h4.8V167z"/><path d="M79.548 198.176h12.796v2.52H82.236v5.908h9.408v2.52h-9.408v6.356h10.612V218h-13.3v-19.824zm16.529 8.176c.709-.653 1.531-1.139 2.464-1.456.933-.336 1.867-.504 2.8-.504.971 0 1.802.121 2.492.364.71.243 1.288.569 1.736.98a3.7 3.7 0 0 1 .98 1.428 4.15 4.15 0 0 1 .336 1.652v6.776l.028 1.288.084 1.12h-2.24l-.084-2.016h-.056c-.56.859-1.222 1.465-1.988 1.82s-1.652.532-2.66.532c-.616 0-1.204-.084-1.764-.252a4.46 4.46 0 0 1-1.484-.756c-.411-.336-.737-.747-.98-1.232-.243-.504-.364-1.083-.364-1.736 0-.859.187-1.577.56-2.156a4.38 4.38 0 0 1 1.568-1.4c.672-.373 1.447-.635 2.324-.784.896-.168 1.848-.252 2.856-.252h1.848v-.56c0-.336-.065-.672-.196-1.008s-.326-.635-.588-.896a2.56 2.56 0 0 0-.98-.644c-.392-.168-.858-.252-1.4-.252-.485 0-.914.047-1.288.14-.355.093-.681.215-.98.364-.299.131-.569.289-.812.476l-.7.532-1.512-1.568zm7.112 5.264c-.597 0-1.213.037-1.848.112a6.91 6.91 0 0 0-1.708.364c-.504.187-.924.448-1.26.784-.317.336-.476.765-.476 1.288 0 .765.252 1.316.756 1.652.523.336 1.223.504 2.1.504.691 0 1.279-.112 1.764-.336.486-.243.878-.551 1.176-.924s.514-.784.644-1.232c.131-.467.196-.924.196-1.372v-.84h-1.344zm14.408-3.556c-.299-.373-.672-.681-1.12-.924-.43-.261-.962-.392-1.596-.392-.598 0-1.12.131-1.568.392-.43.243-.644.607-.644 1.092 0 .392.121.709.364.952a3.22 3.22 0 0 0 .896.588c.354.149.728.261 1.12.336l1.008.196a11.08 11.08 0 0 1 1.512.476 3.99 3.99 0 0 1 1.232.728c.354.299.625.663.812 1.092.205.429.308.952.308 1.568 0 .747-.159 1.391-.476 1.932-.318.523-.728.952-1.232 1.288s-1.083.579-1.736.728a8.43 8.43 0 0 1-1.932.224c-1.102 0-2.072-.168-2.912-.504-.822-.336-1.559-.952-2.212-1.848l1.904-1.568c.41.411.868.775 1.372 1.092s1.12.476 1.848.476c.317 0 .634-.028.952-.084.336-.075.625-.177.868-.308a1.94 1.94 0 0 0 .616-.532 1.23 1.23 0 0 0 .252-.756c0-.373-.122-.681-.364-.924-.224-.243-.504-.429-.84-.56a4.54 4.54 0 0 0-1.036-.336l-.952-.224-1.54-.448c-.486-.168-.915-.392-1.288-.672a3.1 3.1 0 0 1-.896-1.064c-.224-.429-.336-.961-.336-1.596 0-.691.14-1.288.42-1.792.298-.523.681-.952 1.148-1.288.485-.336 1.026-.588 1.624-.756.616-.168 1.232-.252 1.848-.252a6.74 6.74 0 0 1 2.576.504c.821.336 1.474.896 1.96 1.68l-1.96 1.484zm3.789-3.332h2.912l3.948 10.36h.056l3.752-10.36h2.716l-6.3 16.128c-.224.579-.457 1.101-.7 1.568-.243.485-.532.896-.868 1.232s-.747.597-1.232.784c-.467.187-1.045.28-1.736.28-.373 0-.756-.028-1.148-.084a3.77 3.77 0 0 1-1.092-.28l.308-2.296c.504.205 1.008.308 1.512.308.392 0 .719-.056.98-.168a1.62 1.62 0 0 0 .7-.448 2.29 2.29 0 0 0 .504-.672c.131-.261.261-.56.392-.896l.812-2.1-5.516-13.356zm30.501 2.184h-3.612v6.02l.028 1.12c.019.355.084.681.196.98.131.28.317.513.56.7.261.168.635.252 1.12.252a5.31 5.31 0 0 0 .924-.084c.317-.056.607-.159.868-.308v2.296c-.299.168-.691.28-1.176.336-.467.075-.831.112-1.092.112-.971 0-1.727-.131-2.268-.392-.523-.28-.915-.635-1.176-1.064-.243-.429-.392-.905-.448-1.428l-.056-1.624v-6.916h-2.912v-2.184h2.912v-3.724h2.52v3.724h3.612v2.184zm5.295 4.452a5.58 5.58 0 0 0 .308 1.876c.206.56.495 1.045.868 1.456a4.31 4.31 0 0 0 1.372.952c.542.224 1.148.336 1.82.336s1.279-.112 1.82-.336c.542-.243.999-.56 1.372-.952.374-.411.663-.896.868-1.456.206-.579.308-1.204.308-1.876s-.102-1.288-.308-1.848c-.205-.579-.494-1.064-.868-1.456-.373-.411-.83-.728-1.372-.952-.541-.243-1.148-.364-1.82-.364s-1.278.121-1.82.364a3.78 3.78 0 0 0-1.372.952c-.373.392-.662.877-.868 1.456a5.34 5.34 0 0 0-.308 1.848zm-2.688 0a6.92 6.92 0 0 1 .532-2.716c.374-.84.878-1.577 1.512-2.212s1.382-1.129 2.24-1.484c.859-.373 1.783-.56 2.772-.56s1.914.187 2.772.56c.859.355 1.606.849 2.24 1.484a6.87 6.87 0 0 1 1.484 2.212c.374.84.56 1.745.56 2.716s-.186 1.885-.56 2.744a6.87 6.87 0 0 1-1.484 2.212c-.634.616-1.381 1.111-2.24 1.484-.858.355-1.782.532-2.772.532s-1.913-.177-2.772-.532c-.858-.373-1.605-.868-2.24-1.484-.634-.635-1.138-1.372-1.512-2.212-.354-.859-.532-1.773-.532-2.744zm34.554-3.108c-.466-.485-.961-.849-1.484-1.092-.504-.261-1.11-.392-1.82-.392-.69 0-1.297.131-1.82.392-.504.243-.933.588-1.288 1.036-.336.429-.597.933-.784 1.512-.168.56-.252 1.148-.252 1.764a5.09 5.09 0 0 0 .308 1.764c.206.541.495 1.017.868 1.428s.822.737 1.344.98c.523.224 1.111.336 1.764.336.71 0 1.316-.121 1.82-.364.504-.261.971-.635 1.4-1.12l1.792 1.792c-.653.728-1.418 1.251-2.296 1.568-.858.317-1.773.476-2.744.476-1.026 0-1.969-.168-2.828-.504-.84-.336-1.568-.803-2.184-1.4-.616-.616-1.092-1.344-1.428-2.184-.336-.859-.504-1.801-.504-2.828s.168-1.969.504-2.828a6.58 6.58 0 0 1 1.4-2.212c.616-.616 1.344-1.092 2.184-1.428.859-.355 1.811-.532 2.856-.532.971 0 1.895.177 2.772.532a5.97 5.97 0 0 1 2.324 1.568l-1.904 1.736zm4.016-3.528h2.52v2.044h.056c.168-.355.392-.672.672-.952a4.41 4.41 0 0 1 .924-.756c.355-.205.737-.364 1.148-.476.411-.131.821-.196 1.232-.196s.784.056 1.12.168l-.112 2.716-.616-.14a3.47 3.47 0 0 0-.616-.056c-1.232 0-2.175.345-2.828 1.036s-.98 1.764-.98 3.22V218h-2.52v-13.272zm11.775 7.56c0 .579.122 1.111.364 1.596.262.467.598.868 1.008 1.204s.887.597 1.428.784 1.102.28 1.68.28c.784 0 1.466-.177 2.044-.532.579-.373 1.111-.859 1.596-1.456l1.904 1.456c-1.4 1.811-3.36 2.716-5.88 2.716-1.045 0-1.997-.177-2.856-.532-.84-.355-1.558-.84-2.156-1.456-.578-.635-1.026-1.372-1.344-2.212-.317-.859-.476-1.783-.476-2.772s.168-1.904.504-2.744c.355-.859.831-1.596 1.428-2.212.616-.635 1.344-1.129 2.184-1.484s1.755-.532 2.744-.532c1.176 0 2.166.205 2.968.616.822.411 1.494.952 2.016 1.624a6.02 6.02 0 0 1 1.12 2.24c.243.821.364 1.661.364 2.52v.896h-10.64zm7.952-2.016a5 5 0 0 0-.28-1.54 3.09 3.09 0 0 0-.7-1.204c-.317-.355-.718-.625-1.204-.812-.466-.205-1.017-.308-1.652-.308-.616 0-1.185.121-1.708.364-.504.224-.933.523-1.288.896s-.634.793-.84 1.26c-.186.448-.28.896-.28 1.344h7.952zm5.759-3.92c.709-.653 1.531-1.139 2.464-1.456.933-.336 1.867-.504 2.8-.504.971 0 1.801.121 2.492.364.709.243 1.288.569 1.736.98a3.7 3.7 0 0 1 .98 1.428 4.15 4.15 0 0 1 .336 1.652v6.776l.028 1.288.084 1.12h-2.24l-.084-2.016h-.056c-.56.859-1.223 1.465-1.988 1.82s-1.652.532-2.66.532c-.616 0-1.204-.084-1.764-.252s-1.055-.42-1.484-.756c-.411-.336-.737-.747-.98-1.232-.243-.504-.364-1.083-.364-1.736 0-.859.187-1.577.56-2.156.392-.579.915-1.045 1.568-1.4.672-.373 1.447-.635 2.324-.784.896-.168 1.848-.252 2.856-.252h1.848v-.56c0-.336-.065-.672-.196-1.008s-.327-.635-.588-.896a2.56 2.56 0 0 0-.98-.644c-.392-.168-.859-.252-1.4-.252-.485 0-.915.047-1.288.14a5.07 5.07 0 0 0-.98.364c-.299.131-.569.289-.812.476l-.7.532-1.512-1.568zm7.112 5.264c-.597 0-1.213.037-1.848.112-.616.056-1.185.177-1.708.364-.504.187-.924.448-1.26.784-.317.336-.476.765-.476 1.288 0 .765.252 1.316.756 1.652.523.336 1.223.504 2.1.504.691 0 1.279-.112 1.764-.336.485-.243.877-.551 1.176-.924a3.54 3.54 0 0 0 .644-1.232c.131-.467.196-.924.196-1.372v-.84h-1.344zm14.463-4.704h-3.612v6.02l.028 1.12c.019.355.084.681.196.98.131.28.318.513.56.7.262.168.635.252 1.12.252a5.31 5.31 0 0 0 .924-.084 2.67 2.67 0 0 0 .868-.308v2.296c-.298.168-.69.28-1.176.336-.466.075-.83.112-1.092.112-.97 0-1.726-.131-2.268-.392-.522-.28-.914-.635-1.176-1.064a3.67 3.67 0 0 1-.448-1.428l-.056-1.624v-6.916h-2.912v-2.184h2.912v-3.724h2.52v3.724h3.612v2.184zm5.156 5.376c0 .579.121 1.111.364 1.596.261.467.597.868 1.008 1.204a4.59 4.59 0 0 0 1.428.784c.541.187 1.101.28 1.68.28.784 0 1.465-.177 2.044-.532.578-.373 1.11-.859 1.596-1.456l1.904 1.456c-1.4 1.811-3.36 2.716-5.88 2.716-1.046 0-1.998-.177-2.856-.532-.84-.355-1.559-.84-2.156-1.456a6.82 6.82 0 0 1-1.344-2.212c-.318-.859-.476-1.783-.476-2.772s.168-1.904.504-2.744c.354-.859.83-1.596 1.428-2.212.616-.635 1.344-1.129 2.184-1.484s1.754-.532 2.744-.532c1.176 0 2.165.205 2.968.616.821.411 1.493.952 2.016 1.624.522.653.896 1.4 1.12 2.24a8.87 8.87 0 0 1 .364 2.52v.896h-10.64zm7.952-2.016c-.019-.56-.112-1.073-.28-1.54-.15-.467-.383-.868-.7-1.204-.318-.355-.719-.625-1.204-.812-.467-.205-1.018-.308-1.652-.308-.616 0-1.186.121-1.708.364-.504.224-.934.523-1.288.896s-.635.793-.84 1.26c-.187.448-.28.896-.28 1.344h7.952zm14.475-3.36h-2.856v-2.184h2.856v-2.968c0-1.773.336-3.089 1.008-3.948.691-.877 1.867-1.316 3.528-1.316l.868.028c.318.019.654.075 1.008.168l-.28 2.24c-.242-.093-.476-.159-.7-.196s-.466-.056-.728-.056c-.466 0-.84.075-1.12.224a1.58 1.58 0 0 0-.672.588c-.149.261-.252.579-.308.952a12.01 12.01 0 0 0-.056 1.232v3.052h2.996v2.184h-3.024V218h-2.52v-11.088zm8.4-.56c.71-.653 1.531-1.139 2.464-1.456.934-.336 1.867-.504 2.8-.504.971 0 1.802.121 2.492.364.71.243 1.288.569 1.736.98a3.7 3.7 0 0 1 .98 1.428 4.15 4.15 0 0 1 .336 1.652v6.776l.028 1.288.084 1.12h-2.24l-.084-2.016h-.056c-.56.859-1.222 1.465-1.988 1.82s-1.652.532-2.66.532c-.616 0-1.204-.084-1.764-.252s-1.054-.42-1.484-.756a3.74 3.74 0 0 1-.98-1.232c-.242-.504-.364-1.083-.364-1.736 0-.859.187-1.577.56-2.156.392-.579.915-1.045 1.568-1.4.672-.373 1.447-.635 2.324-.784.896-.168 1.848-.252 2.856-.252h1.848v-.56c0-.336-.065-.672-.196-1.008s-.326-.635-.588-.896a2.56 2.56 0 0 0-.98-.644c-.392-.168-.858-.252-1.4-.252-.485 0-.914.047-1.288.14-.354.093-.681.215-.98.364-.298.131-.569.289-.812.476l-.7.532-1.512-1.568zm7.112 5.264c-.597 0-1.213.037-1.848.112-.616.056-1.185.177-1.708.364-.504.187-.924.448-1.26.784-.317.336-.476.765-.476 1.288 0 .765.252 1.316.756 1.652.523.336 1.223.504 2.1.504.691 0 1.279-.112 1.764-.336.486-.243.878-.551 1.176-.924s.514-.784.644-1.232c.131-.467.196-.924.196-1.372v-.84h-1.344zm14.408-3.556c-.299-.373-.672-.681-1.12-.924-.429-.261-.961-.392-1.596-.392-.597 0-1.12.131-1.568.392-.429.243-.644.607-.644 1.092 0 .392.121.709.364.952a3.22 3.22 0 0 0 .896.588c.355.149.728.261 1.12.336l1.008.196a11.08 11.08 0 0 1 1.512.476 3.99 3.99 0 0 1 1.232.728c.355.299.625.663.812 1.092.205.429.308.952.308 1.568 0 .747-.159 1.391-.476 1.932-.317.523-.728.952-1.232 1.288s-1.083.579-1.736.728a8.43 8.43 0 0 1-1.932.224c-1.101 0-2.072-.168-2.912-.504-.821-.336-1.559-.952-2.212-1.848l1.904-1.568a7.82 7.82 0 0 0 1.372 1.092c.504.317 1.12.476 1.848.476a5.47 5.47 0 0 0 .952-.084c.336-.075.625-.177.868-.308.261-.149.467-.327.616-.532a1.23 1.23 0 0 0 .252-.756c0-.373-.121-.681-.364-.924-.224-.243-.504-.429-.84-.56-.317-.149-.663-.261-1.036-.336l-.952-.224-1.54-.448a4.68 4.68 0 0 1-1.288-.672 3.11 3.11 0 0 1-.896-1.064c-.224-.429-.336-.961-.336-1.596 0-.691.14-1.288.42-1.792.299-.523.681-.952 1.148-1.288.485-.336 1.027-.588 1.624-.756.616-.168 1.232-.252 1.848-.252.896 0 1.755.168 2.576.504s1.475.896 1.96 1.68l-1.96 1.484zm12.497-1.148h-3.612v6.02l.028 1.12c.019.355.084.681.196.98.131.28.318.513.56.7.262.168.635.252 1.12.252a5.31 5.31 0 0 0 .924-.084 2.67 2.67 0 0 0 .868-.308v2.296c-.298.168-.69.28-1.176.336-.466.075-.83.112-1.092.112-.97 0-1.726-.131-2.268-.392-.522-.28-.914-.635-1.176-1.064a3.67 3.67 0 0 1-.448-1.428l-.056-1.624v-6.916h-2.912v-2.184h2.912v-3.724h2.52v3.724h3.612v2.184zm11.101-.56c.709-.653 1.53-1.139 2.464-1.456.933-.336 1.866-.504 2.8-.504.97 0 1.801.121 2.492.364.709.243 1.288.569 1.736.98s.774.887.98 1.428a4.15 4.15 0 0 1 .336 1.652v6.776l.028 1.288.084 1.12h-2.24l-.084-2.016h-.056c-.56.859-1.223 1.465-1.988 1.82s-1.652.532-2.66.532c-.616 0-1.204-.084-1.764-.252s-1.055-.42-1.484-.756c-.411-.336-.738-.747-.98-1.232-.243-.504-.364-1.083-.364-1.736 0-.859.186-1.577.56-2.156.392-.579.914-1.045 1.568-1.4.672-.373 1.446-.635 2.324-.784.896-.168 1.848-.252 2.856-.252h1.848v-.56c0-.336-.066-.672-.196-1.008s-.327-.635-.588-.896c-.262-.28-.588-.495-.98-.644-.392-.168-.859-.252-1.4-.252-.486 0-.915.047-1.288.14-.355.093-.682.215-.98.364a3.84 3.84 0 0 0-.812.476l-.7.532-1.512-1.568zm7.112 5.264a15.73 15.73 0 0 0-1.848.112c-.616.056-1.186.177-1.708.364-.504.187-.924.448-1.26.784-.318.336-.476.765-.476 1.288 0 .765.252 1.316.756 1.652.522.336 1.222.504 2.1.504.69 0 1.278-.112 1.764-.336.485-.243.877-.551 1.176-.924a3.56 3.56 0 0 0 .644-1.232c.13-.467.196-.924.196-1.372v-.84h-1.344zm7.351-6.888h2.52v2.044h.056c.317-.709.868-1.279 1.652-1.708.784-.448 1.689-.672 2.716-.672a5.41 5.41 0 0 1 1.82.308c.597.187 1.111.485 1.54.896.448.411.803.943 1.064 1.596.261.635.392 1.391.392 2.268V218h-2.52v-7.84c0-.616-.084-1.139-.252-1.568-.168-.448-.392-.803-.672-1.064-.28-.28-.607-.476-.98-.588-.355-.131-.728-.196-1.12-.196-.523 0-1.008.084-1.456.252s-.84.439-1.176.812c-.336.355-.597.812-.784 1.372s-.28 1.223-.28 1.988V218h-2.52v-13.272zM364.548 218h-2.52v-1.904h-.056c-.486.709-1.158 1.26-2.016 1.652-.84.392-1.708.588-2.604.588-1.027 0-1.96-.177-2.8-.532-.822-.355-1.531-.849-2.128-1.484a6.82 6.82 0 0 1-1.344-2.212c-.318-.84-.476-1.755-.476-2.744s.158-1.904.476-2.744c.317-.859.765-1.596 1.344-2.212.597-.635 1.306-1.129 2.128-1.484.84-.355 1.773-.532 2.8-.532.952 0 1.848.205 2.688.616.84.392 1.484.933 1.932 1.624h.056v-9.8h2.52V218zm-6.888-2.016c.672 0 1.278-.112 1.82-.336a4.31 4.31 0 0 0 1.372-.952c.373-.411.662-.896.868-1.456a5.58 5.58 0 0 0 .308-1.876 5.34 5.34 0 0 0-.308-1.848c-.206-.579-.495-1.064-.868-1.456a3.78 3.78 0 0 0-1.372-.952c-.542-.243-1.148-.364-1.82-.364s-1.279.121-1.82.364c-.542.224-.999.541-1.372.952-.374.392-.663.877-.868 1.456-.206.56-.308 1.176-.308 1.848s.102 1.297.308 1.876c.205.56.494 1.045.868 1.456.373.392.83.709 1.372.952.541.224 1.148.336 1.82.336zm18.498-19.152h2.52v9.94h.056c.317-.709.868-1.279 1.652-1.708.784-.448 1.689-.672 2.716-.672a5.41 5.41 0 0 1 1.82.308c.597.187 1.111.485 1.54.896.448.411.803.943 1.064 1.596.261.635.392 1.391.392 2.268V218h-2.52v-7.84c0-.616-.084-1.139-.252-1.568-.168-.448-.392-.803-.672-1.064-.28-.28-.607-.476-.98-.588-.355-.131-.728-.196-1.12-.196-.523 0-1.008.084-1.456.252s-.84.439-1.176.812c-.336.355-.597.812-.784 1.372s-.28 1.223-.28 1.988V218h-2.52v-21.168zm17.463 15.456c0 .579.121 1.111.364 1.596.261.467.597.868 1.008 1.204a4.59 4.59 0 0 0 1.428.784c.541.187 1.101.28 1.68.28.784 0 1.465-.177 2.044-.532.578-.373 1.11-.859 1.596-1.456l1.904 1.456c-1.4 1.811-3.36 2.716-5.88 2.716-1.046 0-1.998-.177-2.856-.532-.84-.355-1.559-.84-2.156-1.456a6.82 6.82 0 0 1-1.344-2.212c-.318-.859-.476-1.783-.476-2.772s.168-1.904.504-2.744c.354-.859.83-1.596 1.428-2.212.616-.635 1.344-1.129 2.184-1.484s1.754-.532 2.744-.532c1.176 0 2.165.205 2.968.616.821.411 1.493.952 2.016 1.624.522.653.896 1.4 1.12 2.24a8.87 8.87 0 0 1 .364 2.52v.896h-10.64zm7.952-2.016c-.019-.56-.112-1.073-.28-1.54-.15-.467-.383-.868-.7-1.204-.318-.355-.719-.625-1.204-.812-.467-.205-1.018-.308-1.652-.308-.616 0-1.186.121-1.708.364-.504.224-.934.523-1.288.896s-.635.793-.84 1.26c-.187.448-.28.896-.28 1.344h7.952zm5.898-13.44h2.52V218h-2.52v-21.168zm6.531 7.896h2.52v1.904h.056c.485-.709 1.148-1.26 1.988-1.652.858-.392 1.736-.588 2.632-.588 1.026 0 1.95.177 2.772.532a5.99 5.99 0 0 1 2.128 1.484c.597.635 1.054 1.381 1.372 2.24.317.84.476 1.745.476 2.716 0 .989-.159 1.913-.476 2.772-.318.84-.775 1.577-1.372 2.212-.579.616-1.288 1.101-2.128 1.456-.822.355-1.746.532-2.772.532-.952 0-1.848-.196-2.688-.588-.84-.411-1.484-.961-1.932-1.652h-.056v9.8h-2.52v-21.168zm6.888 2.016c-.672 0-1.279.121-1.82.364-.542.224-.999.541-1.372.952-.374.392-.663.877-.868 1.456-.206.56-.308 1.176-.308 1.848s.102 1.297.308 1.876c.205.56.494 1.045.868 1.456.373.392.83.709 1.372.952.541.224 1.148.336 1.82.336s1.278-.112 1.82-.336a4.31 4.31 0 0 0 1.372-.952c.373-.411.662-.896.868-1.456a5.58 5.58 0 0 0 .308-1.876 5.34 5.34 0 0 0-.308-1.848c-.206-.579-.495-1.064-.868-1.456a3.78 3.78 0 0 0-1.372-.952c-.542-.243-1.148-.364-1.82-.364zm11.209.168h-2.856v-2.184h2.856v-2.968c0-1.773.336-3.089 1.008-3.948.691-.877 1.867-1.316 3.528-1.316l.868.028a5.22 5.22 0 0 1 1.008.168l-.28 2.24c-.243-.093-.476-.159-.7-.196s-.467-.056-.728-.056c-.467 0-.84.075-1.12.224a1.58 1.58 0 0 0-.672.588c-.149.261-.252.579-.308.952a12.01 12.01 0 0 0-.056 1.232v3.052h2.996v2.184h-3.024V218h-2.52v-11.088zM452.203 218h-2.52v-2.044h-.056c-.317.709-.868 1.288-1.652 1.736-.784.429-1.689.644-2.716.644-.653 0-1.269-.103-1.848-.308-.579-.187-1.092-.485-1.54-.896-.429-.411-.775-.933-1.036-1.568-.261-.653-.392-1.419-.392-2.296v-8.54h2.52v7.84c0 .616.084 1.148.252 1.596.168.429.392.784.672 1.064a2.81 2.81 0 0 0 .952.588 3.97 3.97 0 0 0 1.148.168c.523 0 1.008-.084 1.456-.252a3.1 3.1 0 0 0 1.176-.784c.336-.373.597-.84.784-1.4s.28-1.223.28-1.988v-6.832h2.52V218zm3.995-21.168h2.52V218h-2.52v-21.168zm14.323 7.896h2.352v2.072h.056c.056-.187.196-.42.42-.7.243-.28.542-.541.896-.784.374-.261.803-.476 1.288-.644.504-.187 1.055-.28 1.652-.28.99 0 1.82.205 2.492.616s1.223 1.027 1.652 1.848c.43-.821 1.036-1.437 1.82-1.848s1.578-.616 2.38-.616c1.027 0 1.867.168 2.52.504s1.167.784 1.54 1.344c.374.541.626 1.167.756 1.876.15.691.224 1.409.224 2.156V218h-2.52v-7.392a9.17 9.17 0 0 0-.112-1.456c-.056-.467-.186-.877-.392-1.232a2.2 2.2 0 0 0-.868-.84c-.373-.224-.868-.336-1.484-.336-1.213 0-2.081.373-2.604 1.12s-.784 1.708-.784 2.884V218h-2.52v-6.944c0-.635-.037-1.213-.112-1.736-.056-.523-.186-.971-.392-1.344-.186-.392-.466-.691-.84-.896-.354-.224-.84-.336-1.456-.336-.448 0-.886.093-1.316.28-.41.168-.774.429-1.092.784s-.569.812-.756 1.372c-.186.541-.28 1.185-.28 1.932V218h-2.52v-13.272zm25.888 6.636a5.58 5.58 0 0 0 .308 1.876c.205.56.495 1.045.868 1.456.373.392.831.709 1.372.952.541.224 1.148.336 1.82.336s1.279-.112 1.82-.336c.541-.243.999-.56 1.372-.952.373-.411.663-.896.868-1.456a5.58 5.58 0 0 0 .308-1.876 5.34 5.34 0 0 0-.308-1.848 4.03 4.03 0 0 0-.868-1.456c-.373-.411-.831-.728-1.372-.952-.541-.243-1.148-.364-1.82-.364s-1.279.121-1.82.364c-.541.224-.999.541-1.372.952a4.03 4.03 0 0 0-.868 1.456 5.34 5.34 0 0 0-.308 1.848zm-2.688 0c0-.971.177-1.876.532-2.716a7.27 7.27 0 0 1 1.512-2.212c.635-.635 1.381-1.129 2.24-1.484.859-.373 1.783-.56 2.772-.56s1.913.187 2.772.56c.859.355 1.605.849 2.24 1.484s1.129 1.372 1.484 2.212c.373.84.56 1.745.56 2.716s-.187 1.885-.56 2.744c-.355.84-.849 1.577-1.484 2.212-.635.616-1.381 1.111-2.24 1.484-.859.355-1.783.532-2.772.532s-1.913-.177-2.772-.532c-.859-.373-1.605-.868-2.24-1.484a7.27 7.27 0 0 1-1.512-2.212 7.11 7.11 0 0 1-.532-2.744zm17.269-14.532h2.52v9.8h.056c.448-.691 1.092-1.232 1.932-1.624.84-.411 1.736-.616 2.688-.616 1.027 0 1.951.177 2.772.532a5.99 5.99 0 0 1 2.128 1.484c.597.616 1.055 1.353 1.372 2.212.317.84.476 1.755.476 2.744s-.159 1.904-.476 2.744a6.59 6.59 0 0 1-1.372 2.212 5.99 5.99 0 0 1-2.128 1.484c-.821.355-1.745.532-2.772.532-.896 0-1.773-.196-2.632-.588-.84-.392-1.503-.943-1.988-1.652h-.056V218h-2.52v-21.168zm6.888 19.152c.672 0 1.279-.112 1.82-.336.541-.243.999-.56 1.372-.952.373-.411.663-.896.868-1.456a5.58 5.58 0 0 0 .308-1.876 5.34 5.34 0 0 0-.308-1.848 4.03 4.03 0 0 0-.868-1.456c-.373-.411-.831-.728-1.372-.952-.541-.243-1.148-.364-1.82-.364s-1.279.121-1.82.364c-.541.224-.999.541-1.372.952a4.03 4.03 0 0 0-.868 1.456 5.34 5.34 0 0 0-.308 1.848 5.58 5.58 0 0 0 .308 1.876c.205.56.495 1.045.868 1.456.373.392.831.709 1.372.952.541.224 1.148.336 1.82.336zm10.425-11.256h2.52V218h-2.52v-13.272zm-.588-4.76c0-.504.177-.933.532-1.288a1.8 1.8 0 0 1 1.316-.56 1.71 1.71 0 0 1 1.848 1.848 1.8 1.8 0 0 1-.56 1.316c-.355.355-.784.532-1.288.532s-.943-.177-1.316-.532c-.355-.373-.532-.812-.532-1.316zm7.315-3.136h2.52V218h-2.52v-21.168zm8.434 15.456c0 .579.122 1.111.364 1.596.262.467.598.868 1.008 1.204s.887.597 1.428.784 1.102.28 1.68.28c.784 0 1.466-.177 2.044-.532.579-.373 1.111-.859 1.596-1.456l1.904 1.456c-1.4 1.811-3.36 2.716-5.88 2.716-1.045 0-1.997-.177-2.856-.532-.84-.355-1.558-.84-2.156-1.456-.578-.635-1.026-1.372-1.344-2.212-.317-.859-.476-1.783-.476-2.772s.168-1.904.504-2.744c.355-.859.831-1.596 1.428-2.212.616-.635 1.344-1.129 2.184-1.484s1.755-.532 2.744-.532c1.176 0 2.166.205 2.968.616.822.411 1.494.952 2.016 1.624a6.02 6.02 0 0 1 1.12 2.24c.243.821.364 1.661.364 2.52v.896h-10.64zm7.952-2.016a5 5 0 0 0-.28-1.54 3.09 3.09 0 0 0-.7-1.204c-.317-.355-.718-.625-1.204-.812-.466-.205-1.017-.308-1.652-.308-.616 0-1.185.121-1.708.364-.504.224-.933.523-1.288.896s-.634.793-.84 1.26c-.186.448-.28.896-.28 1.344h7.952zm13.552-3.92c.709-.653 1.53-1.139 2.464-1.456.933-.336 1.866-.504 2.8-.504.97 0 1.801.121 2.492.364.709.243 1.288.569 1.736.98s.774.887.98 1.428a4.15 4.15 0 0 1 .336 1.652v6.776l.028 1.288.084 1.12h-2.24l-.084-2.016h-.056c-.56.859-1.223 1.465-1.988 1.82s-1.652.532-2.66.532c-.616 0-1.204-.084-1.764-.252s-1.055-.42-1.484-.756c-.411-.336-.738-.747-.98-1.232-.243-.504-.364-1.083-.364-1.736 0-.859.186-1.577.56-2.156.392-.579.914-1.045 1.568-1.4.672-.373 1.446-.635 2.324-.784.896-.168 1.848-.252 2.856-.252h1.848v-.56c0-.336-.066-.672-.196-1.008s-.327-.635-.588-.896c-.262-.28-.588-.495-.98-.644-.392-.168-.859-.252-1.4-.252-.486 0-.915.047-1.288.14-.355.093-.682.215-.98.364a3.84 3.84 0 0 0-.812.476l-.7.532-1.512-1.568zm7.112 5.264a15.73 15.73 0 0 0-1.848.112c-.616.056-1.186.177-1.708.364-.504.187-.924.448-1.26.784-.318.336-.476.765-.476 1.288 0 .765.252 1.316.756 1.652.522.336 1.222.504 2.1.504.69 0 1.278-.112 1.764-.336.485-.243.877-.551 1.176-.924a3.56 3.56 0 0 0 .644-1.232c.13-.467.196-.924.196-1.372v-.84h-1.344zm7.351-6.888h2.52v1.904h.056c.486-.709 1.148-1.26 1.988-1.652.859-.392 1.736-.588 2.632-.588 1.027 0 1.951.177 2.772.532a5.98 5.98 0 0 1 2.128 1.484c.598.635 1.055 1.381 1.372 2.24.318.84.476 1.745.476 2.716 0 .989-.158 1.913-.476 2.772-.317.84-.774 1.577-1.372 2.212-.578.616-1.288 1.101-2.128 1.456-.821.355-1.745.532-2.772.532-.952 0-1.848-.196-2.688-.588-.84-.411-1.484-.961-1.932-1.652h-.056v9.8h-2.52v-21.168zm6.888 2.016c-.672 0-1.278.121-1.82.364a3.78 3.78 0 0 0-1.372.952c-.373.392-.662.877-.868 1.456a5.34 5.34 0 0 0-.308 1.848 5.58 5.58 0 0 0 .308 1.876c.206.56.495 1.045.868 1.456a4.31 4.31 0 0 0 1.372.952c.542.224 1.148.336 1.82.336s1.279-.112 1.82-.336c.542-.243.999-.56 1.372-.952.374-.411.663-.896.868-1.456.206-.579.308-1.204.308-1.876s-.102-1.288-.308-1.848c-.205-.579-.494-1.064-.868-1.456-.373-.411-.83-.728-1.372-.952-.541-.243-1.148-.364-1.82-.364zm10.23-2.016h2.52v1.904h.056c.485-.709 1.148-1.26 1.988-1.652.858-.392 1.736-.588 2.632-.588 1.026 0 1.95.177 2.772.532a5.99 5.99 0 0 1 2.128 1.484c.597.635 1.054 1.381 1.372 2.24.317.84.476 1.745.476 2.716 0 .989-.159 1.913-.476 2.772-.318.84-.775 1.577-1.372 2.212-.579.616-1.288 1.101-2.128 1.456-.822.355-1.746.532-2.772.532-.952 0-1.848-.196-2.688-.588-.84-.411-1.484-.961-1.932-1.652h-.056v9.8h-2.52v-21.168zm6.888 2.016c-.672 0-1.279.121-1.82.364-.542.224-.999.541-1.372.952-.374.392-.663.877-.868 1.456-.206.56-.308 1.176-.308 1.848s.102 1.297.308 1.876c.205.56.494 1.045.868 1.456.373.392.83.709 1.372.952.541.224 1.148.336 1.82.336s1.278-.112 1.82-.336a4.31 4.31 0 0 0 1.372-.952c.373-.411.662-.896.868-1.456a5.58 5.58 0 0 0 .308-1.876 5.34 5.34 0 0 0-.308-1.848c-.206-.579-.495-1.064-.868-1.456a3.78 3.78 0 0 0-1.372-.952c-.542-.243-1.148-.364-1.82-.364zm16.426-2.016h2.828l2.996 9.912h.056l3.164-9.912h2.66l3.36 9.912h.056l2.856-9.912h2.66L636.215 218h-2.548l-3.5-9.912h-.056L626.947 218h-2.716l-4.368-13.272zm23.038 0h2.52V218h-2.52v-13.272zm-.588-4.76c0-.504.177-.933.532-1.288a1.8 1.8 0 0 1 1.316-.56 1.71 1.71 0 0 1 1.848 1.848 1.8 1.8 0 0 1-.56 1.316c-.355.355-.784.532-1.288.532s-.943-.177-1.316-.532c-.355-.373-.532-.812-.532-1.316zm14.23 6.944h-3.612v6.02l.028 1.12c.019.355.084.681.196.98.131.28.318.513.56.7.262.168.635.252 1.12.252a5.31 5.31 0 0 0 .924-.084 2.67 2.67 0 0 0 .868-.308v2.296c-.298.168-.69.28-1.176.336-.466.075-.83.112-1.092.112-.97 0-1.726-.131-2.268-.392-.522-.28-.914-.635-1.176-1.064a3.67 3.67 0 0 1-.448-1.428l-.056-1.624v-6.916h-2.912v-2.184h2.912v-3.724h2.52v3.724h3.612v2.184zm3.252-10.08h2.52v9.94h.056c.317-.709.868-1.279 1.652-1.708.784-.448 1.689-.672 2.716-.672.634 0 1.241.103 1.82.308.597.187 1.11.485 1.54.896.448.411.802.943 1.064 1.596.261.635.392 1.391.392 2.268V218h-2.52v-7.84c0-.616-.084-1.139-.252-1.568-.168-.448-.392-.803-.672-1.064-.28-.28-.607-.476-.98-.588-.355-.131-.728-.196-1.12-.196-.523 0-1.008.084-1.456.252s-.84.439-1.176.812c-.336.355-.598.812-.784 1.372s-.28 1.223-.28 1.988V218h-2.52v-21.168zm23.351 7.896h2.352v2.072h.056c.056-.187.196-.42.42-.7.243-.28.542-.541.896-.784.374-.261.803-.476 1.288-.644.504-.187 1.055-.28 1.652-.28.99 0 1.82.205 2.492.616s1.223 1.027 1.652 1.848c.43-.821 1.036-1.437 1.82-1.848s1.578-.616 2.38-.616c1.027 0 1.867.168 2.52.504s1.167.784 1.54 1.344c.374.541.626 1.167.756 1.876.15.691.224 1.409.224 2.156V218h-2.52v-7.392a9.17 9.17 0 0 0-.112-1.456c-.056-.467-.186-.877-.392-1.232a2.2 2.2 0 0 0-.868-.84c-.373-.224-.868-.336-1.484-.336-1.213 0-2.081.373-2.604 1.12s-.784 1.708-.784 2.884V218h-2.52v-6.944c0-.635-.037-1.213-.112-1.736-.056-.523-.186-.971-.392-1.344-.186-.392-.466-.691-.84-.896-.354-.224-.84-.336-1.456-.336-.448 0-.886.093-1.316.28-.41.168-.774.429-1.092.784s-.569.812-.756 1.372c-.186.541-.28 1.185-.28 1.932V218h-2.52v-13.272zm25.748 7.56c0 .579.121 1.111.364 1.596.261.467.597.868 1.008 1.204s.887.597 1.428.784 1.101.28 1.68.28c.784 0 1.465-.177 2.044-.532.579-.373 1.111-.859 1.596-1.456l1.904 1.456c-1.4 1.811-3.36 2.716-5.88 2.716-1.045 0-1.997-.177-2.856-.532-.84-.355-1.559-.84-2.156-1.456a6.82 6.82 0 0 1-1.344-2.212c-.317-.859-.476-1.783-.476-2.772s.168-1.904.504-2.744c.355-.859.831-1.596 1.428-2.212.616-.635 1.344-1.129 2.184-1.484s1.755-.532 2.744-.532c1.176 0 2.165.205 2.968.616.821.411 1.493.952 2.016 1.624a6.02 6.02 0 0 1 1.12 2.24c.243.821.364 1.661.364 2.52v.896h-10.64zm7.952-2.016c-.019-.56-.112-1.073-.28-1.54a3.1 3.1 0 0 0-.7-1.204c-.317-.355-.719-.625-1.204-.812-.467-.205-1.017-.308-1.652-.308-.616 0-1.185.121-1.708.364-.504.224-.933.523-1.288.896s-.635.793-.84 1.26c-.187.448-.28.896-.28 1.344h7.952z"/></g><path d="M96 337c0-22.091 17.909-40 40-40h740v201c0 38.108-30.892 69-69 69H96V337z" fill="#fff"/><path d="M162.633 332.132h2.016V347h-2.016v-14.868zm11.206 4.914h1.764v1.554h.042c.042-.14.147-.315.315-.525a3.49 3.49 0 0 1 .672-.588c.28-.196.602-.357.966-.483a3.54 3.54 0 0 1 1.239-.21c.742 0 1.365.154 1.869.462s.917.77 1.239 1.386c.322-.616.777-1.078 1.365-1.386a3.81 3.81 0 0 1 1.785-.462c.77 0 1.4.126 1.89.378s.875.588 1.155 1.008a3.59 3.59 0 0 1 .567 1.407 7.63 7.63 0 0 1 .168 1.617V347h-1.89v-5.544c0-.378-.028-.742-.084-1.092-.042-.35-.14-.658-.294-.924a1.66 1.66 0 0 0-.651-.63c-.28-.168-.651-.252-1.113-.252-.91 0-1.561.28-1.953.84s-.588 1.281-.588 2.163V347h-1.89v-5.208a9.25 9.25 0 0 0-.084-1.302c-.042-.392-.14-.728-.294-1.008-.14-.294-.35-.518-.63-.672-.266-.168-.63-.252-1.092-.252-.336 0-.665.07-.987.21a2.22 2.22 0 0 0-.819.588c-.238.266-.427.609-.567 1.029-.14.406-.21.889-.21 1.449V347h-1.89v-9.954zm25.261 4.977c0 .504.077.973.231 1.407.154.42.371.784.651 1.092a3.22 3.22 0 0 0 1.029.714 3.54 3.54 0 0 0 1.365.252 3.54 3.54 0 0 0 1.365-.252 3.22 3.22 0 0 0 1.029-.714c.28-.308.497-.672.651-1.092.154-.434.231-.903.231-1.407s-.077-.966-.231-1.386c-.154-.434-.371-.798-.651-1.092-.28-.308-.623-.546-1.029-.714-.406-.182-.861-.273-1.365-.273s-.959.091-1.365.273c-.406.168-.749.406-1.029.714-.28.294-.497.658-.651 1.092-.154.42-.231.882-.231 1.386zm-2.016 0c0-.728.133-1.407.399-2.037a5.46 5.46 0 0 1 1.134-1.659c.476-.476 1.036-.847 1.68-1.113.644-.28 1.337-.42 2.079-.42s1.435.14 2.079.42c.644.266 1.204.637 1.68 1.113a5.16 5.16 0 0 1 1.113 1.659c.28.63.42 1.309.42 2.037s-.14 1.414-.42 2.058a5.16 5.16 0 0 1-1.113 1.659 5.58 5.58 0 0 1-1.68 1.113c-.644.266-1.337.399-2.079.399s-1.435-.133-2.079-.399a5.58 5.58 0 0 1-1.68-1.113 5.46 5.46 0 0 1-1.134-1.659c-.266-.644-.399-1.33-.399-2.058zm11.754-4.977h2.184l2.982 7.623 2.856-7.623h2.016L214.97 347h-2.079l-4.053-9.954zm13.125 5.67a2.64 2.64 0 0 0 .273 1.197c.196.35.448.651.756.903a3.45 3.45 0 0 0 1.071.588 3.84 3.84 0 0 0 1.26.21c.588 0 1.099-.133 1.533-.399.434-.28.833-.644 1.197-1.092l1.428 1.092c-1.05 1.358-2.52 2.037-4.41 2.037-.784 0-1.498-.133-2.142-.399a4.85 4.85 0 0 1-1.617-1.092 5.12 5.12 0 0 1-1.008-1.659 5.95 5.95 0 0 1-.357-2.079c0-.742.126-1.428.378-2.058a5.21 5.21 0 0 1 1.071-1.659c.462-.476 1.008-.847 1.638-1.113s1.316-.399 2.058-.399c.882 0 1.624.154 2.226.462a4.34 4.34 0 0 1 1.512 1.218 4.52 4.52 0 0 1 .84 1.68c.182.616.273 1.246.273 1.89v.672h-7.98zm5.964-1.512c-.014-.42-.084-.805-.21-1.155-.112-.35-.287-.651-.525-.903-.238-.266-.539-.469-.903-.609-.35-.154-.763-.231-1.239-.231-.462 0-.889.091-1.281.273a2.99 2.99 0 0 0-.966.672 3.28 3.28 0 0 0-.63.945c-.14.336-.21.672-.21 1.008h5.964zm4.277-4.158h1.89v1.533h.042a2.54 2.54 0 0 1 .504-.714c.21-.224.441-.413.693-.567a3.6 3.6 0 0 1 .861-.357c.308-.098.616-.147.924-.147s.588.042.84.126l-.084 2.037-.462-.105a2.58 2.58 0 0 0-.462-.042c-.924 0-1.631.259-2.121.777s-.735 1.323-.735 2.415V347h-1.89v-9.954zm12.925 8.253l5.649-6.615h-5.46v-1.638h7.77v1.68l-5.691 6.636h5.985V347h-8.253v-1.701zm10.455-7.035c.532-.49 1.148-.854 1.848-1.092.7-.252 1.4-.378 2.1-.378.728 0 1.351.091 1.869.273.532.182.966.427 1.302.735s.581.665.735 1.071c.168.392.252.805.252 1.239v5.082l.021.966.063.84h-1.68l-.063-1.512h-.042c-.42.644-.917 1.099-1.491 1.365s-1.239.399-1.995.399a4.58 4.58 0 0 1-1.323-.189c-.42-.126-.791-.315-1.113-.567a2.79 2.79 0 0 1-.735-.924c-.182-.378-.273-.812-.273-1.302 0-.644.14-1.183.42-1.617.294-.434.686-.784 1.176-1.05.504-.28 1.085-.476 1.743-.588.672-.126 1.386-.189 2.142-.189h1.386v-.42c0-.252-.049-.504-.147-.756s-.245-.476-.441-.672c-.196-.21-.441-.371-.735-.483-.294-.126-.644-.189-1.05-.189-.364 0-.686.035-.966.105-.266.07-.511.161-.735.273a2.9 2.9 0 0 0-.609.357l-.525.399-1.134-1.176zm5.334 3.948c-.448 0-.91.028-1.386.084-.462.042-.889.133-1.281.273-.378.14-.693.336-.945.588-.238.252-.357.574-.357.966 0 .574.189.987.567 1.239.392.252.917.378 1.575.378.518 0 .959-.084 1.323-.252.364-.182.658-.413.882-.693a2.66 2.66 0 0 0 .483-.924c.098-.35.147-.693.147-1.029v-.63h-1.008zm5.514-11.088h1.89v10.248l4.284-4.305h2.625l-4.641 4.515 5.04 5.418h-2.688l-4.62-5.166V347h-1.89v-15.876zm11.037 5.922h1.89V347h-1.89v-9.954zm-.441-3.57c0-.378.133-.7.399-.966a1.35 1.35 0 0 1 .987-.42c.378 0 .7.14.966.42.28.266.42.588.42.966a1.35 1.35 0 0 1-.42.987c-.266.266-.588.399-.966.399s-.707-.133-.987-.399c-.266-.28-.399-.609-.399-.987zm11.33 3.57h1.89V347h-1.89v-9.954zm-.441-3.57c0-.378.133-.7.399-.966a1.35 1.35 0 0 1 .987-.42c.378 0 .7.14.966.42.28.266.42.588.42.966a1.35 1.35 0 0 1-.42.987c-.266.266-.588.399-.966.399s-.707-.133-.987-.399c-.266-.28-.399-.609-.399-.987zm18.303 6.216c-.35-.364-.721-.637-1.113-.819-.378-.196-.833-.294-1.365-.294-.518 0-.973.098-1.365.294a2.73 2.73 0 0 0-.966.777c-.252.322-.448.7-.588 1.134a4.58 4.58 0 0 0-.189 1.323c0 .462.077.903.231 1.323a3.33 3.33 0 0 0 .651 1.071c.28.308.616.553 1.008.735.392.168.833.252 1.323.252.532 0 .987-.091 1.365-.273.378-.196.728-.476 1.05-.84l1.344 1.344c-.49.546-1.064.938-1.722 1.176a5.89 5.89 0 0 1-2.058.357c-.77 0-1.477-.126-2.121-.378-.63-.252-1.176-.602-1.638-1.05a4.82 4.82 0 0 1-1.071-1.638c-.252-.644-.378-1.351-.378-2.121s.126-1.477.378-2.121.602-1.197 1.05-1.659a4.82 4.82 0 0 1 1.638-1.071c.644-.266 1.358-.399 2.142-.399.728 0 1.421.133 2.079.399.672.252 1.253.644 1.743 1.176l-1.428 1.302zm3.054-1.428c.532-.49 1.148-.854 1.848-1.092.7-.252 1.4-.378 2.1-.378.728 0 1.351.091 1.869.273.532.182.966.427 1.302.735s.581.665.735 1.071c.168.392.252.805.252 1.239v5.082l.021.966.063.84h-1.68l-.063-1.512h-.042c-.42.644-.917 1.099-1.491 1.365s-1.239.399-1.995.399a4.58 4.58 0 0 1-1.323-.189c-.42-.126-.791-.315-1.113-.567a2.79 2.79 0 0 1-.735-.924c-.182-.378-.273-.812-.273-1.302 0-.644.14-1.183.42-1.617.294-.434.686-.784 1.176-1.05.504-.28 1.085-.476 1.743-.588.672-.126 1.386-.189 2.142-.189h1.386v-.42c0-.252-.049-.504-.147-.756s-.245-.476-.441-.672c-.196-.21-.441-.371-.735-.483-.294-.126-.644-.189-1.05-.189-.364 0-.686.035-.966.105-.266.07-.511.161-.735.273a2.9 2.9 0 0 0-.609.357l-.525.399-1.134-1.176zm5.334 3.948c-.448 0-.91.028-1.386.084-.462.042-.889.133-1.281.273-.378.14-.693.336-.945.588-.238.252-.357.574-.357.966 0 .574.189.987.567 1.239.392.252.917.378 1.575.378.518 0 .959-.084 1.323-.252.364-.182.658-.413.882-.693a2.66 2.66 0 0 0 .483-.924c.098-.35.147-.693.147-1.029v-.63h-1.008zm5.513-5.166h1.89v1.533h.042c.238-.532.651-.959 1.239-1.281.588-.336 1.267-.504 2.037-.504a4.05 4.05 0 0 1 1.365.231c.448.14.833.364 1.155.672.336.308.602.707.798 1.197.196.476.294 1.043.294 1.701V347h-1.89v-5.88c0-.462-.063-.854-.189-1.176-.126-.336-.294-.602-.504-.798-.21-.21-.455-.357-.735-.441a2.41 2.41 0 0 0-.84-.147c-.392 0-.756.063-1.092.189s-.63.329-.882.609c-.252.266-.448.609-.588 1.029s-.21.917-.21 1.491V347h-1.89v-9.954zM347.61 347h-1.89v-1.428h-.042c-.364.532-.868.945-1.512 1.239a4.57 4.57 0 0 1-1.953.441c-.77 0-1.47-.133-2.1-.399-.616-.266-1.148-.637-1.596-1.113a5.12 5.12 0 0 1-1.008-1.659c-.238-.63-.357-1.316-.357-2.058s.119-1.428.357-2.058c.238-.644.574-1.197 1.008-1.659.448-.476.98-.847 1.596-1.113.63-.266 1.33-.399 2.1-.399a4.53 4.53 0 0 1 2.016.462c.63.294 1.113.7 1.449 1.218h.042v-7.35h1.89V347zm-5.166-1.512a3.54 3.54 0 0 0 1.365-.252 3.22 3.22 0 0 0 1.029-.714c.28-.308.497-.672.651-1.092.154-.434.231-.903.231-1.407s-.077-.966-.231-1.386c-.154-.434-.371-.798-.651-1.092-.28-.308-.623-.546-1.029-.714-.406-.182-.861-.273-1.365-.273s-.959.091-1.365.273c-.406.168-.749.406-1.029.714-.28.294-.497.658-.651 1.092-.154.42-.231.882-.231 1.386s.077.973.231 1.407c.154.42.371.784.651 1.092a3.22 3.22 0 0 0 1.029.714 3.54 3.54 0 0 0 1.365.252zm9.562-3.465c0 .504.077.973.231 1.407.154.42.371.784.651 1.092a3.22 3.22 0 0 0 1.029.714 3.54 3.54 0 0 0 1.365.252 3.54 3.54 0 0 0 1.365-.252 3.22 3.22 0 0 0 1.029-.714c.28-.308.497-.672.651-1.092.154-.434.231-.903.231-1.407s-.077-.966-.231-1.386c-.154-.434-.371-.798-.651-1.092-.28-.308-.623-.546-1.029-.714-.406-.182-.861-.273-1.365-.273s-.959.091-1.365.273c-.406.168-.749.406-1.029.714-.28.294-.497.658-.651 1.092-.154.42-.231.882-.231 1.386zm-2.016 0c0-.728.133-1.407.399-2.037a5.46 5.46 0 0 1 1.134-1.659c.476-.476 1.036-.847 1.68-1.113.644-.28 1.337-.42 2.079-.42s1.435.14 2.079.42c.644.266 1.204.637 1.68 1.113a5.16 5.16 0 0 1 1.113 1.659c.28.63.42 1.309.42 2.037s-.14 1.414-.42 2.058a5.16 5.16 0 0 1-1.113 1.659 5.58 5.58 0 0 1-1.68 1.113c-.644.266-1.337.399-2.079.399s-1.435-.133-2.079-.399a5.58 5.58 0 0 1-1.68-1.113 5.46 5.46 0 0 1-1.134-1.659c-.266-.644-.399-1.33-.399-2.058zm18.796-4.977h1.764v1.554h.042c.042-.14.147-.315.315-.525a3.49 3.49 0 0 1 .672-.588c.28-.196.602-.357.966-.483a3.54 3.54 0 0 1 1.239-.21c.742 0 1.365.154 1.869.462s.917.77 1.239 1.386c.322-.616.777-1.078 1.365-1.386a3.81 3.81 0 0 1 1.785-.462c.77 0 1.4.126 1.89.378s.875.588 1.155 1.008a3.59 3.59 0 0 1 .567 1.407 7.63 7.63 0 0 1 .168 1.617V347h-1.89v-5.544c0-.378-.028-.742-.084-1.092-.042-.35-.14-.658-.294-.924a1.66 1.66 0 0 0-.651-.63c-.28-.168-.651-.252-1.113-.252-.91 0-1.561.28-1.953.84s-.588 1.281-.588 2.163V347h-1.89v-5.208a9.25 9.25 0 0 0-.084-1.302c-.042-.392-.14-.728-.294-1.008-.14-.294-.35-.518-.63-.672-.266-.168-.63-.252-1.092-.252-.336 0-.665.07-.987.21a2.22 2.22 0 0 0-.819.588c-.238.266-.427.609-.567 1.029-.14.406-.21.889-.21 1.449V347h-1.89v-9.954zm19.416 4.977c0 .504.077.973.231 1.407.154.42.371.784.651 1.092a3.22 3.22 0 0 0 1.029.714 3.54 3.54 0 0 0 1.365.252 3.54 3.54 0 0 0 1.365-.252 3.22 3.22 0 0 0 1.029-.714c.28-.308.497-.672.651-1.092.154-.434.231-.903.231-1.407s-.077-.966-.231-1.386c-.154-.434-.371-.798-.651-1.092-.28-.308-.623-.546-1.029-.714-.406-.182-.861-.273-1.365-.273s-.959.091-1.365.273c-.406.168-.749.406-1.029.714-.28.294-.497.658-.651 1.092-.154.42-.231.882-.231 1.386zm-2.016 0c0-.728.133-1.407.399-2.037a5.46 5.46 0 0 1 1.134-1.659c.476-.476 1.036-.847 1.68-1.113.644-.28 1.337-.42 2.079-.42s1.435.14 2.079.42c.644.266 1.204.637 1.68 1.113a5.16 5.16 0 0 1 1.113 1.659c.28.63.42 1.309.42 2.037s-.14 1.414-.42 2.058a5.16 5.16 0 0 1-1.113 1.659 5.58 5.58 0 0 1-1.68 1.113c-.644.266-1.337.399-2.079.399s-1.435-.133-2.079-.399a5.58 5.58 0 0 1-1.68-1.113 5.46 5.46 0 0 1-1.134-1.659c-.266-.644-.399-1.33-.399-2.058zm12.952-10.899h1.89v7.35h.042c.336-.518.819-.924 1.449-1.218a4.53 4.53 0 0 1 2.016-.462c.77 0 1.463.133 2.079.399a4.49 4.49 0 0 1 1.596 1.113 4.68 4.68 0 0 1 1.029 1.659c.238.63.357 1.316.357 2.058s-.119 1.428-.357 2.058a4.94 4.94 0 0 1-1.029 1.659 4.49 4.49 0 0 1-1.596 1.113c-.616.266-1.309.399-2.079.399-.672 0-1.33-.147-1.974-.441-.63-.294-1.127-.707-1.491-1.239h-.042V347h-1.89v-15.876zm5.166 14.364a3.54 3.54 0 0 0 1.365-.252 3.22 3.22 0 0 0 1.029-.714c.28-.308.497-.672.651-1.092.154-.434.231-.903.231-1.407s-.077-.966-.231-1.386c-.154-.434-.371-.798-.651-1.092-.28-.308-.623-.546-1.029-.714-.406-.182-.861-.273-1.365-.273s-.959.091-1.365.273c-.406.168-.749.406-1.029.714-.28.294-.497.658-.651 1.092-.154.42-.231.882-.231 1.386s.077.973.231 1.407c.154.42.371.784.651 1.092a3.22 3.22 0 0 0 1.029.714 3.54 3.54 0 0 0 1.365.252zm7.819-8.442h1.89V347h-1.89v-9.954zm-.441-3.57c0-.378.133-.7.399-.966a1.35 1.35 0 0 1 .987-.42c.378 0 .7.14.966.42.28.266.42.588.42.966a1.35 1.35 0 0 1-.42.987c-.266.266-.588.399-.966.399s-.707-.133-.987-.399c-.266-.28-.399-.609-.399-.987zm5.486-2.352h1.89V347h-1.89v-15.876zm6.326 11.592a2.64 2.64 0 0 0 .273 1.197c.196.35.448.651.756.903a3.45 3.45 0 0 0 1.071.588 3.84 3.84 0 0 0 1.26.21c.588 0 1.099-.133 1.533-.399.434-.28.833-.644 1.197-1.092l1.428 1.092c-1.05 1.358-2.52 2.037-4.41 2.037-.784 0-1.498-.133-2.142-.399a4.85 4.85 0 0 1-1.617-1.092 5.12 5.12 0 0 1-1.008-1.659 5.95 5.95 0 0 1-.357-2.079c0-.742.126-1.428.378-2.058a5.21 5.21 0 0 1 1.071-1.659c.462-.476 1.008-.847 1.638-1.113s1.316-.399 2.058-.399c.882 0 1.624.154 2.226.462a4.34 4.34 0 0 1 1.512 1.218 4.52 4.52 0 0 1 .84 1.68c.182.616.273 1.246.273 1.89v.672h-7.98zm5.964-1.512c-.014-.42-.084-.805-.21-1.155-.112-.35-.287-.651-.525-.903-.238-.266-.539-.469-.903-.609-.35-.154-.763-.231-1.239-.231-.462 0-.889.091-1.281.273a2.99 2.99 0 0 0-.966.672 3.28 3.28 0 0 0-.63.945c-.14.336-.21.672-.21 1.008h5.964zm10.163-2.94c.532-.49 1.148-.854 1.848-1.092.7-.252 1.4-.378 2.1-.378.728 0 1.351.091 1.869.273.532.182.966.427 1.302.735s.581.665.735 1.071c.168.392.252.805.252 1.239v5.082l.021.966.063.84h-1.68l-.063-1.512h-.042c-.42.644-.917 1.099-1.491 1.365s-1.239.399-1.995.399a4.58 4.58 0 0 1-1.323-.189c-.42-.126-.791-.315-1.113-.567a2.79 2.79 0 0 1-.735-.924c-.182-.378-.273-.812-.273-1.302 0-.644.14-1.183.42-1.617.294-.434.686-.784 1.176-1.05.504-.28 1.085-.476 1.743-.588.672-.126 1.386-.189 2.142-.189h1.386v-.42c0-.252-.049-.504-.147-.756s-.245-.476-.441-.672c-.196-.21-.441-.371-.735-.483-.294-.126-.644-.189-1.05-.189-.364 0-.686.035-.966.105-.266.07-.511.161-.735.273a2.9 2.9 0 0 0-.609.357l-.525.399-1.134-1.176zm5.334 3.948c-.448 0-.91.028-1.386.084-.462.042-.889.133-1.281.273-.378.14-.693.336-.945.588-.238.252-.357.574-.357.966 0 .574.189.987.567 1.239.392.252.917.378 1.575.378.518 0 .959-.084 1.323-.252.364-.182.658-.413.882-.693a2.66 2.66 0 0 0 .483-.924c.098-.35.147-.693.147-1.029v-.63h-1.008zm5.514-5.166h1.89v1.428h.042c.364-.532.861-.945 1.491-1.239.644-.294 1.302-.441 1.974-.441.77 0 1.463.133 2.079.399a4.49 4.49 0 0 1 1.596 1.113c.448.476.791 1.036 1.029 1.68.238.63.357 1.309.357 2.037a5.95 5.95 0 0 1-.357 2.079 4.94 4.94 0 0 1-1.029 1.659c-.434.462-.966.826-1.596 1.092-.616.266-1.309.399-2.079.399a4.71 4.71 0 0 1-2.016-.441c-.63-.308-1.113-.721-1.449-1.239h-.042v7.35h-1.89v-15.876zm5.166 1.512c-.504 0-.959.091-1.365.273-.406.168-.749.406-1.029.714-.28.294-.497.658-.651 1.092-.154.42-.231.882-.231 1.386s.077.973.231 1.407c.154.42.371.784.651 1.092a3.22 3.22 0 0 0 1.029.714 3.54 3.54 0 0 0 1.365.252 3.54 3.54 0 0 0 1.365-.252 3.22 3.22 0 0 0 1.029-.714c.28-.308.497-.672.651-1.092.154-.434.231-.903.231-1.407s-.077-.966-.231-1.386c-.154-.434-.371-.798-.651-1.092-.28-.308-.623-.546-1.029-.714-.406-.182-.861-.273-1.365-.273zm7.672-1.512h1.89v1.428h.042c.364-.532.861-.945 1.491-1.239.644-.294 1.302-.441 1.974-.441.77 0 1.463.133 2.079.399a4.49 4.49 0 0 1 1.596 1.113c.448.476.791 1.036 1.029 1.68.238.63.357 1.309.357 2.037a5.95 5.95 0 0 1-.357 2.079 4.94 4.94 0 0 1-1.029 1.659c-.434.462-.966.826-1.596 1.092-.616.266-1.309.399-2.079.399a4.71 4.71 0 0 1-2.016-.441c-.63-.308-1.113-.721-1.449-1.239h-.042v7.35h-1.89v-15.876zm5.166 1.512c-.504 0-.959.091-1.365.273-.406.168-.749.406-1.029.714-.28.294-.497.658-.651 1.092-.154.42-.231.882-.231 1.386s.077.973.231 1.407c.154.42.371.784.651 1.092a3.22 3.22 0 0 0 1.029.714 3.54 3.54 0 0 0 1.365.252 3.54 3.54 0 0 0 1.365-.252 3.22 3.22 0 0 0 1.029-.714c.28-.308.497-.672.651-1.092.154-.434.231-.903.231-1.407s-.077-.966-.231-1.386c-.154-.434-.371-.798-.651-1.092-.28-.308-.623-.546-1.029-.714-.406-.182-.861-.273-1.365-.273zm14.252.126h-2.142v-1.638h2.142v-2.226c0-1.33.252-2.317.756-2.961.518-.658 1.4-.987 2.646-.987l.651.021a3.87 3.87 0 0 1 .756.126l-.21 1.68c-.182-.07-.357-.119-.525-.147s-.35-.042-.546-.042c-.35 0-.63.056-.84.168a1.18 1.18 0 0 0-.504.441 2.04 2.04 0 0 0-.231.714c-.028.266-.042.574-.042.924v2.289h2.247v1.638h-2.268V347h-1.89v-8.316zm7.791 3.339c0 .504.077.973.231 1.407.154.42.371.784.651 1.092a3.22 3.22 0 0 0 1.029.714 3.54 3.54 0 0 0 1.365.252 3.54 3.54 0 0 0 1.365-.252 3.22 3.22 0 0 0 1.029-.714c.28-.308.497-.672.651-1.092.154-.434.231-.903.231-1.407s-.077-.966-.231-1.386c-.154-.434-.371-.798-.651-1.092-.28-.308-.623-.546-1.029-.714-.406-.182-.861-.273-1.365-.273s-.959.091-1.365.273c-.406.168-.749.406-1.029.714-.28.294-.497.658-.651 1.092-.154.42-.231.882-.231 1.386zm-2.016 0c0-.728.133-1.407.399-2.037a5.46 5.46 0 0 1 1.134-1.659c.476-.476 1.036-.847 1.68-1.113.644-.28 1.337-.42 2.079-.42s1.435.14 2.079.42c.644.266 1.204.637 1.68 1.113a5.16 5.16 0 0 1 1.113 1.659c.28.63.42 1.309.42 2.037s-.14 1.414-.42 2.058a5.16 5.16 0 0 1-1.113 1.659 5.58 5.58 0 0 1-1.68 1.113c-.644.266-1.337.399-2.079.399s-1.435-.133-2.079-.399a5.58 5.58 0 0 1-1.68-1.113 5.46 5.46 0 0 1-1.134-1.659c-.266-.644-.399-1.33-.399-2.058zm12.951-4.977h1.89v1.533h.042a2.54 2.54 0 0 1 .504-.714c.21-.224.441-.413.693-.567a3.6 3.6 0 0 1 .861-.357c.308-.098.616-.147.924-.147s.588.042.84.126l-.084 2.037-.462-.105a2.58 2.58 0 0 0-.462-.042c-.924 0-1.631.259-2.121.777s-.735 1.323-.735 2.415V347h-1.89v-9.954zm12.421 0h2.184l2.961 7.77h.042l2.814-7.77h2.037l-4.725 12.096c-.168.434-.343.826-.525 1.176-.182.364-.399.672-.651.924s-.56.448-.924.588c-.35.14-.784.21-1.302.21-.28 0-.567-.021-.861-.063-.28-.028-.553-.098-.819-.21l.231-1.722c.378.154.756.231 1.134.231.294 0 .539-.042.735-.126.21-.07.385-.182.525-.336a1.7 1.7 0 0 0 .378-.504 7.97 7.97 0 0 0 .294-.672l.609-1.575-4.137-10.017zm13.23 4.977c0 .504.077.973.231 1.407.154.42.371.784.651 1.092a3.22 3.22 0 0 0 1.029.714 3.54 3.54 0 0 0 1.365.252 3.54 3.54 0 0 0 1.365-.252 3.22 3.22 0 0 0 1.029-.714c.28-.308.497-.672.651-1.092.154-.434.231-.903.231-1.407s-.077-.966-.231-1.386c-.154-.434-.371-.798-.651-1.092-.28-.308-.623-.546-1.029-.714-.406-.182-.861-.273-1.365-.273s-.959.091-1.365.273c-.406.168-.749.406-1.029.714-.28.294-.497.658-.651 1.092-.154.42-.231.882-.231 1.386zm-2.016 0c0-.728.133-1.407.399-2.037a5.46 5.46 0 0 1 1.134-1.659c.476-.476 1.036-.847 1.68-1.113.644-.28 1.337-.42 2.079-.42s1.435.14 2.079.42c.644.266 1.204.637 1.68 1.113a5.16 5.16 0 0 1 1.113 1.659c.28.63.42 1.309.42 2.037s-.14 1.414-.42 2.058a5.16 5.16 0 0 1-1.113 1.659 5.58 5.58 0 0 1-1.68 1.113c-.644.266-1.337.399-2.079.399s-1.435-.133-2.079-.399a5.58 5.58 0 0 1-1.68-1.113 5.46 5.46 0 0 1-1.134-1.659c-.266-.644-.399-1.33-.399-2.058zM546.857 347h-1.89v-1.533h-.042c-.238.532-.651.966-1.239 1.302-.588.322-1.267.483-2.037.483-.49 0-.952-.077-1.386-.231-.434-.14-.819-.364-1.155-.672-.322-.308-.581-.7-.777-1.176-.196-.49-.294-1.064-.294-1.722v-6.405h1.89v5.88c0 .462.063.861.189 1.197a2.29 2.29 0 0 0 .504.798 2.1 2.1 0 0 0 .714.441 2.98 2.98 0 0 0 .861.126c.392 0 .756-.063 1.092-.189s.63-.322.882-.588c.252-.28.448-.63.588-1.05s.21-.917.21-1.491v-5.124h1.89V347z" fill="#898989"/><path d="M97 376.5H874" stroke="#c1c5e6" stroke-linecap="round"/><g clip-path="url(#C)" stroke="#0f1546" stroke-width="2" stroke-linejoin="round"><path d="M132 338c0 .919.181 1.83.533 2.679s.867 1.621 1.517 2.271 1.422 1.165 2.271 1.517 1.76.533 2.679.533 1.83-.181 2.679-.533 1.621-.867 2.271-1.517 1.165-1.422 1.517-2.271.533-1.76.533-2.679-.181-1.83-.533-2.679-.867-1.621-1.517-2.271-1.422-1.165-2.271-1.517S139.919 331 139 331s-1.83.181-2.679.533-1.621.867-2.271 1.517-1.165 1.422-1.517 2.271S132 337.081 132 338z"/><path d="M147 346l-.75-.75" stroke-linecap="round"/></g><path d="M159.5 332v17" stroke="#000" stroke-linecap="round"/><g stroke="#d9d9d9" stroke-width="2"><rect x="138" y="399" width="163" height="45" rx="22.5"/><rect x="319" y="399" width="163" height="45" rx="22.5"/><rect x="500" y="399" width="163" height="45" rx="22.5"/><rect x="681" y="399" width="173" height="45" rx="22.5"/></g><g fill="#b0aeae"><path d="M161.024 415.672h1.392L167.264 427h-1.792l-1.136-2.8h-5.392l-1.12 2.8h-1.792l4.992-11.328zm2.752 7.184l-2.112-5.2h-.032l-2.144 5.2h4.288zm4.593-3.44h1.44v1.088h.032a2.76 2.76 0 0 1 1.136-.944c.491-.224.992-.336 1.504-.336.587 0 1.115.101 1.584.304.48.203.886.485 1.216.848.342.363.603.789.784 1.28a4.34 4.34 0 0 1 .272 1.552 4.52 4.52 0 0 1-.272 1.584c-.181.48-.442.901-.784 1.264-.33.352-.736.629-1.216.832-.469.203-.997.304-1.584.304-.544 0-1.056-.112-1.536-.336-.48-.235-.848-.549-1.104-.944h-.032v5.6h-1.44v-12.096zm3.936 1.152c-.384 0-.73.069-1.04.208-.309.128-.57.309-.784.544-.213.224-.378.501-.496.832-.117.32-.176.672-.176 1.056s.059.741.176 1.072c.118.32.283.597.496.832a2.47 2.47 0 0 0 .784.544 2.7 2.7 0 0 0 1.04.192c.384 0 .731-.064 1.04-.192.31-.139.571-.32.784-.544a2.49 2.49 0 0 0 .496-.832c.118-.331.176-.688.176-1.072a3.03 3.03 0 0 0-.176-1.056c-.117-.331-.282-.608-.496-.832-.213-.235-.474-.416-.784-.544-.309-.139-.656-.208-1.04-.208zm5.846-1.152h1.44v1.088h.032c.277-.405.656-.72 1.136-.944.49-.224.992-.336 1.504-.336.586 0 1.114.101 1.584.304a3.41 3.41 0 0 1 1.215.848c.342.363.603.789.785 1.28.181.48.272.997.272 1.552 0 .565-.091 1.093-.272 1.584a3.77 3.77 0 0 1-.785 1.264c-.33.352-.735.629-1.215.832-.47.203-.998.304-1.584.304-.544 0-1.056-.112-1.536-.336-.48-.235-.848-.549-1.104-.944h-.032v5.6h-1.44v-12.096zm3.936 1.152c-.384 0-.731.069-1.04.208-.31.128-.571.309-.784.544-.214.224-.379.501-.496.832a3.03 3.03 0 0 0-.176 1.056c0 .384.058.741.176 1.072a2.49 2.49 0 0 0 .496.832c.213.224.474.405.784.544.309.128.656.192 1.04.192a2.7 2.7 0 0 0 1.04-.192 2.47 2.47 0 0 0 .784-.544c.213-.235.378-.512.496-.832.117-.331.176-.688.176-1.072s-.059-.736-.176-1.056c-.118-.331-.283-.608-.496-.832-.214-.235-.475-.416-.784-.544-.31-.139-.656-.208-1.04-.208zm10.858.096h-1.632v-1.248h1.632v-1.696c0-1.013.192-1.765.576-2.256.395-.501 1.067-.752 2.016-.752l.496.016a3.01 3.01 0 0 1 .576.096l-.16 1.28a2.07 2.07 0 0 0-.4-.112c-.128-.021-.267-.032-.416-.032-.267 0-.48.043-.64.128-.16.075-.288.187-.384.336-.085.149-.144.331-.176.544-.021.203-.032.437-.032.704v1.744h1.712v1.248h-1.728V427h-1.44v-6.336zm5.936 2.544c0 .384.059.741.176 1.072.117.32.283.597.496.832a2.46 2.46 0 0 0 .784.544c.309.128.656.192 1.04.192s.731-.064 1.04-.192a2.46 2.46 0 0 0 .784-.544c.213-.235.379-.512.496-.832.117-.331.176-.688.176-1.072s-.059-.736-.176-1.056c-.117-.331-.283-.608-.496-.832-.213-.235-.475-.416-.784-.544-.309-.139-.656-.208-1.04-.208s-.731.069-1.04.208c-.309.128-.571.309-.784.544-.213.224-.379.501-.496.832-.117.32-.176.672-.176 1.056zm-1.536 0a3.94 3.94 0 0 1 .304-1.552 4.15 4.15 0 0 1 .864-1.264 3.89 3.89 0 0 1 1.28-.848c.491-.213 1.019-.32 1.584-.32s1.093.107 1.584.32a3.89 3.89 0 0 1 1.28.848c.363.363.645.784.848 1.264.213.48.32.997.32 1.552s-.107 1.077-.32 1.568c-.203.48-.485.901-.848 1.264-.363.352-.789.635-1.28.848-.491.203-1.019.304-1.584.304s-1.093-.101-1.584-.304c-.491-.213-.917-.496-1.28-.848a4.15 4.15 0 0 1-.864-1.264 4.06 4.06 0 0 1-.304-1.568zm9.868-3.792h1.44v1.168h.032a1.93 1.93 0 0 1 .384-.544 2.51 2.51 0 0 1 .528-.432c.203-.117.421-.208.656-.272a2.3 2.3 0 0 1 .704-.112c.235 0 .448.032.64.096l-.064 1.552-.352-.08c-.117-.021-.235-.032-.352-.032-.704 0-1.243.197-1.616.592s-.56 1.008-.56 1.84V427h-1.44v-7.584zm10.375 0h1.44v1.168h.032a1.93 1.93 0 0 1 .384-.544 2.51 2.51 0 0 1 .528-.432c.203-.117.421-.208.656-.272a2.3 2.3 0 0 1 .704-.112c.235 0 .448.032.64.096l-.064 1.552-.352-.08c-.117-.021-.235-.032-.352-.032-.704 0-1.243.197-1.616.592s-.56 1.008-.56 1.84V427h-1.44v-7.584zm6.729 4.32c0 .331.069.635.208.912.149.267.341.496.576.688a2.62 2.62 0 0 0 .816.448c.309.107.629.16.96.16.448 0 .837-.101 1.168-.304a3.94 3.94 0 0 0 .912-.832l1.088.832c-.8 1.035-1.92 1.552-3.36 1.552-.598 0-1.142-.101-1.632-.304-.48-.203-.891-.48-1.232-.832-.331-.363-.587-.784-.768-1.264a4.52 4.52 0 0 1-.272-1.584c0-.565.096-1.088.288-1.568.202-.491.474-.912.816-1.264.352-.363.768-.645 1.248-.848s1.002-.304 1.568-.304c.672 0 1.237.117 1.696.352.469.235.853.544 1.152.928a3.45 3.45 0 0 1 .64 1.28c.138.469.208.949.208 1.44v.512h-6.08zm4.544-1.152a2.88 2.88 0 0 0-.16-.88c-.086-.267-.219-.496-.4-.688-.182-.203-.411-.357-.688-.464-.267-.117-.582-.176-.944-.176-.352 0-.678.069-.976.208-.288.128-.534.299-.736.512a2.48 2.48 0 0 0-.48.72c-.107.256-.16.512-.16.768h4.544zm7.29-1.264c-.17-.213-.384-.389-.64-.528-.245-.149-.549-.224-.912-.224a1.75 1.75 0 0 0-.896.224c-.245.139-.368.347-.368.624 0 .224.07.405.208.544.15.139.32.251.512.336.203.085.416.149.64.192l.576.112c.31.075.598.165.864.272a2.27 2.27 0 0 1 .704.416c.203.171.358.379.464.624.118.245.176.544.176.896 0 .427-.09.795-.272 1.104-.181.299-.416.544-.704.736s-.618.331-.992.416c-.362.085-.73.128-1.104.128-.629 0-1.184-.096-1.664-.288-.469-.192-.89-.544-1.264-1.056l1.088-.896a4.46 4.46 0 0 0 .784.624c.288.181.64.272 1.056.272.182 0 .363-.016.544-.048.192-.043.358-.101.496-.176a1.09 1.09 0 0 0 .352-.304.7.7 0 0 0 .144-.432c0-.213-.069-.389-.208-.528-.128-.139-.288-.245-.48-.32-.181-.085-.378-.149-.592-.192l-.544-.128-.88-.256a2.69 2.69 0 0 1-.736-.384 1.78 1.78 0 0 1-.512-.608c-.128-.245-.192-.549-.192-.912 0-.395.08-.736.24-1.024.171-.299.39-.544.656-.736.278-.192.587-.336.928-.432a4 4 0 0 1 1.056-.144 3.85 3.85 0 0 1 1.472.288c.47.192.843.512 1.12.96l-1.12.848zm7.142-.656h-2.064v3.44l.016.64c.01.203.048.389.112.56a1.06 1.06 0 0 0 .32.4c.149.096.362.144.64.144a3.05 3.05 0 0 0 .528-.048 1.54 1.54 0 0 0 .496-.176v1.312c-.171.096-.395.16-.672.192-.267.043-.475.064-.624.064-.555 0-.987-.075-1.296-.224a1.7 1.7 0 0 1-.672-.608c-.139-.245-.224-.517-.256-.816l-.032-.928v-3.952h-1.664v-1.248h1.664v-2.128h1.44v2.128h2.064v1.248zm8.578 6.336h-1.44v-1.168h-.032c-.182.405-.496.736-.944.992-.448.245-.966.368-1.552.368-.374 0-.726-.059-1.056-.176-.331-.107-.624-.277-.88-.512-.246-.235-.443-.533-.592-.896-.15-.373-.224-.811-.224-1.312v-4.88h1.44v4.48c0 .352.048.656.144.912.096.245.224.448.384.608a1.61 1.61 0 0 0 .544.336 2.27 2.27 0 0 0 .656.096c.298 0 .576-.048.832-.144a1.77 1.77 0 0 0 .672-.448c.192-.213.341-.48.448-.8s.16-.699.16-1.136v-3.904h1.44V427zm2.17-7.584h1.44v1.168h.032a1.93 1.93 0 0 1 .384-.544 2.51 2.51 0 0 1 .528-.432c.203-.117.421-.208.656-.272a2.3 2.3 0 0 1 .704-.112c.235 0 .448.032.64.096l-.064 1.552-.352-.08c-.117-.021-.235-.032-.352-.032-.704 0-1.243.197-1.616.592s-.56 1.008-.56 1.84V427h-1.44v-7.584zm5.954.928c.405-.373.875-.651 1.408-.832.533-.192 1.067-.288 1.6-.288.555 0 1.029.069 1.424.208.405.139.736.325.992.56s.443.507.56.816a2.37 2.37 0 0 1 .192.944v3.872l.016.736.048.64h-1.28l-.048-1.152h-.032c-.32.491-.699.837-1.136 1.04s-.944.304-1.52.304a3.49 3.49 0 0 1-1.008-.144c-.32-.096-.603-.24-.848-.432a2.13 2.13 0 0 1-.56-.704c-.139-.288-.208-.619-.208-.992 0-.491.107-.901.32-1.232.224-.331.523-.597.896-.8a4.15 4.15 0 0 1 1.328-.448 8.85 8.85 0 0 1 1.632-.144h1.056v-.32c0-.192-.037-.384-.112-.576a1.48 1.48 0 0 0-.336-.512 1.46 1.46 0 0 0-.56-.368c-.224-.096-.491-.144-.8-.144-.277 0-.523.027-.736.08-.203.053-.389.123-.56.208a2.21 2.21 0 0 0-.464.272l-.4.304-.864-.896zm4.064 3.008c-.341 0-.693.021-1.056.064-.352.032-.677.101-.976.208-.288.107-.528.256-.72.448-.181.192-.272.437-.272.736 0 .437.144.752.432.944.299.192.699.288 1.2.288.395 0 .731-.064 1.008-.192a1.99 1.99 0 0 0 .672-.528c.171-.213.293-.448.368-.704a2.89 2.89 0 0 0 .112-.784v-.48h-.768zm4.201-3.936h1.44v1.168h.032c.181-.405.496-.731.944-.976.448-.256.965-.384 1.552-.384.363 0 .709.059 1.04.176.341.107.635.277.88.512.256.235.459.539.608.912.149.363.224.795.224 1.296V427h-1.44v-4.48c0-.352-.048-.651-.144-.896-.096-.256-.224-.459-.384-.608a1.32 1.32 0 0 0-.56-.336 1.83 1.83 0 0 0-.64-.112 2.35 2.35 0 0 0-.832.144 1.7 1.7 0 0 0-.672.464c-.192.203-.341.464-.448.784s-.16.699-.16 1.136V427h-1.44v-7.584zm12.955 1.248h-2.064v3.44l.016.64c.01.203.048.389.112.56a1.06 1.06 0 0 0 .32.4c.149.096.362.144.64.144a3.03 3.03 0 0 0 .527-.048 1.54 1.54 0 0 0 .497-.176v1.312c-.171.096-.395.16-.672.192-.267.043-.475.064-.624.064-.555 0-.987-.075-1.296-.224a1.7 1.7 0 0 1-.672-.608c-.139-.245-.224-.517-.256-.816l-.032-.928v-3.952h-1.665v-1.248h1.665v-2.128h1.44v2.128h2.064v1.248z"/><path d="M348.977 415.672h1.392L355.217 427h-1.792l-1.136-2.8h-5.392l-1.12 2.8h-1.792l4.992-11.328zm2.752 7.184l-2.112-5.2h-.032l-2.144 5.2h4.288zm4.593-3.44h1.44v1.088h.032a2.76 2.76 0 0 1 1.136-.944c.491-.224.992-.336 1.504-.336.587 0 1.115.101 1.584.304.48.203.886.485 1.216.848.342.363.603.789.784 1.28a4.34 4.34 0 0 1 .272 1.552 4.52 4.52 0 0 1-.272 1.584c-.181.48-.442.901-.784 1.264-.33.352-.736.629-1.216.832-.469.203-.997.304-1.584.304-.544 0-1.056-.112-1.536-.336-.48-.235-.848-.549-1.104-.944h-.032v5.6h-1.44v-12.096zm3.936 1.152c-.384 0-.73.069-1.04.208-.309.128-.57.309-.784.544-.213.224-.378.501-.496.832-.117.32-.176.672-.176 1.056s.059.741.176 1.072c.118.32.283.597.496.832a2.47 2.47 0 0 0 .784.544 2.7 2.7 0 0 0 1.04.192c.384 0 .731-.064 1.04-.192.31-.139.571-.32.784-.544a2.49 2.49 0 0 0 .496-.832c.118-.331.176-.688.176-1.072a3.03 3.03 0 0 0-.176-1.056c-.117-.331-.282-.608-.496-.832-.213-.235-.474-.416-.784-.544-.309-.139-.656-.208-1.04-.208zm5.846-1.152h1.44v1.088h.032c.277-.405.656-.72 1.136-.944.49-.224.992-.336 1.504-.336.586 0 1.114.101 1.584.304.48.203.885.485 1.216.848.341.363.602.789.784 1.28.181.48.272.997.272 1.552 0 .565-.091 1.093-.272 1.584-.182.48-.443.901-.784 1.264a3.53 3.53 0 0 1-1.216.832c-.47.203-.998.304-1.584.304-.544 0-1.056-.112-1.536-.336-.48-.235-.848-.549-1.104-.944h-.032v5.6h-1.44v-12.096zm3.936 1.152c-.384 0-.731.069-1.04.208-.31.128-.571.309-.784.544-.214.224-.379.501-.496.832a3.03 3.03 0 0 0-.176 1.056c0 .384.058.741.176 1.072a2.49 2.49 0 0 0 .496.832c.213.224.474.405.784.544.309.128.656.192 1.04.192a2.7 2.7 0 0 0 1.04-.192 2.47 2.47 0 0 0 .784-.544c.213-.235.378-.512.496-.832.117-.331.176-.688.176-1.072s-.059-.736-.176-1.056c-.118-.331-.283-.608-.496-.832-.214-.235-.475-.416-.784-.544-.31-.139-.656-.208-1.04-.208zm10.858.096h-1.632v-1.248h1.632v-1.696c0-1.013.192-1.765.576-2.256.395-.501 1.067-.752 2.016-.752l.496.016a3.01 3.01 0 0 1 .576.096l-.16 1.28a2.07 2.07 0 0 0-.4-.112c-.128-.021-.267-.032-.416-.032-.267 0-.48.043-.64.128-.16.075-.288.187-.384.336-.085.149-.144.331-.176.544-.021.203-.032.437-.032.704v1.744h1.712v1.248h-1.728V427h-1.44v-6.336zm5.936 2.544c0 .384.059.741.176 1.072.117.32.283.597.496.832a2.46 2.46 0 0 0 .784.544c.309.128.656.192 1.04.192s.731-.064 1.04-.192a2.46 2.46 0 0 0 .784-.544c.213-.235.379-.512.496-.832.117-.331.176-.688.176-1.072s-.059-.736-.176-1.056c-.117-.331-.283-.608-.496-.832-.213-.235-.475-.416-.784-.544-.309-.139-.656-.208-1.04-.208s-.731.069-1.04.208c-.309.128-.571.309-.784.544-.213.224-.379.501-.496.832-.117.32-.176.672-.176 1.056zm-1.536 0a3.94 3.94 0 0 1 .304-1.552 4.15 4.15 0 0 1 .864-1.264 3.89 3.89 0 0 1 1.28-.848c.491-.213 1.019-.32 1.584-.32s1.093.107 1.584.32a3.89 3.89 0 0 1 1.28.848c.363.363.645.784.848 1.264.213.48.32.997.32 1.552s-.107 1.077-.32 1.568c-.203.48-.485.901-.848 1.264-.363.352-.789.635-1.28.848-.491.203-1.019.304-1.584.304s-1.093-.101-1.584-.304c-.491-.213-.917-.496-1.28-.848a4.15 4.15 0 0 1-.864-1.264 4.06 4.06 0 0 1-.304-1.568zm9.868-3.792h1.44v1.168h.032a1.93 1.93 0 0 1 .384-.544 2.51 2.51 0 0 1 .528-.432c.203-.117.421-.208.656-.272a2.3 2.3 0 0 1 .704-.112c.235 0 .448.032.64.096l-.064 1.552-.352-.08c-.117-.021-.235-.032-.352-.032-.704 0-1.243.197-1.616.592s-.56 1.008-.56 1.84V427h-1.44v-7.584zm10.407.928c.405-.373.875-.651 1.408-.832.533-.192 1.067-.288 1.6-.288.555 0 1.029.069 1.424.208.405.139.736.325.992.56s.443.507.56.816a2.37 2.37 0 0 1 .192.944v3.872l.016.736.048.64h-1.28l-.048-1.152h-.032c-.32.491-.699.837-1.136 1.04s-.944.304-1.52.304a3.49 3.49 0 0 1-1.008-.144c-.32-.096-.603-.24-.848-.432a2.13 2.13 0 0 1-.56-.704c-.139-.288-.208-.619-.208-.992 0-.491.107-.901.32-1.232.224-.331.523-.597.896-.8a4.15 4.15 0 0 1 1.328-.448 8.85 8.85 0 0 1 1.632-.144h1.056v-.32c0-.192-.037-.384-.112-.576a1.48 1.48 0 0 0-.336-.512 1.46 1.46 0 0 0-.56-.368c-.224-.096-.491-.144-.8-.144-.277 0-.523.027-.736.08-.203.053-.389.123-.56.208a2.21 2.21 0 0 0-.464.272l-.4.304-.864-.896zm4.064 3.008c-.341 0-.693.021-1.056.064-.352.032-.677.101-.976.208-.288.107-.528.256-.72.448-.181.192-.272.437-.272.736 0 .437.144.752.432.944.299.192.699.288 1.2.288.395 0 .731-.064 1.008-.192a1.99 1.99 0 0 0 .672-.528c.171-.213.293-.448.368-.704a2.89 2.89 0 0 0 .112-.784v-.48h-.768zm11.801 3.584c0 .576-.101 1.099-.304 1.568-.192.48-.469.891-.832 1.232-.363.352-.8.624-1.312.816s-1.077.288-1.696.288c-.725 0-1.392-.101-2-.304-.597-.203-1.168-.555-1.712-1.056l.976-1.216c.373.405.779.709 1.216.912.437.213.933.32 1.488.32.533 0 .976-.08 1.328-.24.352-.149.629-.347.832-.592.213-.245.363-.528.448-.848.085-.309.128-.624.128-.944v-1.12h-.048a2.57 2.57 0 0 1-1.136 1.024c-.469.213-.965.32-1.488.32a4.14 4.14 0 0 1-1.552-.288 3.88 3.88 0 0 1-1.216-.816c-.341-.352-.608-.763-.8-1.232a4.14 4.14 0 0 1-.288-1.552c0-.555.091-1.072.272-1.552.181-.491.437-.917.768-1.28a3.62 3.62 0 0 1 1.216-.848c.48-.203 1.013-.304 1.6-.304a3.48 3.48 0 0 1 1.488.336c.491.224.875.539 1.152.944h.032v-1.088h1.44v7.52zm-3.936-6.368c-.384 0-.731.069-1.04.208-.309.128-.571.309-.784.544-.213.224-.379.501-.496.832-.117.32-.176.672-.176 1.056 0 .768.224 1.387.672 1.856.448.459 1.056.688 1.824.688s1.376-.229 1.824-.688c.448-.469.672-1.088.672-1.856 0-.384-.059-.736-.176-1.056-.117-.331-.283-.608-.496-.832-.213-.235-.475-.416-.784-.544-.309-.139-.656-.208-1.04-.208zm7.205 3.168c0 .331.07.635.208.912.15.267.342.496.576.688s.507.341.816.448a2.92 2.92 0 0 0 .96.16c.448 0 .838-.101 1.168-.304a3.9 3.9 0 0 0 .912-.832l1.088.832c-.8 1.035-1.92 1.552-3.36 1.552-.597 0-1.141-.101-1.632-.304-.48-.203-.89-.48-1.232-.832a3.93 3.93 0 0 1-.768-1.264c-.181-.491-.272-1.019-.272-1.584s.096-1.088.288-1.568c.203-.491.475-.912.816-1.264.352-.363.768-.645 1.248-.848s1.003-.304 1.568-.304c.672 0 1.238.117 1.696.352.47.235.854.544 1.152.928.299.373.512.8.64 1.28a5.04 5.04 0 0 1 .208 1.44v.512h-6.08zm4.544-1.152a2.85 2.85 0 0 0-.16-.88 1.76 1.76 0 0 0-.4-.688 1.74 1.74 0 0 0-.688-.464c-.266-.117-.581-.176-.944-.176-.352 0-.677.069-.976.208-.288.128-.533.299-.736.512a2.52 2.52 0 0 0-.48.72c-.106.256-.16.512-.16.768h4.544zm3.259-3.168h1.44v1.168h.032c.181-.405.496-.731.944-.976.448-.256.965-.384 1.552-.384.363 0 .709.059 1.04.176.341.107.635.277.88.512.256.235.459.539.608.912.149.363.224.795.224 1.296V427h-1.44v-4.48c0-.352-.048-.651-.144-.896-.096-.256-.224-.459-.384-.608a1.32 1.32 0 0 0-.56-.336 1.83 1.83 0 0 0-.64-.112 2.35 2.35 0 0 0-.832.144 1.7 1.7 0 0 0-.672.464c-.192.203-.341.464-.448.784s-.16.699-.16 1.136V427h-1.44v-7.584zm14.315 2.016c-.267-.277-.55-.485-.848-.624-.288-.149-.635-.224-1.04-.224-.395 0-.742.075-1.04.224-.288.139-.534.336-.736.592-.192.245-.342.533-.448.864a3.49 3.49 0 0 0-.144 1.008 2.89 2.89 0 0 0 .176 1.008c.117.309.282.581.496.816a2.37 2.37 0 0 0 .768.56 2.53 2.53 0 0 0 1.007.192c.406 0 .753-.069 1.041-.208.288-.149.554-.363.8-.64l1.024 1.024c-.374.416-.811.715-1.312.896a4.5 4.5 0 0 1-1.568.272c-.587 0-1.126-.096-1.616-.288a3.8 3.8 0 0 1-1.248-.8 3.67 3.67 0 0 1-.816-1.248c-.192-.491-.288-1.029-.288-1.616s.096-1.125.288-1.616.458-.912.8-1.264a3.67 3.67 0 0 1 1.248-.816c.49-.203 1.034-.304 1.632-.304.554 0 1.082.101 1.584.304a3.42 3.42 0 0 1 1.328.896l-1.088.992zm1.382-2.016h1.664l2.256 5.92h.032l2.144-5.92h1.552l-3.6 9.216c-.128.331-.261.629-.4.896a2.67 2.67 0 0 1-.496.704 1.99 1.99 0 0 1-.704.448c-.266.107-.597.16-.992.16a4.64 4.64 0 0 1-.656-.048c-.213-.021-.421-.075-.624-.16l.176-1.312a2.28 2.28 0 0 0 .864.176c.224 0 .411-.032.56-.096a.92.92 0 0 0 .4-.256c.118-.107.214-.235.288-.384s.15-.32.224-.512l.464-1.2-3.152-7.632z"/><path d="M537.235 415.672h1.392L543.475 427h-1.792l-1.136-2.8h-5.392l-1.12 2.8h-1.792l4.992-11.328zm2.752 7.184l-2.112-5.2h-.032l-2.144 5.2h4.288zm4.593-3.44h1.44v1.088h.032a2.76 2.76 0 0 1 1.136-.944c.491-.224.992-.336 1.504-.336.587 0 1.115.101 1.584.304.48.203.886.485 1.216.848.342.363.603.789.784 1.28a4.34 4.34 0 0 1 .272 1.552 4.52 4.52 0 0 1-.272 1.584c-.181.48-.442.901-.784 1.264-.33.352-.736.629-1.216.832-.469.203-.997.304-1.584.304-.544 0-1.056-.112-1.536-.336-.48-.235-.848-.549-1.104-.944h-.032v5.6h-1.44v-12.096zm3.936 1.152c-.384 0-.73.069-1.04.208-.309.128-.57.309-.784.544-.213.224-.378.501-.496.832-.117.32-.176.672-.176 1.056s.059.741.176 1.072c.118.32.283.597.496.832a2.47 2.47 0 0 0 .784.544 2.7 2.7 0 0 0 1.04.192c.384 0 .731-.064 1.04-.192.31-.139.571-.32.784-.544a2.49 2.49 0 0 0 .496-.832c.118-.331.176-.688.176-1.072a3.03 3.03 0 0 0-.176-1.056c-.117-.331-.282-.608-.496-.832-.213-.235-.474-.416-.784-.544-.309-.139-.656-.208-1.04-.208zm5.845-1.152h1.44v1.088h.032a2.76 2.76 0 0 1 1.136-.944c.491-.224.992-.336 1.504-.336.587 0 1.115.101 1.584.304.48.203.886.485 1.216.848.342.363.603.789.784 1.28a4.34 4.34 0 0 1 .272 1.552 4.52 4.52 0 0 1-.272 1.584c-.181.48-.442.901-.784 1.264-.33.352-.736.629-1.216.832-.469.203-.997.304-1.584.304-.544 0-1.056-.112-1.536-.336-.48-.235-.848-.549-1.104-.944h-.032v5.6h-1.44v-12.096zm3.936 1.152c-.384 0-.73.069-1.04.208-.309.128-.57.309-.784.544-.213.224-.378.501-.496.832-.117.32-.176.672-.176 1.056s.059.741.176 1.072c.118.32.283.597.496.832a2.47 2.47 0 0 0 .784.544 2.7 2.7 0 0 0 1.04.192c.384 0 .731-.064 1.04-.192.31-.139.571-.32.784-.544a2.49 2.49 0 0 0 .496-.832c.118-.331.176-.688.176-1.072a3.03 3.03 0 0 0-.176-1.056c-.117-.331-.282-.608-.496-.832-.213-.235-.474-.416-.784-.544-.309-.139-.656-.208-1.04-.208zm10.859.096h-1.632v-1.248h1.632v-1.696c0-1.013.192-1.765.576-2.256.394-.501 1.066-.752 2.016-.752l.496.016a3.01 3.01 0 0 1 .576.096l-.16 1.28a2.07 2.07 0 0 0-.4-.112c-.128-.021-.267-.032-.416-.032-.267 0-.48.043-.64.128-.16.075-.288.187-.384.336-.086.149-.144.331-.176.544-.022.203-.032.437-.032.704v1.744h1.712v1.248h-1.728V427h-1.44v-6.336zm5.936 2.544c0 .384.059.741.176 1.072.117.32.283.597.496.832a2.46 2.46 0 0 0 .784.544c.309.128.656.192 1.04.192s.731-.064 1.04-.192a2.46 2.46 0 0 0 .784-.544c.213-.235.379-.512.496-.832.117-.331.176-.688.176-1.072s-.059-.736-.176-1.056c-.117-.331-.283-.608-.496-.832-.213-.235-.475-.416-.784-.544-.309-.139-.656-.208-1.04-.208s-.731.069-1.04.208c-.309.128-.571.309-.784.544-.213.224-.379.501-.496.832-.117.32-.176.672-.176 1.056zm-1.536 0a3.94 3.94 0 0 1 .304-1.552 4.15 4.15 0 0 1 .864-1.264 3.89 3.89 0 0 1 1.28-.848c.491-.213 1.019-.32 1.584-.32s1.093.107 1.584.32a3.89 3.89 0 0 1 1.28.848c.363.363.645.784.848 1.264.213.48.32.997.32 1.552s-.107 1.077-.32 1.568c-.203.48-.485.901-.848 1.264-.363.352-.789.635-1.28.848-.491.203-1.019.304-1.584.304s-1.093-.101-1.584-.304c-.491-.213-.917-.496-1.28-.848a4.15 4.15 0 0 1-.864-1.264 4.06 4.06 0 0 1-.304-1.568zm9.868-3.792h1.44v1.168h.032a1.93 1.93 0 0 1 .384-.544 2.51 2.51 0 0 1 .528-.432c.203-.117.421-.208.656-.272a2.3 2.3 0 0 1 .704-.112c.235 0 .448.032.64.096l-.064 1.552-.352-.08c-.117-.021-.235-.032-.352-.032-.704 0-1.243.197-1.616.592s-.56 1.008-.56 1.84V427h-1.44v-7.584zm14.407 1.904c-.171-.213-.384-.389-.64-.528-.245-.149-.549-.224-.912-.224a1.75 1.75 0 0 0-.896.224c-.245.139-.368.347-.368.624 0 .224.069.405.208.544a1.83 1.83 0 0 0 .512.336c.203.085.416.149.64.192l.576.112c.309.075.597.165.864.272.277.107.512.245.704.416.203.171.357.379.464.624.117.245.176.544.176.896 0 .427-.091.795-.272 1.104-.181.299-.416.544-.704.736s-.619.331-.992.416c-.363.085-.731.128-1.104.128-.629 0-1.184-.096-1.664-.288-.469-.192-.891-.544-1.264-1.056l1.088-.896a4.46 4.46 0 0 0 .784.624c.288.181.64.272 1.056.272.181 0 .363-.016.544-.048a1.93 1.93 0 0 0 .496-.176c.149-.085.267-.187.352-.304a.7.7 0 0 0 .144-.432c0-.213-.069-.389-.208-.528-.128-.139-.288-.245-.48-.32a2.6 2.6 0 0 0-.592-.192l-.544-.128-.88-.256c-.277-.096-.523-.224-.736-.384a1.78 1.78 0 0 1-.512-.608c-.128-.245-.192-.549-.192-.912 0-.395.08-.736.24-1.024.171-.299.389-.544.656-.736.277-.192.587-.336.928-.432a4 4 0 0 1 1.056-.144 3.85 3.85 0 0 1 1.472.288 2.33 2.33 0 0 1 1.12.96l-1.12.848zm7.141-.656h-2.064v3.44l.016.64c.011.203.048.389.112.56a1.08 1.08 0 0 0 .32.4c.15.096.363.144.64.144a3.03 3.03 0 0 0 .528-.048c.182-.032.347-.091.496-.176v1.312c-.17.096-.394.16-.672.192-.266.043-.474.064-.624.064-.554 0-.986-.075-1.296-.224-.298-.16-.522-.363-.672-.608a2.1 2.1 0 0 1-.256-.816l-.032-.928v-3.952h-1.664v-1.248h1.664v-2.128h1.44v2.128h2.064v1.248zm3.026 2.544c0 .384.059.741.176 1.072.118.32.283.597.496.832a2.47 2.47 0 0 0 .784.544 2.7 2.7 0 0 0 1.04.192c.384 0 .731-.064 1.04-.192.31-.139.571-.32.784-.544a2.49 2.49 0 0 0 .496-.832c.118-.331.176-.688.176-1.072a3.03 3.03 0 0 0-.176-1.056c-.117-.331-.282-.608-.496-.832-.213-.235-.474-.416-.784-.544-.309-.139-.656-.208-1.04-.208s-.73.069-1.04.208c-.309.128-.57.309-.784.544-.213.224-.378.501-.496.832-.117.32-.176.672-.176 1.056zm-1.536 0a3.96 3.96 0 0 1 .304-1.552c.214-.48.502-.901.864-1.264a3.9 3.9 0 0 1 1.28-.848c.491-.213 1.019-.32 1.584-.32a3.93 3.93 0 0 1 1.584.32 3.88 3.88 0 0 1 1.28.848 3.92 3.92 0 0 1 .848 1.264c.214.48.32.997.32 1.552a3.88 3.88 0 0 1-.32 1.568 3.92 3.92 0 0 1-.848 1.264c-.362.352-.789.635-1.28.848-.49.203-1.018.304-1.584.304s-1.093-.101-1.584-.304a4.26 4.26 0 0 1-1.28-.848c-.362-.363-.65-.784-.864-1.264a4.08 4.08 0 0 1-.304-1.568zm9.868-3.792h1.44v1.168h.032a1.93 1.93 0 0 1 .384-.544 2.51 2.51 0 0 1 .528-.432c.203-.117.422-.208.656-.272.235-.075.47-.112.704-.112s.448.032.64.096l-.064 1.552-.352-.08c-.117-.021-.234-.032-.352-.032-.704 0-1.242.197-1.616.592s-.56 1.008-.56 1.84V427h-1.44v-7.584zm6.729 4.32c0 .331.069.635.208.912.149.267.341.496.576.688a2.62 2.62 0 0 0 .816.448c.309.107.629.16.96.16.448 0 .837-.101 1.168-.304a3.94 3.94 0 0 0 .912-.832l1.088.832c-.8 1.035-1.92 1.552-3.36 1.552-.598 0-1.142-.101-1.632-.304-.48-.203-.891-.48-1.232-.832-.331-.363-.587-.784-.768-1.264a4.52 4.52 0 0 1-.272-1.584c0-.565.096-1.088.288-1.568.202-.491.474-.912.816-1.264.352-.363.768-.645 1.248-.848s1.002-.304 1.568-.304c.672 0 1.237.117 1.696.352.469.235.853.544 1.152.928a3.45 3.45 0 0 1 .64 1.28c.138.469.208.949.208 1.44v.512h-6.08zm4.544-1.152a2.88 2.88 0 0 0-.16-.88c-.086-.267-.219-.496-.4-.688-.182-.203-.411-.357-.688-.464-.267-.117-.582-.176-.944-.176-.352 0-.678.069-.976.208-.288.128-.534.299-.736.512a2.48 2.48 0 0 0-.48.72c-.107.256-.16.512-.16.768h4.544z"/><path d="M712.969 415.672h1.392L719.209 427h-1.792l-1.136-2.8h-5.392l-1.12 2.8h-1.792l4.992-11.328zm2.752 7.184l-2.112-5.2h-.032l-2.144 5.2h4.288zm4.594-3.44h1.44v1.088h.032c.277-.405.656-.72 1.136-.944.49-.224.992-.336 1.504-.336.586 0 1.114.101 1.584.304.48.203.885.485 1.216.848.341.363.602.789.784 1.28.181.48.272.997.272 1.552 0 .565-.091 1.093-.272 1.584-.182.48-.443.901-.784 1.264a3.53 3.53 0 0 1-1.216.832c-.47.203-.998.304-1.584.304-.544 0-1.056-.112-1.536-.336-.48-.235-.848-.549-1.104-.944h-.032v5.6h-1.44v-12.096zm3.936 1.152c-.384 0-.731.069-1.04.208-.31.128-.571.309-.784.544-.214.224-.379.501-.496.832a3.03 3.03 0 0 0-.176 1.056c0 .384.058.741.176 1.072a2.49 2.49 0 0 0 .496.832c.213.224.474.405.784.544.309.128.656.192 1.04.192a2.7 2.7 0 0 0 1.04-.192 2.47 2.47 0 0 0 .784-.544c.213-.235.378-.512.496-.832.117-.331.176-.688.176-1.072s-.059-.736-.176-1.056c-.118-.331-.283-.608-.496-.832-.214-.235-.475-.416-.784-.544-.31-.139-.656-.208-1.04-.208zm5.845-1.152h1.44v1.088h.032c.277-.405.656-.72 1.136-.944.49-.224.992-.336 1.504-.336.586 0 1.114.101 1.584.304.48.203.885.485 1.216.848.341.363.602.789.784 1.28.181.48.272.997.272 1.552 0 .565-.091 1.093-.272 1.584-.182.48-.443.901-.784 1.264a3.53 3.53 0 0 1-1.216.832c-.47.203-.998.304-1.584.304-.544 0-1.056-.112-1.536-.336-.48-.235-.848-.549-1.104-.944h-.032v5.6h-1.44v-12.096zm3.936 1.152c-.384 0-.731.069-1.04.208-.31.128-.571.309-.784.544-.214.224-.379.501-.496.832a3.03 3.03 0 0 0-.176 1.056c0 .384.058.741.176 1.072a2.49 2.49 0 0 0 .496.832c.213.224.474.405.784.544.309.128.656.192 1.04.192a2.7 2.7 0 0 0 1.04-.192 2.47 2.47 0 0 0 .784-.544c.213-.235.378-.512.496-.832.117-.331.176-.688.176-1.072s-.059-.736-.176-1.056c-.118-.331-.283-.608-.496-.832-.214-.235-.475-.416-.784-.544-.31-.139-.656-.208-1.04-.208zm10.858.096h-1.632v-1.248h1.632v-1.696c0-1.013.192-1.765.576-2.256.395-.501 1.067-.752 2.016-.752l.496.016c.182.011.374.043.576.096l-.16 1.28a2.05 2.05 0 0 0-.4-.112c-.128-.021-.266-.032-.416-.032-.266 0-.48.043-.64.128-.16.075-.288.187-.384.336-.085.149-.144.331-.176.544-.021.203-.032.437-.032.704v1.744h1.712v1.248h-1.728V427h-1.44v-6.336zm5.936 2.544c0 .384.059.741.176 1.072.118.32.283.597.496.832a2.47 2.47 0 0 0 .784.544 2.7 2.7 0 0 0 1.04.192c.384 0 .731-.064 1.04-.192.31-.139.571-.32.784-.544a2.49 2.49 0 0 0 .496-.832c.118-.331.176-.688.176-1.072a3.03 3.03 0 0 0-.176-1.056c-.117-.331-.282-.608-.496-.832-.213-.235-.474-.416-.784-.544-.309-.139-.656-.208-1.04-.208s-.73.069-1.04.208c-.309.128-.57.309-.784.544-.213.224-.378.501-.496.832-.117.32-.176.672-.176 1.056zm-1.536 0a3.96 3.96 0 0 1 .304-1.552c.214-.48.502-.901.864-1.264a3.9 3.9 0 0 1 1.28-.848c.491-.213 1.019-.32 1.584-.32a3.93 3.93 0 0 1 1.584.32 3.88 3.88 0 0 1 1.28.848 3.92 3.92 0 0 1 .848 1.264c.214.48.32.997.32 1.552a3.88 3.88 0 0 1-.32 1.568 3.92 3.92 0 0 1-.848 1.264c-.362.352-.789.635-1.28.848-.49.203-1.018.304-1.584.304s-1.093-.101-1.584-.304a4.26 4.26 0 0 1-1.28-.848c-.362-.363-.65-.784-.864-1.264a4.08 4.08 0 0 1-.304-1.568zm9.868-3.792h1.44v1.168h.032a1.93 1.93 0 0 1 .384-.544 2.51 2.51 0 0 1 .528-.432c.203-.117.422-.208.656-.272.235-.075.47-.112.704-.112s.448.032.64.096l-.064 1.552-.352-.08c-.117-.021-.234-.032-.352-.032-.704 0-1.242.197-1.616.592s-.56 1.008-.56 1.84V427h-1.44v-7.584zm10.375-4.512h1.44v5.6h.032c.256-.395.624-.704 1.104-.928.48-.235.992-.352 1.536-.352.587 0 1.115.101 1.584.304.48.203.886.485 1.216.848a3.55 3.55 0 0 1 .784 1.264c.182.48.272 1.003.272 1.568s-.09 1.088-.272 1.568-.442.901-.784 1.264c-.33.363-.736.645-1.216.848-.469.203-.997.304-1.584.304-.512 0-1.013-.112-1.504-.336a2.76 2.76 0 0 1-1.136-.944h-.032V427h-1.44v-12.096zm3.936 10.944c.384 0 .731-.064 1.04-.192.31-.139.571-.32.784-.544a2.49 2.49 0 0 0 .496-.832c.118-.331.176-.688.176-1.072a3.03 3.03 0 0 0-.176-1.056c-.117-.331-.282-.608-.496-.832-.213-.235-.474-.416-.784-.544-.309-.139-.656-.208-1.04-.208s-.73.069-1.04.208c-.309.128-.57.309-.784.544-.213.224-.378.501-.496.832-.117.32-.176.672-.176 1.056s.059.741.176 1.072c.118.32.283.597.496.832a2.47 2.47 0 0 0 .784.544 2.7 2.7 0 0 0 1.04.192zm7.014-2.64c0 .384.058.741.176 1.072a2.49 2.49 0 0 0 .496.832c.213.224.474.405.784.544.309.128.656.192 1.04.192a2.7 2.7 0 0 0 1.04-.192 2.47 2.47 0 0 0 .784-.544c.213-.235.378-.512.496-.832.117-.331.176-.688.176-1.072s-.059-.736-.176-1.056c-.118-.331-.283-.608-.496-.832-.214-.235-.475-.416-.784-.544-.31-.139-.656-.208-1.04-.208s-.731.069-1.04.208c-.31.128-.571.309-.784.544-.214.224-.379.501-.496.832a3.03 3.03 0 0 0-.176 1.056zm-1.536 0a3.94 3.94 0 0 1 .304-1.552 4.15 4.15 0 0 1 .864-1.264 3.88 3.88 0 0 1 1.28-.848 3.93 3.93 0 0 1 1.584-.32c.565 0 1.093.107 1.584.32a3.9 3.9 0 0 1 1.28.848c.362.363.645.784.848 1.264.213.48.32.997.32 1.552s-.107 1.077-.32 1.568c-.203.48-.486.901-.848 1.264a4.26 4.26 0 0 1-1.28.848c-.491.203-1.019.304-1.584.304s-1.094-.101-1.584-.304c-.491-.213-.918-.496-1.28-.848a4.15 4.15 0 0 1-.864-1.264 4.06 4.06 0 0 1-.304-1.568zm11.036 0c0 .384.058.741.176 1.072a2.49 2.49 0 0 0 .496.832c.213.224.474.405.784.544.309.128.656.192 1.04.192a2.7 2.7 0 0 0 1.04-.192 2.47 2.47 0 0 0 .784-.544c.213-.235.378-.512.496-.832.117-.331.176-.688.176-1.072s-.059-.736-.176-1.056c-.118-.331-.283-.608-.496-.832-.214-.235-.475-.416-.784-.544-.31-.139-.656-.208-1.04-.208s-.731.069-1.04.208c-.31.128-.571.309-.784.544-.214.224-.379.501-.496.832a3.03 3.03 0 0 0-.176 1.056zm-1.536 0a3.94 3.94 0 0 1 .304-1.552 4.15 4.15 0 0 1 .864-1.264 3.88 3.88 0 0 1 1.28-.848 3.93 3.93 0 0 1 1.584-.32c.565 0 1.093.107 1.584.32a3.9 3.9 0 0 1 1.28.848c.362.363.645.784.848 1.264.213.48.32.997.32 1.552s-.107 1.077-.32 1.568c-.203.48-.486.901-.848 1.264a4.26 4.26 0 0 1-1.28.848c-.491.203-1.019.304-1.584.304s-1.094-.101-1.584-.304c-.491-.213-.918-.496-1.28-.848a4.15 4.15 0 0 1-.864-1.264 4.06 4.06 0 0 1-.304-1.568zm9.868-8.304h1.44v7.808l3.264-3.28h2l-3.536 3.44 3.84 4.128h-2.048l-3.52-3.936V427h-1.44v-12.096zm8.408 4.512h1.44V427h-1.44v-7.584zm-.336-2.72c0-.288.102-.533.304-.736a1.03 1.03 0 0 1 .752-.32c.288 0 .534.107.736.32.214.203.32.448.32.736s-.106.539-.32.752a1 1 0 0 1-.736.304c-.288 0-.538-.101-.752-.304a1.06 1.06 0 0 1-.304-.752zm4.068 2.72h1.44v1.168h.032c.182-.405.496-.731.944-.976.448-.256.966-.384 1.552-.384a3.09 3.09 0 0 1 1.04.176c.342.107.635.277.88.512.256.235.459.539.608.912.15.363.224.795.224 1.296V427h-1.44v-4.48c0-.352-.048-.651-.144-.896-.096-.256-.224-.459-.384-.608a1.31 1.31 0 0 0-.56-.336c-.202-.075-.416-.112-.64-.112-.298 0-.576.048-.832.144a1.7 1.7 0 0 0-.672.464c-.192.203-.341.464-.448.784s-.16.699-.16 1.136V427h-1.44v-7.584zm16.491 7.52c0 .576-.102 1.099-.304 1.568a3.41 3.41 0 0 1-.832 1.232c-.363.352-.8.624-1.312.816s-1.078.288-1.696.288a6.28 6.28 0 0 1-2-.304c-.598-.203-1.168-.555-1.712-1.056l.976-1.216c.373.405.778.709 1.216.912.437.213.933.32 1.488.32.533 0 .976-.08 1.328-.24.352-.149.629-.347.832-.592a2.11 2.11 0 0 0 .448-.848c.085-.309.128-.624.128-.944v-1.12h-.048c-.278.459-.656.8-1.136 1.024-.47.213-.966.32-1.488.32a4.14 4.14 0 0 1-1.552-.288c-.47-.203-.875-.475-1.216-.816a3.83 3.83 0 0 1-.8-1.232 4.14 4.14 0 0 1-.288-1.552 4.34 4.34 0 0 1 .272-1.552c.181-.491.437-.917.768-1.28a3.61 3.61 0 0 1 1.216-.848c.48-.203 1.013-.304 1.6-.304a3.48 3.48 0 0 1 1.488.336c.49.224.874.539 1.152.944h.032v-1.088h1.44v7.52zm-3.936-6.368c-.384 0-.731.069-1.04.208-.31.128-.571.309-.784.544-.214.224-.379.501-.496.832a3.03 3.03 0 0 0-.176 1.056c0 .768.224 1.387.672 1.856.448.459 1.056.688 1.824.688s1.376-.229 1.824-.688c.448-.469.672-1.088.672-1.856 0-.384-.059-.736-.176-1.056-.118-.331-.283-.608-.496-.832-.214-.235-.475-.416-.784-.544-.31-.139-.656-.208-1.04-.208z"/></g><g stroke-linecap="round" stroke-width="21"><path d="M147 497H564.5" stroke="url(#A)"/><path d="M147 538H564.5" stroke="url(#B)"/></g><defs><linearGradient id="A" x1="139" y1="497" x2="565" y2="496.999" gradientUnits="userSpaceOnUse"><stop stop-color="#d8d8d8"/><stop offset="1" stop-color="#fff" stop-opacity="0"/></linearGradient><linearGradient id="B" x1="139" y1="538" x2="565" y2="537.999" gradientUnits="userSpaceOnUse"><stop stop-color="#d8d8d8"/><stop offset="1" stop-color="#fff" stop-opacity="0"/></linearGradient><clipPath id="C"><path fill="#fff" transform="translate(129 328)" d="M0 0h24v24H0z"/></clipPath></defs></svg>