<svg width="589" height="567" viewBox="0 0 589 567" fill="none" xmlns="http://www.w3.org/2000/svg">
<rect width="589" height="567" rx="69" fill="white"/>
<path d="M96.6 145.32C95.56 144.2 94.5467 143.453 93.56 143.08C92.6 142.707 91.6267 142.52 90.64 142.52C89.1733 142.52 87.84 142.787 86.64 143.32C85.4667 143.827 84.4533 144.547 83.6 145.48C82.7467 146.387 82.08 147.453 81.6 148.68C81.1467 149.907 80.92 151.227 80.92 152.64C80.92 154.16 81.1467 155.56 81.6 156.84C82.08 158.12 82.7467 159.227 83.6 160.16C84.4533 161.093 85.4667 161.827 86.64 162.36C87.84 162.893 89.1733 163.16 90.64 163.16C91.7867 163.16 92.8933 162.893 93.96 162.36C95.0533 161.8 96.0667 160.92 97 159.72L101.16 162.68C99.88 164.44 98.32 165.72 96.48 166.52C94.64 167.32 92.68 167.72 90.6 167.72C88.4133 167.72 86.4 167.373 84.56 166.68C82.7467 165.96 81.1733 164.96 79.84 163.68C78.5333 162.373 77.5067 160.813 76.76 159C76.0133 157.187 75.64 155.173 75.64 152.96C75.64 150.693 76.0133 148.64 76.76 146.8C77.5067 144.933 78.5333 143.347 79.84 142.04C81.1733 140.733 82.7467 139.733 84.56 139.04C86.4 138.32 88.4133 137.96 90.6 137.96C92.52 137.96 94.2933 138.307 95.92 139C97.5733 139.667 99.1067 140.813 100.52 142.44L96.6 145.32ZM108.903 150.48H108.983C109.356 149.68 110.009 148.96 110.943 148.32C111.903 147.653 113.129 147.32 114.623 147.32C115.903 147.32 116.983 147.533 117.863 147.96C118.769 148.387 119.503 148.947 120.063 149.64C120.623 150.333 121.023 151.133 121.263 152.04C121.503 152.947 121.623 153.893 121.623 154.88V167H116.823V157.28C116.823 156.747 116.796 156.16 116.743 155.52C116.689 154.853 116.543 154.24 116.303 153.68C116.089 153.093 115.743 152.613 115.263 152.24C114.783 151.84 114.129 151.64 113.303 151.64C112.503 151.64 111.823 151.773 111.263 152.04C110.729 152.307 110.276 152.667 109.903 153.12C109.556 153.573 109.303 154.093 109.143 154.68C108.983 155.267 108.903 155.88 108.903 156.52V167H104.103V136.76H108.903V150.48ZM126.112 157.4C126.112 155.88 126.378 154.507 126.912 153.28C127.472 152.027 128.218 150.96 129.152 150.08C130.085 149.2 131.192 148.52 132.472 148.04C133.752 147.56 135.112 147.32 136.552 147.32C137.992 147.32 139.352 147.56 140.632 148.04C141.912 148.52 143.018 149.2 143.952 150.08C144.885 150.96 145.618 152.027 146.152 153.28C146.712 154.507 146.992 155.88 146.992 157.4C146.992 158.92 146.712 160.307 146.152 161.56C145.618 162.787 144.885 163.84 143.952 164.72C143.018 165.6 141.912 166.28 140.632 166.76C139.352 167.24 137.992 167.48 136.552 167.48C135.112 167.48 133.752 167.24 132.472 166.76C131.192 166.28 130.085 165.6 129.152 164.72C128.218 163.84 127.472 162.787 126.912 161.56C126.378 160.307 126.112 158.92 126.112 157.4ZM130.912 157.4C130.912 158.147 131.032 158.867 131.272 159.56C131.538 160.253 131.912 160.867 132.392 161.4C132.898 161.933 133.498 162.36 134.192 162.68C134.885 163 135.672 163.16 136.552 163.16C137.432 163.16 138.218 163 138.912 162.68C139.605 162.36 140.192 161.933 140.672 161.4C141.178 160.867 141.552 160.253 141.792 159.56C142.058 158.867 142.192 158.147 142.192 157.4C142.192 156.653 142.058 155.933 141.792 155.24C141.552 154.547 141.178 153.933 140.672 153.4C140.192 152.867 139.605 152.44 138.912 152.12C138.218 151.8 137.432 151.64 136.552 151.64C135.672 151.64 134.885 151.8 134.192 152.12C133.498 152.44 132.898 152.867 132.392 153.4C131.912 153.933 131.538 154.547 131.272 155.24C131.032 155.933 130.912 156.653 130.912 157.4ZM150.526 157.4C150.526 155.88 150.792 154.507 151.326 153.28C151.886 152.027 152.632 150.96 153.566 150.08C154.499 149.2 155.606 148.52 156.886 148.04C158.166 147.56 159.526 147.32 160.966 147.32C162.406 147.32 163.766 147.56 165.046 148.04C166.326 148.52 167.432 149.2 168.366 150.08C169.299 150.96 170.032 152.027 170.566 153.28C171.126 154.507 171.406 155.88 171.406 157.4C171.406 158.92 171.126 160.307 170.566 161.56C170.032 162.787 169.299 163.84 168.366 164.72C167.432 165.6 166.326 166.28 165.046 166.76C163.766 167.24 162.406 167.48 160.966 167.48C159.526 167.48 158.166 167.24 156.886 166.76C155.606 166.28 154.499 165.6 153.566 164.72C152.632 163.84 151.886 162.787 151.326 161.56C150.792 160.307 150.526 158.92 150.526 157.4ZM155.326 157.4C155.326 158.147 155.446 158.867 155.686 159.56C155.952 160.253 156.326 160.867 156.806 161.4C157.312 161.933 157.912 162.36 158.606 162.68C159.299 163 160.086 163.16 160.966 163.16C161.846 163.16 162.632 163 163.326 162.68C164.019 162.36 164.606 161.933 165.086 161.4C165.592 160.867 165.966 160.253 166.206 159.56C166.472 158.867 166.606 158.147 166.606 157.4C166.606 156.653 166.472 155.933 166.206 155.24C165.966 154.547 165.592 153.933 165.086 153.4C164.606 152.867 164.019 152.44 163.326 152.12C162.632 151.8 161.846 151.64 160.966 151.64C160.086 151.64 159.299 151.8 158.606 152.12C157.912 152.44 157.312 152.867 156.806 153.4C156.326 153.933 155.952 154.547 155.686 155.24C155.446 155.933 155.326 156.653 155.326 157.4ZM186.14 153.12C185.206 151.813 183.953 151.16 182.38 151.16C181.74 151.16 181.113 151.32 180.5 151.64C179.886 151.96 179.58 152.48 179.58 153.2C179.58 153.787 179.833 154.213 180.34 154.48C180.846 154.747 181.486 154.973 182.26 155.16C183.033 155.347 183.86 155.547 184.74 155.76C185.646 155.947 186.486 156.253 187.26 156.68C188.033 157.08 188.673 157.64 189.18 158.36C189.686 159.08 189.94 160.067 189.94 161.32C189.94 162.467 189.686 163.44 189.18 164.24C188.7 165.013 188.06 165.64 187.26 166.12C186.486 166.6 185.606 166.947 184.62 167.16C183.633 167.373 182.646 167.48 181.66 167.48C180.166 167.48 178.793 167.267 177.54 166.84C176.286 166.413 175.166 165.64 174.18 164.52L177.38 161.52C177.993 162.213 178.646 162.787 179.34 163.24C180.06 163.667 180.926 163.88 181.94 163.88C182.286 163.88 182.646 163.84 183.02 163.76C183.393 163.68 183.74 163.547 184.06 163.36C184.38 163.173 184.633 162.947 184.82 162.68C185.033 162.387 185.14 162.053 185.14 161.68C185.14 161.013 184.886 160.52 184.38 160.2C183.873 159.88 183.233 159.627 182.46 159.44C181.686 159.227 180.846 159.04 179.94 158.88C179.06 158.693 178.233 158.413 177.46 158.04C176.686 157.64 176.046 157.093 175.54 156.4C175.033 155.707 174.78 154.747 174.78 153.52C174.78 152.453 174.993 151.533 175.42 150.76C175.873 149.96 176.46 149.307 177.18 148.8C177.9 148.293 178.726 147.92 179.66 147.68C180.593 147.44 181.54 147.32 182.5 147.32C183.78 147.32 185.046 147.547 186.3 148C187.553 148.427 188.566 149.173 189.34 150.24L186.14 153.12ZM197.513 159.08C197.673 160.52 198.233 161.64 199.193 162.44C200.153 163.24 201.313 163.64 202.673 163.64C203.873 163.64 204.873 163.4 205.673 162.92C206.5 162.413 207.22 161.787 207.833 161.04L211.273 163.64C210.153 165.027 208.9 166.013 207.513 166.6C206.126 167.187 204.673 167.48 203.153 167.48C201.713 167.48 200.353 167.24 199.073 166.76C197.793 166.28 196.686 165.6 195.753 164.72C194.82 163.84 194.073 162.787 193.513 161.56C192.98 160.307 192.713 158.92 192.713 157.4C192.713 155.88 192.98 154.507 193.513 153.28C194.073 152.027 194.82 150.96 195.753 150.08C196.686 149.2 197.793 148.52 199.073 148.04C200.353 147.56 201.713 147.32 203.153 147.32C204.486 147.32 205.7 147.56 206.793 148.04C207.913 148.493 208.86 149.16 209.633 150.04C210.433 150.92 211.046 152.013 211.473 153.32C211.926 154.6 212.153 156.08 212.153 157.76V159.08H197.513ZM207.353 155.48C207.326 154.067 206.886 152.96 206.033 152.16C205.18 151.333 203.993 150.92 202.473 150.92C201.033 150.92 199.886 151.333 199.033 152.16C198.206 152.987 197.7 154.093 197.513 155.48H207.353ZM225.878 147.8H231.158L236.518 161.12H236.598L241.398 147.8H246.398L237.318 171.12C236.971 172.027 236.584 172.813 236.158 173.48C235.758 174.173 235.278 174.747 234.718 175.2C234.158 175.68 233.491 176.027 232.718 176.24C231.971 176.48 231.064 176.6 229.998 176.6C228.744 176.6 227.518 176.44 226.318 176.12L226.918 171.8C227.291 171.933 227.678 172.04 228.078 172.12C228.504 172.227 228.931 172.28 229.358 172.28C229.944 172.28 230.438 172.227 230.838 172.12C231.238 172.013 231.571 171.84 231.838 171.6C232.131 171.387 232.371 171.093 232.558 170.72C232.744 170.373 232.944 169.947 233.158 169.44L234.078 167.16L225.878 147.8ZM248.26 157.4C248.26 155.88 248.527 154.507 249.06 153.28C249.62 152.027 250.367 150.96 251.3 150.08C252.233 149.2 253.34 148.52 254.62 148.04C255.9 147.56 257.26 147.32 258.7 147.32C260.14 147.32 261.5 147.56 262.78 148.04C264.06 148.52 265.167 149.2 266.1 150.08C267.033 150.96 267.767 152.027 268.3 153.28C268.86 154.507 269.14 155.88 269.14 157.4C269.14 158.92 268.86 160.307 268.3 161.56C267.767 162.787 267.033 163.84 266.1 164.72C265.167 165.6 264.06 166.28 262.78 166.76C261.5 167.24 260.14 167.48 258.7 167.48C257.26 167.48 255.9 167.24 254.62 166.76C253.34 166.28 252.233 165.6 251.3 164.72C250.367 163.84 249.62 162.787 249.06 161.56C248.527 160.307 248.26 158.92 248.26 157.4ZM253.06 157.4C253.06 158.147 253.18 158.867 253.42 159.56C253.687 160.253 254.06 160.867 254.54 161.4C255.047 161.933 255.647 162.36 256.34 162.68C257.033 163 257.82 163.16 258.7 163.16C259.58 163.16 260.367 163 261.06 162.68C261.753 162.36 262.34 161.933 262.82 161.4C263.327 160.867 263.7 160.253 263.94 159.56C264.207 158.867 264.34 158.147 264.34 157.4C264.34 156.653 264.207 155.933 263.94 155.24C263.7 154.547 263.327 153.933 262.82 153.4C262.34 152.867 261.753 152.44 261.06 152.12C260.367 151.8 259.58 151.64 258.7 151.64C257.82 151.64 257.033 151.8 256.34 152.12C255.647 152.44 255.047 152.867 254.54 153.4C254.06 153.933 253.687 154.547 253.42 155.24C253.18 155.933 253.06 156.653 253.06 157.4ZM291.154 167H286.594V163.92H286.514C286.061 164.88 285.367 165.72 284.434 166.44C283.501 167.133 282.234 167.48 280.634 167.48C279.354 167.48 278.261 167.28 277.354 166.88C276.474 166.453 275.754 165.893 275.194 165.2C274.634 164.48 274.234 163.667 273.994 162.76C273.754 161.853 273.634 160.907 273.634 159.92V147.8H278.434V157.52C278.434 158.053 278.461 158.653 278.514 159.32C278.567 159.96 278.701 160.573 278.914 161.16C279.154 161.72 279.501 162.2 279.954 162.6C280.434 162.973 281.101 163.16 281.954 163.16C282.754 163.16 283.421 163.027 283.954 162.76C284.514 162.493 284.967 162.133 285.314 161.68C285.687 161.227 285.954 160.707 286.114 160.12C286.274 159.533 286.354 158.92 286.354 158.28V147.8H291.154V167ZM296.603 147.8H301.403V150.84H301.483C302.016 149.72 302.776 148.853 303.763 148.24C304.749 147.627 305.883 147.32 307.163 147.32C307.456 147.32 307.736 147.347 308.003 147.4C308.296 147.453 308.589 147.52 308.883 147.6V152.24C308.483 152.133 308.083 152.053 307.683 152C307.309 151.92 306.936 151.88 306.563 151.88C305.443 151.88 304.536 152.093 303.843 152.52C303.176 152.92 302.656 153.387 302.283 153.92C301.936 154.453 301.696 154.987 301.563 155.52C301.456 156.053 301.403 156.453 301.403 156.72V167H296.603V147.8ZM330.226 143.24H321.546V138.68H343.946V143.24H335.266V167H330.226V143.24ZM351.754 150.48H351.834C352.208 149.68 352.861 148.96 353.794 148.32C354.754 147.653 355.981 147.32 357.474 147.32C358.754 147.32 359.834 147.533 360.714 147.96C361.621 148.387 362.354 148.947 362.914 149.64C363.474 150.333 363.874 151.133 364.114 152.04C364.354 152.947 364.474 153.893 364.474 154.88V167H359.674V157.28C359.674 156.747 359.648 156.16 359.594 155.52C359.541 154.853 359.394 154.24 359.154 153.68C358.941 153.093 358.594 152.613 358.114 152.24C357.634 151.84 356.981 151.64 356.154 151.64C355.354 151.64 354.674 151.773 354.114 152.04C353.581 152.307 353.128 152.667 352.754 153.12C352.408 153.573 352.154 154.093 351.994 154.68C351.834 155.267 351.754 155.88 351.754 156.52V167H346.954V136.76H351.754V150.48ZM373.763 159.08C373.923 160.52 374.483 161.64 375.443 162.44C376.403 163.24 377.563 163.64 378.923 163.64C380.123 163.64 381.123 163.4 381.923 162.92C382.75 162.413 383.47 161.787 384.083 161.04L387.523 163.64C386.403 165.027 385.15 166.013 383.763 166.6C382.376 167.187 380.923 167.48 379.403 167.48C377.963 167.48 376.603 167.24 375.323 166.76C374.043 166.28 372.936 165.6 372.003 164.72C371.07 163.84 370.323 162.787 369.763 161.56C369.23 160.307 368.963 158.92 368.963 157.4C368.963 155.88 369.23 154.507 369.763 153.28C370.323 152.027 371.07 150.96 372.003 150.08C372.936 149.2 374.043 148.52 375.323 148.04C376.603 147.56 377.963 147.32 379.403 147.32C380.736 147.32 381.95 147.56 383.043 148.04C384.163 148.493 385.11 149.16 385.883 150.04C386.683 150.92 387.296 152.013 387.723 153.32C388.176 154.6 388.403 156.08 388.403 157.76V159.08H373.763ZM383.603 155.48C383.576 154.067 383.136 152.96 382.283 152.16C381.43 151.333 380.243 150.92 378.723 150.92C377.283 150.92 376.136 151.333 375.283 152.16C374.456 152.987 373.95 154.093 373.763 155.48H383.603ZM392.692 147.8H397.252V150.8H397.332C397.759 149.893 398.439 149.093 399.372 148.4C400.332 147.68 401.612 147.32 403.212 147.32C406.225 147.32 408.225 148.507 409.212 150.88C409.905 149.653 410.772 148.76 411.812 148.2C412.852 147.613 414.092 147.32 415.532 147.32C416.812 147.32 417.892 147.533 418.772 147.96C419.652 148.387 420.359 148.973 420.892 149.72C421.452 150.467 421.852 151.347 422.092 152.36C422.332 153.347 422.452 154.413 422.452 155.56V167H417.652V156.12C417.652 155.533 417.599 154.973 417.492 154.44C417.385 153.88 417.199 153.4 416.932 153C416.665 152.573 416.305 152.24 415.852 152C415.399 151.76 414.812 151.64 414.092 151.64C413.345 151.64 412.705 151.787 412.172 152.08C411.665 152.347 411.239 152.72 410.892 153.2C410.572 153.653 410.332 154.187 410.172 154.8C410.039 155.387 409.972 155.987 409.972 156.6V167H405.172V155.56C405.172 154.36 404.919 153.413 404.412 152.72C403.905 152 403.065 151.64 401.892 151.64C401.092 151.64 400.412 151.773 399.852 152.04C399.319 152.307 398.865 152.667 398.492 153.12C398.145 153.573 397.892 154.093 397.732 154.68C397.572 155.267 397.492 155.88 397.492 156.52V167H392.692V147.8ZM431.537 159.08C431.697 160.52 432.257 161.64 433.217 162.44C434.177 163.24 435.337 163.64 436.697 163.64C437.897 163.64 438.897 163.4 439.697 162.92C440.523 162.413 441.243 161.787 441.857 161.04L445.297 163.64C444.177 165.027 442.923 166.013 441.537 166.6C440.15 167.187 438.697 167.48 437.177 167.48C435.737 167.48 434.377 167.24 433.097 166.76C431.817 166.28 430.71 165.6 429.777 164.72C428.843 163.84 428.097 162.787 427.537 161.56C427.003 160.307 426.737 158.92 426.737 157.4C426.737 155.88 427.003 154.507 427.537 153.28C428.097 152.027 428.843 150.96 429.777 150.08C430.71 149.2 431.817 148.52 433.097 148.04C434.377 147.56 435.737 147.32 437.177 147.32C438.51 147.32 439.723 147.56 440.817 148.04C441.937 148.493 442.883 149.16 443.657 150.04C444.457 150.92 445.07 152.013 445.497 153.32C445.95 154.6 446.177 156.08 446.177 157.76V159.08H431.537ZM441.377 155.48C441.35 154.067 440.91 152.96 440.057 152.16C439.203 151.333 438.017 150.92 436.497 150.92C435.057 150.92 433.91 151.333 433.057 152.16C432.23 152.987 431.723 154.093 431.537 155.48H441.377Z" fill="#151B4A"/>
<path d="M76.548 194.176H89.344V196.696H79.236V202.604H88.644V205.124H79.236V211.48H89.848V214H76.548V194.176ZM93.0772 202.352C93.7865 201.699 94.6079 201.213 95.5412 200.896C96.4745 200.56 97.4079 200.392 98.3412 200.392C99.3119 200.392 100.143 200.513 100.833 200.756C101.543 200.999 102.121 201.325 102.569 201.736C103.017 202.147 103.344 202.623 103.549 203.164C103.773 203.687 103.885 204.237 103.885 204.816V211.592C103.885 212.059 103.895 212.488 103.913 212.88C103.932 213.272 103.96 213.645 103.997 214H101.757C101.701 213.328 101.673 212.656 101.673 211.984H101.617C101.057 212.843 100.395 213.449 99.6292 213.804C98.8639 214.159 97.9772 214.336 96.9692 214.336C96.3532 214.336 95.7652 214.252 95.2052 214.084C94.6452 213.916 94.1505 213.664 93.7212 213.328C93.3105 212.992 92.9839 212.581 92.7412 212.096C92.4985 211.592 92.3772 211.013 92.3772 210.36C92.3772 209.501 92.5639 208.783 92.9372 208.204C93.3292 207.625 93.8519 207.159 94.5052 206.804C95.1772 206.431 95.9519 206.169 96.8292 206.02C97.7252 205.852 98.6772 205.768 99.6852 205.768H101.533V205.208C101.533 204.872 101.468 204.536 101.337 204.2C101.207 203.864 101.011 203.565 100.749 203.304C100.488 203.024 100.161 202.809 99.7692 202.66C99.3772 202.492 98.9105 202.408 98.3692 202.408C97.8839 202.408 97.4545 202.455 97.0812 202.548C96.7265 202.641 96.3999 202.763 96.1012 202.912C95.8025 203.043 95.5319 203.201 95.2892 203.388C95.0465 203.575 94.8132 203.752 94.5892 203.92L93.0772 202.352ZM100.189 207.616C99.5919 207.616 98.9759 207.653 98.3412 207.728C97.7252 207.784 97.1559 207.905 96.6332 208.092C96.1292 208.279 95.7092 208.54 95.3732 208.876C95.0559 209.212 94.8972 209.641 94.8972 210.164C94.8972 210.929 95.1492 211.48 95.6532 211.816C96.1759 212.152 96.8759 212.32 97.7532 212.32C98.4439 212.32 99.0319 212.208 99.5172 211.984C100.003 211.741 100.395 211.433 100.693 211.06C100.992 210.687 101.207 210.276 101.337 209.828C101.468 209.361 101.533 208.904 101.533 208.456V207.616H100.189ZM114.597 204.06C114.298 203.687 113.925 203.379 113.477 203.136C113.047 202.875 112.515 202.744 111.881 202.744C111.283 202.744 110.761 202.875 110.313 203.136C109.883 203.379 109.669 203.743 109.669 204.228C109.669 204.62 109.79 204.937 110.033 205.18C110.294 205.423 110.593 205.619 110.929 205.768C111.283 205.917 111.657 206.029 112.049 206.104C112.441 206.179 112.777 206.244 113.057 206.3C113.598 206.431 114.102 206.589 114.569 206.776C115.054 206.963 115.465 207.205 115.801 207.504C116.155 207.803 116.426 208.167 116.613 208.596C116.818 209.025 116.921 209.548 116.921 210.164C116.921 210.911 116.762 211.555 116.445 212.096C116.127 212.619 115.717 213.048 115.213 213.384C114.709 213.72 114.13 213.963 113.477 214.112C112.842 214.261 112.198 214.336 111.545 214.336C110.443 214.336 109.473 214.168 108.633 213.832C107.811 213.496 107.074 212.88 106.421 211.984L108.325 210.416C108.735 210.827 109.193 211.191 109.697 211.508C110.201 211.825 110.817 211.984 111.545 211.984C111.862 211.984 112.179 211.956 112.497 211.9C112.833 211.825 113.122 211.723 113.365 211.592C113.626 211.443 113.831 211.265 113.981 211.06C114.149 210.836 114.233 210.584 114.233 210.304C114.233 209.931 114.111 209.623 113.869 209.38C113.645 209.137 113.365 208.951 113.029 208.82C112.711 208.671 112.366 208.559 111.993 208.484C111.638 208.391 111.321 208.316 111.041 208.26C110.499 208.129 109.986 207.98 109.501 207.812C109.015 207.644 108.586 207.42 108.213 207.14C107.839 206.86 107.541 206.505 107.317 206.076C107.093 205.647 106.981 205.115 106.981 204.48C106.981 203.789 107.121 203.192 107.401 202.688C107.699 202.165 108.082 201.736 108.549 201.4C109.034 201.064 109.575 200.812 110.173 200.644C110.789 200.476 111.405 200.392 112.021 200.392C112.917 200.392 113.775 200.56 114.597 200.896C115.418 201.232 116.071 201.792 116.557 202.576L114.597 204.06ZM118.386 200.728H121.298L125.246 211.088H125.302L129.054 200.728H131.77L125.47 216.856C125.246 217.435 125.013 217.957 124.77 218.424C124.527 218.909 124.238 219.32 123.902 219.656C123.566 219.992 123.155 220.253 122.67 220.44C122.203 220.627 121.625 220.72 120.934 220.72C120.561 220.72 120.178 220.692 119.786 220.636C119.413 220.599 119.049 220.505 118.694 220.356L119.002 218.06C119.506 218.265 120.01 218.368 120.514 218.368C120.906 218.368 121.233 218.312 121.494 218.2C121.774 218.107 122.007 217.957 122.194 217.752C122.399 217.565 122.567 217.341 122.698 217.08C122.829 216.819 122.959 216.52 123.09 216.184L123.902 214.084L118.386 200.728ZM148.887 202.912H145.275V208.932C145.275 209.305 145.284 209.679 145.303 210.052C145.322 210.407 145.387 210.733 145.499 211.032C145.63 211.312 145.816 211.545 146.059 211.732C146.32 211.9 146.694 211.984 147.179 211.984C147.478 211.984 147.786 211.956 148.103 211.9C148.42 211.844 148.71 211.741 148.971 211.592V213.888C148.672 214.056 148.28 214.168 147.795 214.224C147.328 214.299 146.964 214.336 146.703 214.336C145.732 214.336 144.976 214.205 144.435 213.944C143.912 213.664 143.52 213.309 143.259 212.88C143.016 212.451 142.867 211.975 142.811 211.452C142.774 210.911 142.755 210.369 142.755 209.828V202.912H139.843V200.728H142.755V197.004H145.275V200.728H148.887V202.912ZM154.182 207.364C154.182 208.036 154.285 208.661 154.49 209.24C154.696 209.8 154.985 210.285 155.358 210.696C155.732 211.088 156.189 211.405 156.73 211.648C157.272 211.872 157.878 211.984 158.55 211.984C159.222 211.984 159.829 211.872 160.37 211.648C160.912 211.405 161.369 211.088 161.742 210.696C162.116 210.285 162.405 209.8 162.61 209.24C162.816 208.661 162.918 208.036 162.918 207.364C162.918 206.692 162.816 206.076 162.61 205.516C162.405 204.937 162.116 204.452 161.742 204.06C161.369 203.649 160.912 203.332 160.37 203.108C159.829 202.865 159.222 202.744 158.55 202.744C157.878 202.744 157.272 202.865 156.73 203.108C156.189 203.332 155.732 203.649 155.358 204.06C154.985 204.452 154.696 204.937 154.49 205.516C154.285 206.076 154.182 206.692 154.182 207.364ZM151.494 207.364C151.494 206.393 151.672 205.488 152.026 204.648C152.4 203.808 152.904 203.071 153.538 202.436C154.173 201.801 154.92 201.307 155.778 200.952C156.637 200.579 157.561 200.392 158.55 200.392C159.54 200.392 160.464 200.579 161.322 200.952C162.181 201.307 162.928 201.801 163.562 202.436C164.197 203.071 164.692 203.808 165.046 204.648C165.42 205.488 165.606 206.393 165.606 207.364C165.606 208.335 165.42 209.249 165.046 210.108C164.692 210.948 164.197 211.685 163.562 212.32C162.928 212.936 162.181 213.431 161.322 213.804C160.464 214.159 159.54 214.336 158.55 214.336C157.561 214.336 156.637 214.159 155.778 213.804C154.92 213.431 154.173 212.936 153.538 212.32C152.904 211.685 152.4 210.948 152.026 210.108C151.672 209.249 151.494 208.335 151.494 207.364ZM186.048 204.256C185.582 203.771 185.087 203.407 184.564 203.164C184.06 202.903 183.454 202.772 182.744 202.772C182.054 202.772 181.447 202.903 180.924 203.164C180.42 203.407 179.991 203.752 179.636 204.2C179.3 204.629 179.039 205.133 178.852 205.712C178.684 206.272 178.6 206.86 178.6 207.476C178.6 208.092 178.703 208.68 178.908 209.24C179.114 209.781 179.403 210.257 179.776 210.668C180.15 211.079 180.598 211.405 181.12 211.648C181.643 211.872 182.231 211.984 182.884 211.984C183.594 211.984 184.2 211.863 184.704 211.62C185.208 211.359 185.675 210.985 186.104 210.5L187.896 212.292C187.243 213.02 186.478 213.543 185.6 213.86C184.742 214.177 183.827 214.336 182.856 214.336C181.83 214.336 180.887 214.168 180.028 213.832C179.188 213.496 178.46 213.029 177.844 212.432C177.228 211.816 176.752 211.088 176.416 210.248C176.08 209.389 175.912 208.447 175.912 207.42C175.912 206.393 176.08 205.451 176.416 204.592C176.752 203.733 177.219 202.996 177.816 202.38C178.432 201.764 179.16 201.288 180 200.952C180.859 200.597 181.811 200.42 182.856 200.42C183.827 200.42 184.751 200.597 185.628 200.952C186.524 201.288 187.299 201.811 187.952 202.52L186.048 204.256ZM190.064 200.728H192.584V202.772H192.64C192.808 202.417 193.032 202.1 193.312 201.82C193.592 201.521 193.9 201.269 194.236 201.064C194.591 200.859 194.973 200.7 195.384 200.588C195.795 200.457 196.205 200.392 196.616 200.392C197.027 200.392 197.4 200.448 197.736 200.56L197.624 203.276C197.419 203.22 197.213 203.173 197.008 203.136C196.803 203.099 196.597 203.08 196.392 203.08C195.16 203.08 194.217 203.425 193.564 204.116C192.911 204.807 192.584 205.88 192.584 207.336V214H190.064V200.728ZM201.839 208.288C201.839 208.867 201.961 209.399 202.203 209.884C202.465 210.351 202.801 210.752 203.211 211.088C203.622 211.424 204.098 211.685 204.639 211.872C205.181 212.059 205.741 212.152 206.319 212.152C207.103 212.152 207.785 211.975 208.363 211.62C208.942 211.247 209.474 210.761 209.959 210.164L211.863 211.62C210.463 213.431 208.503 214.336 205.983 214.336C204.938 214.336 203.986 214.159 203.127 213.804C202.287 213.449 201.569 212.964 200.971 212.348C200.393 211.713 199.945 210.976 199.627 210.136C199.31 209.277 199.151 208.353 199.151 207.364C199.151 206.375 199.319 205.46 199.655 204.62C200.01 203.761 200.486 203.024 201.083 202.408C201.699 201.773 202.427 201.279 203.267 200.924C204.107 200.569 205.022 200.392 206.011 200.392C207.187 200.392 208.177 200.597 208.979 201.008C209.801 201.419 210.473 201.96 210.995 202.632C211.518 203.285 211.891 204.032 212.115 204.872C212.358 205.693 212.479 206.533 212.479 207.392V208.288H201.839ZM209.791 206.272C209.773 205.712 209.679 205.199 209.511 204.732C209.362 204.265 209.129 203.864 208.811 203.528C208.494 203.173 208.093 202.903 207.607 202.716C207.141 202.511 206.59 202.408 205.955 202.408C205.339 202.408 204.77 202.529 204.247 202.772C203.743 202.996 203.314 203.295 202.959 203.668C202.605 204.041 202.325 204.461 202.119 204.928C201.933 205.376 201.839 205.824 201.839 206.272H209.791ZM215.55 202.352C216.259 201.699 217.081 201.213 218.014 200.896C218.947 200.56 219.881 200.392 220.814 200.392C221.785 200.392 222.615 200.513 223.306 200.756C224.015 200.999 224.594 201.325 225.042 201.736C225.49 202.147 225.817 202.623 226.022 203.164C226.246 203.687 226.358 204.237 226.358 204.816V211.592C226.358 212.059 226.367 212.488 226.386 212.88C226.405 213.272 226.433 213.645 226.47 214H224.23C224.174 213.328 224.146 212.656 224.146 211.984H224.09C223.53 212.843 222.867 213.449 222.102 213.804C221.337 214.159 220.45 214.336 219.442 214.336C218.826 214.336 218.238 214.252 217.678 214.084C217.118 213.916 216.623 213.664 216.194 213.328C215.783 212.992 215.457 212.581 215.214 212.096C214.971 211.592 214.85 211.013 214.85 210.36C214.85 209.501 215.037 208.783 215.41 208.204C215.802 207.625 216.325 207.159 216.978 206.804C217.65 206.431 218.425 206.169 219.302 206.02C220.198 205.852 221.15 205.768 222.158 205.768H224.006V205.208C224.006 204.872 223.941 204.536 223.81 204.2C223.679 203.864 223.483 203.565 223.222 203.304C222.961 203.024 222.634 202.809 222.242 202.66C221.85 202.492 221.383 202.408 220.842 202.408C220.357 202.408 219.927 202.455 219.554 202.548C219.199 202.641 218.873 202.763 218.574 202.912C218.275 203.043 218.005 203.201 217.762 203.388C217.519 203.575 217.286 203.752 217.062 203.92L215.55 202.352ZM222.662 207.616C222.065 207.616 221.449 207.653 220.814 207.728C220.198 207.784 219.629 207.905 219.106 208.092C218.602 208.279 218.182 208.54 217.846 208.876C217.529 209.212 217.37 209.641 217.37 210.164C217.37 210.929 217.622 211.48 218.126 211.816C218.649 212.152 219.349 212.32 220.226 212.32C220.917 212.32 221.505 212.208 221.99 211.984C222.475 211.741 222.867 211.433 223.166 211.06C223.465 210.687 223.679 210.276 223.81 209.828C223.941 209.361 224.006 208.904 224.006 208.456V207.616H222.662ZM237.125 202.912H233.513V208.932C233.513 209.305 233.523 209.679 233.541 210.052C233.56 210.407 233.625 210.733 233.737 211.032C233.868 211.312 234.055 211.545 234.297 211.732C234.559 211.9 234.932 211.984 235.417 211.984C235.716 211.984 236.024 211.956 236.341 211.9C236.659 211.844 236.948 211.741 237.209 211.592V213.888C236.911 214.056 236.519 214.168 236.033 214.224C235.567 214.299 235.203 214.336 234.941 214.336C233.971 214.336 233.215 214.205 232.673 213.944C232.151 213.664 231.759 213.309 231.497 212.88C231.255 212.451 231.105 211.975 231.049 211.452C231.012 210.911 230.993 210.369 230.993 209.828V202.912H228.081V200.728H230.993V197.004H233.513V200.728H237.125V202.912ZM242.281 208.288C242.281 208.867 242.402 209.399 242.645 209.884C242.906 210.351 243.242 210.752 243.653 211.088C244.063 211.424 244.539 211.685 245.081 211.872C245.622 212.059 246.182 212.152 246.761 212.152C247.545 212.152 248.226 211.975 248.805 211.62C249.383 211.247 249.915 210.761 250.401 210.164L252.305 211.62C250.905 213.431 248.945 214.336 246.425 214.336C245.379 214.336 244.427 214.159 243.569 213.804C242.729 213.449 242.01 212.964 241.413 212.348C240.834 211.713 240.386 210.976 240.069 210.136C239.751 209.277 239.593 208.353 239.593 207.364C239.593 206.375 239.761 205.46 240.097 204.62C240.451 203.761 240.927 203.024 241.525 202.408C242.141 201.773 242.869 201.279 243.709 200.924C244.549 200.569 245.463 200.392 246.453 200.392C247.629 200.392 248.618 200.597 249.421 201.008C250.242 201.419 250.914 201.96 251.437 202.632C251.959 203.285 252.333 204.032 252.557 204.872C252.799 205.693 252.921 206.533 252.921 207.392V208.288H242.281ZM250.233 206.272C250.214 205.712 250.121 205.199 249.953 204.732C249.803 204.265 249.57 203.864 249.253 203.528C248.935 203.173 248.534 202.903 248.049 202.716C247.582 202.511 247.031 202.408 246.397 202.408C245.781 202.408 245.211 202.529 244.689 202.772C244.185 202.996 243.755 203.295 243.401 203.668C243.046 204.041 242.766 204.461 242.561 204.928C242.374 205.376 242.281 205.824 242.281 206.272H250.233ZM264.708 202.912H261.852V200.728H264.708V197.76C264.708 195.987 265.044 194.671 265.716 193.812C266.407 192.935 267.583 192.496 269.244 192.496C269.524 192.496 269.814 192.505 270.112 192.524C270.43 192.543 270.766 192.599 271.12 192.692L270.84 194.932C270.598 194.839 270.364 194.773 270.14 194.736C269.916 194.699 269.674 194.68 269.412 194.68C268.946 194.68 268.572 194.755 268.292 194.904C268.012 195.035 267.788 195.231 267.62 195.492C267.471 195.753 267.368 196.071 267.312 196.444C267.275 196.799 267.256 197.209 267.256 197.676V200.728H270.252V202.912H267.228V214H264.708V202.912ZM273.108 202.352C273.818 201.699 274.639 201.213 275.572 200.896C276.506 200.56 277.439 200.392 278.372 200.392C279.343 200.392 280.174 200.513 280.864 200.756C281.574 200.999 282.152 201.325 282.6 201.736C283.048 202.147 283.375 202.623 283.58 203.164C283.804 203.687 283.916 204.237 283.916 204.816V211.592C283.916 212.059 283.926 212.488 283.944 212.88C283.963 213.272 283.991 213.645 284.028 214H281.788C281.732 213.328 281.704 212.656 281.704 211.984H281.648C281.088 212.843 280.426 213.449 279.66 213.804C278.895 214.159 278.008 214.336 277 214.336C276.384 214.336 275.796 214.252 275.236 214.084C274.676 213.916 274.182 213.664 273.752 213.328C273.342 212.992 273.015 212.581 272.772 212.096C272.53 211.592 272.408 211.013 272.408 210.36C272.408 209.501 272.595 208.783 272.968 208.204C273.36 207.625 273.883 207.159 274.536 206.804C275.208 206.431 275.983 206.169 276.86 206.02C277.756 205.852 278.708 205.768 279.716 205.768H281.564V205.208C281.564 204.872 281.499 204.536 281.368 204.2C281.238 203.864 281.042 203.565 280.78 203.304C280.519 203.024 280.192 202.809 279.8 202.66C279.408 202.492 278.942 202.408 278.4 202.408C277.915 202.408 277.486 202.455 277.112 202.548C276.758 202.641 276.431 202.763 276.132 202.912C275.834 203.043 275.563 203.201 275.32 203.388C275.078 203.575 274.844 203.752 274.62 203.92L273.108 202.352ZM280.22 207.616C279.623 207.616 279.007 207.653 278.372 207.728C277.756 207.784 277.187 207.905 276.664 208.092C276.16 208.279 275.74 208.54 275.404 208.876C275.087 209.212 274.928 209.641 274.928 210.164C274.928 210.929 275.18 211.48 275.684 211.816C276.207 212.152 276.907 212.32 277.784 212.32C278.475 212.32 279.063 212.208 279.548 211.984C280.034 211.741 280.426 211.433 280.724 211.06C281.023 210.687 281.238 210.276 281.368 209.828C281.499 209.361 281.564 208.904 281.564 208.456V207.616H280.22ZM294.628 204.06C294.329 203.687 293.956 203.379 293.508 203.136C293.079 202.875 292.547 202.744 291.912 202.744C291.315 202.744 290.792 202.875 290.344 203.136C289.915 203.379 289.7 203.743 289.7 204.228C289.7 204.62 289.821 204.937 290.064 205.18C290.325 205.423 290.624 205.619 290.96 205.768C291.315 205.917 291.688 206.029 292.08 206.104C292.472 206.179 292.808 206.244 293.088 206.3C293.629 206.431 294.133 206.589 294.6 206.776C295.085 206.963 295.496 207.205 295.832 207.504C296.187 207.803 296.457 208.167 296.644 208.596C296.849 209.025 296.952 209.548 296.952 210.164C296.952 210.911 296.793 211.555 296.476 212.096C296.159 212.619 295.748 213.048 295.244 213.384C294.74 213.72 294.161 213.963 293.508 214.112C292.873 214.261 292.229 214.336 291.576 214.336C290.475 214.336 289.504 214.168 288.664 213.832C287.843 213.496 287.105 212.88 286.452 211.984L288.356 210.416C288.767 210.827 289.224 211.191 289.728 211.508C290.232 211.825 290.848 211.984 291.576 211.984C291.893 211.984 292.211 211.956 292.528 211.9C292.864 211.825 293.153 211.723 293.396 211.592C293.657 211.443 293.863 211.265 294.012 211.06C294.18 210.836 294.264 210.584 294.264 210.304C294.264 209.931 294.143 209.623 293.9 209.38C293.676 209.137 293.396 208.951 293.06 208.82C292.743 208.671 292.397 208.559 292.024 208.484C291.669 208.391 291.352 208.316 291.072 208.26C290.531 208.129 290.017 207.98 289.532 207.812C289.047 207.644 288.617 207.42 288.244 207.14C287.871 206.86 287.572 206.505 287.348 206.076C287.124 205.647 287.012 205.115 287.012 204.48C287.012 203.789 287.152 203.192 287.432 202.688C287.731 202.165 288.113 201.736 288.58 201.4C289.065 201.064 289.607 200.812 290.204 200.644C290.82 200.476 291.436 200.392 292.052 200.392C292.948 200.392 293.807 200.56 294.628 200.896C295.449 201.232 296.103 201.792 296.588 202.576L294.628 204.06ZM307.125 202.912H303.513V208.932C303.513 209.305 303.523 209.679 303.541 210.052C303.56 210.407 303.625 210.733 303.737 211.032C303.868 211.312 304.055 211.545 304.297 211.732C304.559 211.9 304.932 211.984 305.417 211.984C305.716 211.984 306.024 211.956 306.341 211.9C306.659 211.844 306.948 211.741 307.209 211.592V213.888C306.911 214.056 306.519 214.168 306.033 214.224C305.567 214.299 305.203 214.336 304.941 214.336C303.971 214.336 303.215 214.205 302.673 213.944C302.151 213.664 301.759 213.309 301.497 212.88C301.255 212.451 301.105 211.975 301.049 211.452C301.012 210.911 300.993 210.369 300.993 209.828V202.912H298.081V200.728H300.993V197.004H303.513V200.728H307.125V202.912ZM318.226 202.352C318.935 201.699 319.756 201.213 320.69 200.896C321.623 200.56 322.556 200.392 323.49 200.392C324.46 200.392 325.291 200.513 325.982 200.756C326.691 200.999 327.27 201.325 327.718 201.736C328.166 202.147 328.492 202.623 328.698 203.164C328.922 203.687 329.034 204.237 329.034 204.816V211.592C329.034 212.059 329.043 212.488 329.062 212.88C329.08 213.272 329.108 213.645 329.146 214H326.906C326.85 213.328 326.822 212.656 326.822 211.984H326.766C326.206 212.843 325.543 213.449 324.778 213.804C324.012 214.159 323.126 214.336 322.118 214.336C321.502 214.336 320.914 214.252 320.354 214.084C319.794 213.916 319.299 213.664 318.87 213.328C318.459 212.992 318.132 212.581 317.89 212.096C317.647 211.592 317.526 211.013 317.526 210.36C317.526 209.501 317.712 208.783 318.086 208.204C318.478 207.625 319 207.159 319.654 206.804C320.326 206.431 321.1 206.169 321.978 206.02C322.874 205.852 323.826 205.768 324.834 205.768H326.682V205.208C326.682 204.872 326.616 204.536 326.486 204.2C326.355 203.864 326.159 203.565 325.898 203.304C325.636 203.024 325.31 202.809 324.918 202.66C324.526 202.492 324.059 202.408 323.518 202.408C323.032 202.408 322.603 202.455 322.23 202.548C321.875 202.641 321.548 202.763 321.25 202.912C320.951 203.043 320.68 203.201 320.438 203.388C320.195 203.575 319.962 203.752 319.738 203.92L318.226 202.352ZM325.338 207.616C324.74 207.616 324.124 207.653 323.49 207.728C322.874 207.784 322.304 207.905 321.782 208.092C321.278 208.279 320.858 208.54 320.522 208.876C320.204 209.212 320.046 209.641 320.046 210.164C320.046 210.929 320.298 211.48 320.802 211.816C321.324 212.152 322.024 212.32 322.902 212.32C323.592 212.32 324.18 212.208 324.666 211.984C325.151 211.741 325.543 211.433 325.842 211.06C326.14 210.687 326.355 210.276 326.486 209.828C326.616 209.361 326.682 208.904 326.682 208.456V207.616H325.338ZM332.689 200.728H335.209V202.772H335.265C335.582 202.063 336.133 201.493 336.917 201.064C337.701 200.616 338.606 200.392 339.633 200.392C340.268 200.392 340.874 200.495 341.453 200.7C342.05 200.887 342.564 201.185 342.993 201.596C343.441 202.007 343.796 202.539 344.057 203.192C344.318 203.827 344.449 204.583 344.449 205.46V214H341.929V206.16C341.929 205.544 341.845 205.021 341.677 204.592C341.509 204.144 341.285 203.789 341.005 203.528C340.725 203.248 340.398 203.052 340.025 202.94C339.67 202.809 339.297 202.744 338.905 202.744C338.382 202.744 337.897 202.828 337.449 202.996C337.001 203.164 336.609 203.435 336.273 203.808C335.937 204.163 335.676 204.62 335.489 205.18C335.302 205.74 335.209 206.403 335.209 207.168V214H332.689V200.728ZM361.548 214H359.028V212.096H358.972C358.486 212.805 357.814 213.356 356.956 213.748C356.116 214.14 355.248 214.336 354.352 214.336C353.325 214.336 352.392 214.159 351.552 213.804C350.73 213.449 350.021 212.955 349.424 212.32C348.845 211.685 348.397 210.948 348.08 210.108C347.762 209.268 347.604 208.353 347.604 207.364C347.604 206.375 347.762 205.46 348.08 204.62C348.397 203.761 348.845 203.024 349.424 202.408C350.021 201.773 350.73 201.279 351.552 200.924C352.392 200.569 353.325 200.392 354.352 200.392C355.304 200.392 356.2 200.597 357.04 201.008C357.88 201.4 358.524 201.941 358.972 202.632H359.028V192.832H361.548V214ZM354.66 211.984C355.332 211.984 355.938 211.872 356.48 211.648C357.021 211.405 357.478 211.088 357.852 210.696C358.225 210.285 358.514 209.8 358.72 209.24C358.925 208.661 359.028 208.036 359.028 207.364C359.028 206.692 358.925 206.076 358.72 205.516C358.514 204.937 358.225 204.452 357.852 204.06C357.478 203.649 357.021 203.332 356.48 203.108C355.938 202.865 355.332 202.744 354.66 202.744C353.988 202.744 353.381 202.865 352.84 203.108C352.298 203.332 351.841 203.649 351.468 204.06C351.094 204.452 350.805 204.937 350.6 205.516C350.394 206.076 350.292 206.692 350.292 207.364C350.292 208.036 350.394 208.661 350.6 209.24C350.805 209.8 351.094 210.285 351.468 210.696C351.841 211.088 352.298 211.405 352.84 211.648C353.381 211.872 353.988 211.984 354.66 211.984ZM373.158 192.832H375.678V202.772H375.734C376.051 202.063 376.602 201.493 377.386 201.064C378.17 200.616 379.075 200.392 380.102 200.392C380.737 200.392 381.343 200.495 381.922 200.7C382.519 200.887 383.033 201.185 383.462 201.596C383.91 202.007 384.265 202.539 384.526 203.192C384.787 203.827 384.918 204.583 384.918 205.46V214H382.398V206.16C382.398 205.544 382.314 205.021 382.146 204.592C381.978 204.144 381.754 203.789 381.474 203.528C381.194 203.248 380.867 203.052 380.494 202.94C380.139 202.809 379.766 202.744 379.374 202.744C378.851 202.744 378.366 202.828 377.918 202.996C377.47 203.164 377.078 203.435 376.742 203.808C376.406 204.163 376.145 204.62 375.958 205.18C375.771 205.74 375.678 206.403 375.678 207.168V214H373.158V192.832ZM390.621 208.288C390.621 208.867 390.742 209.399 390.985 209.884C391.246 210.351 391.582 210.752 391.993 211.088C392.403 211.424 392.879 211.685 393.421 211.872C393.962 212.059 394.522 212.152 395.101 212.152C395.885 212.152 396.566 211.975 397.145 211.62C397.723 211.247 398.255 210.761 398.741 210.164L400.645 211.62C399.245 213.431 397.285 214.336 394.765 214.336C393.719 214.336 392.767 214.159 391.909 213.804C391.069 213.449 390.35 212.964 389.753 212.348C389.174 211.713 388.726 210.976 388.409 210.136C388.091 209.277 387.933 208.353 387.933 207.364C387.933 206.375 388.101 205.46 388.437 204.62C388.791 203.761 389.267 203.024 389.865 202.408C390.481 201.773 391.209 201.279 392.049 200.924C392.889 200.569 393.803 200.392 394.793 200.392C395.969 200.392 396.958 200.597 397.761 201.008C398.582 201.419 399.254 201.96 399.777 202.632C400.299 203.285 400.673 204.032 400.897 204.872C401.139 205.693 401.261 206.533 401.261 207.392V208.288H390.621ZM398.573 206.272C398.554 205.712 398.461 205.199 398.293 204.732C398.143 204.265 397.91 203.864 397.593 203.528C397.275 203.173 396.874 202.903 396.389 202.716C395.922 202.511 395.371 202.408 394.737 202.408C394.121 202.408 393.551 202.529 393.029 202.772C392.525 202.996 392.095 203.295 391.741 203.668C391.386 204.041 391.106 204.461 390.901 204.928C390.714 205.376 390.621 205.824 390.621 206.272H398.573ZM404.471 192.832H406.991V214H404.471V192.832ZM411.002 200.728H413.522V202.632H413.578C414.063 201.923 414.726 201.372 415.566 200.98C416.424 200.588 417.302 200.392 418.198 200.392C419.224 200.392 420.148 200.569 420.97 200.924C421.81 201.279 422.519 201.773 423.098 202.408C423.695 203.043 424.152 203.789 424.47 204.648C424.787 205.488 424.946 206.393 424.946 207.364C424.946 208.353 424.787 209.277 424.47 210.136C424.152 210.976 423.695 211.713 423.098 212.348C422.519 212.964 421.81 213.449 420.97 213.804C420.148 214.159 419.224 214.336 418.198 214.336C417.246 214.336 416.35 214.14 415.51 213.748C414.67 213.337 414.026 212.787 413.578 212.096H413.522V221.896H411.002V200.728ZM417.89 202.744C417.218 202.744 416.611 202.865 416.07 203.108C415.528 203.332 415.071 203.649 414.698 204.06C414.324 204.452 414.035 204.937 413.83 205.516C413.624 206.076 413.522 206.692 413.522 207.364C413.522 208.036 413.624 208.661 413.83 209.24C414.035 209.8 414.324 210.285 414.698 210.696C415.071 211.088 415.528 211.405 416.07 211.648C416.611 211.872 417.218 211.984 417.89 211.984C418.562 211.984 419.168 211.872 419.71 211.648C420.251 211.405 420.708 211.088 421.082 210.696C421.455 210.285 421.744 209.8 421.95 209.24C422.155 208.661 422.258 208.036 422.258 207.364C422.258 206.692 422.155 206.076 421.95 205.516C421.744 204.937 421.455 204.452 421.082 204.06C420.708 203.649 420.251 203.332 419.71 203.108C419.168 202.865 418.562 202.744 417.89 202.744ZM429.099 202.912H426.243V200.728H429.099V197.76C429.099 195.987 429.435 194.671 430.107 193.812C430.798 192.935 431.974 192.496 433.635 192.496C433.915 192.496 434.204 192.505 434.503 192.524C434.82 192.543 435.156 192.599 435.511 192.692L435.231 194.932C434.988 194.839 434.755 194.773 434.531 194.736C434.307 194.699 434.064 194.68 433.803 194.68C433.336 194.68 432.963 194.755 432.683 194.904C432.403 195.035 432.179 195.231 432.011 195.492C431.862 195.753 431.759 196.071 431.703 196.444C431.666 196.799 431.647 197.209 431.647 197.676V200.728H434.643V202.912H431.619V214H429.099V202.912ZM449.203 214H446.683V211.956H446.627C446.31 212.665 445.759 213.244 444.975 213.692C444.191 214.121 443.286 214.336 442.259 214.336C441.606 214.336 440.99 214.233 440.411 214.028C439.832 213.841 439.319 213.543 438.871 213.132C438.442 212.721 438.096 212.199 437.835 211.564C437.574 210.911 437.443 210.145 437.443 209.268V200.728H439.963V208.568C439.963 209.184 440.047 209.716 440.215 210.164C440.383 210.593 440.607 210.948 440.887 211.228C441.167 211.489 441.484 211.685 441.839 211.816C442.212 211.928 442.595 211.984 442.987 211.984C443.51 211.984 443.995 211.9 444.443 211.732C444.891 211.564 445.283 211.303 445.619 210.948C445.955 210.575 446.216 210.108 446.403 209.548C446.59 208.988 446.683 208.325 446.683 207.56V200.728H449.203V214ZM453.198 192.832H455.718V214H453.198V192.832ZM467.521 200.728H469.873V202.8H469.929C469.985 202.613 470.125 202.38 470.349 202.1C470.592 201.82 470.891 201.559 471.245 201.316C471.619 201.055 472.048 200.84 472.533 200.672C473.037 200.485 473.588 200.392 474.185 200.392C475.175 200.392 476.005 200.597 476.677 201.008C477.349 201.419 477.9 202.035 478.329 202.856C478.759 202.035 479.365 201.419 480.149 201.008C480.933 200.597 481.727 200.392 482.529 200.392C483.556 200.392 484.396 200.56 485.049 200.896C485.703 201.232 486.216 201.68 486.589 202.24C486.963 202.781 487.215 203.407 487.345 204.116C487.495 204.807 487.569 205.525 487.569 206.272V214H485.049V206.608C485.049 206.104 485.012 205.619 484.937 205.152C484.881 204.685 484.751 204.275 484.545 203.92C484.34 203.565 484.051 203.285 483.677 203.08C483.304 202.856 482.809 202.744 482.193 202.744C480.98 202.744 480.112 203.117 479.589 203.864C479.067 204.611 478.805 205.572 478.805 206.748V214H476.285V207.056C476.285 206.421 476.248 205.843 476.173 205.32C476.117 204.797 475.987 204.349 475.781 203.976C475.595 203.584 475.315 203.285 474.941 203.08C474.587 202.856 474.101 202.744 473.485 202.744C473.037 202.744 472.599 202.837 472.169 203.024C471.759 203.192 471.395 203.453 471.077 203.808C470.76 204.163 470.508 204.62 470.321 205.18C470.135 205.721 470.041 206.365 470.041 207.112V214H467.521V200.728ZM493.409 207.364C493.409 208.036 493.512 208.661 493.717 209.24C493.922 209.8 494.212 210.285 494.585 210.696C494.958 211.088 495.416 211.405 495.957 211.648C496.498 211.872 497.105 211.984 497.777 211.984C498.449 211.984 499.056 211.872 499.597 211.648C500.138 211.405 500.596 211.088 500.969 210.696C501.342 210.285 501.632 209.8 501.837 209.24C502.042 208.661 502.145 208.036 502.145 207.364C502.145 206.692 502.042 206.076 501.837 205.516C501.632 204.937 501.342 204.452 500.969 204.06C500.596 203.649 500.138 203.332 499.597 203.108C499.056 202.865 498.449 202.744 497.777 202.744C497.105 202.744 496.498 202.865 495.957 203.108C495.416 203.332 494.958 203.649 494.585 204.06C494.212 204.452 493.922 204.937 493.717 205.516C493.512 206.076 493.409 206.692 493.409 207.364ZM490.721 207.364C490.721 206.393 490.898 205.488 491.253 204.648C491.626 203.808 492.13 203.071 492.765 202.436C493.4 201.801 494.146 201.307 495.005 200.952C495.864 200.579 496.788 200.392 497.777 200.392C498.766 200.392 499.69 200.579 500.549 200.952C501.408 201.307 502.154 201.801 502.789 202.436C503.424 203.071 503.918 203.808 504.273 204.648C504.646 205.488 504.833 206.393 504.833 207.364C504.833 208.335 504.646 209.249 504.273 210.108C503.918 210.948 503.424 211.685 502.789 212.32C502.154 212.936 501.408 213.431 500.549 213.804C499.69 214.159 498.766 214.336 497.777 214.336C496.788 214.336 495.864 214.159 495.005 213.804C494.146 213.431 493.4 212.936 492.765 212.32C492.13 211.685 491.626 210.948 491.253 210.108C490.898 209.249 490.721 208.335 490.721 207.364ZM507.99 192.832H510.51V202.632H510.566C511.014 201.941 511.658 201.4 512.498 201.008C513.338 200.597 514.234 200.392 515.186 200.392C516.213 200.392 517.137 200.569 517.958 200.924C518.798 201.279 519.507 201.773 520.086 202.408C520.683 203.024 521.141 203.761 521.458 204.62C521.775 205.46 521.934 206.375 521.934 207.364C521.934 208.353 521.775 209.268 521.458 210.108C521.141 210.948 520.683 211.685 520.086 212.32C519.507 212.955 518.798 213.449 517.958 213.804C517.137 214.159 516.213 214.336 515.186 214.336C514.29 214.336 513.413 214.14 512.554 213.748C511.714 213.356 511.051 212.805 510.566 212.096H510.51V214H507.99V192.832ZM514.878 211.984C515.55 211.984 516.157 211.872 516.698 211.648C517.239 211.405 517.697 211.088 518.07 210.696C518.443 210.285 518.733 209.8 518.938 209.24C519.143 208.661 519.246 208.036 519.246 207.364C519.246 206.692 519.143 206.076 518.938 205.516C518.733 204.937 518.443 204.452 518.07 204.06C517.697 203.649 517.239 203.332 516.698 203.108C516.157 202.865 515.55 202.744 514.878 202.744C514.206 202.744 513.599 202.865 513.058 203.108C512.517 203.332 512.059 203.649 511.686 204.06C511.313 204.452 511.023 204.937 510.818 205.516C510.613 206.076 510.51 206.692 510.51 207.364C510.51 208.036 510.613 208.661 510.818 209.24C511.023 209.8 511.313 210.285 511.686 210.696C512.059 211.088 512.517 211.405 513.058 211.648C513.599 211.872 514.206 211.984 514.878 211.984ZM525.303 200.728H527.823V214H525.303V200.728ZM524.715 195.968C524.715 195.464 524.892 195.035 525.247 194.68C525.62 194.307 526.059 194.12 526.563 194.12C527.067 194.12 527.496 194.307 527.851 194.68C528.224 195.035 528.411 195.464 528.411 195.968C528.411 196.472 528.224 196.911 527.851 197.284C527.496 197.639 527.067 197.816 526.563 197.816C526.059 197.816 525.62 197.639 525.247 197.284C524.892 196.911 524.715 196.472 524.715 195.968ZM532.03 192.832H534.55V214H532.03V192.832ZM540.464 208.288C540.464 208.867 540.586 209.399 540.828 209.884C541.09 210.351 541.426 210.752 541.836 211.088C542.247 211.424 542.723 211.685 543.264 211.872C543.806 212.059 544.366 212.152 544.944 212.152C545.728 212.152 546.41 211.975 546.988 211.62C547.567 211.247 548.099 210.761 548.584 210.164L550.488 211.62C549.088 213.431 547.128 214.336 544.608 214.336C543.563 214.336 542.611 214.159 541.752 213.804C540.912 213.449 540.194 212.964 539.596 212.348C539.018 211.713 538.57 210.976 538.252 210.136C537.935 209.277 537.776 208.353 537.776 207.364C537.776 206.375 537.944 205.46 538.28 204.62C538.635 203.761 539.111 203.024 539.708 202.408C540.324 201.773 541.052 201.279 541.892 200.924C542.732 200.569 543.647 200.392 544.636 200.392C545.812 200.392 546.802 200.597 547.604 201.008C548.426 201.419 549.098 201.96 549.62 202.632C550.143 203.285 550.516 204.032 550.74 204.872C550.983 205.693 551.104 206.533 551.104 207.392V208.288H540.464ZM548.416 206.272C548.398 205.712 548.304 205.199 548.136 204.732C547.987 204.265 547.754 203.864 547.436 203.528C547.119 203.173 546.718 202.903 546.232 202.716C545.766 202.511 545.215 202.408 544.58 202.408C543.964 202.408 543.395 202.529 542.872 202.772C542.368 202.996 541.939 203.295 541.584 203.668C541.23 204.041 540.95 204.461 540.744 204.928C540.558 205.376 540.464 205.824 540.464 206.272H548.416ZM75.96 236.352C76.6693 235.699 77.4907 235.213 78.424 234.896C79.3573 234.56 80.2907 234.392 81.224 234.392C82.1947 234.392 83.0253 234.513 83.716 234.756C84.4253 234.999 85.004 235.325 85.452 235.736C85.9 236.147 86.2267 236.623 86.432 237.164C86.656 237.687 86.768 238.237 86.768 238.816V245.592C86.768 246.059 86.7773 246.488 86.796 246.88C86.8147 247.272 86.8427 247.645 86.88 248H84.64C84.584 247.328 84.556 246.656 84.556 245.984H84.5C83.94 246.843 83.2773 247.449 82.512 247.804C81.7467 248.159 80.86 248.336 79.852 248.336C79.236 248.336 78.648 248.252 78.088 248.084C77.528 247.916 77.0333 247.664 76.604 247.328C76.1933 246.992 75.8667 246.581 75.624 246.096C75.3813 245.592 75.26 245.013 75.26 244.36C75.26 243.501 75.4467 242.783 75.82 242.204C76.212 241.625 76.7347 241.159 77.388 240.804C78.06 240.431 78.8347 240.169 79.712 240.02C80.608 239.852 81.56 239.768 82.568 239.768H84.416V239.208C84.416 238.872 84.3507 238.536 84.22 238.2C84.0893 237.864 83.8933 237.565 83.632 237.304C83.3707 237.024 83.044 236.809 82.652 236.66C82.26 236.492 81.7933 236.408 81.252 236.408C80.7667 236.408 80.3373 236.455 79.964 236.548C79.6093 236.641 79.2827 236.763 78.984 236.912C78.6853 237.043 78.4147 237.201 78.172 237.388C77.9293 237.575 77.696 237.752 77.472 237.92L75.96 236.352ZM83.072 241.616C82.4747 241.616 81.8587 241.653 81.224 241.728C80.608 241.784 80.0387 241.905 79.516 242.092C79.012 242.279 78.592 242.54 78.256 242.876C77.9387 243.212 77.78 243.641 77.78 244.164C77.78 244.929 78.032 245.48 78.536 245.816C79.0587 246.152 79.7587 246.32 80.636 246.32C81.3267 246.32 81.9147 246.208 82.4 245.984C82.8853 245.741 83.2773 245.433 83.576 245.06C83.8747 244.687 84.0893 244.276 84.22 243.828C84.3507 243.361 84.416 242.904 84.416 242.456V241.616H83.072ZM90.4235 234.728H92.9435V236.632H92.9995C93.4849 235.923 94.1475 235.372 94.9875 234.98C95.8462 234.588 96.7235 234.392 97.6195 234.392C98.6462 234.392 99.5702 234.569 100.392 234.924C101.232 235.279 101.941 235.773 102.52 236.408C103.117 237.043 103.574 237.789 103.892 238.648C104.209 239.488 104.368 240.393 104.368 241.364C104.368 242.353 104.209 243.277 103.892 244.136C103.574 244.976 103.117 245.713 102.52 246.348C101.941 246.964 101.232 247.449 100.392 247.804C99.5702 248.159 98.6462 248.336 97.6195 248.336C96.6675 248.336 95.7715 248.14 94.9315 247.748C94.0915 247.337 93.4475 246.787 92.9995 246.096H92.9435V255.896H90.4235V234.728ZM97.3115 236.744C96.6395 236.744 96.0329 236.865 95.4915 237.108C94.9502 237.332 94.4929 237.649 94.1195 238.06C93.7462 238.452 93.4569 238.937 93.2515 239.516C93.0462 240.076 92.9435 240.692 92.9435 241.364C92.9435 242.036 93.0462 242.661 93.2515 243.24C93.4569 243.8 93.7462 244.285 94.1195 244.696C94.4929 245.088 94.9502 245.405 95.4915 245.648C96.0329 245.872 96.6395 245.984 97.3115 245.984C97.9835 245.984 98.5902 245.872 99.1315 245.648C99.6729 245.405 100.13 245.088 100.504 244.696C100.877 244.285 101.166 243.8 101.372 243.24C101.577 242.661 101.68 242.036 101.68 241.364C101.68 240.692 101.577 240.076 101.372 239.516C101.166 238.937 100.877 238.452 100.504 238.06C100.13 237.649 99.6729 237.332 99.1315 237.108C98.5902 236.865 97.9835 236.744 97.3115 236.744ZM107.541 234.728H110.061V236.632H110.117C110.602 235.923 111.265 235.372 112.105 234.98C112.963 234.588 113.841 234.392 114.737 234.392C115.763 234.392 116.687 234.569 117.509 234.924C118.349 235.279 119.058 235.773 119.637 236.408C120.234 237.043 120.691 237.789 121.009 238.648C121.326 239.488 121.485 240.393 121.485 241.364C121.485 242.353 121.326 243.277 121.009 244.136C120.691 244.976 120.234 245.713 119.637 246.348C119.058 246.964 118.349 247.449 117.509 247.804C116.687 248.159 115.763 248.336 114.737 248.336C113.785 248.336 112.889 248.14 112.049 247.748C111.209 247.337 110.565 246.787 110.117 246.096H110.061V255.896H107.541V234.728ZM114.429 236.744C113.757 236.744 113.15 236.865 112.609 237.108C112.067 237.332 111.61 237.649 111.237 238.06C110.863 238.452 110.574 238.937 110.369 239.516C110.163 240.076 110.061 240.692 110.061 241.364C110.061 242.036 110.163 242.661 110.369 243.24C110.574 243.8 110.863 244.285 111.237 244.696C111.61 245.088 112.067 245.405 112.609 245.648C113.15 245.872 113.757 245.984 114.429 245.984C115.101 245.984 115.707 245.872 116.249 245.648C116.79 245.405 117.247 245.088 117.621 244.696C117.994 244.285 118.283 243.8 118.489 243.24C118.694 242.661 118.797 242.036 118.797 241.364C118.797 240.692 118.694 240.076 118.489 239.516C118.283 238.937 117.994 238.452 117.621 238.06C117.247 237.649 116.79 237.332 116.249 237.108C115.707 236.865 115.101 236.744 114.429 236.744ZM130.855 234.728H133.683L136.679 244.64H136.735L139.899 234.728H142.559L145.919 244.64H145.975L148.831 234.728H151.491L147.207 248H144.659L141.159 238.088H141.103L137.939 248H135.223L130.855 234.728ZM153.893 234.728H156.413V248H153.893V234.728ZM153.305 229.968C153.305 229.464 153.482 229.035 153.837 228.68C154.21 228.307 154.649 228.12 155.153 228.12C155.657 228.12 156.086 228.307 156.441 228.68C156.814 229.035 157.001 229.464 157.001 229.968C157.001 230.472 156.814 230.911 156.441 231.284C156.086 231.639 155.657 231.816 155.153 231.816C154.649 231.816 154.21 231.639 153.837 231.284C153.482 230.911 153.305 230.472 153.305 229.968ZM167.536 236.912H163.924V242.932C163.924 243.305 163.933 243.679 163.952 244.052C163.97 244.407 164.036 244.733 164.148 245.032C164.278 245.312 164.465 245.545 164.708 245.732C164.969 245.9 165.342 245.984 165.828 245.984C166.126 245.984 166.434 245.956 166.752 245.9C167.069 245.844 167.358 245.741 167.62 245.592V247.888C167.321 248.056 166.929 248.168 166.444 248.224C165.977 248.299 165.613 248.336 165.352 248.336C164.381 248.336 163.625 248.205 163.084 247.944C162.561 247.664 162.169 247.309 161.908 246.88C161.665 246.451 161.516 245.975 161.46 245.452C161.422 244.911 161.404 244.369 161.404 243.828V236.912H158.492V234.728H161.404V231.004H163.924V234.728H167.536V236.912ZM170.787 226.832H173.307V236.772H173.363C173.68 236.063 174.231 235.493 175.015 235.064C175.799 234.616 176.704 234.392 177.731 234.392C178.365 234.392 178.972 234.495 179.551 234.7C180.148 234.887 180.661 235.185 181.091 235.596C181.539 236.007 181.893 236.539 182.155 237.192C182.416 237.827 182.547 238.583 182.547 239.46V248H180.027V240.16C180.027 239.544 179.943 239.021 179.775 238.592C179.607 238.144 179.383 237.789 179.103 237.528C178.823 237.248 178.496 237.052 178.123 236.94C177.768 236.809 177.395 236.744 177.003 236.744C176.48 236.744 175.995 236.828 175.547 236.996C175.099 237.164 174.707 237.435 174.371 237.808C174.035 238.163 173.773 238.62 173.587 239.18C173.4 239.74 173.307 240.403 173.307 241.168V248H170.787V226.832ZM194.138 234.728H196.49V236.8H196.546C196.602 236.613 196.742 236.38 196.966 236.1C197.209 235.82 197.508 235.559 197.862 235.316C198.236 235.055 198.665 234.84 199.15 234.672C199.654 234.485 200.205 234.392 200.802 234.392C201.792 234.392 202.622 234.597 203.294 235.008C203.966 235.419 204.517 236.035 204.946 236.856C205.376 236.035 205.982 235.419 206.766 235.008C207.55 234.597 208.344 234.392 209.146 234.392C210.173 234.392 211.013 234.56 211.666 234.896C212.32 235.232 212.833 235.68 213.206 236.24C213.58 236.781 213.832 237.407 213.962 238.116C214.112 238.807 214.186 239.525 214.186 240.272V248H211.666V240.608C211.666 240.104 211.629 239.619 211.554 239.152C211.498 238.685 211.368 238.275 211.162 237.92C210.957 237.565 210.668 237.285 210.294 237.08C209.921 236.856 209.426 236.744 208.81 236.744C207.597 236.744 206.729 237.117 206.206 237.864C205.684 238.611 205.422 239.572 205.422 240.748V248H202.902V241.056C202.902 240.421 202.865 239.843 202.79 239.32C202.734 238.797 202.604 238.349 202.398 237.976C202.212 237.584 201.932 237.285 201.558 237.08C201.204 236.856 200.718 236.744 200.102 236.744C199.654 236.744 199.216 236.837 198.786 237.024C198.376 237.192 198.012 237.453 197.694 237.808C197.377 238.163 197.125 238.62 196.938 239.18C196.752 239.721 196.658 240.365 196.658 241.112V248H194.138V234.728ZM219.886 242.288C219.886 242.867 220.007 243.399 220.25 243.884C220.511 244.351 220.847 244.752 221.258 245.088C221.669 245.424 222.145 245.685 222.686 245.872C223.227 246.059 223.787 246.152 224.366 246.152C225.15 246.152 225.831 245.975 226.41 245.62C226.989 245.247 227.521 244.761 228.006 244.164L229.91 245.62C228.51 247.431 226.55 248.336 224.03 248.336C222.985 248.336 222.033 248.159 221.174 247.804C220.334 247.449 219.615 246.964 219.018 246.348C218.439 245.713 217.991 244.976 217.674 244.136C217.357 243.277 217.198 242.353 217.198 241.364C217.198 240.375 217.366 239.46 217.702 238.62C218.057 237.761 218.533 237.024 219.13 236.408C219.746 235.773 220.474 235.279 221.314 234.924C222.154 234.569 223.069 234.392 224.058 234.392C225.234 234.392 226.223 234.597 227.026 235.008C227.847 235.419 228.519 235.96 229.042 236.632C229.565 237.285 229.938 238.032 230.162 238.872C230.405 239.693 230.526 240.533 230.526 241.392V242.288H219.886ZM227.838 240.272C227.819 239.712 227.726 239.199 227.558 238.732C227.409 238.265 227.175 237.864 226.858 237.528C226.541 237.173 226.139 236.903 225.654 236.716C225.187 236.511 224.637 236.408 224.002 236.408C223.386 236.408 222.817 236.529 222.294 236.772C221.79 236.996 221.361 237.295 221.006 237.668C220.651 238.041 220.371 238.461 220.166 238.928C219.979 239.376 219.886 239.824 219.886 240.272H227.838Z" fill="#151B4A"/>
<path d="M87 319C87 302.984 99.9837 290 116 290H240C256.016 290 269 302.984 269 319V567H87V319Z" fill="#37F9BD"/>
<path d="M295 319C295 302.984 307.984 290 324 290H448C464.016 290 477 302.984 477 319V567H295V319Z" fill="#37F9BD"/>
<path d="M503 319C503 302.984 515.984 290 532 290H589V538C589 554.016 576.016 567 560 567H503V319Z" fill="#37F9BD"/>
<rect x="108" y="339" width="140" height="69" rx="13" fill="white"/>
<rect x="108" y="466" width="64" height="88" rx="13" fill="white"/>
<rect x="178" y="466" width="64" height="88" rx="13" fill="white"/>
<path d="M248 479C248 471.82 253.82 466 261 466H269V554H261C253.82 554 248 548.18 248 541V479Z" fill="white"/>
<circle cx="122" cy="319" r="10" fill="white"/>
<path d="M138.5 319H164" stroke="url(#paint0_linear_1116_5341)" stroke-width="7" stroke-linecap="round"/>
<path d="M119 427H243" stroke="url(#paint1_linear_1116_5341)" stroke-width="7" stroke-linecap="round"/>
<path d="M119 440H243" stroke="url(#paint2_linear_1116_5341)" stroke-width="7" stroke-linecap="round"/>
<path d="M119 453H243" stroke="url(#paint3_linear_1116_5341)" stroke-width="7" stroke-linecap="round"/>
<rect x="316" y="339" width="140" height="69" rx="13" fill="white"/>
<circle cx="330" cy="319" r="10" fill="white"/>
<path d="M346.5 319H372" stroke="url(#paint4_linear_1116_5341)" stroke-width="7" stroke-linecap="round"/>
<path d="M320 522H451" stroke="url(#paint5_linear_1116_5341)" stroke-width="7" stroke-linecap="round"/>
<path d="M320 535H451" stroke="url(#paint6_linear_1116_5341)" stroke-width="7" stroke-linecap="round"/>
<path d="M320 548H451" stroke="url(#paint7_linear_1116_5341)" stroke-width="7" stroke-linecap="round"/>
<rect x="316" y="418" width="64" height="88" rx="13" fill="white"/>
<rect x="386" y="418" width="64" height="88" rx="13" fill="white"/>
<path d="M456 431C456 423.82 461.82 418 469 418H477V506H469C461.82 506 456 500.18 456 493V431Z" fill="white"/>
<path d="M519 352C519 344.82 524.82 339 532 339H589V461H532C524.82 461 519 455.18 519 448V352Z" fill="white"/>
<circle cx="533" cy="319" r="10" fill="white"/>
<circle cx="548.5" cy="502.5" r="25.5" fill="white"/>
<path d="M549.5 319H575" stroke="url(#paint8_linear_1116_5341)" stroke-width="7" stroke-linecap="round"/>
<path d="M523 548H569.5" stroke="url(#paint9_linear_1116_5341)" stroke-width="7" stroke-linecap="round"/>
<defs>
<linearGradient id="paint0_linear_1116_5341" x1="138.011" y1="319" x2="164.031" y2="319" gradientUnits="userSpaceOnUse">
<stop stop-color="white"/>
<stop offset="1" stop-color="white" stop-opacity="0"/>
</linearGradient>
<linearGradient id="paint1_linear_1116_5341" x1="116.624" y1="427" x2="243.149" y2="427" gradientUnits="userSpaceOnUse">
<stop stop-color="white"/>
<stop offset="1" stop-color="white" stop-opacity="0"/>
</linearGradient>
<linearGradient id="paint2_linear_1116_5341" x1="116.624" y1="440" x2="243.149" y2="440" gradientUnits="userSpaceOnUse">
<stop stop-color="white"/>
<stop offset="1" stop-color="white" stop-opacity="0"/>
</linearGradient>
<linearGradient id="paint3_linear_1116_5341" x1="116.624" y1="453" x2="243.149" y2="453" gradientUnits="userSpaceOnUse">
<stop stop-color="white"/>
<stop offset="1" stop-color="white" stop-opacity="0"/>
</linearGradient>
<linearGradient id="paint4_linear_1116_5341" x1="346.011" y1="319" x2="372.031" y2="319" gradientUnits="userSpaceOnUse">
<stop stop-color="white"/>
<stop offset="1" stop-color="white" stop-opacity="0"/>
</linearGradient>
<linearGradient id="paint5_linear_1116_5341" x1="317.49" y1="522" x2="451.157" y2="522" gradientUnits="userSpaceOnUse">
<stop stop-color="white"/>
<stop offset="1" stop-color="white" stop-opacity="0"/>
</linearGradient>
<linearGradient id="paint6_linear_1116_5341" x1="317.49" y1="535" x2="451.157" y2="535" gradientUnits="userSpaceOnUse">
<stop stop-color="white"/>
<stop offset="1" stop-color="white" stop-opacity="0"/>
</linearGradient>
<linearGradient id="paint7_linear_1116_5341" x1="317.49" y1="548" x2="451.157" y2="548" gradientUnits="userSpaceOnUse">
<stop stop-color="white"/>
<stop offset="1" stop-color="white" stop-opacity="0"/>
</linearGradient>
<linearGradient id="paint8_linear_1116_5341" x1="549.011" y1="319" x2="575.031" y2="319" gradientUnits="userSpaceOnUse">
<stop stop-color="white"/>
<stop offset="1" stop-color="white" stop-opacity="0"/>
</linearGradient>
<linearGradient id="paint9_linear_1116_5341" x1="520.49" y1="548" x2="654.157" y2="548" gradientUnits="userSpaceOnUse">
<stop stop-color="white"/>
<stop offset="0.379196" stop-color="white" stop-opacity="0"/>
</linearGradient>
</defs>
</svg>
