<svg xmlns="http://www.w3.org/2000/svg" width="386" height="281" fill="none" xmlns:v="https://vecta.io/nano"><g stroke="#75f7bb" stroke-width="10" stroke-linejoin="round"><path d="M5.5 275.833h375" stroke-linecap="round"/><path d="M47.168 25.833c0-5.525 2.195-10.824 6.102-14.731S62.476 5 68.001 5h250c5.526 0 10.825 2.195 14.732 6.102s6.102 9.206 6.102 14.731V192.5c0 5.525-2.195 10.824-6.102 14.731s-9.206 6.102-14.732 6.102h-250c-5.525 0-10.824-2.195-14.731-6.102s-6.102-9.206-6.102-14.731V25.833z"/></g><g fill="#3c5648"><rect x="69" y="72" width="37" height="54" rx="6"/><rect x="111" y="72" width="37" height="54" rx="6"/><rect x="153" y="72" width="37" height="54" rx="6"/><rect x="195" y="72" width="37" height="54" rx="6"/><rect x="237" y="72" width="37" height="54" rx="6"/><rect x="279" y="72" width="37" height="54" rx="6"/></g><rect x="68" y="25" width="253" height="31" rx="15.5" fill="#97f3bf" fill-opacity=".27"/><g clip-path="url(#A)" stroke="#fff" stroke-width="2" stroke-linejoin="round"><path d="M80 40.667c0 .613.121 1.22.355 1.786a4.67 4.67 0 0 0 2.526 2.526c.566.235 1.173.355 1.786.355s1.22-.121 1.786-.355 1.081-.578 1.514-1.012.777-.948 1.012-1.514.355-1.173.355-1.786-.121-1.22-.355-1.786a4.67 4.67 0 0 0-2.526-2.526c-.566-.235-1.173-.355-1.786-.355s-1.22.121-1.786.355a4.67 4.67 0 0 0-2.526 2.526c-.234.566-.355 1.173-.355 1.786z" stroke-opacity=".7"/><path d="M90 46l-.5-.5" stroke-opacity=".7" stroke-linecap="round"/></g><rect x="64" y="139" width="252" height="57" rx="10" fill="#3c5648"/><circle cx="83" cy="157" r="9" fill="#fff" fill-opacity=".57"/><g stroke-linecap="round" stroke="#abb6b0"><path d="M97.5 158h101" stroke-width="4"/><path d="M78 176h140M78 187h116" stroke-width="2"/></g><defs><clipPath id="A"><path fill="#fff" transform="translate(78 34)" d="M0 0h16v16H0z"/></clipPath></defs></svg>